<svg id="Group_2030" data-name="Group 2030" xmlns="http://www.w3.org/2000/svg" xmlns:xlink="http://www.w3.org/1999/xlink" width="316.765" height="444.749" viewBox="0 0 316.765 444.749">
  <defs>
    <clipPath id="clip-path">
      <rect id="Rectangle_3588" data-name="Rectangle 3588" width="316.765" height="444.749" fill="none"/>
    </clipPath>
  </defs>
  <g id="Group_2029" data-name="Group 2029" clip-path="url(#clip-path)">
    <path id="Path_18567" data-name="Path 18567" d="M3.754,28.665C2.22,28.665,0,26.727,0,25.073a4.434,4.434,0,0,1,4.56-3.915c1.291,0,2.7,1.614,2.7,3.148,0,1.776-1.978,4.359-3.511,4.359" transform="translate(0 -5.902)"/>
    <path id="Path_18568" data-name="Path 18568" d="M47.777,2.038a10.488,10.488,0,0,0-5.448,1.534,1.075,1.075,0,0,1-.485.121h-.766c.2-.444.242-1.049.565-1.291A13.293,13.293,0,0,1,48.948.5c4.479,0,7.587,2.139,7.587,5.529,0,2.3-1.493,5.085-2.865,7.224-1.655,2.5-4.6,6.5-7.547,6.5-.444,0-.847-.162-1.13-.162-.606,0-.807.4-.928,1.131-.4,2.663-.929,5.408-1.292,8.071-.2,1.291-1.13,1.816-1.977,2.421,0,.04-.04.04-.121.04-.969,0-1.493-.968-1.493-2.381,0-2.744,1.534-7.062,1.614-7.547,1.049-5.166,1.9-10.493,3.027-15.659a1.718,1.718,0,0,1,1.816-1.493c.484,0,.888.645.888,1.332a41.774,41.774,0,0,1-.807,5.408,2.039,2.039,0,0,0-.081.444c0,.323.081.645.081.928a5.127,5.127,0,0,0,1.372-.6c.807-.565,1.614-1.816,2.542-1.816h.444c-.565,2.3-4.036,4.076-4.036,6.659,0,.646.162,1.009.727,1.009.968,0,2.987-2.1,3.834-3.188,1.776-2.22,4.2-5.126,4.2-7.951,0-3.31-1.736-3.955-6.579-4.359Z" transform="translate(-10.93 -0.141)"/>
    <path id="Path_18569" data-name="Path 18569" d="M69.935,24.2a4.982,4.982,0,0,1-.081.726c-.363,2.341-.686,4.722-.968,7.063-.162,1.453-.363,3.108-1.332,3.108-.363,0-.686-.283-1.049-.767-1.13-1.332-.4-2.542-1.09-2.542-.242,0-1.614,1.211-2.986,1.211a2.056,2.056,0,0,1-1.978-2.26,9.96,9.96,0,0,1,3.914-7.587,20.27,20.27,0,0,1,2.987-1.372c1.736.2,2.583,1.009,2.583,2.421m-3.633.081a1.343,1.343,0,0,0-.928.283c-1.05,1.453-2.866,3.874-2.866,5,0,.2.2.929.686.929,1.291,0,2.987-3.31,4.157-5.207-.484-.766-.525-1.009-1.049-1.009" transform="translate(-16.864 -6.074)"/>
    <path id="Path_18570" data-name="Path 18570" d="M76.373,24.4c.363-2.018-.081-6.175,2.623-6.175a1.628,1.628,0,0,1,1.614,1.655v.2c-.808,3.551-1.7,7.143-2.583,10.654-.2.767-1.09,1.211-1.655,1.494-.363-.525-.969-1.211-.969-1.816v-.283a.149.149,0,0,0-.121-.081c.4-1.9.727-3.713,1.09-5.65m4.359-13.762c.766,0,1.332.323,1.332.928,0-.162-.766,2.139-1.776,2.139-.242,0-1.009-.847-1.251-1.05.04-1.452.686-2.017,1.7-2.017" transform="translate(-21.002 -2.967)"/>
    <path id="Path_18571" data-name="Path 18571" d="M91.981,26.473c-1.291,2.3-2.987,6.7-4.964,6.7-.928,0-1.211-.808-1.211-1.575,0-2.179.283-4.48.444-6.659l.242-2.018a1.435,1.435,0,0,1,1.494-1.372c1.009,0,1.291.727,1.291,1.493,0,.969-.2,2.018-.2,2.987a9.572,9.572,0,0,0,.2,1.049,3.17,3.17,0,0,0,.888-.726l1.574-2.7a4.159,4.159,0,0,1,2.623-1.614c.808,0,1.009.766,1.009,1.412a7.828,7.828,0,0,1-.081.968C94.806,28.289,94.321,32.123,93.8,36a2.442,2.442,0,0,1-.565,1.049,3.9,3.9,0,0,1-.4-1.211,104.061,104.061,0,0,1,.808-11.18c-.121,0-.161-.081-.283-.162a19.415,19.415,0,0,0-1.372,1.978" transform="translate(-23.937 -6.012)"/>
    <path id="Path_18572" data-name="Path 18572" d="M120.644,20.938c-.6,0-.928-1.211-1.413-1.211-.686,0-3.148,4.318-4.076,6.175-1.009,2.058-1.614,4.278-2.5,6.416-.6,1.454-1.251,1.575-2.139,2.1-.283-.524-.807-1.13-.807-1.655.161-2.219.524-4.4.807-6.579.242-1.937.161-7.708,2.744-7.708,1.089,0,1.574,1.816,1.816,3.108a14.675,14.675,0,0,0,1.372-1.373c1.17-1.452,2.422-4.036,4.2-4.036.848,0,.808.847,1.291,1.534-.363,1.493-.565,3.229-1.291,3.229" transform="translate(-30.605 -4.513)"/>
    <path id="Path_18573" data-name="Path 18573" d="M130.959,18.806a2.29,2.29,0,0,1,2.462,2.3c0,1.412-1.413,3.39-2.179,4.682-.969,1.574-3.027,2.139-3.027,4.2,0,.767-.121,1.9,1.211,1.9.807,0,1.534-.444,2.34-.444.444,0,.686.2.686.606,0,1.655-2.5,2.946-4.036,2.946-3.108,0-3.269-2.744-3.431-4.6.081-4.2,2.018-11.583,5.973-11.583m.162,2.26c-.888,0-1.453,2.3-1.776,3.229,0,.04-.04.04-.04.081,0,.162.283.525.485.525.6,0,1.493-1.978,2.1-2.906-.282-.363-.524-.928-.766-.928" transform="translate(-34.867 -5.246)"/>
    <path id="Path_18574" data-name="Path 18574" d="M142.676,5.881c.323-1.574.606-4.762,2.1-4.762,1.049.121,1.291,1.13,1.291,2.26-1.211,6.336-2.5,12.511-3.511,18.847a5.049,5.049,0,0,0-.121.767c0,.323.081.524.444.524a1.963,1.963,0,0,0,.6-.121c.081-.04.686.444.686.727,0,1.776-1.776,5.287-3.672,5.287-1.09,0-1.373-1.373-1.574-2.745.726-6.982,2.34-13.923,3.753-20.784" transform="translate(-38.756 -0.312)"/>
    <path id="Path_18575" data-name="Path 18575" d="M149.919,24.4c.363-2.018-.081-6.175,2.623-6.175a1.628,1.628,0,0,1,1.614,1.655v.2c-.808,3.551-1.7,7.143-2.583,10.654-.2.767-1.09,1.211-1.655,1.494-.363-.525-.969-1.211-.969-1.816v-.283a.149.149,0,0,0-.121-.081c.4-1.9.727-3.713,1.09-5.65m4.359-13.762c.766,0,1.332.323,1.332.928,0-.162-.766,2.139-1.776,2.139-.242,0-1.009-.847-1.251-1.05.04-1.452.686-2.017,1.7-2.017" transform="translate(-41.519 -2.967)"/>
    <path id="Path_18576" data-name="Path 18576" d="M165.325,18.806a2.29,2.29,0,0,1,2.462,2.3c0,1.412-1.412,3.39-2.179,4.682-.968,1.574-3.027,2.139-3.027,4.2,0,.767-.121,1.9,1.211,1.9.807,0,1.534-.444,2.34-.444.444,0,.686.2.686.606,0,1.655-2.5,2.946-4.036,2.946-3.108,0-3.269-2.744-3.431-4.6.081-4.2,2.018-11.583,5.973-11.583m.161,2.26c-.888,0-1.453,2.3-1.776,3.229,0,.04-.04.04-.04.081,0,.162.283.525.485.525.6,0,1.493-1.978,2.1-2.906-.282-.363-.524-.928-.766-.928" transform="translate(-44.455 -5.246)"/>
    <path id="Path_18577" data-name="Path 18577" d="M175.952,11.623c.767,0,1.17-.444,1.372-1.332C178.173,6.618,179.262,0,183.5,0c1.211,0,2.1,1.453,2.1,3.148a2.229,2.229,0,0,1-1.534,2.421c-.767,0-.929-1.493-1.413-1.493-.606,0-1.937,4.318-1.937,5.933,0,.444.363.6.727.6a1.837,1.837,0,0,0,.807-.2c1.614-1.211,3.39-2.422,4.8-3.633a6.976,6.976,0,0,1-.686,2.018,10.237,10.237,0,0,1-4.923,3.713,2.028,2.028,0,0,0-1.454,1.7c-.565,3.39-1.089,6.74-1.735,10.049-.727,3.713-.323,3.713-1.211,7.385-.161.646-1.655,2.5-2.3,2.5a1.369,1.369,0,0,1-1.453-1.534,1.118,1.118,0,0,1,.04-.363c1.049-5.448,1.816-9.525,3.229-17.273A3.415,3.415,0,0,0,176.72,14c0-1.089-1.655-.726-2.825-1.9.242-.121.766-.606,1.049-.606.161,0,.363.081.565.081a1.81,1.81,0,0,0,.444.04" transform="translate(-48.343)"/>
    <path id="Path_18578" data-name="Path 18578" d="M206.337,24.2a4.981,4.981,0,0,1-.081.726c-.363,2.341-.686,4.722-.968,7.063-.161,1.453-.363,3.108-1.332,3.108-.363,0-.686-.283-1.049-.767-1.13-1.332-.4-2.542-1.09-2.542-.242,0-1.614,1.211-2.986,1.211a2.056,2.056,0,0,1-1.978-2.26,9.959,9.959,0,0,1,3.914-7.587,20.27,20.27,0,0,1,2.986-1.372c1.736.2,2.583,1.009,2.583,2.421m-3.633.081a1.343,1.343,0,0,0-.928.283c-1.05,1.453-2.866,3.874-2.866,5,0,.2.2.929.686.929,1.291,0,2.987-3.31,4.157-5.207-.484-.766-.525-1.009-1.049-1.009" transform="translate(-54.916 -6.074)"/>
    <path id="Path_18579" data-name="Path 18579" d="M218.98,26.473c-1.291,2.3-2.986,6.7-4.964,6.7-.928,0-1.211-.808-1.211-1.575,0-2.179.283-4.48.443-6.659l.242-2.018a1.435,1.435,0,0,1,1.494-1.372c1.009,0,1.291.727,1.291,1.493,0,.969-.2,2.018-.2,2.987a9.574,9.574,0,0,0,.2,1.049,3.171,3.171,0,0,0,.888-.726l1.574-2.7a4.159,4.159,0,0,1,2.623-1.614c.808,0,1.009.766,1.009,1.412a7.83,7.83,0,0,1-.081.968C221.8,28.289,221.32,32.123,220.8,36a2.451,2.451,0,0,1-.565,1.049,3.9,3.9,0,0,1-.4-1.211,104.049,104.049,0,0,1,.808-11.18c-.121,0-.162-.081-.283-.162a19.306,19.306,0,0,0-1.372,1.978" transform="translate(-59.366 -6.012)"/>
    <path id="Path_18580" data-name="Path 18580" d="M228.39,23.672c0-3.632,1.412-8.758,4-8.758.848,0,1.534.968,2.26,1.816a3.324,3.324,0,0,0,.646-.888c1.251-3.511,2.462-6.578,4.116-11.138a1.341,1.341,0,0,1,1.332-1.009c1.13,0,1.453.485,1.453,1.009a6.708,6.708,0,0,1-.121.888c-.767,3.35-.888,4.6-1.655,7.91-.726,3.188-1.735,6.3-2.542,9.443-.848,3.39-1.453,9.484-3.794,9.484-.686,0-1.089-.726-1.089-2.017,0-.848.121-1.736.2-2.583a7.955,7.955,0,0,0-.162-1.372,5.37,5.37,0,0,0-1.291.606,2.435,2.435,0,0,1-1.534.888c-1.13,0-1.9-1.937-1.9-2.785,0-.4.081-.726.081-.928Zm1.978,1.937a2.3,2.3,0,0,0,1.13-.485,22.233,22.233,0,0,0,2.5-5.852c0-.808-1.413-1.978-1.978-1.978-.767,0-1.736,5-2.26,7.023.242.565.363,1.211.606,1.291" transform="translate(-63.692 -1.031)"/>
    <path id="Path_18581" data-name="Path 18581" d="M256.489,24.4c.363-2.018-.081-6.175,2.623-6.175a1.628,1.628,0,0,1,1.614,1.655v.2c-.807,3.551-1.7,7.143-2.583,10.654-.2.767-1.09,1.211-1.655,1.494-.363-.525-.969-1.211-.969-1.816v-.283a.149.149,0,0,0-.121-.081c.4-1.9.727-3.713,1.09-5.65m4.359-13.762c.766,0,1.332.323,1.332.928,0-.162-.766,2.139-1.776,2.139-.242,0-1.009-.847-1.251-1.05.04-1.452.686-2.017,1.7-2.017" transform="translate(-71.249 -2.967)"/>
    <path id="Path_18582" data-name="Path 18582" d="M272.1,26.473c-1.291,2.3-2.986,6.7-4.964,6.7-.928,0-1.211-.808-1.211-1.575,0-2.179.283-4.48.444-6.659l.241-2.018a1.435,1.435,0,0,1,1.494-1.372c1.009,0,1.291.727,1.291,1.493,0,.969-.2,2.018-.2,2.987a9.57,9.57,0,0,0,.2,1.049,3.169,3.169,0,0,0,.888-.726l1.574-2.7a4.159,4.159,0,0,1,2.623-1.614c.808,0,1.009.766,1.009,1.412a7.83,7.83,0,0,1-.081.968c-.485,3.875-.969,7.709-1.493,11.583a2.45,2.45,0,0,1-.565,1.049,3.9,3.9,0,0,1-.4-1.211,104.1,104.1,0,0,1,.808-11.18c-.121,0-.161-.081-.283-.162a19.413,19.413,0,0,0-1.372,1.978" transform="translate(-74.185 -6.012)"/>
    <path id="Path_18583" data-name="Path 18583" d="M284.089,11.623c.767,0,1.17-.444,1.372-1.332C286.31,6.618,287.4,0,291.637,0c1.211,0,2.1,1.453,2.1,3.148A2.229,2.229,0,0,1,292.2,5.569c-.767,0-.929-1.493-1.412-1.493-.606,0-1.937,4.318-1.937,5.933,0,.444.363.6.727.6a1.837,1.837,0,0,0,.807-.2c1.614-1.211,3.39-2.422,4.8-3.633A6.975,6.975,0,0,1,294.5,8.8a10.237,10.237,0,0,1-4.923,3.713,2.028,2.028,0,0,0-1.454,1.7c-.565,3.39-1.09,6.74-1.735,10.049-.727,3.713-.323,3.713-1.211,7.385-.161.646-1.655,2.5-2.3,2.5a1.369,1.369,0,0,1-1.453-1.534,1.116,1.116,0,0,1,.04-.363c1.049-5.448,1.816-9.525,3.229-17.273a3.416,3.416,0,0,0,.162-.969c0-1.089-1.655-.726-2.825-1.9.242-.121.766-.606,1.049-.606.162,0,.363.081.565.081a1.811,1.811,0,0,0,.444.04" transform="translate(-78.51)"/>
    <path id="Path_18584" data-name="Path 18584" d="M300.348,5.881c.323-1.574.606-4.762,2.1-4.762,1.049.121,1.291,1.13,1.291,2.26-1.211,6.336-2.5,12.511-3.511,18.847a5.045,5.045,0,0,0-.121.767c0,.323.081.524.444.524a1.963,1.963,0,0,0,.6-.121c.081-.04.686.444.686.727,0,1.776-1.776,5.287-3.672,5.287-1.09,0-1.373-1.373-1.575-2.745.727-6.982,2.341-13.923,3.754-20.784" transform="translate(-82.741 -0.312)"/>
    <path id="Path_18585" data-name="Path 18585" d="M316.545,24.2a4.874,4.874,0,0,1-.082.726c-.363,2.341-.686,4.722-.968,7.063-.161,1.453-.363,3.108-1.332,3.108-.363,0-.686-.283-1.049-.767-1.13-1.332-.4-2.542-1.09-2.542-.242,0-1.614,1.211-2.986,1.211a2.056,2.056,0,0,1-1.978-2.26,9.96,9.96,0,0,1,3.914-7.587,20.267,20.267,0,0,1,2.987-1.372c1.736.2,2.583,1.009,2.583,2.421m-3.633.081a1.343,1.343,0,0,0-.928.283c-1.05,1.453-2.866,3.874-2.866,5,0,.2.2.929.686.929,1.291,0,2.987-3.31,4.157-5.207-.484-.766-.525-1.009-1.049-1.009" transform="translate(-85.661 -6.074)"/>
    <path id="Path_18586" data-name="Path 18586" d="M337.018,33.851c-.081.363-.606.6-.928.888-.162-.4-.525-.807-.525-1.13.363-1.816.847-3.592,1.251-5.327l.888-3.956a5.03,5.03,0,0,0-.121-.766c-.242.081-.606.081-.767.242-1.493,1.655-2.623,3.713-4.036,5.57-.242.363-.808.485-1.211.645a3,3,0,0,1-.4-1.089c0-1.251.565-2.542.565-3.793a4.1,4.1,0,0,0-.242-1.009A13.6,13.6,0,0,0,326,31.55c-.363,1.17-1.251,2.3-1.9,2.3-.484,0-1.09-.727-1.09-1.9v-.283c.525-3.188,1.131-6.376,1.776-9.645a1.734,1.734,0,0,1,1.937-1.372c.928,0,1.17.928,1.17,1.775,0,.646-.242,1.292-.242,2.018,0,.363.121.766.162,1.17.444-.2.928-.2,1.211-.484,1.171-.888,2.382-2.663,3.511-2.663.525,0,.888,1.9.968,2.906.444-.565.969-.808,1.372-1.292,1.05-1.251,1.655-2.663,3.35-2.663.363,0,1.13.847,1.13,1.937v.363a1.442,1.442,0,0,0,.242.04c-.847,3.349-1.291,7.143-2.583,10.089" transform="translate(-90.111 -5.762)"/>
    <path id="Path_18587" data-name="Path 18587" d="M362.26,33.851c-.081.363-.606.6-.928.888-.161-.4-.525-.807-.525-1.13.363-1.816.847-3.592,1.251-5.327l.888-3.956a5.024,5.024,0,0,0-.12-.766c-.242.081-.606.081-.767.242-1.493,1.655-2.623,3.713-4.036,5.57-.242.363-.808.485-1.211.645a3.007,3.007,0,0,1-.4-1.089c0-1.251.565-2.542.565-3.793a4.131,4.131,0,0,0-.242-1.009,13.6,13.6,0,0,0-5.489,7.426c-.363,1.17-1.251,2.3-1.9,2.3-.484,0-1.09-.727-1.09-1.9v-.283c.525-3.188,1.131-6.376,1.776-9.645a1.734,1.734,0,0,1,1.937-1.372c.928,0,1.17.928,1.17,1.775,0,.646-.242,1.292-.242,2.018,0,.363.121.766.161,1.17.444-.2.928-.2,1.211-.484,1.17-.888,2.382-2.663,3.511-2.663.525,0,.888,1.9.968,2.906.444-.565.969-.808,1.372-1.292,1.05-1.251,1.655-2.663,3.35-2.663.363,0,1.13.847,1.13,1.937v.363a1.427,1.427,0,0,0,.242.04c-.847,3.349-1.291,7.143-2.583,10.089" transform="translate(-97.153 -5.762)"/>
    <path id="Path_18588" data-name="Path 18588" d="M382.424,24.2a4.984,4.984,0,0,1-.081.726c-.363,2.341-.686,4.722-.968,7.063-.162,1.453-.363,3.108-1.332,3.108-.363,0-.686-.283-1.049-.767-1.13-1.332-.4-2.542-1.09-2.542-.242,0-1.614,1.211-2.986,1.211a2.056,2.056,0,0,1-1.978-2.26,9.959,9.959,0,0,1,3.915-7.587,20.266,20.266,0,0,1,2.986-1.372c1.736.2,2.583,1.009,2.583,2.421m-3.633.081a1.343,1.343,0,0,0-.928.283c-1.05,1.453-2.866,3.874-2.866,5,0,.2.2.929.686.929,1.291,0,2.986-3.31,4.157-5.207-.484-.766-.525-1.009-1.049-1.009" transform="translate(-104.039 -6.074)"/>
    <path id="Path_18589" data-name="Path 18589" d="M392.444,12.533A8.626,8.626,0,0,0,392.726,11a.963.963,0,0,0-1.09-1.089c-.525,0-1.171.242-1.776.242a1.063,1.063,0,0,1-.969-.847c0-.807,1.251-.928,2.1-1.13,2.1-.363,2.825-1.211,2.825-3.188,0-.363-.04-.808-.04-1.211,0-1.574.606-3.552,2.5-3.552.808,0,.888.686.888,1.332,0,.848-.2,2.22-.2,3.067,0,.686.2.969.726.969.888,0,2.382-1.211,3.632-1.211a5.05,5.05,0,0,1,.767.121c-.2.242-.283.606-.525.767-1.937,1.332-5.126,2.865-5.53,4.682-.6,2.744-1.089,9.766-1.694,12.551a2.777,2.777,0,0,0-.081.525c0,.323.121.525.565.525a.985.985,0,0,0,.322-.041c.161,0,.727.525.727.686-.646,1.736-.646,3.794-2.3,5a2.553,2.553,0,0,1-1.332.645c-1.009,0-1.372-1.816-1.372-2.34,0-.363.04-.727.04-1.049-.081,0-.162-.041-.242-.041.606-3.188,1.17-10.694,1.776-13.883" transform="translate(-108.49 -0.062)"/>
    <path id="Path_18590" data-name="Path 18590" d="M402.687,24.4c.363-2.018-.081-6.175,2.623-6.175a1.628,1.628,0,0,1,1.614,1.655v.2c-.808,3.551-1.7,7.143-2.583,10.654-.2.767-1.09,1.211-1.655,1.494-.363-.525-.969-1.211-.969-1.816v-.283a.149.149,0,0,0-.12-.081c.4-1.9.726-3.713,1.09-5.65m4.359-13.762c.766,0,1.332.323,1.332.928,0-.162-.766,2.139-1.776,2.139-.242,0-1.009-.847-1.251-1.05.04-1.452.686-2.017,1.7-2.017" transform="translate(-112.034 -2.967)"/>
    <path id="Path_18591" data-name="Path 18591" d="M416.116,21.924a1.154,1.154,0,0,1,1.211,1.05,1.031,1.031,0,0,1-.2.645,12.742,12.742,0,0,0-2.543,7.507,5.706,5.706,0,0,0,.727,1.816c.524-.363,1.291-.606,1.453-1.049a18.558,18.558,0,0,0,1.856-6.982c0-.847-.4-1.736-.4-2.663,0-.646.242-.646.686-1.089,1.131,1.13,1.251,3.188,1.251,4.722,0,3.955-2.34,8.959-5.085,8.959-1.776,0-2.946-1.977-2.946-5.327.161-1.9,1.534-7.587,4-7.587" transform="translate(-114.97 -5.902)"/>
    <path id="Path_18592" data-name="Path 18592" d="M432.232,26.473c-1.291,2.3-2.986,6.7-4.964,6.7-.928,0-1.211-.808-1.211-1.575,0-2.179.283-4.48.444-6.659l.241-2.018a1.435,1.435,0,0,1,1.494-1.372c1.009,0,1.291.727,1.291,1.493,0,.969-.2,2.018-.2,2.987a9.577,9.577,0,0,0,.2,1.049,3.17,3.17,0,0,0,.888-.726l1.574-2.7a4.159,4.159,0,0,1,2.623-1.614c.808,0,1.009.766,1.009,1.412a7.83,7.83,0,0,1-.081.968c-.485,3.875-.969,7.709-1.493,11.583a2.45,2.45,0,0,1-.565,1.049,3.894,3.894,0,0,1-.4-1.211,104.069,104.069,0,0,1,.808-11.18c-.121,0-.161-.081-.283-.162a19.418,19.418,0,0,0-1.372,1.978" transform="translate(-118.858 -6.012)"/>
    <path id="Path_18593" data-name="Path 18593" d="M3.754,113.185C2.22,113.185,0,111.247,0,109.593a4.434,4.434,0,0,1,4.56-3.915c1.291,0,2.7,1.614,2.7,3.148,0,1.776-1.978,4.359-3.511,4.359" transform="translate(0 -29.481)"/>
    <path id="Path_18594" data-name="Path 18594" d="M51.663,100.12c.04-.363.081-.645.081-.888,0-.565-.2-.767-.766-.767-.242,0-.525.04-.888.081-2.382.525-5.771.162-6.3,2.663-.766,3.633-2.1,11.22-3.31,11.22-.565,0-.686-.525-.686-.847a10.236,10.236,0,0,1,.162-1.171c.4-2.906.928-5.731,1.453-8.556a4.9,4.9,0,0,0,.04-.726c0-.808-.363-1.009-1.574-1.009-.283,0-.606.081-.929.081-.4,0-.888-.121-.888-.766,0-1.131.968-.969,1.776-1.05,2.1-.242,2.3-.4,2.663-2.462.525-2.987.848-10.291,2.986-10.291.485,0,1.009.888,1.009,1.251-.081,3.188-1.654,6.3-1.654,9.525,0,.6.282.888.968.888,1.614,0,6.579-.4,6.7-1.857.767-3.551,1.412-7.1,2.059-10.574.162-.928.081-1.857,1.857-1.857.888,0,1.372.444,1.372,1.454a3.052,3.052,0,0,1-.04.6c-.323,3.067-.969,6.175-1.534,9.283-.04.081-.121.162-.121.242,0,.363.162.766.162,1.13,0,1.978-1.372,3.673-1.534,5.69-.2,2.341-.808,4.641-1.211,6.982-.363,1.9-.565,3.753-1.009,5.65-.04.323-.443.606-.686.968-.363-.283-.888-.524-1.009-.888-.282-1.372-.443-2.744-.645-4.4.444-3.067.968-6.336,1.493-9.606" transform="translate(-10.618 -23.157)"/>
    <path id="Path_18595" data-name="Path 18595" d="M73.084,103.326a2.29,2.29,0,0,1,2.462,2.3c0,1.412-1.412,3.39-2.179,4.682-.969,1.574-3.027,2.139-3.027,4.2,0,.767-.121,1.9,1.211,1.9.807,0,1.534-.444,2.34-.444.444,0,.686.2.686.606,0,1.655-2.5,2.946-4.036,2.946-3.108,0-3.269-2.744-3.431-4.6.081-4.2,2.018-11.583,5.973-11.583m.162,2.26c-.888,0-1.453,2.3-1.776,3.229,0,.04-.04.04-.04.081,0,.162.283.525.485.525.6,0,1.493-1.978,2.1-2.906-.282-.363-.524-.928-.766-.928" transform="translate(-18.722 -28.825)"/>
    <path id="Path_18596" data-name="Path 18596" d="M84.8,90.4c.323-1.574.606-4.762,2.1-4.762,1.049.121,1.291,1.13,1.291,2.26-1.211,6.336-2.5,12.511-3.511,18.847a5.05,5.05,0,0,0-.121.767c0,.323.081.524.444.524a1.963,1.963,0,0,0,.6-.121c.081-.04.686.444.686.727,0,1.776-1.776,5.287-3.672,5.287-1.09,0-1.373-1.372-1.574-2.744.726-6.982,2.34-13.923,3.753-20.784" transform="translate(-22.61 -23.891)"/>
    <path id="Path_18597" data-name="Path 18597" d="M91.247,118.46c.444-3.148,1.009-6.215,1.372-9.323.2-1.614-.2-4.641,1.332-4.641,1.412.08,2.22,1.816,2.583,1.816.444,0,1.574-1.977,2.744-1.977,1.373,0,2.1,1.453,2.1,2.5a2.293,2.293,0,0,1-.04.524c-.565,3.27-2.059,10.05-5.731,10.05-.242,0-1.13.363-1.17.847-.808,4.117-1.09,8.233-2.462,12.188-.2.4-.847.646-1.251.969a4.192,4.192,0,0,1-.766-1.816c0-.323.04-.645.04-.929-.04,0-.081-.08-.162-.08ZM99.884,107a.992.992,0,0,0-.766-.848c-1.05,0-2.18,3.188-2.866,4.641,0,.04-.04.121-.04.162,0,.727.807,1.574,1.654,2.542a19.329,19.329,0,0,0,2.018-6.5" transform="translate(-25.061 -29.106)"/>
    <path id="Path_18598" data-name="Path 18598" d="M106.717,108.079a1.088,1.088,0,0,1,.2-.645,67.411,67.411,0,0,1,4-6.013,1.524,1.524,0,0,1,1.211-.444c.646,0,1.089.242,1.089,1.534,0,1.17-.443,3.067-1.17,3.067-.4,0-.928-1.049-1.332-1.049-.6,0-.928,1.856-1.13,2.744a10.611,10.611,0,0,0,2.219.363h.4c2.3,0,3.713,1.251,3.713,3.148,0,3.431-3.431,6.579-5.892,8.6-1.534,1.251-3.108,2.34-5.085,2.34a1.736,1.736,0,0,1-1.9-1.7c0-1.978,2.7-4.359,4.439-5.448a.543.543,0,0,1,.363-.081h.444a1.59,1.59,0,0,1-.162.847c-.323.565-1.412,1.857-1.412,2.422,0,.484.121.484.524.484.565,0,2.3-1.493,2.785-2.058,1.251-1.453,3.269-3.713,3.269-5.287,0-.968-.969-1.493-2.26-1.493-.2,0-.444.121-.645.121-1.292-.04-3.673-.04-3.673-1.453" transform="translate(-28.746 -28.169)"/>
    <path id="Path_18599" data-name="Path 18599" d="M134.757,96.143c.767,0,1.17-.444,1.372-1.332.848-3.673,1.937-10.291,6.175-10.291,1.211,0,2.1,1.453,2.1,3.148a2.229,2.229,0,0,1-1.534,2.421c-.767,0-.929-1.493-1.413-1.493-.606,0-1.937,4.318-1.937,5.933,0,.444.363.6.727.6a1.837,1.837,0,0,0,.807-.2c1.614-1.211,3.39-2.422,4.8-3.633a6.975,6.975,0,0,1-.686,2.018,10.237,10.237,0,0,1-4.923,3.713,2.028,2.028,0,0,0-1.454,1.7c-.565,3.39-1.089,6.74-1.735,10.049-.727,3.713-.323,3.713-1.211,7.385-.161.646-1.655,2.5-2.3,2.5a1.369,1.369,0,0,1-1.453-1.534,1.118,1.118,0,0,1,.04-.363c1.049-5.448,1.816-9.525,3.229-17.273a3.415,3.415,0,0,0,.162-.969c0-1.089-1.655-.726-2.825-1.9.242-.121.766-.606,1.049-.606.162,0,.363.081.565.081a1.811,1.811,0,0,0,.444.04" transform="translate(-36.85 -23.579)"/>
    <path id="Path_18600" data-name="Path 18600" d="M147.232,108.917c.363-2.018-.081-6.175,2.623-6.175a1.628,1.628,0,0,1,1.614,1.655v.2c-.807,3.551-1.7,7.143-2.583,10.654-.2.767-1.09,1.211-1.655,1.494-.363-.525-.969-1.211-.969-1.816v-.283a.149.149,0,0,0-.121-.081c.4-1.9.727-3.713,1.09-5.65m4.359-13.762c.766,0,1.332.323,1.332.928,0-.161-.766,2.139-1.776,2.139-.242,0-1.009-.847-1.251-1.05.04-1.452.686-2.017,1.7-2.017" transform="translate(-40.769 -26.546)"/>
    <path id="Path_18601" data-name="Path 18601" d="M148.27,128.638a.536.536,0,0,1,.606-.606c.766,0,1.453.242,2.017.242,1.291,0,2.1-.6,3.108-2.3a38.76,38.76,0,0,0,4.157-10.291,13.975,13.975,0,0,0,.565-2.462c0-.363-.161-.565-.525-.565-.4,0-1.049.2-1.453.2-1.251,0-1.937-.848-1.937-2.422a5.976,5.976,0,0,1,5.246-5.771c.767,0,1.251-.443,2.26-.443.645,0,1.332-.121,1.332,1.13a1.5,1.5,0,0,1-.081.484c-1.05,4.722-1.978,9.484-3.35,14.126-1.17,4.036-2.865,7.91-6.417,10.574a25.037,25.037,0,0,1-2.381,1.049c-1.453-.242-3.148-1.453-3.148-2.946m8.838-17.757a1.267,1.267,0,0,0,.848-.283c.6-.726,2.3-2.5,2.3-3.35,0-.2-.04-.443-.04-.726v-.162c-.283,0-.646-.081-.928-.081-1.493,0-2.543,2.543-2.865,3.956.161.363.161.645.686.645" transform="translate(-41.363 -29.074)"/>
    <path id="Path_18602" data-name="Path 18602" d="M181.042,109.159a6.88,6.88,0,0,0-.121,1.049c0,.929,1.736.363,1.736,1.372v.081c-.766,1.17-1.937,3.511-2.906,3.511-.808,0-1.17-.726-1.17-1.857a9.227,9.227,0,0,1,.121-1.493c.443-2.906.968-5.771,1.291-8.677,0-.121.04-.242.04-.4,0-.645-.242-1.291-.322-2.017a11.024,11.024,0,0,0-1.7,1.654c-1.534,2.382-3.027,4.8-4.561,7.225a1.2,1.2,0,0,1-.808.524c-1.009,0-.766-2.017-.766-3.309a17.765,17.765,0,0,1,.2-2.946c1.009-6.014,2.34-11.987,3.431-18,.322-1.211.121-3.591,1.332-3.591a2.006,2.006,0,0,1,1.453,1.7,4,4,0,0,1-.081.726c-.485,5.488-1.736,10.574-2.7,15.78v.2a8.621,8.621,0,0,0,.121,1.17,4.04,4.04,0,0,0,1.17-.808c1.13-1.049,1.655-2.542,3.39-2.542.766,0,1.856,1.332,1.856,2.542,0,.4-.081.848-.081,1.251a.439.439,0,0,0,.2.04c-.363,2.26-.686,4.52-1.13,6.821" transform="translate(-47.942 -22.954)"/>
    <path id="Path_18603" data-name="Path 18603" d="M192.625,97.053a8.626,8.626,0,0,0,.283-1.534.963.963,0,0,0-1.089-1.089c-.525,0-1.171.242-1.776.242a1.063,1.063,0,0,1-.969-.847c0-.807,1.251-.928,2.1-1.13,2.1-.363,2.825-1.211,2.825-3.188,0-.363-.04-.808-.04-1.211,0-1.574.606-3.552,2.5-3.552.808,0,.888.686.888,1.332,0,.848-.2,2.22-.2,3.067,0,.686.2.969.726.969.888,0,2.382-1.211,3.633-1.211a5.049,5.049,0,0,1,.767.121c-.2.242-.283.606-.525.767-1.937,1.332-5.126,2.865-5.53,4.682-.6,2.744-1.09,9.766-1.694,12.551a2.778,2.778,0,0,0-.081.525c0,.323.121.525.565.525a.985.985,0,0,0,.322-.041c.162,0,.727.525.727.686-.646,1.736-.646,3.794-2.3,5a2.554,2.554,0,0,1-1.332.645c-1.009,0-1.372-1.816-1.372-2.34,0-.363.04-.727.04-1.049-.081,0-.162-.041-.242-.041.606-3.188,1.17-10.694,1.776-13.883" transform="translate(-52.746 -23.641)"/>
    <path id="Path_18604" data-name="Path 18604" d="M217.988,110.239c-.565-.807-.848-1.332-1.211-1.332a1.048,1.048,0,0,0-.686.443,9.029,9.029,0,0,0-1.574,5.53,1.262,1.262,0,0,0,1.372,1.251c.808,0,1.857-.968,2.583-.968.242,0,.524,0,.524.484,0,1.292-2.744,2.664-4.237,2.664-2.663,0-2.906-3.188-2.906-4.52a7.686,7.686,0,0,1,3.229-6.579,3.41,3.41,0,0,1,2.179-.808c.888,0,1.251.525,1.251,1.615v.363a4.911,4.911,0,0,1-.524,1.857" transform="translate(-59.101 -29.684)"/>
    <path id="Path_18605" data-name="Path 18605" d="M233.483,108.715a4.884,4.884,0,0,1-.082.726c-.363,2.341-.686,4.722-.968,7.063-.162,1.453-.363,3.108-1.332,3.108-.363,0-.686-.283-1.049-.767-1.13-1.332-.4-2.542-1.09-2.542-.242,0-1.614,1.211-2.986,1.211a2.056,2.056,0,0,1-1.978-2.26,9.96,9.96,0,0,1,3.914-7.587,20.268,20.268,0,0,1,2.986-1.372c1.736.2,2.583,1.009,2.583,2.421m-3.633.081a1.343,1.343,0,0,0-.928.283c-1.05,1.453-2.866,3.874-2.866,5,0,.2.2.929.686.929,1.291,0,2.987-3.31,4.157-5.207-.484-.766-.525-1.009-1.049-1.009" transform="translate(-62.489 -29.653)"/>
    <path id="Path_18606" data-name="Path 18606" d="M246.126,110.993c-1.291,2.3-2.987,6.7-4.964,6.7-.928,0-1.211-.808-1.211-1.575,0-2.179.283-4.48.443-6.659l.242-2.018a1.435,1.435,0,0,1,1.494-1.372c1.009,0,1.291.727,1.291,1.493,0,.969-.2,2.018-.2,2.987a9.569,9.569,0,0,0,.2,1.049,3.172,3.172,0,0,0,.888-.726l1.574-2.7a4.159,4.159,0,0,1,2.623-1.614c.807,0,1.009.766,1.009,1.412a7.818,7.818,0,0,1-.081.968c-.484,3.875-.969,7.709-1.493,11.583a2.449,2.449,0,0,1-.565,1.049,3.9,3.9,0,0,1-.4-1.211,104.069,104.069,0,0,1,.808-11.18c-.121,0-.161-.081-.283-.162a19.412,19.412,0,0,0-1.372,1.978" transform="translate(-66.939 -29.59)"/>
    <path id="Path_18607" data-name="Path 18607" d="M261.59,110.239c-.565-.807-.848-1.332-1.211-1.332a1.048,1.048,0,0,0-.686.443,9.029,9.029,0,0,0-1.574,5.53,1.262,1.262,0,0,0,1.372,1.251c.808,0,1.857-.968,2.583-.968.242,0,.524,0,.524.484,0,1.292-2.744,2.664-4.238,2.664-2.663,0-2.906-3.188-2.906-4.52a7.686,7.686,0,0,1,3.229-6.579,3.41,3.41,0,0,1,2.179-.808c.888,0,1.251.525,1.251,1.615v.363a4.912,4.912,0,0,1-.524,1.857" transform="translate(-71.265 -29.684)"/>
    <path id="Path_18608" data-name="Path 18608" d="M274.134,103.326a2.29,2.29,0,0,1,2.462,2.3c0,1.412-1.412,3.39-2.179,4.682-.969,1.574-3.027,2.139-3.027,4.2,0,.767-.121,1.9,1.211,1.9.807,0,1.534-.444,2.34-.444.444,0,.686.2.686.606,0,1.655-2.5,2.946-4.036,2.946-3.108,0-3.269-2.744-3.431-4.6.081-4.2,2.018-11.583,5.973-11.583m.161,2.26c-.888,0-1.453,2.3-1.776,3.229,0,.04-.04.04-.04.081,0,.162.283.525.485.525.6,0,1.493-1.978,2.1-2.906-.282-.363-.524-.928-.766-.928" transform="translate(-74.809 -28.825)"/>
    <path id="Path_18609" data-name="Path 18609" d="M292.475,105.458c-.606,0-.929-1.211-1.413-1.211-.686,0-3.147,4.318-4.076,6.175-1.009,2.058-1.614,4.278-2.5,6.416-.606,1.454-1.252,1.574-2.139,2.1-.283-.525-.808-1.13-.808-1.655.161-2.219.525-4.4.808-6.579.242-1.937.162-7.708,2.744-7.708,1.089,0,1.573,1.816,1.816,3.108a14.509,14.509,0,0,0,1.372-1.373c1.17-1.452,2.423-4.036,4.2-4.036.848,0,.808.847,1.291,1.534-.362,1.493-.564,3.229-1.291,3.229" transform="translate(-78.541 -28.091)"/>
    <path id="Path_18610" data-name="Path 18610" d="M3.754,197.7C2.22,197.7,0,195.767,0,194.112a4.434,4.434,0,0,1,4.56-3.915c1.291,0,2.7,1.614,2.7,3.148,0,1.776-1.978,4.359-3.511,4.359" transform="translate(0 -53.06)"/>
    <path id="Path_18611" data-name="Path 18611" d="M58.957,197.255c.162.2.4.4.444.645a47.6,47.6,0,0,1,.645,6.821,22.6,22.6,0,0,1-.162,2.381c-.161,1.09-1.412,2.543-2.3,2.543a3.013,3.013,0,0,1-2.18-1.089,55.312,55.312,0,0,1-4.842-7.749c-1.655-3.35-2.946-6.861-4.48-10.332-.121-.323-.485-.526-.808-.848-.2.322-.6.686-.686,1.009-.283,1.9-.525,3.834-.767,5.731-.121,1.049-.4,2.179-1.534,2.381a4.038,4.038,0,0,1-1.17-2.22A22.916,22.916,0,0,1,41,194.148c0-1.089.2-2.26.2-3.35,0-1.332-.726-1.372-2.018-2.865a9.27,9.27,0,0,1,1.13-.283h.444a1.027,1.027,0,0,0,1.17-.968c.525-3.067,1.09-6.135,1.655-9.2v-.4c.283-1.655,1.009-2.623,2.139-2.623,1.009,0,1.574.6,1.574,1.857a7.632,7.632,0,0,1-.121,1.251c-.444,2.462-.968,4.924-1.453,7.426a.364.364,0,0,0-.04.2,4.065,4.065,0,0,0,.2,1.009,4.613,4.613,0,0,0,1.251-.363c3.31-2.664,7.466-7.184,7.466-11.22,0-2.946-1.412-4.52-3.914-4.52a11.9,11.9,0,0,0-6.7,2.017c-.4.242-.968.121-1.453.2.242-.484.283-1.17.646-1.372a11.739,11.739,0,0,1,7.062-2.462,12.311,12.311,0,0,1,2.421.242c2.22.4,3.915,3.31,3.915,6.013,0,2.946-2.018,5.973-3.794,8.192-1.332,1.655-4.4,4.077-4.4,5.328a4.024,4.024,0,0,0,.767,1.9,44.332,44.332,0,0,1,1.937,4.2A100.718,100.718,0,0,0,55.93,204.4c.162.363.767.565,1.17.808a5.1,5.1,0,0,0,.525-1.736,3.224,3.224,0,0,0-.121-.6h-.2c.363-1.694.646-4.8,1.655-5.61" transform="translate(-10.93 -47.001)"/>
    <path id="Path_18612" data-name="Path 18612" d="M71.294,187.846a2.29,2.29,0,0,1,2.462,2.3c0,1.412-1.412,3.39-2.179,4.682-.969,1.574-3.027,2.139-3.027,4.2,0,.767-.121,1.9,1.211,1.9.807,0,1.534-.444,2.34-.444.444,0,.686.2.686.606,0,1.655-2.5,2.946-4.036,2.946-3.108,0-3.269-2.744-3.431-4.6.081-4.2,2.018-11.583,5.973-11.583m.162,2.26c-.888,0-1.453,2.3-1.776,3.229,0,.04-.04.04-.04.081,0,.161.283.524.485.524.6,0,1.493-1.977,2.1-2.906-.282-.363-.524-.928-.766-.928" transform="translate(-18.223 -52.404)"/>
    <path id="Path_18613" data-name="Path 18613" d="M83.011,174.921c.323-1.573.606-4.761,2.1-4.761,1.049.121,1.291,1.13,1.291,2.26-1.211,6.336-2.5,12.511-3.511,18.846a5.05,5.05,0,0,0-.121.767c0,.323.081.526.444.526a1.967,1.967,0,0,0,.6-.122c.081-.04.686.444.686.727,0,1.775-1.776,5.287-3.672,5.287-1.09,0-1.373-1.373-1.575-2.745.727-6.982,2.341-13.923,3.754-20.785" transform="translate(-22.11 -47.47)"/>
    <path id="Path_18614" data-name="Path 18614" d="M90.254,193.436c.363-2.017-.081-6.175,2.623-6.175a1.628,1.628,0,0,1,1.614,1.655v.2c-.808,3.552-1.7,7.143-2.583,10.655-.2.767-1.09,1.211-1.655,1.493-.363-.524-.969-1.211-.969-1.816v-.282a.15.15,0,0,0-.121-.081c.4-1.9.727-3.713,1.09-5.65m4.359-13.762c.766,0,1.332.322,1.332.928,0-.161-.766,2.139-1.776,2.139-.242,0-1.009-.847-1.251-1.049.04-1.453.686-2.017,1.7-2.017" transform="translate(-24.874 -50.124)"/>
    <path id="Path_18615" data-name="Path 18615" d="M105.66,187.846a2.29,2.29,0,0,1,2.462,2.3c0,1.412-1.412,3.39-2.178,4.682-.969,1.574-3.028,2.139-3.028,4.2,0,.767-.121,1.9,1.211,1.9.808,0,1.534-.444,2.34-.444.444,0,.686.2.686.606,0,1.655-2.5,2.946-4.035,2.946-3.108,0-3.27-2.744-3.431-4.6.08-4.2,2.017-11.583,5.972-11.583m.162,2.26c-.888,0-1.454,2.3-1.777,3.229,0,.04-.04.04-.04.081,0,.161.283.524.485.524.6,0,1.493-1.977,2.1-2.906-.281-.363-.523-.928-.766-.928" transform="translate(-27.81 -52.404)"/>
    <path id="Path_18616" data-name="Path 18616" d="M115.036,189.826c1.453,0,1.614.686,1.614,1.776q-.121,1.272-.121,2.542a2.041,2.041,0,0,0,.646,1.614c1.493-1.251,2.542-3.592,3.793-5.408.161-.525.808-.767,1.453-1.049a.509.509,0,0,0-.04.242c0,.162.04.283.04.4a1.179,1.179,0,0,1-.081.363c-1.211,2.623-2.5,5.287-3.713,7.951-.4.888-.525,1.9-.929,2.744-.443.928-1.534,2.623-2.381,2.623-1.655,0-1.7-4.157-1.7-5.771v-6.377c.081-.928.323-1.655,1.412-1.655" transform="translate(-31.698 -52.81)"/>
    <path id="Path_18617" data-name="Path 18617" d="M132.918,187.846a2.29,2.29,0,0,1,2.462,2.3c0,1.412-1.412,3.39-2.178,4.682-.97,1.574-3.028,2.139-3.028,4.2,0,.767-.121,1.9,1.211,1.9.807,0,1.534-.444,2.34-.444.444,0,.686.2.686.606,0,1.655-2.5,2.946-4.035,2.946-3.108,0-3.269-2.744-3.431-4.6.081-4.2,2.017-11.583,5.972-11.583m.162,2.26c-.889,0-1.454,2.3-1.777,3.229,0,.04-.04.04-.04.081,0,.161.283.524.485.524.6,0,1.493-1.977,2.1-2.906-.281-.363-.523-.928-.766-.928" transform="translate(-35.414 -52.404)"/>
    <path id="Path_18618" data-name="Path 18618" d="M156.012,195.513c-1.291,2.3-2.987,6.7-4.964,6.7-.928,0-1.211-.808-1.211-1.574,0-2.179.283-4.48.443-6.659l.242-2.018a1.435,1.435,0,0,1,1.494-1.372c1.009,0,1.291.726,1.291,1.493,0,.969-.2,2.018-.2,2.986a9.57,9.57,0,0,0,.2,1.049,3.17,3.17,0,0,0,.888-.726l1.574-2.7a4.16,4.16,0,0,1,2.623-1.615c.808,0,1.009.767,1.009,1.413a7.836,7.836,0,0,1-.081.968c-.485,3.874-.969,7.708-1.493,11.583a2.449,2.449,0,0,1-.565,1.05,3.9,3.9,0,0,1-.4-1.211,104.048,104.048,0,0,1,.808-11.18c-.121,0-.162-.081-.283-.162a19.234,19.234,0,0,0-1.372,1.978" transform="translate(-41.8 -53.169)"/>
    <path id="Path_18619" data-name="Path 18619" d="M174.266,193.235a4.985,4.985,0,0,1-.081.725c-.363,2.341-.686,4.723-.968,7.063-.162,1.453-.363,3.108-1.332,3.108-.363,0-.686-.283-1.049-.766-1.13-1.332-.4-2.543-1.09-2.543-.242,0-1.614,1.211-2.986,1.211a2.056,2.056,0,0,1-1.978-2.26,9.96,9.96,0,0,1,3.914-7.587,20.337,20.337,0,0,1,2.986-1.372c1.736.2,2.583,1.009,2.583,2.422m-3.633.08a1.343,1.343,0,0,0-.928.283c-1.05,1.453-2.866,3.874-2.866,5,0,.2.2.929.686.929,1.291,0,2.986-3.31,4.157-5.207-.484-.766-.525-1.009-1.049-1.009" transform="translate(-45.969 -53.231)"/>
    <path id="Path_18620" data-name="Path 18620" d="M182.187,190.712c.121-.645.444-1.13,1.089-1.13.767,0,.968.4.968.686s-.12.606-.12.888c-.4,2.5-.808,5.085-1.131,7.587a6.128,6.128,0,0,0,.485,1.454c.363-.323.848-.525,1.049-.929,1.614-2.744,3.188-5.61,4.722-8.355.283-.565.565-1.048,1.089-1.048a1.48,1.48,0,0,1,1.494,1.453,2.731,2.731,0,0,1-.081.524c-.686,2.865-1.372,5.731-1.977,8.6a2.739,2.739,0,0,0-.081.807,21.311,21.311,0,0,0,.444,2.3c0,.646-1.05,1.372-1.736,1.372-1.252,0-1.7-2.946-2.139-4.2-1.816.808-2.421,2.382-3.632,2.382-.686,0-1.291-.485-1.574-1.453-.161-.606-.121-1.332-.323-2.018.443-2.946.928-5.973,1.453-8.919" transform="translate(-50.42 -52.888)"/>
    <path id="Path_18621" data-name="Path 18621" d="M197,192.6a1.09,1.09,0,0,1,.2-.645,67.516,67.516,0,0,1,4-6.013,1.524,1.524,0,0,1,1.211-.444c.646,0,1.089.242,1.089,1.534,0,1.17-.443,3.067-1.17,3.067-.4,0-.928-1.049-1.332-1.049-.6,0-.928,1.857-1.13,2.744a10.615,10.615,0,0,0,2.219.363h.4c2.3,0,3.713,1.251,3.713,3.147,0,3.431-3.431,6.579-5.892,8.6-1.534,1.251-3.108,2.34-5.085,2.34a1.736,1.736,0,0,1-1.9-1.694c0-1.979,2.7-4.359,4.439-5.449a.543.543,0,0,1,.363-.081h.444a1.591,1.591,0,0,1-.161.847c-.323.565-1.413,1.857-1.413,2.422,0,.484.121.484.524.484.565,0,2.3-1.493,2.785-2.058,1.251-1.453,3.269-3.713,3.269-5.287,0-.968-.969-1.493-2.26-1.493-.2,0-.444.121-.646.121-1.291-.04-3.672-.04-3.672-1.453" transform="translate(-53.933 -51.748)"/>
    <path id="Path_18622" data-name="Path 18622" d="M219.394,187.846a2.29,2.29,0,0,1,2.462,2.3c0,1.412-1.412,3.39-2.178,4.682-.97,1.574-3.028,2.139-3.028,4.2,0,.767-.121,1.9,1.211,1.9.807,0,1.534-.444,2.34-.444.444,0,.686.2.686.606,0,1.655-2.5,2.946-4.035,2.946-3.108,0-3.27-2.744-3.431-4.6.081-4.2,2.018-11.583,5.973-11.583m.162,2.26c-.889,0-1.454,2.3-1.777,3.229,0,.04-.04.04-.04.081,0,.161.283.524.485.524.6,0,1.493-1.977,2.1-2.906-.281-.363-.523-.928-.766-.928" transform="translate(-59.538 -52.404)"/>
    <path id="Path_18623" data-name="Path 18623" d="M236.283,193.235a4.98,4.98,0,0,1-.081.725c-.363,2.341-.686,4.723-.968,7.063-.162,1.453-.363,3.108-1.332,3.108-.363,0-.686-.283-1.049-.766-1.13-1.332-.4-2.543-1.09-2.543-.242,0-1.614,1.211-2.986,1.211a2.056,2.056,0,0,1-1.978-2.26,9.96,9.96,0,0,1,3.914-7.587,20.338,20.338,0,0,1,2.986-1.372c1.736.2,2.583,1.009,2.583,2.422m-3.633.08a1.343,1.343,0,0,0-.928.283c-1.05,1.453-2.866,3.874-2.866,5,0,.2.2.929.686.929,1.291,0,2.987-3.31,4.157-5.207-.484-.766-.525-1.009-1.049-1.009" transform="translate(-63.27 -53.231)"/>
    <path id="Path_18624" data-name="Path 18624" d="M3.754,282.224C2.22,282.224,0,280.287,0,278.632a4.434,4.434,0,0,1,4.56-3.915c1.291,0,2.7,1.614,2.7,3.148,0,1.776-1.978,4.359-3.511,4.359" transform="translate(0 -76.638)"/>
    <path id="Path_18625" data-name="Path 18625" d="M47.777,255.6a10.488,10.488,0,0,0-5.448,1.534,1.075,1.075,0,0,1-.485.121h-.766c.2-.444.242-1.049.565-1.291a13.287,13.287,0,0,1,7.305-1.9c4.479,0,7.587,2.139,7.587,5.529,0,2.3-1.493,5.085-2.865,7.224-1.655,2.5-4.6,6.5-7.547,6.5-.444,0-.847-.162-1.13-.162-.606,0-.807.4-.928,1.131-.4,2.663-.929,5.408-1.292,8.071-.2,1.291-1.13,1.816-1.977,2.421,0,.04-.04.04-.121.04-.969,0-1.493-.968-1.493-2.381,0-2.744,1.534-7.063,1.614-7.547,1.049-5.166,1.9-10.493,3.027-15.659a1.718,1.718,0,0,1,1.816-1.493c.484,0,.888.646.888,1.332a41.773,41.773,0,0,1-.807,5.408,2.034,2.034,0,0,0-.081.443c0,.323.081.646.081.929a5.11,5.11,0,0,0,1.372-.606c.807-.565,1.614-1.816,2.542-1.816h.444c-.565,2.3-4.036,4.077-4.036,6.659,0,.646.162,1.009.727,1.009.968,0,2.987-2.1,3.834-3.188,1.776-2.22,4.2-5.126,4.2-7.951,0-3.31-1.736-3.955-6.579-4.359Z" transform="translate(-10.93 -70.876)"/>
    <path id="Path_18626" data-name="Path 18626" d="M73.627,274.5c-.6,0-.928-1.211-1.412-1.211-.686,0-3.148,4.318-4.076,6.174-1.009,2.059-1.614,4.279-2.5,6.417-.6,1.453-1.251,1.574-2.139,2.1-.283-.525-.807-1.13-.807-1.655.161-2.219.524-4.4.807-6.579.242-1.937.161-7.708,2.744-7.708,1.089,0,1.574,1.816,1.816,3.107a14.679,14.679,0,0,0,1.372-1.372c1.17-1.453,2.421-4.036,4.2-4.036.848,0,.808.847,1.291,1.534-.363,1.493-.565,3.229-1.291,3.229" transform="translate(-17.489 -75.249)"/>
    <path id="Path_18627" data-name="Path 18627" d="M81.964,275.483a1.154,1.154,0,0,1,1.211,1.05,1.025,1.025,0,0,1-.2.645,12.747,12.747,0,0,0-2.542,7.507,5.707,5.707,0,0,0,.727,1.816c.524-.363,1.291-.606,1.453-1.049a18.557,18.557,0,0,0,1.856-6.982c0-.848-.4-1.736-.4-2.664,0-.645.242-.645.686-1.089,1.131,1.13,1.251,3.188,1.251,4.722,0,3.955-2.34,8.959-5.085,8.959-1.776,0-2.946-1.977-2.946-5.327.162-1.9,1.534-7.587,4-7.587" transform="translate(-21.751 -76.638)"/>
    <path id="Path_18628" data-name="Path 18628" d="M105.911,287.411c-.081.363-.606.6-.928.888-.162-.4-.525-.808-.525-1.13.363-1.816.847-3.592,1.251-5.328l.888-3.955a5.025,5.025,0,0,0-.12-.767c-.242.081-.606.081-.767.242-1.493,1.655-2.623,3.713-4.036,5.57-.242.363-.808.484-1.211.645a3.012,3.012,0,0,1-.4-1.089c0-1.251.565-2.542.565-3.793a4.134,4.134,0,0,0-.242-1.009,13.6,13.6,0,0,0-5.489,7.426c-.363,1.17-1.251,2.3-1.9,2.3-.485,0-1.09-.727-1.09-1.9v-.283c.525-3.188,1.131-6.377,1.776-9.646a1.734,1.734,0,0,1,1.937-1.372c.928,0,1.17.929,1.17,1.776,0,.646-.242,1.291-.242,2.018,0,.363.121.766.162,1.17.444-.2.928-.2,1.211-.484,1.17-.888,2.382-2.664,3.511-2.664.525,0,.888,1.9.968,2.906.444-.565.969-.808,1.372-1.292,1.05-1.251,1.655-2.664,3.35-2.664.363,0,1.13.847,1.13,1.937v.363a1.419,1.419,0,0,0,.242.041c-.847,3.349-1.291,7.143-2.583,10.089" transform="translate(-25.639 -76.498)"/>
    <path id="Path_18629" data-name="Path 18629" d="M121.144,275.483a1.154,1.154,0,0,1,1.211,1.05,1.025,1.025,0,0,1-.2.645,12.747,12.747,0,0,0-2.542,7.507,5.707,5.707,0,0,0,.727,1.816c.524-.363,1.291-.606,1.453-1.049a18.557,18.557,0,0,0,1.856-6.982c0-.848-.4-1.736-.4-2.664,0-.645.242-.645.686-1.089,1.131,1.13,1.251,3.188,1.251,4.722,0,3.955-2.34,8.959-5.085,8.959-1.776,0-2.946-1.977-2.946-5.327.162-1.9,1.534-7.587,4-7.587" transform="translate(-32.681 -76.638)"/>
    <path id="Path_18630" data-name="Path 18630" d="M134.638,266.092a8.626,8.626,0,0,0,.283-1.534.963.963,0,0,0-1.089-1.09c-.525,0-1.171.242-1.776.242a1.064,1.064,0,0,1-.969-.847c0-.807,1.251-.928,2.1-1.131,2.1-.363,2.825-1.211,2.825-3.188,0-.363-.04-.807-.04-1.211,0-1.573.606-3.551,2.5-3.551.808,0,.888.686.888,1.332,0,.847-.2,2.219-.2,3.067,0,.686.2.968.726.968.888,0,2.382-1.211,3.633-1.211a5.046,5.046,0,0,1,.767.121c-.2.242-.283.6-.525.767-1.937,1.331-5.126,2.865-5.53,4.682-.6,2.744-1.09,9.766-1.694,12.551a2.778,2.778,0,0,0-.081.525c0,.323.121.524.565.524a1,1,0,0,0,.322-.04c.162,0,.727.525.727.686-.646,1.736-.646,3.793-2.3,5a2.553,2.553,0,0,1-1.332.645c-1.009,0-1.372-1.816-1.372-2.34,0-.363.04-.727.04-1.049-.081,0-.161-.041-.242-.041.606-3.188,1.17-10.694,1.776-13.883" transform="translate(-36.569 -70.798)"/>
    <path id="Path_18631" data-name="Path 18631" d="M150.884,272.366a2.29,2.29,0,0,1,2.462,2.3c0,1.412-1.413,3.39-2.179,4.682-.968,1.574-3.027,2.139-3.027,4.2,0,.767-.121,1.9,1.211,1.9.807,0,1.534-.444,2.34-.444.444,0,.686.2.686.606,0,1.655-2.5,2.946-4.036,2.946-3.108,0-3.269-2.744-3.431-4.6.081-4.2,2.018-11.583,5.973-11.583m.162,2.26c-.888,0-1.453,2.3-1.776,3.229,0,.04-.04.04-.04.081,0,.162.283.524.485.524.6,0,1.493-1.977,2.1-2.906-.282-.363-.524-.928-.766-.928" transform="translate(-40.426 -75.982)"/>
    <path id="Path_18632" data-name="Path 18632" d="M157.483,277.118a1.09,1.09,0,0,1,.2-.645,67.5,67.5,0,0,1,4-6.013,1.524,1.524,0,0,1,1.211-.444c.646,0,1.089.242,1.089,1.533,0,1.171-.443,3.068-1.17,3.068-.4,0-.928-1.05-1.332-1.05-.6,0-.928,1.857-1.13,2.744a10.615,10.615,0,0,0,2.219.363h.4c2.3,0,3.713,1.252,3.713,3.147,0,3.431-3.431,6.579-5.892,8.6-1.534,1.252-3.108,2.341-5.085,2.341a1.735,1.735,0,0,1-1.9-1.694c0-1.978,2.7-4.359,4.439-5.448a.544.544,0,0,1,.363-.081h.444a1.586,1.586,0,0,1-.162.846c-.323.565-1.412,1.857-1.412,2.423,0,.483.121.483.524.483.565,0,2.3-1.493,2.785-2.058,1.251-1.452,3.269-3.713,3.269-5.287,0-.969-.969-1.493-2.26-1.493-.2,0-.444.121-.646.121-1.291-.04-3.672-.04-3.672-1.454" transform="translate(-42.909 -75.327)"/>
    <path id="Path_18633" data-name="Path 18633" d="M188.993,279.279c-.565-.808-.848-1.332-1.211-1.332a1.045,1.045,0,0,0-.686.443,9.029,9.029,0,0,0-1.574,5.529,1.262,1.262,0,0,0,1.372,1.252c.808,0,1.857-.968,2.583-.968.242,0,.524,0,.524.484,0,1.291-2.744,2.663-4.237,2.663-2.663,0-2.906-3.188-2.906-4.519a7.685,7.685,0,0,1,3.229-6.579,3.408,3.408,0,0,1,2.179-.808c.888,0,1.251.525,1.251,1.614v.363a4.911,4.911,0,0,1-.524,1.857" transform="translate(-51.012 -76.841)"/>
    <path id="Path_18634" data-name="Path 18634" d="M204.489,277.755a4.98,4.98,0,0,1-.081.725c-.363,2.341-.686,4.723-.968,7.063-.161,1.453-.363,3.108-1.332,3.108-.363,0-.686-.283-1.049-.766-1.13-1.332-.4-2.543-1.09-2.543-.242,0-1.614,1.211-2.986,1.211a2.056,2.056,0,0,1-1.978-2.26,9.96,9.96,0,0,1,3.914-7.587,20.331,20.331,0,0,1,2.987-1.372c1.735.2,2.583,1.009,2.583,2.422m-3.633.08a1.343,1.343,0,0,0-.928.283c-1.05,1.453-2.866,3.874-2.866,5,0,.2.2.929.686.929,1.291,0,2.986-3.31,4.157-5.207-.484-.766-.525-1.009-1.049-1.009" transform="translate(-54.401 -76.81)"/>
    <path id="Path_18635" data-name="Path 18635" d="M221.335,274.5c-.6,0-.928-1.211-1.412-1.211-.686,0-3.148,4.318-4.076,6.174-1.009,2.059-1.614,4.279-2.5,6.417-.6,1.453-1.251,1.574-2.139,2.1-.283-.525-.807-1.13-.807-1.655.161-2.219.524-4.4.807-6.579.242-1.937.162-7.708,2.744-7.708,1.089,0,1.574,1.816,1.816,3.107a14.68,14.68,0,0,0,1.372-1.372c1.17-1.453,2.421-4.036,4.2-4.036.847,0,.808.847,1.291,1.534-.363,1.493-.565,3.229-1.291,3.229" transform="translate(-58.695 -75.249)"/>
    <path id="Path_18636" data-name="Path 18636" d="M225.758,277.231c0-3.632,1.412-8.758,4-8.758.848,0,1.534.969,2.26,1.816a3.333,3.333,0,0,0,.646-.888c1.251-3.511,2.462-6.579,4.116-11.139a1.34,1.34,0,0,1,1.332-1.009c1.13,0,1.453.484,1.453,1.009a6.692,6.692,0,0,1-.121.888c-.767,3.35-.888,4.6-1.655,7.91-.726,3.188-1.736,6.3-2.542,9.444-.848,3.39-1.453,9.484-3.794,9.484-.686,0-1.089-.726-1.089-2.017,0-.848.121-1.736.2-2.583a7.941,7.941,0,0,0-.161-1.372,5.371,5.371,0,0,0-1.291.6,2.432,2.432,0,0,1-1.534.888c-1.13,0-1.9-1.937-1.9-2.785,0-.4.081-.726.081-.928Zm1.978,1.937a2.3,2.3,0,0,0,1.13-.485,22.238,22.238,0,0,0,2.5-5.851c0-.808-1.413-1.978-1.978-1.978-.767,0-1.736,5-2.26,7.023.242.565.363,1.211.606,1.291" transform="translate(-62.957 -71.767)"/>
    <path id="Path_18637" data-name="Path 18637" d="M244.9,277.956c.363-2.017-.081-6.175,2.623-6.175a1.628,1.628,0,0,1,1.614,1.656v.2c-.808,3.552-1.7,7.143-2.583,10.655-.2.767-1.09,1.211-1.655,1.493-.363-.524-.969-1.211-.969-1.816v-.282a.149.149,0,0,0-.121-.081c.4-1.9.727-3.713,1.09-5.65m4.359-13.762c.766,0,1.332.322,1.332.928,0-.162-.766,2.139-1.776,2.139-.242,0-1.009-.847-1.251-1.049.04-1.453.686-2.017,1.7-2.017" transform="translate(-68.017 -73.703)"/>
    <path id="Path_18638" data-name="Path 18638" d="M258.33,275.483a1.154,1.154,0,0,1,1.211,1.05,1.029,1.029,0,0,1-.2.645,12.743,12.743,0,0,0-2.543,7.507,5.707,5.707,0,0,0,.727,1.816c.524-.363,1.291-.606,1.453-1.049a18.559,18.559,0,0,0,1.856-6.982c0-.848-.4-1.736-.4-2.664,0-.645.241-.645.686-1.089,1.131,1.13,1.251,3.188,1.251,4.722,0,3.955-2.341,8.959-5.085,8.959-1.776,0-2.946-1.977-2.946-5.327.161-1.9,1.534-7.587,4-7.587" transform="translate(-70.952 -76.638)"/>
    <path id="Path_18639" data-name="Path 18639" d="M269.684,274.346c1.453,0,1.614.686,1.614,1.776q-.121,1.272-.121,2.542a2.041,2.041,0,0,0,.646,1.614c1.493-1.251,2.542-3.592,3.793-5.408.162-.525.808-.767,1.453-1.049a.509.509,0,0,0-.04.242c0,.162.04.283.04.4a1.176,1.176,0,0,1-.081.363c-1.21,2.623-2.5,5.287-3.712,7.951-.4.888-.525,1.9-.929,2.744-.443.928-1.534,2.623-2.381,2.623-1.655,0-1.7-4.157-1.7-5.771V276c.081-.928.323-1.655,1.412-1.655" transform="translate(-74.84 -76.389)"/>
    <path id="Path_18640" data-name="Path 18640" d="M290.518,277.755a4.986,4.986,0,0,1-.081.725c-.363,2.341-.686,4.723-.968,7.063-.161,1.453-.363,3.108-1.332,3.108-.363,0-.686-.283-1.049-.766-1.13-1.332-.4-2.543-1.09-2.543-.242,0-1.614,1.211-2.986,1.211a2.056,2.056,0,0,1-1.978-2.26,9.96,9.96,0,0,1,3.914-7.587,20.335,20.335,0,0,1,2.986-1.372c1.736.2,2.583,1.009,2.583,2.422m-3.633.08a1.343,1.343,0,0,0-.928.283c-1.05,1.453-2.866,3.874-2.866,5,0,.2.2.929.686.929,1.291,0,2.987-3.31,4.157-5.207-.484-.766-.525-1.009-1.049-1.009" transform="translate(-78.4 -76.81)"/>
    <path id="Path_18641" data-name="Path 18641" d="M295.621,277.118a1.09,1.09,0,0,1,.2-.645,67.482,67.482,0,0,1,4-6.013,1.524,1.524,0,0,1,1.211-.444c.646,0,1.089.242,1.089,1.533,0,1.171-.444,3.068-1.17,3.068-.4,0-.928-1.05-1.332-1.05-.6,0-.928,1.857-1.13,2.744a10.614,10.614,0,0,0,2.219.363h.4c2.3,0,3.713,1.252,3.713,3.147,0,3.431-3.431,6.579-5.892,8.6-1.534,1.252-3.108,2.341-5.085,2.341a1.735,1.735,0,0,1-1.9-1.694c0-1.978,2.7-4.359,4.439-5.448a.544.544,0,0,1,.363-.081h.444a1.586,1.586,0,0,1-.162.846c-.323.565-1.412,1.857-1.412,2.423,0,.483.121.483.524.483.565,0,2.3-1.493,2.785-2.058,1.251-1.452,3.269-3.713,3.269-5.287,0-.969-.969-1.493-2.26-1.493-.2,0-.444.121-.645.121-1.292-.04-3.673-.04-3.673-1.454" transform="translate(-81.445 -75.327)"/>
    <path id="Path_18642" data-name="Path 18642" d="M318.176,279.279c-.565-.808-.848-1.332-1.211-1.332a1.045,1.045,0,0,0-.686.443,9.028,9.028,0,0,0-1.574,5.529,1.262,1.262,0,0,0,1.372,1.252c.808,0,1.857-.968,2.583-.968.242,0,.524,0,.524.484,0,1.291-2.744,2.663-4.238,2.663-2.663,0-2.906-3.188-2.906-4.519a7.687,7.687,0,0,1,3.229-6.579,3.41,3.41,0,0,1,2.179-.808c.888,0,1.251.525,1.251,1.614v.363a4.911,4.911,0,0,1-.524,1.857" transform="translate(-87.051 -76.841)"/>
    <path id="Path_18643" data-name="Path 18643" d="M326.2,275.232c.121-.645.444-1.13,1.09-1.13.767,0,.968.4.968.686s-.12.606-.12.888c-.4,2.5-.807,5.085-1.131,7.587a6.13,6.13,0,0,0,.485,1.454c.363-.323.848-.525,1.049-.929,1.614-2.744,3.188-5.61,4.722-8.354.283-.565.565-1.048,1.089-1.048a1.48,1.48,0,0,1,1.494,1.453,2.731,2.731,0,0,1-.081.524c-.686,2.865-1.372,5.732-1.977,8.6a2.741,2.741,0,0,0-.081.807,21.313,21.313,0,0,0,.444,2.3c0,.646-1.05,1.372-1.736,1.372-1.252,0-1.7-2.946-2.139-4.2-1.815.808-2.421,2.382-3.632,2.382-.686,0-1.292-.485-1.574-1.453-.161-.606-.121-1.332-.323-2.018.443-2.946.928-5.973,1.453-8.919" transform="translate(-90.595 -76.467)"/>
    <path id="Path_18644" data-name="Path 18644" d="M346.132,259.441c.323-1.573.606-4.762,2.1-4.762,1.049.121,1.291,1.13,1.291,2.26-1.211,6.336-2.5,12.511-3.511,18.847a5.04,5.04,0,0,0-.121.767c0,.323.081.525.444.525a1.986,1.986,0,0,0,.6-.121c.081-.04.686.443.686.726,0,1.776-1.776,5.287-3.672,5.287-1.09,0-1.373-1.372-1.575-2.745.727-6.982,2.341-13.923,3.754-20.784" transform="translate(-95.514 -71.048)"/>
    <path id="Path_18645" data-name="Path 18645" d="M362.329,277.755a4.973,4.973,0,0,1-.082.725c-.363,2.341-.686,4.723-.968,7.063-.162,1.453-.363,3.108-1.332,3.108-.363,0-.686-.283-1.049-.766-1.13-1.332-.4-2.543-1.09-2.543-.242,0-1.614,1.211-2.986,1.211a2.056,2.056,0,0,1-1.978-2.26,9.96,9.96,0,0,1,3.914-7.587,20.339,20.339,0,0,1,2.987-1.372c1.735.2,2.583,1.009,2.583,2.422m-3.633.08a1.343,1.343,0,0,0-.928.283c-1.05,1.453-2.866,3.874-2.866,5,0,.2.2.929.686.929,1.291,0,2.987-3.31,4.157-5.207-.484-.766-.525-1.009-1.049-1.009" transform="translate(-98.434 -76.81)"/>
    <path id="Path_18646" data-name="Path 18646" d="M379.175,274.5c-.6,0-.928-1.211-1.412-1.211-.686,0-3.148,4.318-4.076,6.174-1.009,2.059-1.614,4.279-2.5,6.417-.6,1.453-1.251,1.574-2.139,2.1-.283-.525-.807-1.13-.807-1.655.161-2.219.524-4.4.807-6.579.242-1.937.162-7.708,2.744-7.708,1.089,0,1.574,1.816,1.816,3.107a14.669,14.669,0,0,0,1.372-1.372c1.17-1.453,2.422-4.036,4.2-4.036.848,0,.808.847,1.291,1.534-.363,1.493-.565,3.229-1.291,3.229" transform="translate(-102.728 -75.249)"/>
    <path id="Path_18647" data-name="Path 18647" d="M52.3,331.373a6.883,6.883,0,0,0-.121,1.05c0,.928,1.736.363,1.736,1.372v.08c-.766,1.171-1.937,3.511-2.906,3.511-.808,0-1.17-.726-1.17-1.857a9.234,9.234,0,0,1,.121-1.493c.443-2.906.968-5.771,1.291-8.677,0-.121.04-.242.04-.4,0-.645-.242-1.291-.322-2.017a11,11,0,0,0-1.7,1.655c-1.534,2.381-3.027,4.8-4.561,7.224a1.2,1.2,0,0,1-.808.524c-1.009,0-.766-2.017-.766-3.309a17.759,17.759,0,0,1,.2-2.946c1.009-6.014,2.34-11.986,3.431-18,.322-1.211.121-3.592,1.332-3.592a2.006,2.006,0,0,1,1.453,1.7,3.992,3.992,0,0,1-.081.726c-.485,5.489-1.736,10.574-2.7,15.78v.2a8.608,8.608,0,0,0,.121,1.17,4.037,4.037,0,0,0,1.17-.808c1.13-1.049,1.655-2.542,3.39-2.542.767,0,1.857,1.332,1.857,2.542,0,.4-.081.848-.081,1.251a.432.432,0,0,0,.2.041c-.363,2.26-.686,4.519-1.13,6.82" transform="translate(-12.028 -84.945)"/>
    <path id="Path_18648" data-name="Path 18648" d="M66.308,325.541a2.289,2.289,0,0,1,2.462,2.3c0,1.413-1.413,3.39-2.179,4.682-.969,1.574-3.027,2.139-3.027,4.2,0,.767-.121,1.9,1.211,1.9.807,0,1.534-.443,2.34-.443.444,0,.686.2.686.6,0,1.655-2.5,2.946-4.036,2.946-3.108,0-3.269-2.744-3.431-4.6.081-4.2,2.018-11.583,5.973-11.583m.162,2.26c-.888,0-1.453,2.3-1.776,3.229,0,.04-.04.04-.04.081,0,.161.283.524.485.524.6,0,1.493-1.977,2.1-2.905-.282-.363-.524-.929-.766-.929" transform="translate(-16.832 -90.817)"/>
    <path id="Path_18649" data-name="Path 18649" d="M83.2,330.929a4.884,4.884,0,0,1-.081.726c-.363,2.341-.686,4.722-.968,7.063-.162,1.454-.363,3.108-1.332,3.108-.363,0-.686-.283-1.049-.767-1.13-1.332-.4-2.542-1.09-2.542-.242,0-1.614,1.211-2.986,1.211a2.057,2.057,0,0,1-1.978-2.26,9.961,9.961,0,0,1,3.914-7.587,20.42,20.42,0,0,1,2.986-1.372c1.736.2,2.583,1.009,2.583,2.422m-3.633.081a1.339,1.339,0,0,0-.928.283c-1.05,1.453-2.866,3.874-2.866,5,0,.2.2.928.686.928,1.291,0,2.987-3.309,4.157-5.206-.484-.766-.525-1.009-1.049-1.009" transform="translate(-20.564 -91.644)"/>
    <path id="Path_18650" data-name="Path 18650" d="M93.418,312.615c.323-1.574.606-4.762,2.1-4.762,1.049.121,1.291,1.13,1.291,2.26-1.211,6.336-2.5,12.511-3.511,18.847a5.048,5.048,0,0,0-.121.767c0,.323.081.524.444.524a1.985,1.985,0,0,0,.6-.121c.081-.04.686.444.686.727,0,1.776-1.776,5.287-3.672,5.287-1.09,0-1.373-1.372-1.575-2.744.727-6.982,2.341-13.923,3.754-20.784" transform="translate(-25.014 -85.882)"/>
    <path id="Path_18651" data-name="Path 18651" d="M104.242,319.266a8.628,8.628,0,0,0,.282-1.534.963.963,0,0,0-1.089-1.09c-.524,0-1.171.242-1.775.242a1.064,1.064,0,0,1-.97-.848c0-.807,1.251-.928,2.1-1.13,2.1-.363,2.826-1.211,2.826-3.188,0-.363-.041-.808-.041-1.211,0-1.574.606-3.552,2.5-3.552.808,0,.888.686.888,1.332,0,.848-.2,2.22-.2,3.067,0,.687.2.969.726.969.888,0,2.382-1.211,3.633-1.211a4.943,4.943,0,0,1,.767.121c-.2.242-.282.6-.525.766-1.937,1.332-5.126,2.865-5.53,4.682-.6,2.744-1.089,9.766-1.694,12.551a2.779,2.779,0,0,0-.081.525c0,.323.121.525.565.525a.992.992,0,0,0,.323-.041c.161,0,.726.526.726.686-.645,1.736-.645,3.794-2.3,5a2.555,2.555,0,0,1-1.332.646c-1.008,0-1.372-1.816-1.372-2.341,0-.363.04-.726.04-1.049-.081,0-.161-.04-.242-.04.606-3.188,1.17-10.7,1.777-13.883" transform="translate(-28.09 -85.632)"/>
    <path id="Path_18652" data-name="Path 18652" d="M123.724,331.373a6.887,6.887,0,0,0-.121,1.05c0,.928,1.736.363,1.736,1.372v.08c-.766,1.171-1.937,3.511-2.906,3.511-.808,0-1.17-.726-1.17-1.857a9.233,9.233,0,0,1,.121-1.493c.443-2.906.968-5.771,1.291-8.677,0-.121.04-.242.04-.4,0-.645-.242-1.291-.322-2.017a11,11,0,0,0-1.7,1.655c-1.534,2.381-3.027,4.8-4.561,7.224a1.2,1.2,0,0,1-.808.524c-1.009,0-.766-2.017-.766-3.309a17.761,17.761,0,0,1,.2-2.946c1.009-6.014,2.34-11.986,3.431-18,.322-1.211.121-3.592,1.332-3.592a2.006,2.006,0,0,1,1.453,1.7,4,4,0,0,1-.081.726c-.485,5.489-1.736,10.574-2.7,15.78v.2a8.607,8.607,0,0,0,.121,1.17,4.037,4.037,0,0,0,1.17-.808c1.13-1.049,1.655-2.542,3.39-2.542.767,0,1.857,1.332,1.857,2.542,0,.4-.081.848-.081,1.251a.432.432,0,0,0,.2.041c-.363,2.26-.686,4.519-1.13,6.82" transform="translate(-31.952 -84.945)"/>
    <path id="Path_18653" data-name="Path 18653" d="M3.754,419.919C2.22,419.919,0,417.981,0,416.327a4.434,4.434,0,0,1,4.56-3.915c1.291,0,2.7,1.614,2.7,3.147,0,1.777-1.978,4.359-3.511,4.359" transform="translate(0 -115.051)"/>
    <path id="Path_18654" data-name="Path 18654" d="M43.9,412.71c-.242,1.372-.363,2.663-.686,3.955a2.751,2.751,0,0,0-.081.767c0,.686.322.968,1.13.968,2.139,0,4.237-.484,6.377-.484a16.065,16.065,0,0,1,5.65,1.332c.323.161.524.847.766,1.211a4.609,4.609,0,0,1-1.009.121,1.628,1.628,0,0,1-.444-.041,20.617,20.617,0,0,0-5.811-.807,34.623,34.623,0,0,0-8.758,1.332,2.074,2.074,0,0,1-.485.2,3.011,3.011,0,0,1-1.372-.565c.323-.848,1.453-2.059,1.453-2.866-.04-.606-.081-1.251-.081-1.857.041-4.479,1.131-8.838,1.776-13.318.485-3.47,1.05-7.022,1.413-10.534.121-1.291.485-1.937,1.372-1.937a1.666,1.666,0,0,1,1.816,1.777c0,.363-.04.766-.04,1.13.04.081.121.081.2.081-1.049,6.416-2.018,13-3.188,19.533" transform="translate(-10.93 -108.852)"/>
    <path id="Path_18655" data-name="Path 18655" d="M67.413,413.178a1.154,1.154,0,0,1,1.211,1.049,1.032,1.032,0,0,1-.2.646,12.739,12.739,0,0,0-2.543,7.507,5.714,5.714,0,0,0,.727,1.816c.524-.363,1.291-.606,1.453-1.05a18.555,18.555,0,0,0,1.856-6.982c0-.848-.4-1.736-.4-2.663,0-.646.242-.646.686-1.089,1.131,1.13,1.251,3.188,1.251,4.721,0,3.955-2.34,8.96-5.085,8.96-1.776,0-2.946-1.977-2.946-5.327.162-1.9,1.534-7.587,4-7.587" transform="translate(-17.692 -115.051)"/>
    <path id="Path_18656" data-name="Path 18656" d="M93.952,410.092c0,3.431-1.736,7.829-2.946,11.34-.444,1.534-2.22,3.431-3.35,3.431-1.857,0-2.785-3.793-2.785-5.892,0-.766.081-1.574.161-2.422a5.661,5.661,0,0,0-.242-1.13c-.4.2-.928.283-1.13.646-1.534,2.139-3.39,6.3-5.085,6.3a.141.141,0,0,1-.081-.04A2.446,2.446,0,0,1,77.4,419.98c-.081-2.219.242-4.4.242-6.619,0-2.179.444-2.946,1.9-3.067,1.049,0,1.372.767,1.372,1.655,0,.807-.2,1.654-.2,2.462A3.252,3.252,0,0,0,81,415.3c.242-.121.6-.121.766-.282,1.412-1.493,3.35-4.56,4.682-4.56a1.239,1.239,0,0,1,1.291,1.291,7.1,7.1,0,0,1-.283,1.614,22.1,22.1,0,0,0-.686,5.126,6.422,6.422,0,0,0,.968,3.915c.4-.363,1.13-.686,1.291-1.13,1.574-4.8,2.906-9.727,4.439-14.57.121,0,.242.04.363.04,0,1.13.121,2.26.121,3.35" transform="translate(-21.59 -113.458)"/>
    <path id="Path_18657" data-name="Path 18657" d="M108.57,410.061a2.289,2.289,0,0,1,2.462,2.3c0,1.412-1.412,3.39-2.179,4.682-.969,1.574-3.027,2.139-3.027,4.2,0,.767-.121,1.9,1.211,1.9.807,0,1.534-.443,2.34-.443.444,0,.686.2.686.6,0,1.655-2.5,2.946-4.036,2.946-3.108,0-3.269-2.744-3.431-4.6.081-4.2,2.018-11.583,5.973-11.583m.161,2.26c-.888,0-1.453,2.3-1.776,3.229,0,.04-.04.04-.04.081,0,.161.283.524.485.524.6,0,1.493-1.977,2.1-2.9-.282-.363-.524-.929-.766-.929" transform="translate(-28.622 -114.395)"/>
    <path id="Path_18658" data-name="Path 18658" d="M126.912,412.192c-.6,0-.928-1.211-1.413-1.211-.686,0-3.148,4.318-4.076,6.175-1.009,2.058-1.614,4.278-2.5,6.417-.6,1.453-1.251,1.574-2.139,2.1-.283-.524-.807-1.13-.807-1.655.161-2.219.524-4.4.807-6.578.242-1.937.162-7.709,2.744-7.709,1.089,0,1.574,1.816,1.816,3.107a14.582,14.582,0,0,0,1.372-1.372c1.17-1.452,2.422-4.035,4.2-4.035.848,0,.808.847,1.291,1.533-.363,1.493-.565,3.229-1.291,3.229" transform="translate(-32.354 -113.661)"/>
    <path id="Path_18659" data-name="Path 18659" d="M150.587,412.192c-.6,0-.928-1.211-1.412-1.211-.686,0-3.148,4.318-4.076,6.175-1.009,2.058-1.614,4.278-2.5,6.417-.6,1.453-1.251,1.574-2.139,2.1-.283-.524-.807-1.13-.807-1.655.161-2.219.524-4.4.807-6.578.242-1.937.161-7.709,2.744-7.709,1.089,0,1.574,1.816,1.816,3.107a14.577,14.577,0,0,0,1.372-1.372c1.17-1.452,2.422-4.035,4.2-4.035.848,0,.808.847,1.291,1.533-.363,1.493-.565,3.229-1.291,3.229" transform="translate(-38.958 -113.661)"/>
    <path id="Path_18660" data-name="Path 18660" d="M154.9,415.65c.363-2.017-.081-6.175,2.623-6.175a1.628,1.628,0,0,1,1.614,1.655v.2c-.807,3.552-1.7,7.143-2.583,10.654-.2.767-1.09,1.211-1.655,1.494-.363-.525-.969-1.211-.969-1.816v-.283a.149.149,0,0,0-.121-.081c.4-1.9.727-3.713,1.09-5.65m4.359-13.762c.767,0,1.332.323,1.332.929,0-.162-.766,2.139-1.776,2.139-.242,0-1.009-.848-1.251-1.05.04-1.452.686-2.017,1.7-2.017" transform="translate(-42.908 -112.115)"/>
    <path id="Path_18661" data-name="Path 18661" d="M162.968,414.813a1.089,1.089,0,0,1,.2-.645,67.418,67.418,0,0,1,4-6.013,1.522,1.522,0,0,1,1.211-.444c.646,0,1.089.242,1.089,1.534,0,1.17-.443,3.067-1.17,3.067-.4,0-.928-1.05-1.332-1.05-.6,0-.928,1.857-1.13,2.744a10.567,10.567,0,0,0,2.219.363h.4c2.3,0,3.713,1.251,3.713,3.148,0,3.431-3.431,6.578-5.892,8.6-1.534,1.251-3.108,2.341-5.085,2.341a1.736,1.736,0,0,1-1.9-1.7c0-1.978,2.7-4.359,4.439-5.448a.543.543,0,0,1,.363-.081h.444a1.593,1.593,0,0,1-.161.847c-.323.565-1.413,1.857-1.413,2.422,0,.484.121.484.524.484.565,0,2.3-1.493,2.785-2.058,1.251-1.454,3.269-3.713,3.269-5.287,0-.968-.969-1.493-2.26-1.493-.2,0-.444.121-.645.121-1.292-.04-3.673-.04-3.673-1.453" transform="translate(-44.439 -113.739)"/>
    <path id="Path_18662" data-name="Path 18662" d="M184.111,396.411c.444-2.139.645-6.054,2.139-6.054,1.049,0,1.452.606,1.452,1.252,0,.121-.04.242-.04.363-.727,4.641-1.413,9.2-2.18,13.842,0,.162-.162.4-.162.606.081.363.162.808.283,1.211.283-.242.686-.444.847-.847.888-1.857,1.937-5.569,2.987-5.569a1.382,1.382,0,0,1,1.493,1.453c0,2.583-1.493,5.367-3.148,7.3a4.113,4.113,0,0,0-1.252,2.583c0,.645.363,1.332.363,2.18,0,.888-.242,1.857-.242,2.7,0,1.291,1.857,1.332,1.857,1.978a1.319,1.319,0,0,1-1.13,1.13c-1.17,0-2.1-1.776-2.1-2.987,0-.485.121-1.009.121-1.494,0-.686-.081-1.372-.081-2.058-.081-.363-.444-.646-.686-.968-1.291,1.13-1.049,2.5-1.573,3.874-.525,1.736-1.17,3.471-1.857,5.165-.081.242-.444.4-.767.606-.161-.322-.443-.606-.565-.888-.121-.565-.161-2.26-.485-2.422,1.493-7.87,3.108-15.377,4.722-22.963" transform="translate(-50.044 -108.898)"/>
    <path id="Path_18663" data-name="Path 18663" d="M209.467,413.178a1.154,1.154,0,0,1,1.211,1.049,1.027,1.027,0,0,1-.2.646,12.744,12.744,0,0,0-2.542,7.507,5.712,5.712,0,0,0,.727,1.816c.524-.363,1.291-.606,1.453-1.05a18.554,18.554,0,0,0,1.856-6.982c0-.848-.4-1.736-.4-2.663,0-.646.242-.646.686-1.089,1.131,1.13,1.251,3.188,1.251,4.721,0,3.955-2.34,8.96-5.085,8.96-1.776,0-2.946-1.977-2.946-5.327.161-1.9,1.534-7.587,4-7.587" transform="translate(-57.321 -115.051)"/>
    <path id="Path_18664" data-name="Path 18664" d="M222.072,402.877c.767,0,1.17-.443,1.372-1.332.848-3.672,1.937-10.291,6.175-10.291,1.211,0,2.1,1.453,2.1,3.148a2.229,2.229,0,0,1-1.534,2.421c-.767,0-.929-1.493-1.412-1.493-.606,0-1.937,4.318-1.937,5.933,0,.444.363.606.727.606a1.837,1.837,0,0,0,.807-.2c1.614-1.211,3.39-2.421,4.8-3.633a6.975,6.975,0,0,1-.686,2.018,10.237,10.237,0,0,1-4.923,3.713,2.028,2.028,0,0,0-1.454,1.7c-.565,3.39-1.089,6.74-1.735,10.05-.727,3.713-.323,3.713-1.211,7.385-.161.645-1.655,2.5-2.3,2.5a1.369,1.369,0,0,1-1.453-1.534,1.118,1.118,0,0,1,.04-.363c1.049-5.448,1.816-9.525,3.229-17.273a3.411,3.411,0,0,0,.162-.968c0-1.089-1.655-.727-2.825-1.9.242-.121.766-.606,1.049-.606.162,0,.363.081.565.081a1.814,1.814,0,0,0,.444.04" transform="translate(-61.209 -109.149)"/>
    <path id="Path_18665" data-name="Path 18665" d="M243.613,414.925c0-3.632,1.413-8.758,4-8.758.848,0,1.534.969,2.26,1.816a3.333,3.333,0,0,0,.646-.888c1.251-3.511,2.462-6.578,4.116-11.139a1.341,1.341,0,0,1,1.332-1.01c1.13,0,1.453.485,1.453,1.01a6.68,6.68,0,0,1-.121.887c-.767,3.351-.888,4.6-1.655,7.91-.726,3.188-1.736,6.3-2.542,9.445-.848,3.389-1.453,9.483-3.794,9.483-.686,0-1.089-.725-1.089-2.017,0-.849.121-1.737.2-2.583a7.962,7.962,0,0,0-.162-1.374,5.4,5.4,0,0,0-1.291.6,2.431,2.431,0,0,1-1.534.888c-1.13,0-1.9-1.936-1.9-2.785,0-.4.081-.727.081-.928Zm1.978,1.937a2.3,2.3,0,0,0,1.13-.484,22.223,22.223,0,0,0,2.5-5.852c0-.807-1.412-1.977-1.978-1.977-.767,0-1.736,5-2.26,7.021.242.565.363,1.211.606,1.292" transform="translate(-67.938 -110.179)"/>
    <path id="Path_18666" data-name="Path 18666" d="M262.757,415.65c.363-2.017-.081-6.175,2.623-6.175a1.628,1.628,0,0,1,1.614,1.655v.2c-.808,3.552-1.7,7.143-2.583,10.654-.2.767-1.09,1.211-1.655,1.494-.363-.525-.969-1.211-.969-1.816v-.283a.149.149,0,0,0-.121-.081c.4-1.9.727-3.713,1.09-5.65m4.359-13.762c.767,0,1.332.323,1.332.929,0-.162-.766,2.139-1.776,2.139-.242,0-1.009-.848-1.251-1.05.04-1.452.686-2.017,1.7-2.017" transform="translate(-72.998 -112.115)"/>
    <path id="Path_18667" data-name="Path 18667" d="M281.115,415.449a4.98,4.98,0,0,1-.081.726c-.363,2.341-.686,4.722-.968,7.063-.162,1.454-.363,3.108-1.332,3.108-.363,0-.686-.283-1.049-.767-1.13-1.332-.4-2.542-1.09-2.542-.242,0-1.614,1.211-2.986,1.211a2.057,2.057,0,0,1-1.978-2.26,9.961,9.961,0,0,1,3.914-7.587,20.418,20.418,0,0,1,2.986-1.372c1.736.2,2.583,1.009,2.583,2.422m-3.633.081a1.34,1.34,0,0,0-.928.283c-1.05,1.453-2.866,3.874-2.866,5,0,.2.2.927.686.927,1.291,0,2.987-3.309,4.157-5.206-.484-.766-.525-1.009-1.049-1.009" transform="translate(-75.777 -115.223)"/>
    <path id="Path_18668" data-name="Path 18668" d="M294.968,419.646c-.485.727-1.615,1.009-2.422,1.332a22.835,22.835,0,0,1-.525-2.26c-.04-.807,2.018-.807,2.381-1.493a16.505,16.505,0,0,0,2.543-7.91,3.957,3.957,0,0,0-.485-1.292,3.918,3.918,0,0,0-1.251.727,25.8,25.8,0,0,0-4.561,9.968c-.162.848-1.251,2.462-1.978,2.462a1.294,1.294,0,0,1-1.089-1.412,29.682,29.682,0,0,1,.807-5.207c.4-2.945.929-5.892,1.412-8.8.363-2.18.808-2.18,1.171-4.318a4.451,4.451,0,0,0,.081-.726c0-.646-.283-1.211-.283-2.018,0-2.18,1.13-4.48,3.188-4.48a1.621,1.621,0,0,1,1.332,1.7c-.322,5.165-1.7,7.022-2.381,10.7a.671.671,0,0,0-.041.282,5.632,5.632,0,0,0,.283,1.332c.4-.324.888-.565,1.292-.848.726-.485,1.211-1.089,2.139-1.089,1.09,0,1.736.888,1.736,2.3,0,.4-.04.807-.04,1.211a17.182,17.182,0,0,1-3.309,9.847" transform="translate(-80.227 -109.976)"/>
    <path id="Path_18669" data-name="Path 18669" d="M311.243,410.061a2.289,2.289,0,0,1,2.462,2.3c0,1.412-1.412,3.39-2.179,4.682-.969,1.574-3.027,2.139-3.027,4.2,0,.767-.121,1.9,1.211,1.9.807,0,1.534-.443,2.34-.443.444,0,.686.2.686.6,0,1.655-2.5,2.946-4.036,2.946-3.108,0-3.269-2.744-3.431-4.6.081-4.2,2.018-11.583,5.973-11.583m.161,2.26c-.888,0-1.453,2.3-1.776,3.229,0,.04-.04.04-.04.081,0,.161.283.524.484.524.6,0,1.493-1.977,2.1-2.9-.282-.363-.524-.929-.767-.929" transform="translate(-85.161 -114.395)"/>
    <path id="Path_18670" data-name="Path 18670" d="M322.758,403.786a8.624,8.624,0,0,0,.283-1.534.963.963,0,0,0-1.089-1.09c-.525,0-1.171.242-1.776.242a1.064,1.064,0,0,1-.969-.848c0-.807,1.251-.928,2.1-1.13,2.1-.363,2.825-1.211,2.825-3.188,0-.363-.04-.808-.04-1.211,0-1.574.606-3.552,2.5-3.552.807,0,.888.686.888,1.332,0,.848-.2,2.22-.2,3.067,0,.686.2.969.726.969.888,0,2.382-1.211,3.633-1.211a4.962,4.962,0,0,1,.767.121c-.2.242-.283.6-.525.766-1.937,1.332-5.126,2.865-5.53,4.682-.6,2.744-1.09,9.766-1.694,12.551a2.778,2.778,0,0,0-.081.525c0,.323.121.525.565.525a.986.986,0,0,0,.322-.041c.161,0,.727.526.727.686-.646,1.736-.646,3.794-2.3,5a2.555,2.555,0,0,1-1.332.646c-1.009,0-1.372-1.816-1.372-2.341,0-.363.04-.726.04-1.049-.081,0-.162-.04-.242-.04.606-3.188,1.17-10.695,1.776-13.883" transform="translate(-89.049 -109.211)"/>
    <path id="Path_18671" data-name="Path 18671" d="M339,410.061a2.289,2.289,0,0,1,2.462,2.3c0,1.412-1.413,3.39-2.179,4.682-.969,1.574-3.027,2.139-3.027,4.2,0,.767-.121,1.9,1.211,1.9.807,0,1.534-.443,2.34-.443.444,0,.686.2.686.6,0,1.655-2.5,2.946-4.036,2.946-3.108,0-3.269-2.744-3.431-4.6.081-4.2,2.018-11.583,5.973-11.583m.162,2.26c-.888,0-1.453,2.3-1.776,3.229,0,.04-.04.04-.04.081,0,.161.283.524.485.524.6,0,1.493-1.977,2.1-2.9-.282-.363-.524-.929-.766-.929" transform="translate(-92.906 -114.395)"/>
    <path id="Path_18672" data-name="Path 18672" d="M345.6,414.813a1.088,1.088,0,0,1,.2-.645,67.4,67.4,0,0,1,3.995-6.013,1.523,1.523,0,0,1,1.211-.444c.646,0,1.089.242,1.089,1.534,0,1.17-.443,3.067-1.17,3.067-.4,0-.928-1.05-1.332-1.05-.6,0-.927,1.857-1.129,2.744a10.56,10.56,0,0,0,2.219.363h.4c2.3,0,3.713,1.251,3.713,3.148,0,3.431-3.43,6.578-5.892,8.6-1.534,1.251-3.108,2.341-5.086,2.341a1.736,1.736,0,0,1-1.9-1.7c0-1.978,2.7-4.359,4.439-5.448a.543.543,0,0,1,.363-.081h.444a1.592,1.592,0,0,1-.162.847c-.323.565-1.412,1.857-1.412,2.422,0,.484.121.484.523.484.565,0,2.3-1.493,2.786-2.058,1.25-1.454,3.268-3.713,3.268-5.287,0-.968-.968-1.493-2.26-1.493-.2,0-.444.121-.646.121-1.291-.04-3.671-.04-3.671-1.453" transform="translate(-95.389 -113.739)"/>
    <path id="Path_18673" data-name="Path 18673" d="M3.754,504.438C2.22,504.438,0,502.5,0,500.846a4.434,4.434,0,0,1,4.56-3.915c1.291,0,2.7,1.614,2.7,3.147,0,1.777-1.978,4.359-3.511,4.359" transform="translate(0 -138.63)"/>
    <path id="Path_18674" data-name="Path 18674" d="M39.181,479.8c0-2.18,1.372-3.915,3.108-3.915,1.493,0,.525,2.381,1.776,2.381a2.211,2.211,0,0,0,.645-.121,87.487,87.487,0,0,1,16.507-2.018c2.139,0,4.2.081,6.336.2.444,0,.888.525,1.291.808-.4.283-.847.888-1.291.968-3.673.444-7.264.888-10.857,1.211-1.251.121-1.655.606-1.857,1.816-1.534,9.242-3.511,18.4-5.327,27.525-.2,1.009-.767,2.744-1.614,2.744a1.475,1.475,0,0,1-1.493-1.534,37.031,37.031,0,0,1,.363-4.561l1.857-9.484c.888-4.48,1.735-9,2.663-13.56a3.857,3.857,0,0,0,.121-.888c0-.929-.444-1.332-1.372-1.332a4.877,4.877,0,0,0-1.009.121c-2.623.524-5.206.968-7.627,1.453-1.614,0-2.22-.444-2.22-1.816" transform="translate(-10.93 -132.758)"/>
    <path id="Path_18675" data-name="Path 18675" d="M76.706,496.712c-.6,0-.928-1.211-1.412-1.211-.686,0-3.148,4.318-4.076,6.175-1.009,2.058-1.614,4.278-2.5,6.417-.6,1.453-1.251,1.574-2.139,2.1-.283-.524-.807-1.13-.807-1.655.161-2.219.524-4.4.807-6.578.242-1.937.161-7.709,2.744-7.709,1.089,0,1.574,1.816,1.816,3.107a14.592,14.592,0,0,0,1.372-1.372c1.17-1.452,2.422-4.035,4.2-4.035.848,0,.808.846,1.291,1.533-.363,1.493-.565,3.229-1.291,3.229" transform="translate(-18.348 -137.24)"/>
    <path id="Path_18676" data-name="Path 18676" d="M87.021,494.581a2.289,2.289,0,0,1,2.462,2.3c0,1.412-1.412,3.39-2.179,4.682-.968,1.574-3.027,2.139-3.027,4.2,0,.767-.121,1.9,1.211,1.9.807,0,1.534-.443,2.34-.443.444,0,.686.2.686.6,0,1.655-2.5,2.946-4.036,2.946-3.108,0-3.269-2.744-3.431-4.6.081-4.2,2.018-11.583,5.973-11.583m.162,2.26c-.888,0-1.453,2.3-1.776,3.229,0,.04-.04.04-.04.081,0,.162.283.524.485.524.6,0,1.493-1.977,2.1-2.9-.282-.363-.524-.929-.766-.929" transform="translate(-22.61 -137.974)"/>
    <path id="Path_18677" data-name="Path 18677" d="M103.909,499.968a4.983,4.983,0,0,1-.081.726c-.363,2.341-.686,4.722-.968,7.062-.162,1.454-.363,3.108-1.332,3.108-.363,0-.686-.283-1.049-.767-1.13-1.332-.4-2.542-1.09-2.542-.242,0-1.614,1.211-2.986,1.211a2.057,2.057,0,0,1-1.978-2.26,9.961,9.961,0,0,1,3.914-7.587,20.424,20.424,0,0,1,2.987-1.372c1.736.2,2.583,1.009,2.583,2.422m-3.633.081a1.34,1.34,0,0,0-.928.283c-1.05,1.453-2.866,3.874-2.866,5,0,.2.2.927.686.927,1.291,0,2.986-3.309,4.157-5.206-.484-.766-.525-1.009-1.049-1.009" transform="translate(-26.342 -138.801)"/>
    <path id="Path_18678" data-name="Path 18678" d="M113.929,488.306a8.627,8.627,0,0,0,.283-1.534.963.963,0,0,0-1.089-1.089c-.525,0-1.171.242-1.776.242a1.064,1.064,0,0,1-.969-.848c0-.807,1.251-.928,2.1-1.13,2.1-.363,2.825-1.211,2.825-3.188,0-.363-.04-.808-.04-1.211,0-1.574.606-3.552,2.5-3.552.808,0,.888.686.888,1.332,0,.848-.2,2.22-.2,3.067,0,.686.2.969.726.969.888,0,2.382-1.211,3.633-1.211a4.97,4.97,0,0,1,.767.121c-.2.242-.283.605-.525.766-1.937,1.332-5.126,2.865-5.53,4.682-.6,2.744-1.089,9.766-1.694,12.551a2.779,2.779,0,0,0-.081.525c0,.323.121.525.565.525a.984.984,0,0,0,.322-.041,1.505,1.505,0,0,1,.727.687c-.646,1.736-.646,3.794-2.3,5a2.555,2.555,0,0,1-1.332.646c-1.009,0-1.372-1.816-1.372-2.341,0-.363.04-.726.04-1.049-.081,0-.162-.04-.242-.04.606-3.188,1.17-10.695,1.776-13.883" transform="translate(-30.792 -132.79)"/>
    <path id="Path_18679" data-name="Path 18679" d="M131.792,499.333a1.088,1.088,0,0,1,.2-.645,67.518,67.518,0,0,1,4-6.014,1.524,1.524,0,0,1,1.211-.443c.646,0,1.089.241,1.089,1.534,0,1.17-.443,3.067-1.17,3.067-.4,0-.928-1.05-1.332-1.05-.6,0-.928,1.857-1.13,2.744a10.566,10.566,0,0,0,2.219.363h.4c2.3,0,3.713,1.251,3.713,3.148,0,3.431-3.431,6.578-5.892,8.6-1.534,1.251-3.108,2.34-5.085,2.34a1.736,1.736,0,0,1-1.9-1.7c0-1.978,2.7-4.359,4.439-5.448a.544.544,0,0,1,.363-.081h.444a1.593,1.593,0,0,1-.161.847c-.323.565-1.413,1.857-1.413,2.422,0,.484.121.484.524.484.565,0,2.3-1.493,2.785-2.058,1.251-1.454,3.269-3.713,3.269-5.287,0-.968-.969-1.493-2.26-1.493-.2,0-.444.121-.646.121-1.291-.04-3.672-.04-3.672-1.453" transform="translate(-35.742 -137.318)"/>
    <path id="Path_18680" data-name="Path 18680" d="M154.187,494.581a2.289,2.289,0,0,1,2.462,2.3c0,1.412-1.412,3.39-2.179,4.682-.969,1.574-3.027,2.139-3.027,4.2,0,.767-.121,1.9,1.211,1.9.807,0,1.534-.443,2.34-.443.444,0,.686.2.686.6,0,1.655-2.5,2.946-4.036,2.946-3.108,0-3.269-2.744-3.431-4.6.081-4.2,2.018-11.583,5.973-11.583m.161,2.26c-.888,0-1.453,2.3-1.776,3.229,0,.04-.04.04-.04.081,0,.162.283.524.485.524.6,0,1.493-1.977,2.1-2.9-.282-.363-.524-.929-.766-.929" transform="translate(-41.347 -137.974)"/>
    <path id="Path_18681" data-name="Path 18681" d="M162.121,500.17c.363-2.017-.081-6.175,2.623-6.175a1.628,1.628,0,0,1,1.614,1.655v.2c-.808,3.552-1.7,7.143-2.583,10.654-.2.767-1.09,1.211-1.655,1.494-.363-.525-.969-1.211-.969-1.816V505.9a.149.149,0,0,0-.121-.081c.4-1.9.727-3.713,1.09-5.65m4.359-13.762c.766,0,1.332.323,1.332.929,0-.162-.766,2.139-1.776,2.139-.242,0-1.009-.848-1.251-1.05.04-1.452.686-2.018,1.7-2.018" transform="translate(-44.923 -135.694)"/>
    <path id="Path_18682" data-name="Path 18682" d="M174.195,505.782c-1.251,0-3.067,1.857-4,1.857a1.583,1.583,0,0,1-1.372-1.413c0-1.13,3.188-4.762,3.188-6.093,0-.646-.727-.606-1.655-1.857.322-.161.686-.525,1.009-.525h.4a4.017,4.017,0,0,0,2.7-.928c.444-.363,1.412-.242,2.058-.283v.888c0,1.654-2.219,3.713-2.219,5.206,0,1.089,3.269.808,3.269,3.309,0,.121-.04.282-.04.4-.525,5-3.471,9.929-7.023,13.52-.766.808-3.027,2.664-4,2.664-.323,0-.766-.162-1.13-.2a6.3,6.3,0,0,1,.807-.928c4.6-3.633,7.225-8.395,9.121-14.085,0-1.009-.4-1.534-1.13-1.534" transform="translate(-46.141 -138.521)"/>
    <path id="Path_18683" data-name="Path 18683" d="M185.993,497.445c.121-.645.444-1.13,1.089-1.13.767,0,.968.4.968.686s-.12.6-.12.888c-.4,2.5-.808,5.085-1.131,7.587a6.135,6.135,0,0,0,.485,1.453c.363-.323.848-.525,1.049-.928,1.614-2.744,3.188-5.61,4.722-8.354.283-.565.565-1.049,1.089-1.049a1.48,1.48,0,0,1,1.494,1.453,2.712,2.712,0,0,1-.081.524c-.686,2.866-1.372,5.732-1.977,8.6a2.745,2.745,0,0,0-.081.807,21.338,21.338,0,0,0,.444,2.3c0,.645-1.05,1.372-1.736,1.372-1.252,0-1.7-2.946-2.139-4.2-1.816.807-2.421,2.381-3.632,2.381-.686,0-1.292-.485-1.574-1.453-.162-.606-.121-1.332-.323-2.018.443-2.946.928-5.973,1.453-8.919" transform="translate(-51.481 -138.458)"/>
    <path id="Path_18684" data-name="Path 18684" d="M212.548,496.712c-.6,0-.928-1.211-1.412-1.211-.686,0-3.148,4.318-4.076,6.175-1.009,2.058-1.614,4.278-2.5,6.417-.6,1.453-1.251,1.574-2.139,2.1-.283-.524-.807-1.13-.807-1.655.161-2.219.524-4.4.807-6.578.242-1.937.162-7.709,2.744-7.709,1.09,0,1.574,1.816,1.816,3.107a14.59,14.59,0,0,0,1.372-1.372c1.17-1.452,2.422-4.035,4.2-4.035.848,0,.808.846,1.291,1.533-.363,1.493-.565,3.229-1.291,3.229" transform="translate(-56.244 -137.24)"/>
    <path id="Path_18685" data-name="Path 18685" d="M222.863,494.581a2.289,2.289,0,0,1,2.462,2.3c0,1.412-1.412,3.39-2.179,4.682-.969,1.574-3.027,2.139-3.027,4.2,0,.767-.121,1.9,1.211,1.9.807,0,1.534-.443,2.34-.443.444,0,.686.2.686.6,0,1.655-2.5,2.946-4.036,2.946-3.108,0-3.269-2.744-3.431-4.6.081-4.2,2.018-11.583,5.973-11.583m.161,2.26c-.888,0-1.453,2.3-1.776,3.229,0,.04-.04.04-.04.081,0,.162.283.524.485.524.6,0,1.493-1.977,2.1-2.9-.282-.363-.524-.929-.766-.929" transform="translate(-60.506 -137.974)"/>
    <path id="Path_18686" data-name="Path 18686" d="M229.462,499.333a1.088,1.088,0,0,1,.2-.645,67.521,67.521,0,0,1,4-6.014,1.524,1.524,0,0,1,1.211-.443c.646,0,1.089.241,1.089,1.534,0,1.17-.443,3.067-1.17,3.067-.4,0-.928-1.05-1.332-1.05-.6,0-.928,1.857-1.13,2.744a10.567,10.567,0,0,0,2.219.363h.4c2.3,0,3.713,1.251,3.713,3.148,0,3.431-3.431,6.578-5.892,8.6-1.534,1.251-3.108,2.34-5.085,2.34a1.736,1.736,0,0,1-1.9-1.7c0-1.978,2.7-4.359,4.439-5.448a.544.544,0,0,1,.363-.081h.444a1.593,1.593,0,0,1-.161.847c-.323.565-1.413,1.857-1.413,2.422,0,.484.121.484.524.484.565,0,2.3-1.493,2.785-2.058,1.251-1.454,3.269-3.713,3.269-5.287,0-.968-.969-1.493-2.26-1.493-.2,0-.444.121-.645.121-1.292-.04-3.673-.04-3.673-1.453" transform="translate(-62.989 -137.318)"/>
    <path id="Path_18687" data-name="Path 18687" d="M3.754,588.958C2.22,588.958,0,587.02,0,585.366a4.434,4.434,0,0,1,4.56-3.915c1.291,0,2.7,1.614,2.7,3.147,0,1.777-1.978,4.359-3.511,4.359" transform="translate(0 -162.208)"/>
    <path id="Path_18688" data-name="Path 18688" d="M58.957,588.509c.162.2.4.4.444.646a47.582,47.582,0,0,1,.645,6.82,22.59,22.59,0,0,1-.162,2.381c-.161,1.09-1.412,2.543-2.3,2.543a3.013,3.013,0,0,1-2.18-1.089,55.318,55.318,0,0,1-4.842-7.749c-1.655-3.35-2.946-6.861-4.48-10.332-.121-.323-.485-.525-.808-.848-.2.323-.6.686-.686,1.009-.283,1.9-.525,3.834-.767,5.731-.121,1.049-.4,2.18-1.534,2.381a4.041,4.041,0,0,1-1.17-2.221A22.9,22.9,0,0,1,41,585.4c0-1.09.2-2.26.2-3.349,0-1.332-.726-1.372-2.018-2.865a9.134,9.134,0,0,1,1.13-.283h.444a1.027,1.027,0,0,0,1.17-.968c.525-3.067,1.09-6.134,1.655-9.2v-.4c.283-1.654,1.009-2.623,2.139-2.623,1.009,0,1.574.606,1.574,1.857a7.633,7.633,0,0,1-.121,1.251c-.444,2.462-.968,4.924-1.453,7.427a.361.361,0,0,0-.04.2,4.058,4.058,0,0,0,.2,1.009,4.609,4.609,0,0,0,1.251-.363c3.31-2.663,7.466-7.184,7.466-11.22,0-2.946-1.412-4.519-3.914-4.519a11.892,11.892,0,0,0-6.7,2.017c-.4.242-.968.121-1.453.2.242-.485.283-1.17.646-1.373a11.739,11.739,0,0,1,7.062-2.462,12.312,12.312,0,0,1,2.421.242c2.22.4,3.915,3.31,3.915,6.013,0,2.946-2.018,5.973-3.794,8.193-1.332,1.654-4.4,4.076-4.4,5.327a4.027,4.027,0,0,0,.767,1.9,44.318,44.318,0,0,1,1.937,4.2,100.563,100.563,0,0,0,4.843,10.049c.162.364.767.565,1.17.808a5.1,5.1,0,0,0,.525-1.736,3.214,3.214,0,0,0-.121-.6h-.2c.363-1.7.646-4.8,1.655-5.61" transform="translate(-10.93 -156.15)"/>
    <path id="Path_18689" data-name="Path 18689" d="M71.294,579.1a2.289,2.289,0,0,1,2.462,2.3c0,1.413-1.412,3.39-2.179,4.682-.969,1.574-3.027,2.139-3.027,4.2,0,.767-.121,1.9,1.211,1.9.807,0,1.534-.443,2.34-.443.444,0,.686.2.686.6,0,1.655-2.5,2.946-4.036,2.946-3.108,0-3.269-2.744-3.431-4.6.081-4.2,2.018-11.583,5.973-11.583m.162,2.26c-.888,0-1.453,2.3-1.776,3.229,0,.04-.04.04-.04.081,0,.161.283.524.485.524.6,0,1.493-1.977,2.1-2.905-.282-.363-.524-.929-.766-.929" transform="translate(-18.223 -161.552)"/>
    <path id="Path_18690" data-name="Path 18690" d="M79.339,583.964c0-3.632,1.412-8.757,4-8.757.848,0,1.534.968,2.26,1.815a3.31,3.31,0,0,0,.646-.888c1.251-3.511,2.462-6.578,4.116-11.138a1.341,1.341,0,0,1,1.332-1.009c1.13,0,1.453.485,1.453,1.009a6.7,6.7,0,0,1-.121.888c-.767,3.35-.888,4.6-1.655,7.91-.726,3.188-1.736,6.3-2.542,9.443-.848,3.39-1.453,9.484-3.794,9.484-.686,0-1.089-.726-1.089-2.017,0-.848.121-1.736.2-2.583a7.949,7.949,0,0,0-.162-1.372,5.391,5.391,0,0,0-1.291.6,2.431,2.431,0,0,1-1.534.888c-1.13,0-1.9-1.937-1.9-2.785,0-.4.081-.727.081-.929Zm1.978,1.938a2.3,2.3,0,0,0,1.13-.484,22.235,22.235,0,0,0,2.5-5.852c0-.808-1.412-1.978-1.978-1.978-.767,0-1.736,5-2.26,7.022.242.565.363,1.211.606,1.292" transform="translate(-22.111 -157.336)"/>
    <path id="Path_18691" data-name="Path 18691" d="M99.965,581.965c.121-.645.444-1.13,1.089-1.13.767,0,.968.4.968.686s-.12.6-.12.888c-.4,2.5-.808,5.085-1.131,7.587a6.135,6.135,0,0,0,.485,1.453c.363-.323.848-.525,1.049-.928,1.614-2.744,3.188-5.611,4.722-8.355.283-.565.565-1.049,1.089-1.049a1.48,1.48,0,0,1,1.494,1.453,2.711,2.711,0,0,1-.081.524c-.686,2.866-1.372,5.731-1.977,8.6a2.744,2.744,0,0,0-.081.807,21.33,21.33,0,0,0,.444,2.3c0,.645-1.05,1.372-1.736,1.372-1.252,0-1.7-2.946-2.139-4.2-1.816.807-2.421,2.381-3.632,2.381-.686,0-1.292-.484-1.574-1.453-.162-.606-.121-1.332-.323-2.018.443-2.946.928-5.973,1.453-8.919" transform="translate(-27.482 -162.037)"/>
    <path id="Path_18692" data-name="Path 18692" d="M122.278,586.013c-.565-.807-.848-1.332-1.211-1.332a1.047,1.047,0,0,0-.686.444,9.026,9.026,0,0,0-1.574,5.529,1.262,1.262,0,0,0,1.372,1.251c.808,0,1.857-.968,2.583-.968.242,0,.524,0,.524.484,0,1.292-2.744,2.664-4.237,2.664-2.663,0-2.906-3.188-2.906-4.52a7.686,7.686,0,0,1,3.229-6.579,3.413,3.413,0,0,1,2.179-.807c.888,0,1.251.524,1.251,1.614v.363a4.908,4.908,0,0,1-.524,1.857" transform="translate(-32.401 -162.411)"/>
    <path id="Path_18693" data-name="Path 18693" d="M134.822,579.1a2.289,2.289,0,0,1,2.462,2.3c0,1.413-1.412,3.39-2.179,4.682-.969,1.574-3.027,2.139-3.027,4.2,0,.767-.121,1.9,1.211,1.9.807,0,1.534-.443,2.34-.443.444,0,.686.2.686.6,0,1.655-2.5,2.946-4.036,2.946-3.108,0-3.269-2.744-3.431-4.6.081-4.2,2.018-11.583,5.973-11.583m.162,2.26c-.888,0-1.453,2.3-1.776,3.229,0,.04-.04.04-.04.081,0,.161.283.524.485.524.6,0,1.493-1.977,2.1-2.905-.282-.363-.524-.929-.766-.929" transform="translate(-35.945 -161.552)"/>
    <path id="Path_18694" data-name="Path 18694" d="M160.665,584.488a4.983,4.983,0,0,1-.081.726c-.363,2.341-.686,4.722-.968,7.062-.162,1.454-.363,3.108-1.332,3.108-.363,0-.686-.283-1.049-.767-1.13-1.332-.4-2.542-1.09-2.542-.242,0-1.614,1.211-2.986,1.211a2.057,2.057,0,0,1-1.978-2.26,9.961,9.961,0,0,1,3.914-7.587,20.434,20.434,0,0,1,2.986-1.372c1.736.2,2.583,1.01,2.583,2.422m-3.633.081a1.34,1.34,0,0,0-.928.283c-1.05,1.453-2.866,3.874-2.866,5,0,.2.2.927.686.927,1.291,0,2.986-3.309,4.157-5.206-.484-.766-.525-1.009-1.049-1.009" transform="translate(-42.175 -162.38)"/>
    <path id="Path_18695" data-name="Path 18695" d="M173.268,586.013c-.565-.807-.848-1.332-1.211-1.332a1.047,1.047,0,0,0-.686.444,9.026,9.026,0,0,0-1.574,5.529,1.262,1.262,0,0,0,1.372,1.251c.808,0,1.857-.968,2.583-.968.242,0,.524,0,.524.484,0,1.292-2.744,2.664-4.237,2.664-2.663,0-2.906-3.188-2.906-4.52a7.686,7.686,0,0,1,3.229-6.579,3.412,3.412,0,0,1,2.179-.807c.888,0,1.251.524,1.251,1.614v.363a4.908,4.908,0,0,1-.524,1.857" transform="translate(-46.625 -162.411)"/>
    <path id="Path_18696" data-name="Path 18696" d="M186.013,586.766c-1.291,2.3-2.986,6.7-4.964,6.7-.928,0-1.211-.808-1.211-1.574,0-2.18.283-4.481.443-6.66l.242-2.018a1.435,1.435,0,0,1,1.494-1.372c1.009,0,1.291.727,1.291,1.493,0,.969-.2,2.018-.2,2.987a9.611,9.611,0,0,0,.2,1.05,3.18,3.18,0,0,0,.888-.727l1.574-2.7a4.159,4.159,0,0,1,2.623-1.615c.808,0,1.009.767,1.009,1.413a7.682,7.682,0,0,1-.081.968c-.484,3.875-.968,7.708-1.493,11.583a2.449,2.449,0,0,1-.565,1.05,3.89,3.89,0,0,1-.4-1.211,104.065,104.065,0,0,1,.808-11.18c-.121,0-.161-.08-.283-.162a19.42,19.42,0,0,0-1.372,1.978" transform="translate(-50.17 -162.317)"/>
    <path id="Path_18697" data-name="Path 18697" d="M201.315,579.1a2.289,2.289,0,0,1,2.462,2.3c0,1.413-1.413,3.39-2.179,4.682-.968,1.574-3.027,2.139-3.027,4.2,0,.767-.121,1.9,1.211,1.9.807,0,1.534-.443,2.34-.443.444,0,.686.2.686.6,0,1.655-2.5,2.946-4.036,2.946-3.108,0-3.269-2.744-3.431-4.6.081-4.2,2.018-11.583,5.973-11.583m.161,2.26c-.888,0-1.453,2.3-1.776,3.229,0,.04-.04.04-.04.081,0,.161.283.524.485.524.6,0,1.493-1.977,2.1-2.905-.282-.363-.524-.929-.766-.929" transform="translate(-54.495 -161.552)"/>
  </g>
</svg>
