<svg xmlns="http://www.w3.org/2000/svg" xmlns:xlink="http://www.w3.org/1999/xlink" width="377.849" height="110.789" viewBox="0 0 377.849 110.789">
  <defs>
    <clipPath id="clip-path">
      <rect id="Rectangle_3586" data-name="Rectangle 3586" width="377.849" height="110.789" fill="none"/>
    </clipPath>
  </defs>
  <g id="Group_2095" data-name="Group 2095" transform="translate(-832.008 -4057.201)">
    <g id="Group_2023" data-name="Group 2023" transform="translate(832.008 4057.201)" clip-path="url(#clip-path)">
      <path id="Path_18539" data-name="Path 18539" d="M465.5,145.335a.461.461,0,0,1,.053-.165c-.079.02-.13.057-.053.165" transform="translate(-183.421 -52.333)" fill="#008700"/>
      <path id="Path_18540" data-name="Path 18540" d="M465.678,145.145l-.052-.005-.011.019c.02-.005.041-.01.063-.014" transform="translate(-183.48 -52.323)" fill="#008700"/>
      <path id="Path_18541" data-name="Path 18541" d="M528.757,144.23a1.014,1.014,0,0,0-.192-.047c.064.056.131.081.192.047" transform="translate(-208.287 -51.978)" fill="#008700"/>
      <path id="Path_18542" data-name="Path 18542" d="M14.445,106.072c-2.06.382-1.039.357,1.07.161-.23-.248-.93.227-1.07-.161" transform="translate(-5.249 -38.239)" fill="#008700"/>
      <path id="Path_18543" data-name="Path 18543" d="M369.267,49.363c.055.193.233.455.025.5a9.349,9.349,0,0,0-2.383-.113.375.375,0,0,1,.326.306c-3,.012-6.441,1.243-8.064-1.092.348.157.533.132.49-.215-.647-.2-1.831-.628-1.572-1.367-.87.285-1.92-.609-1.687-1.188-.156-.214-.4-.283-.47-.629-.658-.079-.448-.1-.676.233a1.1,1.1,0,0,0-.4-.468c.285-.043.658-.039.417-.377-.416.09-.611.031-.717-.1a9.107,9.107,0,0,0,1.715-.4l.213.487a3.623,3.623,0,0,1,.837-.5c-1.116.063-1.242-.007.991-.329l.035.031a4.1,4.1,0,0,0-1.025.3c.342-.019.776-.051,1.266-.093a1.44,1.44,0,0,0,.167.113c1.944-.4,3.348,2.188,5.618,2.165-.337-.878.593-1,1.585-.823-.357-.808.337-.664,1.1-.607-.847-1.166.191-1.637.064-2.356l.464-.044a.336.336,0,0,1-.075-.237c-.144.038-.3.068-.445.1a1.454,1.454,0,0,0-.346-.464c.339.187.788.148.676-.231-.252-.246-.9.122-.96-.416-.071-.242.387-.189.675-.232-.711-1.427-2.341-1.434-3.57-2.058.156-.037.277-.114.289-.2.025-.171.238-.213.591-.178a.683.683,0,0,0,.573-.164.77.77,0,0,1,.179-.189c1.714.2,3.357,1.142,4.9.658.093.214.188.43.282.646,1.908.278,1.668-1.2,2.335-1.863.674,0,1.4-.012,2.049-.017a2.006,2.006,0,0,0,1.574-.586l.008-.014c-.37-.064-1.012.3-1.191-.057.986-.169-.132-.136-2.261,0-3.566-.6-17.372-.339-16.093-.813-.256-.19.961-.6.885-1.092,3.1-.3-1.294-3.057-1.209-4.095a8.972,8.972,0,0,1-2.532-1.783c.683-.083.413-.346-.025-.5l.748-.07c-.491-1.011.162-1.114-.894-1.6a4.1,4.1,0,0,1-2.114.225.183.183,0,0,0-.092-.079.393.393,0,0,1-.207-.271,2.569,2.569,0,0,1-.4.194,5.486,5.486,0,0,1-2.191-1.283c.286-.042-.035-.427.418-.375-.159-.75-1.1-.292-1.359-.881,1.386.111,2.066,1.321,3.393,1.531-.353-.444.079-.444-.165-.826-.37,0-.333.221-.676.231.229-.348-.593-.461-.8-.935-.8.1-.8-.2-1.706-.344.044.281-.86.643-1.237.284,1.2-.047-.5-.412.276-.7-1.716-.108-2.37-.5-3.273-.363a1.179,1.179,0,0,0,.6-.606c4-.069,6.613-.119,6.57-.129a7.738,7.738,0,0,0-3.988.031.628.628,0,0,1-.427.011,4.537,4.537,0,0,0-2.106-.288,1.442,1.442,0,0,0-.092-.418c-.453.157-.508-.3-.773-.434-2.518-.1-4.2-1.649-7.157-1.684.359-.955,2.3-.581,4.015-1.051.091-.519.474-.874.041-1.688-1.955.326-5.056-.726-6.8.473-1.688-.888-3.958.921-6.283.758-.914-.065-2.924.186-2.939,1.287-2.2.133-4.327.671-6.854,1.071-.328-.058-.664-.112-1.008-.148a.3.3,0,0,0,.093.282c-.265.036-.527.074-.8.1-.4-.4.271-.749-.469-.629a1.355,1.355,0,0,1-.733.5c-1.417.243-3.185.146-4.232.826.3-.652-.55-.1-.631-.109-.032,0-.107-.318-.14-.323a12.577,12.577,0,0,0-3.816.2c-.176-.038-.356-.082-.542-.137a.739.739,0,0,1,.062.219c-.442.079-.88.162-1.31.243.128-.341.577-.423,1.131-.283-.668-.7.648-.29.208-.862-.848-.173-2.02,2.028-3.6.674,1.79.106,1.713-.831,2.566-1.25a1.635,1.635,0,0,0-1.254-1.532l.2.453c-.36.106-.542-.064-.819-.091.053-.154.1-.311-.142-.323-.133-.409.385.153.717-.051a14.848,14.848,0,0,1-2.493-.455c-1.508.368-4.307-.335-5.3.329.668.141,1.821-.267,2.408.615-.042.84-1.28-.3-1.166.448.917.137,1.1-.272,1.708.345-.246.024-.046.3-.232.357a3.053,3.053,0,0,1-1.942-.865c.007.187-.739-.416-.537.088.336.112.5.495.727.774a1.985,1.985,0,0,1,2.037.652c-1,.974-2.51.157-3.128,1.3-.315-.341-1.631-.534-1.823-.166.326-.051.507.121.586.451a37.357,37.357,0,0,0-7.082-.176c.47-.539.959-.331,1.658-.66-.5-.23-1.121-.258-1.476-.7.481-.4.876-.729.627-1.24.979-.219,1.386-.867,2.662-.585-.707-.668-1.414-.208-1.94.015-.07-.162-.235-.18-.329-.307.516-.956-.188-1.623-1.086-2.928,3.482-1.2,7.483.436,10.909-.858,1.448.031,3.273.79,5.212.351.1.4.5.319.541.791a7.293,7.293,0,0,1,4.582.242c-.31-1.124,1.736.208,2.172-.373.173.224.343.253.211.487.983-1.156,2.836.815,4.324.1-.851-.042.3-.944-1.1-.738-.1.392.747.563.285.649-.379-.988-1.838-.641-2.764-1.425-.648,1-2.077.227-3.551.334-.281-.3-1.041-1.259-1.286-.719.726-.151.1.584.166.826a20.458,20.458,0,0,1-3.272-.365c.01-.783.087-.53.979-.428-.281-.6-.411-.441-.425-.973-.949-.123-.778.381-1.095.609-.2-1.1-2.329-.215-3.228-.7.189.347.072.528-.349.535-.028-.237.107-.293-.212-.484-3.564.365-6.6,1.2-10.019,1.112-.855.639-3.841,1.406-4.4-.262-4.281-.5-7.971.576-12.43.5-1.065.931-2.914.934-4.343.744.212.029-.231.412-.677.233-1.582-.632.251-1.2,1.4-1.312-.717-.012-.306-1.106-.285-1.487,1.912-.609,3.624-.727,5.252-1.335.513.019.774.428,1.333.379.511-.709,1.789.157,2.687-.084.513-.137.6-.875,1.14-.95.6-.081,1.446.545,1.966.489.311-.032.73-.366.979-.428-.026.006.012.334-.045.341.559-.054.633-.531,1.1-.608.084-.012.344.452.4.467.8.21,1.252-.72,1.959-.857.744.416-.309.8.54.789-.191-.554.641-.536.768-.913.92.846,2.071-.274,2.221.632a19.712,19.712,0,0,1,4.389-1.085c-.228-.007-.315-.236-.4-.467a4.64,4.64,0,0,0,2.475-.57c.073.164-.066.207-.045.343a29.621,29.621,0,0,1,5.233-.494c.093-.23.1-.516.279-.7.652.377.694.182.863-.249.507.264.633.927,1.031.575-.836-.4.5-.6.838-.751.144.321.6.157.658.611.219.368-.462.23-.351.538,1.211-.162.994-.643.743-1.416-.561-.219-1.309-.146-1.895-.327.053.953-2.2.583-2.8.263.246-.025.045-.3.233-.357.112.187.167.46.4.466.652-1.1,2.061-.649,3.593-.676-.716-.6.137-.526-.12-1.166-1.474.143-2.936.34-4.3.4.725.258-.339.531-.465.718-.462-.2-1.724-.569-1.895-.326.232.006.316.235.4.467-1.1-.646-2.107-.245-3.272-.366,1.211-.022.5-.366,1.283-.625-.914-.141-1.465-.307-1.8.336l-.213-.485c-1.521.7-4.714-.1-6.725.634-.112-.189-.17-.464-.4-.468-1.7.785-5.034-.039-5.723.707-.339-.6.486-.915,1.1-.609-.616-1.108-1.317-.146-1.753,0,.026-.009-.17-.314-.141-.322-.665.244-.683,1-1.445,1.146-.971.19-1.626-.629-2.829-.241.725.725-1.357.177-1.657.662,2.051-.1-1.919.974-2.385-.113.644-.007.55-.425.912-.59-1,.161-.618-.116-1.1-.738-.75.255-1.049-.188-1.637-.183.314.508,1.04.382,1.474.7a.73.73,0,0,0-.487.216c-.521-.157-1.164-.941-1.265-.217a1.209,1.209,0,0,0-.469-.629c2.844-.662,3.834-1.019,6.915-.652,1.468-.65,3.7.226,5.092-.815.152.3.666.054.77.432,2.12-.687,5.346.758,6.729-.633-.541.023-1.22.261-1.449-.2.6-.01,2.984-.821,2.9.4a3.46,3.46,0,0,1,1.423-.3c-.01-.708-.978.067-1.145-.4.813-.153,2.56-.643,3.574.167,3.4-.35,5.88-.82,8.5-.126-.25-.847.537.343.89.252.387-.251-.519-.774-.167-.825.187-.017.165-.152.3-.2.66-.21.836.332,1.332.379.032-.471,1.018-.408,1.727-.5.674,1.2,1.691.3,2.455.275,3.134-.118,7.422.059,9.813-.25-2.1-.282-2.567.175-4.465-.42-1.944.858-5.169.166-7.545.54-.148-.406-.513-.473-.727-.773.115-.262.6-.318.721-.573-.873-.279-2.432.9-4.066.045.127.544-.6.3-1.052.267-.125,1.158-2.964,1.362-4.13,1.232-.092-.309,1.691-.18.98-.43-.559.049-1.131.122-1.334-.38.288-.123,1.184.095,1.052-.267-.7-.181-1.788.232-1.92-.829-.837-.048.523.593-.278.7a.406.406,0,0,0-.445-.125c-.563-.721,0-.815.067-1.184-1.025-.353-.784.317-.723.571-.77-.377.222-.659-.425-.969a6.989,6.989,0,0,0-2.2-.13.825.825,0,0,1,.515.288c-.374-.065-.568.547-.934.09.21-.045.544-.022.49-.216C290.764.147,289.236.7,288.283,0c-.364.257.55.455.1.663-.973.328-1.215-.474-1.966-.487,0,.244.585.815.167.825-.694-.014-1.686.435-1.895-.326.147-.137,1.362-.279.794-.412-.916.412-1.805.122-1.96.858-.837-.125-.245-.884-.985-.917-.216.122.245.625-.091.682-.377-.271-2.646-.77-1.448-.2a10.871,10.871,0,0,0-2.127.033c.074.243.328.589.1.664-3.387-.3-5.772.691-8.738.484.049.286.459.389.212.485-1.16-.157-2.117-.305-2.546.409a.607.607,0,0,1-.024-.5,4.089,4.089,0,0,1-2.571-.094c.235-.69,1.437-.229,1.186-1.291-1.254.214-1.239,1.607-2.869,1.448-.1.394.747.562.284.647-.659-.149-.783-.056-1.052.268-.228-.553-.811-.551-1.288-.721-1.227.743-3.135-.223-4.086.888A27.262,27.262,0,0,0,247.9,4.641c-.339-.38-1.12-.078-1.289-.72-.81.691-1.839-.248-2.289.549.238,0,.465.008.516.289a3.888,3.888,0,0,1-1.237.285c-.13-.252-.219-.562-.587-.45-.147,1.1-2.094.205-3.06.118.084.325.394.3.587.45-.69.153-2,.388-2.527-.436.4-.219.957.633,1.006.075-.282-.019-.369-.336-.585-.448-1.631,1.117-4.579,1.078-5.956,1.062-.507,0-.5.567-.722.575-.6.019-1.374-.657-2.267-.293.165-.068-.269.011-.748.07-.183.023-1.992.546-2.758-.077-.257-.4,1.361-.364.722-.572-.648.119-.793.331-1.5.139.511.823-.685.766-1.166.446.488-.3,1.312-.405,1.328-.968-1.046.367-2.908,1.275-3.389-.185.069.164-.238.233-.374.035.586-.473.13-.794.627-1.237-1.8,1.62-4.75-.481-6.044,1.748-.178-.3.054-.376-.1-.664-.588.038-.311.559-1.168.446-.092-.309-.367-.337-.471-.629-.459.108-.988.18-1.166.446a1.508,1.508,0,0,1,1.663.686c-1.353-.127-1.641.665-3.132-.042.817.089.351-.537,1.168-.447-.348-.365-.509-1.018-1.172-.9.073.243.327.59.1.664-.2-.744-2.736-.739-3.79-.654.065.624.667.417.8.934a2.041,2.041,0,0,0-1.191-.055c.218-.432.116-.369-.238-.987-.662-.088-.022.557-.536.555-.245-.616-1.129-.242-1.474-.7-.582.62-1.015.193-1.077-.233-.518.512-.864.382-1.142.948-.451-.292-.072-.208-.283-.647-.728.243-.68.159-1.379-.038-.208.208-.256.508-.463.718-.478-.3-.808-.037-.4-.468-2.2-.131-2.086,1.773-3.244,1.484.4,1.2-.662.816-1.54.48-.094.393.748.562.283.648a2.038,2.038,0,0,0-1.752,0c-.385-.5.076-.528.02-.844-.3.307-1.028.061-1.05.267a1.431,1.431,0,0,1,.774.433c-.443.036-.43.329-1.051.267l-.213-.487c-1.194,1.036-3.755.433-4.131,1.232-.537.2-.571-.384-.96-.416a1.087,1.087,0,0,0,.4.467c-.3.414-3.041-.622-1.5.141-.913.016-1.453-.593-1.822-.165.457.006.627.4.213.485.164-.262-.081-.526-.587-.449-.057.294-.431.408-.723.572.312-.487-.988-.212-1.191-.055.161.02.37-.031.445.126-.344.1-1.211.531-1.682.158.017-.235.71-.092.607-.393-.756-.228-.738.3-1.355.463-.71-.938-1.545.9-2.266-.292,1.769.481,1.838-1.683,3.293-.479-.365-.916.5-.427,1.211-.788-.437-.489.121-.42.09-.68-.918-.049-.454.229-.6.393-.251-.156-.71.015-.773-.432.208-.045.542-.023.489-.216a1.317,1.317,0,0,1-1.519-.359c-.817.466-1.7.074-3.668.514-.226.317.474.476-.092.68-2.752-.51-4.355,1.124-6.4.94-.169.526.751.9-.136,1.023-.563-.184-.574-.526-.613-.953-1.435.8-2.968-.073-4.742.278-.173,1.447-3.324.352-3.99,1.554a2.828,2.828,0,0,1,2.57.095c-.445.654-2.559,1.042-2.758-.077-.772.672-2.189-.487-2.1.534-.657-1-2.764-.766-3.832-.313.159-.066-.355-.157-.82-.092-2.422.352-5.572.4-7.563,1.386-.131-.253-.221-.565-.588-.451.16.416.33.837-.206.863-.275-.342.3-.564-.4-.468-.06.29-.379.531-.863.25-.312.271.407.372.025.5a1.191,1.191,0,0,1-.889-.253c-.095-.256.42-.171.162-.52-.533.413-.757.288-1.469.644.208.556.624-.074,1.028.576-3.129,2.418-8.224,2.3-12.3,3.01-.386-.4,1.043-.368.348-.538-1.616.6-1.793,1.14-3.48.494-.687.065-.468.636-.768.916-.839-.344-2.292.965-3.5-.008.152.6-.945.026-1.1.608-.281-.595-.548-.435-.63-.108-.491-.923-1.126-.127-1.663-.686-.064.575-.647.506-1.425.3-.311.271.407.372.026.5-1.083-.3-2.083.672-3.085-.384-.19.8-2.789.79-3.621.175.106.381-.2.606-.61.712a3.812,3.812,0,0,1-1.745-.983c-.082-.226,1.3-.225.607-.393a6.352,6.352,0,0,1-2.965.783c.251.246.9-.123.959.414-.587,0-1.374.316-1.637-.182.43-.31-.651-.822-.584-.449.569.1.1.609-.093.68-.139-.235-.517-.106-.819-.091a1.224,1.224,0,0,0-.469-.628,2.622,2.622,0,0,0-1.166.444c-2.764-.665-5.35,1.359-7.843,1.085-.287.482-1.395.166-1.148.6-.279-.134-1.417-.306-1.379-.038.236.269.881-.1,1.076.235.041.186-.1.271-.231.358-.516-.3-.635-.238-.859-.074a1.783,1.783,0,0,1-.2-.346c-.485.045-.43.2-.334.372-.165-.093-.329-.187-.5-.276a23.338,23.338,0,0,1-2.663.585.606.606,0,0,1-.027-.5,1.347,1.347,0,0,1-1.378-.04,2.177,2.177,0,0,0,.954-.93c-.706.338-2.1.291-2.075,1.037.374.064.569-.545.934-.088a3.263,3.263,0,0,0-1.214.785c-.1-.291-.35-.359-.7-.268.234-.446-.607-.872-1.058-1.079.135.6.676.582.87,1.1-.928-.056-.085.272-.421.377-.923.161-1.318-.489-2.151-.471,0-.531.723-.655.885-1.092-1.1,0-.881.727-1.772.839-.155-.407.134-.538-.47-.629-.744,1.108-3.283,1-4.692,1.283.422.373.436-.345.817.09.052.233-.328.223-.419.377-.275-.385-.873-.277-.985-.917-.8.674-2.152.29-3.408.657-.279-.223-.982-1.166-1.219-.56.238,0,.464.006.517.29a11.515,11.515,0,0,1-2.547.4c-.617-1.122-2.114-.887-3.136-1.387-.313.271.408.372.025.5-2.26-.613-3.393-.427-6.1-.6,1.11-.373-1.266-.108-.656-.611a4.49,4.49,0,0,1-2.469.634c.2.177.36.668.091.6-.507-.255-.313-.593-.888-.255-.144-.592-.468-.906-.986-.916-.216.122.244.624-.091.681-.692-.205-.788-.072-1.263-.219a.569.569,0,0,0,.349-.536c-.572.169-.447-.306-.4-.467a4.735,4.735,0,0,1-1.779-.506c.351.792,1,1.151.779,1.777.626.028.84.691,1.241,1.062a23.385,23.385,0,0,1-9.559-.952c.135-.555-.079-1.032-.825-1.438.215,3.163-4.906-.029-6.749,1.475.132.924.59.977,1.037,1.924-1.532,0-1.5.873-1.864,1.522a21.336,21.336,0,0,1-2.661.587c-.108-.2-.223-.377-.515-.288-.444.2.628.253.541.79-1.227.227-.867,1.8-2.237,1.557a2,2,0,0,1,.591,1.8c-.1-.211-.609-.156-.56.054.322.022.086.231-.3.2.287-.3-1.469-1.136-1.334-.381.8.253,2.1.418,1.944,1.332a1.268,1.268,0,0,1,1.335.381,2.679,2.679,0,0,1-.465.717,8.328,8.328,0,0,0,1.1.739,3.494,3.494,0,0,1-3.995.207c-.654.285-.865,1.768-2.031.7a1.184,1.184,0,0,0,.768-.914c-.746.062-1.263,1.166-2.172.373a7.112,7.112,0,0,1,5.6-1.875c-1.757-.772-4.009.187-5.58,1.03a4.476,4.476,0,0,0-3.41.657c-.481-.07-.734-.491-1.217-.558-1.389.183-3.928,2.005-4.626.1-.774-.189.127.56-.348.539-.393-.119-.782-.241-.917-.757,1.191-1.613,3.43-2.641,4.8-4.154-.694-.371-1.549-.5-1.944-1.331-4.172.344-3.986,4.373-8.279,4.65,1.278,1.457-.187,2.282,1.371,3.575a.919.919,0,0,0-.677.232c.768,1.272,1.478,2.144.97,3.105.121.269.559.043.7.271-.63.056-.224.691-.323,1.042.214.214.73-.043.889.251,2.34,3.51,4.276,5.207,7.583,8.883a9.907,9.907,0,0,1,2.2,1.184,58.28,58.28,0,0,1-10.489,1.433c.713,1.456-2.423,1.144-3.525.836-.086.942-1.716.073-1.586.824.613.317,1.763-.191,2.153.471a2.452,2.452,0,0,0,.3.624c-.9.155-1.631.3-2.118.431-1.235-.152-2.236-.5-2.755.047a7.693,7.693,0,0,1,2.491.578.245.245,0,0,0-.11.308c.851-.225.676.715.729.774a11.165,11.165,0,0,0,1.815,1.494,1.171,1.171,0,0,0,.547.4,7.51,7.51,0,0,1,1.692,1.6c-1.746.776-4.592-1.138-5.889-.12-.86-.387-1.976-.381-2.506-1.28.578-.084,1.066-.216.837-.752A14.687,14.687,0,0,0,0,53.818l8.581,7.608c-.055-.193-.233-.455-.025-.5a9.377,9.377,0,0,0,2.383.113.375.375,0,0,1-.326-.306c3-.012,6.441-1.243,8.064,1.093-.348-.157-.533-.132-.49.214.647.2,1.831.628,1.572,1.367.87-.285,1.92.609,1.687,1.188.156.214.4.283.47.63.657.079.448.1.676-.233a1.1,1.1,0,0,0,.4.469c-.285.043-.657.039-.417.377.416-.09.61-.032.717.1a9.1,9.1,0,0,0-1.715.4l-.214-.487a3.606,3.606,0,0,1-.836.5c1.116-.063,1.242.007-.991.329l-.035-.031a4.1,4.1,0,0,0,1.025-.3c-.342.02-.777.052-1.266.093a1.356,1.356,0,0,0-.167-.113c-1.943.4-3.347-2.188-5.618-2.165.338.878-.593,1-1.585.823.357.808-.337.664-1.1.607.847,1.166-.19,1.636-.064,2.355l-.464.044a.337.337,0,0,1,.075.237c.144-.038.3-.068.445-.1a1.466,1.466,0,0,0,.345.463c-.339-.187-.787-.148-.676.231.252.245.9-.123.96.415.071.242-.387.19-.675.233.711,1.427,2.341,1.434,3.57,2.057-.156.038-.277.114-.289.2-.025.171-.238.213-.591.178a.683.683,0,0,0-.573.164.778.778,0,0,1-.179.188c-1.714-.2-3.357-1.142-4.9-.657-.093-.215-.188-.43-.282-.647-1.908-.278-1.668,1.2-2.335,1.863-.674,0-1.4.012-2.049.018a2,2,0,0,0-1.574.586l-.008.013c.37.064,1.011-.3,1.19.058-.986.169.133.136,2.262,0,3.566.6,17.372.34,16.093.813.256.19-.961.6-.885,1.092-3.1.3,1.295,3.057,1.209,4.095a8.97,8.97,0,0,1,2.531,1.782c-.682.083-.413.347.025.5-.25.022-.5.047-.748.07.491,1.01-.162,1.113.894,1.6a4.091,4.091,0,0,1,2.114-.224.18.18,0,0,0,.092.079.4.4,0,0,1,.207.271,2.712,2.712,0,0,1,.4-.194A5.492,5.492,0,0,1,29.1,84.661c-.287.041.035.427-.419.375.159.75,1.1.291,1.359.881-1.386-.111-2.066-1.322-3.393-1.532.353.444-.08.445.165.826.37,0,.333-.221.676-.231-.229.348.593.46.8.935.8-.1.8.2,1.706.344-.044-.281.86-.644,1.237-.285-1.2.048.5.413-.276.7,1.716.109,2.37.5,3.273.364a1.174,1.174,0,0,0-.6.606c-4,.069-6.613.119-6.57.129a7.731,7.731,0,0,0,3.988-.031.631.631,0,0,1,.427-.011,4.546,4.546,0,0,0,2.106.288,1.453,1.453,0,0,0,.092.418c.453-.157.508.3.773.433,2.518.1,4.2,1.649,7.157,1.684-.359.955-2.3.581-4.014,1.051-.091.519-.474.874-.041,1.688,1.955-.326,5.056.726,6.8-.474,1.688.888,3.958-.92,6.284-.758.913.065,2.924-.186,2.939-1.286,2.2-.133,4.327-.672,6.854-1.071.328.058.664.112,1.008.148a.3.3,0,0,0-.093-.282c.265-.036.527-.073.8-.1.4.4-.271.749.469.628a1.354,1.354,0,0,1,.733-.5c1.417-.243,3.185-.146,4.232-.827-.3.652.55.1.631.109.032,0,.107.318.141.324a12.594,12.594,0,0,0,3.815-.2c.177.038.356.082.542.137a.734.734,0,0,1-.062-.219c.442-.079.88-.162,1.31-.244-.128.341-.577.424-1.131.283.668.7-.648.29-.208.861.848.173,2.02-2.028,3.6-.673-1.79-.106-1.713.831-2.566,1.25A1.635,1.635,0,0,0,74.9,91.935c-.066-.15-.132-.3-.2-.452.361-.106.542.063.819.091-.052.155-.1.311.142.323.133.409-.385-.152-.717.051a14.845,14.845,0,0,1,2.493.454c1.508-.368,4.306.335,5.3-.329-.667-.14-1.821.267-2.408-.615.042-.84,1.28.3,1.166-.448-.917-.137-1.1.272-1.707-.345.245-.024.045-.3.231-.357a3.056,3.056,0,0,1,1.943.865c-.007-.187.739.416.537-.088-.336-.112-.5-.494-.727-.774a1.986,1.986,0,0,1-2.037-.651c1-.975,2.51-.157,3.128-1.3.315.342,1.63.534,1.823.166-.326.052-.507-.12-.585-.451a37.35,37.35,0,0,0,7.082.176c-.47.539-.959.332-1.658.661.5.23,1.121.258,1.476.7-.481.4-.876.729-.627,1.24-.979.219-1.386.867-2.662.584.707.669,1.414.208,1.94-.015.07.163.236.181.33.308-.516.956.188,1.623,1.086,2.928-3.482,1.2-7.483-.435-10.909.858-1.448-.031-3.273-.79-5.212-.351-.1-.4-.5-.319-.541-.791a7.293,7.293,0,0,1-4.582-.242c.31,1.125-1.736-.208-2.172.373-.173-.224-.343-.253-.211-.486-.983,1.156-2.836-.815-4.324-.1.851.042-.3.944,1.1.737.1-.391-.747-.563-.285-.648.379.988,1.838.641,2.764,1.425.648-1,2.077-.228,3.551-.335.281.3,1.041,1.259,1.286.72-.726.151-.1-.585-.166-.826a20.528,20.528,0,0,1,3.272.365c-.01.783-.086.53-.979.428.281.6.411.442.425.973.95.123.778-.38,1.095-.609.2,1.1,2.329.215,3.228.7-.188-.347-.071-.528.349-.535.028.237-.107.294.212.484,3.564-.365,6.6-1.2,10.019-1.111.855-.64,3.84-1.406,4.4.262,4.281.5,7.971-.576,12.43-.5,1.065-.932,2.914-.935,4.343-.745-.212-.029.231-.411.676-.233,1.583.632-.25,1.2-1.4,1.312.717.012.305,1.106.285,1.487-1.912.61-3.624.727-5.252,1.335-.513-.019-.774-.429-1.333-.379-.511.709-1.789-.157-2.687.084-.513.138-.6.875-1.14.95-.6.081-1.446-.545-1.966-.489-.311.032-.73.366-.979.428.027-.007-.012-.334.045-.341-.559.054-.633.531-1.1.608-.084.012-.344-.453-.4-.468-.8-.21-1.252.721-1.959.858-.744-.416.309-.8-.54-.79.191.555-.64.537-.768.914-.921-.847-2.072.274-2.222-.632a19.711,19.711,0,0,1-4.389,1.085c.228.008.315.237.4.468a4.642,4.642,0,0,0-2.475.57c-.073-.164.066-.208.045-.343a29.692,29.692,0,0,1-5.233.495c-.093.23-.1.515-.279.7-.653-.377-.694-.182-.863.249-.507-.263-.633-.926-1.031-.574.836.4-.5.6-.838.751-.144-.32-.6-.157-.657-.611-.219-.368.461-.23.35-.537-1.211.162-.994.643-.743,1.415.561.219,1.31.146,1.895.328-.053-.953,2.2-.584,2.8-.263-.246.025-.045.3-.233.356-.111-.187-.167-.46-.4-.466-.652,1.1-2.061.648-3.593.675.716.6-.137.526.121,1.166,1.474-.143,2.935-.34,4.3-.4-.725-.259.339-.532.465-.718.462.2,1.724.569,1.895.327-.232-.006-.316-.236-.4-.468,1.1.647,2.107.245,3.272.366-1.211.022-.5.365-1.283.624.914.141,1.465.307,1.8-.335l.213.485c1.52-.7,4.714.1,6.725-.634.113.189.171.464.4.467,1.695-.784,5.034.039,5.722-.707.339.6-.487.915-1.1.609.616,1.108,1.317.146,1.753,0-.026.009.17.314.142.322.665-.243.683-1,1.444-1.145.971-.191,1.626.629,2.829.241-.725-.725,1.357-.177,1.657-.662-2.051.1,1.919-.974,2.385.113-.644.006-.55.425-.912.589,1-.161.617.116,1.1.739.75-.255,1.049.187,1.637.183-.314-.509-1.04-.382-1.474-.7a.724.724,0,0,0,.487-.216c.521.157,1.163.942,1.265.217a1.215,1.215,0,0,0,.47.629c-2.844.662-3.834,1.019-6.915.651-1.468.65-3.7-.226-5.092.815-.152-.3-.666-.054-.77-.431-2.12.687-5.346-.758-6.729.632.541-.023,1.22-.26,1.449.2-.6.009-2.984.82-2.9-.4a3.463,3.463,0,0,1-1.423.3c.01.709.978-.066,1.145.4-.813.153-2.56.643-3.574-.167-3.4.35-5.88.821-8.5.126.25.847-.537-.342-.89-.252-.388.251.519.774.167.825-.187.017-.166.152-.3.2-.66.21-.836-.333-1.332-.38-.032.471-1.018.408-1.727.5-.674-1.2-1.691-.3-2.455-.275-3.134.118-7.422-.059-9.813.251,2.1.282,2.567-.175,4.465.42,1.944-.859,5.169-.167,7.545-.54.148.406.513.473.727.772-.115.262-.6.318-.721.574.873.279,2.432-.906,4.066-.045-.127-.544.6-.3,1.052-.267.125-1.159,2.964-1.362,4.129-1.232.092.308-1.69.18-.98.43.559-.049,1.132-.122,1.334.381-.288.122-1.184-.095-1.051.267.7.181,1.787-.232,1.92.829.837.048-.523-.593.278-.7a.4.4,0,0,0,.445.125c.563.722,0,.816-.067,1.185,1.025.353.784-.318.723-.572.77.377-.222.659.425.969a7,7,0,0,0,2.2.129.826.826,0,0,1-.515-.287c.374.065.568-.547.934-.09-.209.045-.544.022-.49.215,1.235.345,2.764-.209,3.717.492.363-.258-.55-.455-.1-.664.974-.327,1.216.475,1.966.488,0-.244-.585-.815-.167-.825.694.013,1.686-.435,1.895.326-.147.136-1.362.279-.794.412.916-.412,1.805-.123,1.96-.858.837.125.245.884.985.916.216-.121-.244-.624.09-.681.378.271,2.647.77,1.449.2a10.865,10.865,0,0,0,2.127-.032c-.074-.244-.328-.59-.1-.664,3.387.3,5.772-.692,8.739-.484-.049-.286-.459-.389-.212-.485,1.16.157,2.117.3,2.546-.409a.607.607,0,0,1,.024.5,4.088,4.088,0,0,1,2.571.093c-.235.691-1.437.229-1.186,1.291,1.254-.214,1.238-1.606,2.869-1.448.1-.394-.747-.561-.284-.647.659.15.783.056,1.053-.268.228.553.811.552,1.288.721,1.226-.744,3.135.223,4.086-.888a27.247,27.247,0,0,0,9.574-1.24c.339.381,1.12.078,1.289.721.81-.691,1.839.248,2.289-.549-.238,0-.465-.008-.516-.289a3.883,3.883,0,0,1,1.237-.286c.13.253.219.563.587.45.147-1.1,2.094-.205,3.06-.119-.084-.325-.394-.3-.587-.45.69-.152,2-.388,2.527.436-.4.219-.957-.633-1.006-.075.282.019.369.335.585.448,1.631-1.117,4.579-1.078,5.956-1.063.507.005.5-.567.722-.575.6-.019,1.374.657,2.266.293-.165.068.269-.01.748-.07.183-.023,1.992-.546,2.758.076.257.4-1.361.364-.722.572.647-.12.792-.331,1.5-.139-.511-.823.685-.766,1.166-.447-.488.3-1.312.406-1.328.968,1.046-.367,2.908-1.275,3.389.185-.069-.164.238-.233.374-.034-.586.473-.13.794-.627,1.237,1.8-1.619,4.75.481,6.044-1.748.178.3-.054.376.1.664.588-.038.311-.559,1.168-.446.091.31.367.338.471.63.459-.109.988-.18,1.166-.446a1.507,1.507,0,0,1-1.663-.686c1.352.127,1.64-.665,3.132.042-.817-.089-.351.537-1.168.448.348.364.509,1.018,1.172.9-.073-.242-.328-.589-.1-.664.2.744,2.736.739,3.79.655-.065-.624-.667-.418-.8-.934a2.046,2.046,0,0,0,1.191.055c-.217.431-.116.368.238.987.662.087.022-.557.536-.555.245.616,1.129.242,1.474.7.582-.619,1.015-.192,1.077.234.518-.512.864-.382,1.142-.948.451.293.072.208.283.647.728-.244.681-.16,1.379.038.208-.209.255-.508.464-.718.477.3.807.036.4.467,2.2.132,2.086-1.773,3.244-1.483-.4-1.2.662-.817,1.54-.48.095-.394-.748-.563-.282-.648a2.036,2.036,0,0,0,1.752,0c.385.5-.076.528-.02.844.3-.306,1.028-.06,1.05-.267a1.43,1.43,0,0,1-.774-.432c.443-.037.43-.33,1.051-.267l.213.486c1.194-1.035,3.755-.432,4.13-1.232.537-.2.572.384.96.416a1.086,1.086,0,0,0-.4-.468c.3-.414,3.041.622,1.495-.141.914-.016,1.454.593,1.823.165-.457-.007-.627-.4-.213-.485-.164.262.081.525.587.449.057-.294.431-.408.724-.572-.312.487.988.212,1.191.055-.161-.02-.37.03-.444-.127.344-.1,1.211-.53,1.681-.158-.017.235-.71.092-.607.393.756.228.738-.3,1.355-.464.71.938,1.545-.9,2.266.292-1.769-.48-1.837,1.683-3.293.48.365.916-.5.427-1.211.787.438.49-.121.421-.09.68.918.048.454-.229.605-.393.25.157.71-.015.773.432-.209.046-.542.024-.49.217a1.316,1.316,0,0,1,1.519.359c.817-.466,1.7-.074,3.668-.514.226-.317-.474-.476.092-.679,2.752.509,4.355-1.124,6.4-.94.168-.526-.751-.9.136-1.023.563.185.574.526.613.953,1.435-.8,2.968.074,4.742-.278.173-1.447,3.324-.352,3.99-1.554a2.826,2.826,0,0,1-2.57-.094c.445-.655,2.559-1.042,2.758.077.773-.672,2.189.486,2.1-.535.657,1.005,2.763.766,3.832.313-.159.066.355.157.82.091,2.423-.351,5.572-.4,7.563-1.386.131.252.221.564.588.451-.16-.416-.33-.838.206-.863.274.341-.3.563.4.467.06-.289.379-.531.863-.249.312-.271-.407-.372-.025-.5a1.193,1.193,0,0,1,.889.254c.095.256-.42.171-.162.519.534-.413.757-.287,1.469-.643-.208-.557-.624.074-1.029-.576,3.13-2.417,8.225-2.3,12.3-3.009.386.4-1.043.368-.348.538,1.616-.6,1.793-1.14,3.48-.494.687-.065.468-.636.768-.916.839.344,2.291-.965,3.5.008-.152-.6.945-.026,1.1-.609.281.595.548.436.63.109.491.923,1.126.126,1.663.686.064-.574.647-.506,1.425-.3.311-.272-.407-.372-.026-.5,1.083.295,2.083-.673,3.085.384.19-.8,2.79-.79,3.621-.175-.106-.38.2-.6.61-.712a3.815,3.815,0,0,1,1.745.983c.082.226-1.3.225-.607.393a6.353,6.353,0,0,1,2.965-.783c-.251-.246-.9.123-.959-.414.587,0,1.374-.316,1.637.182-.43.31.651.822.584.449-.569-.1-.1-.609.093-.68.139.235.517.106.819.09a1.226,1.226,0,0,0,.469.629A2.629,2.629,0,0,0,274.3,93.9c2.764.665,5.35-1.358,7.843-1.084.287-.482,1.4-.166,1.148-.6.279.134,1.417.306,1.378.038-.236-.27-.881.1-1.075-.235-.042-.186.1-.271.231-.357.516.3.635.238.859.074a1.776,1.776,0,0,1,.2.345c.485-.045.43-.2.334-.372.165.093.329.188.5.277a23.171,23.171,0,0,1,2.663-.585.6.6,0,0,1,.026.5,1.348,1.348,0,0,1,1.379.041,2.176,2.176,0,0,0-.954.93c.706-.338,2.1-.291,2.075-1.037-.374-.064-.569.545-.934.088a3.255,3.255,0,0,0,1.214-.785c.1.291.35.359.7.269-.234.446.607.871,1.059,1.079-.136-.6-.677-.582-.87-1.1.928.056.085-.272.421-.377.923-.161,1.318.489,2.151.471,0,.531-.723.655-.885,1.092,1.1,0,.881-.727,1.772-.838.155.406-.134.538.47.629.744-1.109,3.283-1,4.692-1.283-.422-.373-.437.345-.817-.091-.052-.233.329-.223.419-.377.275.385.874.278.985.918.8-.675,2.152-.29,3.408-.657.278.223.982,1.165,1.219.559-.238,0-.464-.006-.517-.29a11.508,11.508,0,0,1,2.547-.405c.617,1.122,2.114.888,3.136,1.387.313-.271-.408-.372-.025-.5,2.26.614,3.393.427,6.1.606-1.11.373,1.266.108.656.611a4.479,4.479,0,0,1,2.469-.634c-.2-.176-.361-.668-.091-.6.507.255.313.593.888.255.144.592.468.9.986.916.216-.122-.244-.624.091-.68.691.205.787.072,1.263.219a.57.57,0,0,0-.35.536c.573-.169.448.305.4.467a4.723,4.723,0,0,1,1.779.506c-.351-.792-1-1.151-.779-1.777-.626-.028-.84-.691-1.241-1.063a23.384,23.384,0,0,1,9.559.952c-.135.555.079,1.032.825,1.438-.215-3.163,4.906.028,6.749-1.475-.132-.924-.591-.977-1.037-1.925,1.532,0,1.5-.872,1.864-1.521a21.215,21.215,0,0,1,2.661-.588c.108.2.223.377.515.289.444-.2-.628-.253-.541-.79,1.228-.227.867-1.794,2.237-1.557a2,2,0,0,1-.591-1.8c.1.21.609.156.561-.054-.322-.023-.086-.231.3-.2-.287.3,1.468,1.136,1.334.38-.8-.253-2.1-.418-1.944-1.331a1.268,1.268,0,0,1-1.335-.381,2.675,2.675,0,0,1,.465-.717,8.265,8.265,0,0,0-1.1-.739,3.492,3.492,0,0,1,3.995-.207c.654-.285.865-1.768,2.03-.7a1.185,1.185,0,0,0-.768.914c.746-.063,1.263-1.166,2.172-.373a7.114,7.114,0,0,1-5.6,1.875c1.757.772,4.009-.188,5.58-1.03a4.474,4.474,0,0,0,3.41-.657c.481.07.734.492,1.217.558,1.389-.182,3.928-2,4.626-.1.774.188-.127-.561.348-.54.393.119.782.241.917.758-1.191,1.613-3.43,2.641-4.8,4.154.694.37,1.549.5,1.944,1.331,4.172-.344,3.986-4.373,8.279-4.65-1.278-1.457.187-2.282-1.371-3.575a.919.919,0,0,0,.677-.233c-.768-1.272-1.478-2.144-.971-3.105-.12-.268-.558-.042-.7-.27.63-.056.224-.691.323-1.042-.214-.214-.73.043-.889-.251-2.34-3.509-4.276-5.207-7.583-8.883a9.9,9.9,0,0,1-2.2-1.184,58.22,58.22,0,0,1,10.489-1.433c-.713-1.456,2.422-1.145,3.525-.836.085-.942,1.716-.073,1.586-.823-.613-.317-1.763.19-2.153-.472a2.45,2.45,0,0,0-.3-.624c.9-.155,1.631-.3,2.118-.431,1.235.151,2.235.5,2.755-.048a7.677,7.677,0,0,1-2.491-.578.244.244,0,0,0,.11-.308c-.851.225-.676-.716-.729-.774a11.164,11.164,0,0,0-1.815-1.493,1.17,1.17,0,0,0-.547-.4,7.5,7.5,0,0,1-1.692-1.6c1.746-.775,4.592,1.139,5.889.12.861.386,1.976.381,2.506,1.28-.578.084-1.066.216-.837.751a14.687,14.687,0,0,0,5.047.87Zm-95.3,40.592a.885.885,0,0,1,.532-.082l-.532.082m.983-.14c-.066.005-.15.016-.241.028-.147-.287-.873-.315-.445-.483.528.611,1.559.034,1.892.326.542.548-.591.157-.348.539.169.054.344.1.518.148a29.39,29.39,0,0,1-3.381.641c-.035-.793,2.065-.391,2-1.2m-3.1-2.416c-.994.184.406-.636-.587-.45-.266.716-.92.8-1.444,1.145.093-.689-.66.515-1.334-.38-.253.185-.141.573-.465.718-1.9-.893-4.678-.5-6.288-.585.36.163.9.059,1.03.574-.187.019-.165.153-.3.2-.891-.669-1.791.256-2.41-.615-.955.1-.853.251-1.565-.02-.013.372.428.747-.652.733-.089-.333.367-.363.279-.7-1.5.073-3.908.926-5.189.15a1.915,1.915,0,0,1-.414.558,4.032,4.032,0,0,1-2.008-.987c.208-.047.544-.022.488-.216-1.168-.166-.354.779-1.468.643.245.615,1.2.137,1.475.7a21.934,21.934,0,0,1-2.57.3c-.4-.049-.8-.093-1.173-.115.208-.114-.132-.537.282-.535.231.127,1.259.366,1.192.057a.928.928,0,0,1,.525-.835c.069.028.138.055.212.076a.4.4,0,0,1-.129-.128,3,3,0,0,1,1.813-.328.454.454,0,0,1,.069.459c1.213,0,1.64-.543,2.829.239.216-.327.35-.7.767-.913l0,0c.445-.028.745-.3.009-.654a1.107,1.107,0,0,1,1.217.558,4.737,4.737,0,0,0,1.186-1.289c.154.406-.135.538.471.63.356-.262-.025-.335.161-.522a.374.374,0,0,1,.329.306c.17-1.223,2.495.337,2.616-.244-.236,0-.464-.008-.516-.289.882-.007,1.8-.08,2.339.452-.034-.751.756.205,1.377.038-.205-1.1,2.914-1.5,3.036-.621.458-.463.627-1,1.728-.5-.135-.874-1.35-.083-1.777-.507.359-.45,2.061-.148,2.474-.569.662.406,1.138.686,1.314,1.224.452-.155.3-.648.579-.9-.23,0-.517.077-.63-.108a.935.935,0,0,1,.64-.382c.416.1.842.2,1.286.294a1.2,1.2,0,0,1,.413.543c-.525-.114-.3.785-.091.682-.026-.51.626-.641,1.043-.9.01.193-.19.267-.165.467,1.131.242,1.217-.974,1.753,0-.9.106-2.058.07-2.289.553a1.2,1.2,0,0,1,.889.252c-.99-.3.1.642-1.54.482.42.6-.33.548-.136,1.025.559.216,1.338.1,1.778.505a3.262,3.262,0,0,1-3.319-.026c.233-.114,1.048.1.865-.249M252.1,89.017a3.514,3.514,0,0,1-1.646.327c.483-.112.936-.24,1.1-.528a3.857,3.857,0,0,0,.543.2M352.4,43.711c.018,0,.045.013.079.025-.026-.008-.053-.015-.079-.025M273.656,84.267c-.065.106-.168.191-.48.16a1.155,1.155,0,0,1-.211-.3c.223.047.454.091.691.136m84.658-40.156c-1.612.1-1.378,0-.217-.182.074.056.146.118.217.182m-2.579-.446c-.113-.187-.168-.462-.4-.468.422.6-.125.664-.393.881-.475-.462-1.107-.219-1.85-.244.064-.026.092-.083.052-.193-.487.029-.563-.574-.914-.756a.925.925,0,0,0-.677.233c.408-.626-.853.047-.908-.669l.442-.011a4.261,4.261,0,0,0,1.372-.04l.956-.029c.046.108.093.217.14.324a2.762,2.762,0,0,1,1.188-.4c.982.42,2.36.23,3.174.907a9.863,9.863,0,0,0-2.184.463M314.207,23.611l1.316-.018c-.242.223-.751.135-1.316.018m-1.612.022c-.051.168-.45.141-.405.363a1.491,1.491,0,0,1-.363-.242c-.153-.141-.651-.052-.64.114.017.233.019.458-.424.433-.578-.155-1.094-.405-1.67-.565a.625.625,0,0,0-.493.075,1.158,1.158,0,0,1-.95.176,1.841,1.841,0,0,0,.058-.294c1.275-.013,2.944-.034,4.887-.06M25.451,67.079l-.08-.026.08.025h0m78.432-46.245a.885.885,0,0,1-.532.082l.532-.082m-.983.141c.066-.006.15-.016.241-.028.147.286.873.315.445.483-.528-.611-1.559-.035-1.893-.326-.543-.549.591-.158.348-.539-.169-.055-.344-.1-.518-.149a29.4,29.4,0,0,1,3.381-.64c.035.792-2.065.391-2,1.2m1.292,5.547c.065-.106.168-.191.48-.16a1.178,1.178,0,0,1,.211.3c-.224-.047-.455-.092-.691-.136m1.008.2a1.2,1.2,0,0,1-.413-.544c.525.114.3-.784.091-.681.026.51-.626.64-1.043.9-.01-.192.19-.267.165-.466-1.131-.243-1.217.973-1.753,0,.9-.1,2.058-.07,2.289-.552a1.206,1.206,0,0,1-.89-.252c.99.3-.1-.643,1.54-.482-.42-.6.33-.548.137-1.025-.561-.216-1.339-.1-1.778-.5a3.263,3.263,0,0,1,3.319.025c-.233.114-1.048-.1-.865.249.994-.185-.406.635.587.45.266-.716.92-.8,1.444-1.146-.093.689.66-.514,1.334.381.253-.186.141-.574.465-.718,1.9.892,4.678.5,6.288.585-.36-.163-.9-.059-1.03-.574.187-.019.165-.153.3-.2.891.67,1.791-.255,2.41.615.955-.1.853-.251,1.565.021.012-.372-.43-.747.651-.734.089.333-.367.363-.279.7,1.5-.073,3.908-.927,5.189-.151a1.938,1.938,0,0,1,.414-.558,4.029,4.029,0,0,1,2.008.987c-.208.047-.544.023-.488.216,1.168.166.354-.779,1.468-.644-.245-.615-1.2-.137-1.476-.7a22.109,22.109,0,0,1,2.57-.3c.4.049.8.093,1.173.116-.208.114.132.537-.282.535-.232-.127-1.258-.366-1.192-.057a.926.926,0,0,1-.525.834c-.07-.027-.138-.055-.211-.076a.4.4,0,0,1,.129.128,3,3,0,0,1-1.813.329.455.455,0,0,1-.069-.46c-1.213,0-1.64.543-2.829-.238-.216.327-.35.7-.767.913l0,0c-.445.028-.745.3-.008.655a1.106,1.106,0,0,1-1.217-.558,4.712,4.712,0,0,0-1.186,1.289c-.155-.406.135-.539-.472-.63-.356.262.026.335-.16.522a.374.374,0,0,1-.329-.306c-.17,1.223-2.495-.336-2.616.245.236,0,.464.008.515.288-.881.008-1.8.08-2.338-.451.034.75-.756-.206-1.377-.039.205,1.1-2.914,1.505-3.036.622-.457.463-.627,1-1.728.5.135.874,1.35.082,1.777.507-.359.449-2.061.148-2.474.569-.662-.405-1.138-.686-1.314-1.224-.452.155-.3.648-.579.9.231,0,.518-.077.63.108a.938.938,0,0,1-.64.383c-.416-.1-.842-.2-1.286-.294m20.549-4.953a3.51,3.51,0,0,1,1.647-.327c-.483.111-.936.24-1.1.528a3.785,3.785,0,0,0-.544-.2m-11.363-2.553c-.444,0-.685.106-.605.393,1.023.512.359-.7,1.283-.625.221.368-.46.231-.349.538,1.484-.364,4.46-.263,5.723-.707,0-.544-.659-.068-.656-.612.31.063.883-.281,1,.075.058.235-.188.3-.162.518,2.912-.18,5.569-.758,9.158-.859.795.706,2.659-.411,3.737-.352a28.854,28.854,0,0,0,5.278-.832c2.9-.51,6.211-.24,8.383-1.295.129.252.219.563.587.451-.075-.246-.328-.59-.1-.664a3.716,3.716,0,0,1,2.291.793,2.156,2.156,0,0,1,.4-.878c-.348-.013-.733.544-1.12.106.325-.1.134-.495.791-.412,1.215.96.491.325,1.78.508-.326.019-.427.168-.422.375.633-.589,2.327.166,2.919-.443A11.1,11.1,0,0,1,152.041,15a5.413,5.413,0,0,0,1.913-.517c.31.284-.324.593.282.648.585-.763,2.808.878,3.693-.012-.319.175-1.141-.157-.7-.27.453-.068.689.2,1.075.235.234-1.174,2.037-.292,2.707-.926a1.673,1.673,0,0,1,.843.591c.079-.568,1.738-.894,2.146-.874.314.5-.8.2-.72.574a6.157,6.157,0,0,0,2.938-1.287c.409-.089.409.446.773.433-.613-.677.736-.962,1.631-1.164.185.576.354.835.237.987a.991.991,0,0,0-1.051.268c.674.267-.3.636-.135,1.023-.427-.054-.507-.216-.4-.467-1.22.5-3.125.242-4.345.743-.055-.192.174-.4-.21-.483.54.546-.592.158-.35.538.675.268-.131.729-.392.879.105-.255.028-.414-.4-.467.008,1.032-1.454.022-1.657.661-.536-.2.141-.548-.587-.451.1.216.19.43.284.647-.639.143-2.565.388-3.1.46-.507-.035.872.753-.091.682-.189-.746-1.934.5-2.6-.6-1.5.691-2.541-.01-3.71.854-.2-.266-1.334-.436-1.379-.036.251-.148.951.243.513.287-3.068-.476-6.559.316-9.625.233a.813.813,0,0,1,.513.286l-.746.07a.594.594,0,0,1-.025-.5c-.474.464-1.878-.455-2.2-.132.616.138-.221.216-.373.037.068.457.127.371-.278.7.291,0,.664-.123.819.091-1.309.815-3.959.292-5.679.365-.456.353.871.489.356.81-.565-.362-.87.177-1.186.337a.479.479,0,0,0-.138-.03c-.067,0-.135,0-.2,0a.711.711,0,0,1-.155-.153c-.022-.425,1.807-.446.7-1.075-.707.5-.871,1.6-2.264,1.053a1.194,1.194,0,0,1,.156.463,2.292,2.292,0,0,1-2.108-.263c.7.028.9-.227.909-.588-2.968.653-5.1.353-8.595.808-.073-.162.065-.208.044-.341-1.057.478-2.661-.005-3.711.855-.058-.237.188-.3.162-.521a6.966,6.966,0,0,0-1.774.839c.225-.425-.857-.477-1.169-.9q.28.522-.351.537c-.514-.194.064-.416-.4-.468a9.5,9.5,0,0,0-2.521.912c-.139-.3.719-.638.021-.845-.349.409-1.229.478-2.21.42a.487.487,0,0,0-.095-.1c.015.034.031.068.047.1-.772-.049-1.6-.171-2.28-.267a3.674,3.674,0,0,1,2.233.164c-.138-.31-.214-.585.121-.631.458-.163.517.286.889.255-.051-.939,3.255-.719,4.342-.745a.379.379,0,0,1-.327-.306c.479.275,1.329-.745,2.241-.211m-7.871-1.768c1.214-.005,3.539.392,3.292-.478a3.662,3.662,0,0,1,1.325.378c-.524.058-1.084-.04-1.17-.24a8.606,8.606,0,0,1-1.745,1.343c-.008-.249.1-.434.088-.682-.617.026-1.2.084-1.76.16a.324.324,0,0,1-.334-.283c.187-.018.164-.153.3-.2m-.62.574c-.613.1-1.213.209-1.825.318.076-.726,1.042-.42,1.825-.318M19.535,66.678c1.611-.1,1.377,0,.217.182-.076-.056-.147-.119-.217-.182m2.579.446c.113.187.168.462.4.467-.422-.6.125-.664.393-.881.475.462,1.107.219,1.85.244-.064.026-.092.083-.052.193.487-.029.563.574.914.756a.928.928,0,0,0,.677-.233c-.408.626.853-.047.908.668l-.442.012a4.262,4.262,0,0,0-1.372.039l-.956.029-.14-.324a2.763,2.763,0,0,1-1.188.4c-.982-.42-2.36-.23-3.174-.907a9.9,9.9,0,0,0,2.184-.463M63.641,87.178l-1.316.019c.242-.223.751-.135,1.316-.019m1.613-.022c.051-.168.45-.141.4-.362a1.473,1.473,0,0,1,.363.242c.153.141.651.052.64-.114-.016-.233-.019-.459.424-.434.578.155,1.094.405,1.67.565a.627.627,0,0,0,.493-.076,1.16,1.16,0,0,1,.95-.176,1.83,1.83,0,0,0-.058.295c-1.275.013-2.944.034-4.886.059M263.461,91.57c.444,0,.684-.106.605-.393-1.023-.513-.359.7-1.283.625-.221-.368.46-.231.349-.538-1.484.365-4.46.263-5.722.707,0,.545.659.068.656.612-.31-.063-.883.281-1-.074-.058-.235.188-.3.162-.519-2.912.181-5.569.759-9.157.859-.8-.707-2.659.411-3.739.352a28.852,28.852,0,0,0-5.278.831c-2.9.51-6.211.24-8.383,1.3-.129-.253-.219-.563-.587-.451.075.246.328.591.1.665a3.716,3.716,0,0,1-2.291-.794,2.157,2.157,0,0,1-.4.878c.348.014.733-.544,1.12-.106-.325.1-.134.494-.791.412-1.215-.961-.491-.325-1.78-.508.325-.019.427-.168.422-.375-.633.589-2.327-.166-2.919.443a11.1,11.1,0,0,1,2.266.293,5.4,5.4,0,0,0-1.913.517c-.31-.284.324-.594-.282-.648-.585.762-2.808-.879-3.693.011.319-.175,1.141.157.7.271-.454.068-.69-.2-1.076-.235-.234,1.173-2.037.292-2.707.926a1.678,1.678,0,0,1-.843-.591c-.079.567-1.738.894-2.146.874-.314-.5.8-.2.72-.575a6.163,6.163,0,0,0-2.938,1.288c-.408.089-.409-.446-.773-.433.612.677-.736.961-1.631,1.164-.185-.576-.354-.835-.237-.988a.99.99,0,0,0,1.051-.267c-.674-.267.3-.636.135-1.023.427.054.507.216.4.467,1.219-.5,3.125-.242,4.344-.742.055.192-.174.4.21.483-.54-.545.592-.158.35-.538-.675-.267.131-.728.392-.879-.105.255-.028.414.4.467-.007-1.033,1.454-.022,1.658-.661.537.2-.141.548.587.451q-.143-.323-.284-.647c.639-.142,2.565-.387,3.1-.46.507.035-.872-.753.091-.682.189.746,1.934-.5,2.6.6,1.5-.691,2.54.01,3.711-.854.2.266,1.333.436,1.378.037-.251.148-.951-.244-.513-.287,3.068.476,6.559-.317,9.625-.233a.815.815,0,0,1-.513-.286l.746-.07a.6.6,0,0,1,.025.5c.474-.464,1.879.455,2.2.132-.616-.138.221-.216.373-.037-.068-.458-.127-.371.278-.7-.291,0-.664.123-.819-.091,1.309-.815,3.959-.292,5.679-.365.456-.353-.871-.489-.356-.811.565.363.87-.177,1.185-.336a.482.482,0,0,0,.139.03c.067,0,.135,0,.2,0a.7.7,0,0,1,.154.153c.022.425-1.806.446-.7,1.074.707-.5.871-1.6,2.264-1.053a1.182,1.182,0,0,1-.156-.463,2.292,2.292,0,0,1,2.108.264c-.7-.029-.9.227-.909.588,2.968-.653,5.1-.353,8.595-.808.073.162-.065.208-.044.341,1.057-.478,2.661.006,3.711-.855.058.237-.188.3-.162.522a6.972,6.972,0,0,0,1.774-.84c-.225.425.858.478,1.17.9q-.28-.522.351-.537c.514.193-.064.416.4.467a9.506,9.506,0,0,0,2.521-.911c.139.295-.719.638-.021.845.349-.409,1.229-.478,2.21-.421a.49.49,0,0,0,.094.106l-.047-.1c.772.048,1.6.171,2.28.267a3.684,3.684,0,0,1-2.233-.164c.138.31.214.585-.121.631-.458.164-.517-.286-.889-.254.051.939-3.254.719-4.342.745a.379.379,0,0,1,.327.306c-.479-.275-1.329.745-2.241.211m7.871,1.768c-1.214,0-3.54-.393-3.292.478a3.661,3.661,0,0,1-1.325-.377c.524-.058,1.085.04,1.17.24a8.606,8.606,0,0,1,1.745-1.344c.008.249-.1.434-.089.683.617-.026,1.2-.084,1.76-.16a.324.324,0,0,1,.334.283c-.187.017-.164.152-.3.2m.62-.574c.613-.1,1.213-.208,1.825-.318-.076.726-1.042.421-1.825.318" fill="#008700"/>
      <path id="Path_18544" data-name="Path 18544" d="M499.927,29.433a.283.283,0,0,1-.032.019l.045.013-.014-.032" transform="translate(-196.989 -10.611)" fill="#008700"/>
      <path id="Path_18545" data-name="Path 18545" d="M488.276,30.6a.325.325,0,0,0-.049-.126.451.451,0,0,0,.049.126" transform="translate(-192.391 -10.986)" fill="#008700"/>
      <path id="Path_18546" data-name="Path 18546" d="M158.013,27.815a.474.474,0,0,1-.053.165c.079-.02.13-.057.053-.165" transform="translate(-62.246 -10.027)" fill="#008700"/>
      <path id="Path_18547" data-name="Path 18547" d="M157.856,28.087l.052.005.011-.019c-.02.005-.041.01-.063.014" transform="translate(-62.205 -10.12)" fill="#008700"/>
      <path id="Path_18548" data-name="Path 18548" d="M94.694,28.978a1.057,1.057,0,0,0,.192.047c-.064-.056-.132-.081-.192-.047" transform="translate(-37.315 -10.441)" fill="#008700"/>
      <path id="Path_18549" data-name="Path 18549" d="M607.7,67c2.06-.383,1.039-.357-1.07-.161.23.248.93-.227,1.07.161" transform="translate(-239.05 -24.046)" fill="#008700"/>
      <path id="Path_18550" data-name="Path 18550" d="M123.619,143.792a.269.269,0,0,1,.031-.019l-.045-.013.015.032" transform="translate(-48.707 -51.825)" fill="#008700"/>
      <path id="Path_18551" data-name="Path 18551" d="M135.267,142.571a.328.328,0,0,0,.049.126.414.414,0,0,0-.049-.126" transform="translate(-53.303 -51.397)" fill="#008700"/>
    </g>
    <path id="Path_21400" data-name="Path 21400" d="M89.956,90.662q-2.507-.218-3.105-1.362a6.316,6.316,0,0,1-.6-2.942,18.125,18.125,0,0,1,.817-4.821q.817-2.86,2.043-6.238t2.479-6.756q-.654.055-1.39.136t-1.825.218q-1.09.136-2.833.408A3.027,3.027,0,0,1,86.605,67.1a6.2,6.2,0,0,1,2.534-1.172,17.239,17.239,0,0,1,3.541-.436q1.525-4.194,3.132-8.2T99,49.965q-.546-.054-1.063-.081t-1.062-.028a16.126,16.126,0,0,0-5.394.708,4.433,4.433,0,0,0-2.615,2.179,8.667,8.667,0,0,0-.708,3.759,13.821,13.821,0,0,0,.163,2.207,12.262,12.262,0,0,0,.545,2.1,4.223,4.223,0,0,1-2.724-1.443,4.417,4.417,0,0,1-.872-2.806,7.07,7.07,0,0,1,2.016-4.985,13.559,13.559,0,0,1,5.421-3.378,22.141,22.141,0,0,1,7.546-1.226,37.242,37.242,0,0,1,5.584.409,35.074,35.074,0,0,0,5.258.408,14.887,14.887,0,0,0,2.1-.136,15.145,15.145,0,0,0,1.934-.409,14.622,14.622,0,0,1-3.378,3.051,5.622,5.622,0,0,1-2.779.763,19.228,19.228,0,0,1-3.242-.354q-1.989-.354-4.494-.572-.709,1.8-1.58,4.332t-1.8,5.394q-.927,2.86-1.852,5.693,2.723.163,5.148.49a41.638,41.638,0,0,0,4.386.381,3.338,3.338,0,0,1-1.008,1.008,4.383,4.383,0,0,1-1.607.517,27.192,27.192,0,0,1-2.861.245q-1.826.082-4.876.136-.327,1.144-.817,2.724t-.872,3q-.382,1.417-.6,2.07-1.2,4.2-2.043,7.845A32.41,32.41,0,0,0,89.956,90.662Zm19.5-3a4.005,4.005,0,0,1-3.214-1.334,5.047,5.047,0,0,1-1.144-3.405,12.175,12.175,0,0,1,.735-3.9,22.029,22.029,0,0,1,2.043-4.3,24.648,24.648,0,0,1,2.969-3.95,15.615,15.615,0,0,1,3.569-2.914,7.582,7.582,0,0,1,3.868-1.117,3.109,3.109,0,0,1,1.58.327,1.829,1.829,0,0,1,.763.817.444.444,0,0,1,.19-.054h.191a1.475,1.475,0,0,1,1.443.817,3.167,3.167,0,0,1,.409,1.308,4.061,4.061,0,0,1-.545,1.716q-.546,1.062-1.063,2.37a7.468,7.468,0,0,0-.517,2.779,3.009,3.009,0,0,0,.763,2.261,3.44,3.44,0,0,0,2.452.735,3.643,3.643,0,0,0,2.315-1.062,15.879,15.879,0,0,0,2.425-2.724,24.5,24.5,0,0,0,2.152-3.623,21.759,21.759,0,0,0,1.444-3.759,1.779,1.779,0,0,1-.545-1.308,4.152,4.152,0,0,1,.436-1.934,4.017,4.017,0,0,1,1.008-1.308,1.7,1.7,0,0,1,.845-.463.594.594,0,0,1,.681.518,5.514,5.514,0,0,1,.082.79,3.873,3.873,0,0,1-.3,1.063,4.5,4.5,0,0,0-.3.953,1.749,1.749,0,0,0,.844,1.39q.844.627,1.934,1.416a9.2,9.2,0,0,1,1.934,1.907,4.612,4.612,0,0,1,.845,2.86,8.843,8.843,0,0,1-.681,3.323q-.682,1.69-1.362,3.214a6.709,6.709,0,0,0-.681,2.67,1.471,1.471,0,0,0,.49,1.308,2.014,2.014,0,0,0,1.144.327,5.313,5.313,0,0,0,2.7-.817,14.625,14.625,0,0,0,2.7-2.07,21.23,21.23,0,0,0,2.343-2.642,12.106,12.106,0,0,0,1.525-2.588l.708.545A20.579,20.579,0,0,1,145.8,82.3a17.042,17.042,0,0,1-4,3.623,8.316,8.316,0,0,1-4.549,1.417,4.131,4.131,0,0,1-2.915-.981,3.322,3.322,0,0,1-1.062-2.561,8.777,8.777,0,0,1,.763-3.432q.762-1.8,1.5-3.568a8.424,8.424,0,0,0,.736-3.187,3.187,3.187,0,0,0-1.008-2.588q-1.009-.844-2.043-1.553a29.155,29.155,0,0,1-1.607,3.9,28.221,28.221,0,0,1-2.261,3.814,12.813,12.813,0,0,1-2.7,2.86,4.946,4.946,0,0,1-3.023,1.09,5.957,5.957,0,0,1-2.752-.626,4.268,4.268,0,0,1-1.879-1.88,20.828,20.828,0,0,1-4.168,6.511A7.428,7.428,0,0,1,109.46,87.666Zm1.2-2.343a4.41,4.41,0,0,0,2.67-1.117,14.685,14.685,0,0,0,2.779-3.024,21.683,21.683,0,0,0,2.343-4.25,12.931,12.931,0,0,1-.327-3.105,15.2,15.2,0,0,1,.136-2.179,9.014,9.014,0,0,1,.381-1.634,5.713,5.713,0,0,1,.518-1.144,6.393,6.393,0,0,0-3.46,1.008,11.963,11.963,0,0,0-2.914,2.615,18.746,18.746,0,0,0-2.234,3.459,22.18,22.18,0,0,0-1.444,3.6,10.781,10.781,0,0,0-.517,3,3.389,3.389,0,0,0,.545,2.016A1.765,1.765,0,0,0,110.659,85.323Zm52.628,15.854a4.03,4.03,0,0,1-2.4-.735,2.475,2.475,0,0,1-1.035-2.152,5.638,5.638,0,0,1,.872-3.105,10.08,10.08,0,0,1,2.343-2.506,24.557,24.557,0,0,1,3.378-2.179q1.906-1.035,3.977-2.07.762-2.016,1.552-4.494t1.5-5.476a27.989,27.989,0,0,1-3.732,4.876,5.871,5.871,0,0,1-4.222,2.043,4.849,4.849,0,0,1-2.043-.463,3.958,3.958,0,0,1-1.661-1.444,4.43,4.43,0,0,1-.654-2.506,14.459,14.459,0,0,1,.517-3.541,31.9,31.9,0,0,1,1.281-3.923,18.223,18.223,0,0,1,1.58-3.16q.817-1.252,1.417-1.253a3.5,3.5,0,0,1,.79.163,4.836,4.836,0,0,1,1.09.463q.518.3.518.626a13.662,13.662,0,0,0-1.09,2.016q-.6,1.308-1.172,2.915T165.14,78.4a11.028,11.028,0,0,0-.381,2.615,2.621,2.621,0,0,0,.436,1.58,1.761,1.761,0,0,0,1.525.6,3.9,3.9,0,0,0,2.315-1.008A16.472,16.472,0,0,0,171.6,79.6a30.4,30.4,0,0,0,2.37-3.378q.163-.6.3-1.226t.245-1.281a5.8,5.8,0,0,1,.79-1.77,2.168,2.168,0,0,1,1.989-1.008q.272,0,.545.028a2.869,2.869,0,0,1,.6.136,18.535,18.535,0,0,1-.518,3.242q-.518,2.37-1.471,5.53t-2.261,6.483a15.815,15.815,0,0,0,5.012-3.241,16.445,16.445,0,0,0,3.977-6.02l.708.545a12.7,12.7,0,0,1-2.479,4.549,18.5,18.5,0,0,1-3.732,3.323,29.476,29.476,0,0,1-4.086,2.315,64.346,64.346,0,0,1-3.078,6.538,22.507,22.507,0,0,1-3.487,4.931A5.264,5.264,0,0,1,163.287,101.177Zm-.272-1.743q.817,0,2.751-2.152a27.031,27.031,0,0,0,4.114-7.546q-2.235,1.2-4.141,2.37a12.416,12.416,0,0,0-3.051,2.533,4.765,4.765,0,0,0-1.144,3.16,2.249,2.249,0,0,0,.327,1.035A1.191,1.191,0,0,0,163.015,99.433ZM185.9,87.666a3.724,3.724,0,0,1-3.323-1.443,6.1,6.1,0,0,1-.981-3.514,12.021,12.021,0,0,1,.545-3.487,16.435,16.435,0,0,1,1.443-3.378,9.85,9.85,0,0,1,2.016-2.561,3.431,3.431,0,0,1,2.261-.981,2.176,2.176,0,0,1,.572.082,5.509,5.509,0,0,1,.572.19,6.915,6.915,0,0,0-1.172,1.607,20.258,20.258,0,0,0-1.28,2.67,28.545,28.545,0,0,0-1.008,2.969,9.63,9.63,0,0,0-.408,2.506,4.033,4.033,0,0,0,.545,2.37,1.684,1.684,0,0,0,1.417.735,4.767,4.767,0,0,0,2.724-1.226,18.818,18.818,0,0,0,3.105-3.133,8.235,8.235,0,0,1-2.37-3.3,10.81,10.81,0,0,1-.844-4.168,9.081,9.081,0,0,1,.626-3.378,5.963,5.963,0,0,1,1.825-2.533,4.5,4.5,0,0,1,2.887-.954q2.233,0,3,1.2a5.486,5.486,0,0,1,.763,3,12.831,12.831,0,0,1-1.035,4.713,27.869,27.869,0,0,1-2.615,4.985,4.193,4.193,0,0,0,2.07.545,6.406,6.406,0,0,0,1.961-.354,6.66,6.66,0,0,0,2.152-1.226,6.237,6.237,0,0,0,1.716-2.343l.654.545a7.014,7.014,0,0,1-3.078,3.623,8.055,8.055,0,0,1-3.786,1.062,6.658,6.658,0,0,1-1.362-.136,5.875,5.875,0,0,1-1.253-.409,20.153,20.153,0,0,1-4.059,4.086A7.236,7.236,0,0,1,185.9,87.666Zm8.009-8.009a23.094,23.094,0,0,0,2.261-4.222,11.069,11.069,0,0,0,.9-4.168,4.476,4.476,0,0,0-.463-2.315,1.36,1.36,0,0,0-1.171-.736q-1.09,0-2.234,1.58a6.609,6.609,0,0,0-1.144,3.977,11.464,11.464,0,0,0,.463,3.187A7.141,7.141,0,0,0,193.906,79.657Zm12.2,7.9a3.424,3.424,0,0,1-2.969-1.661,6.718,6.718,0,0,1-1.117-3.841,15.268,15.268,0,0,1,.518-3.65,36.494,36.494,0,0,1,1.28-4.086,19.092,19.092,0,0,1,1.58-3.323q.817-1.308,1.416-1.308a2.71,2.71,0,0,1,.926.3,3.247,3.247,0,0,1,1.09.79,23.6,23.6,0,0,0-1.471,2.833,31.857,31.857,0,0,0-1.525,4.086,14.108,14.108,0,0,0-.654,4.032,12.1,12.1,0,0,0,.109,1.335,3.915,3.915,0,0,0,.545,1.607,1.434,1.434,0,0,0,1.308.708,3.131,3.131,0,0,0,2.125-1.062,16.746,16.746,0,0,0,2.207-2.752q1.116-1.688,2.152-3.65t1.934-3.759l1.5-3q.327.055.954.218a5.4,5.4,0,0,1,1.144.436.839.839,0,0,1,.517.763,6.739,6.739,0,0,1-.545,1.444q-.545,1.226-1.28,3t-1.281,3.568a11.1,11.1,0,0,0-.545,3.16,2.754,2.754,0,0,0,.409,1.58,1.557,1.557,0,0,0,1.389.6,5.5,5.5,0,0,0,2.779-1.035,15.065,15.065,0,0,0,3.323-3.023,21.407,21.407,0,0,0,3-4.767l.708.49a19.021,19.021,0,0,1-3,5.2,15.538,15.538,0,0,1-3.923,3.514,7.778,7.778,0,0,1-4.032,1.253,4.126,4.126,0,0,1-2.261-.545,2.97,2.97,0,0,1-1.2-1.471,5.581,5.581,0,0,1-.354-2.016,8.374,8.374,0,0,1,.109-1.334q.109-.681.272-1.39a29.254,29.254,0,0,1-2.125,3.351,11.613,11.613,0,0,1-2.4,2.479A4.342,4.342,0,0,1,206.11,87.557Zm29.2-.218a4.131,4.131,0,0,1-2.915-.981,3.322,3.322,0,0,1-1.063-2.561,8.778,8.778,0,0,1,.763-3.432q.762-1.8,1.5-3.568a8.424,8.424,0,0,0,.736-3.187,3.187,3.187,0,0,0-1.008-2.588q-1.009-.844-2.043-1.553-1.254,3.215-2.615,6.1t-2.234,4.358L225.941,79q.763-1.416,1.989-4.141t2.425-6.211a1.779,1.779,0,0,1-.545-1.308,3.851,3.851,0,0,1,.926-2.67q.925-1.034,1.362-1.035a.594.594,0,0,1,.681.518,5.514,5.514,0,0,1,.082.79,3.874,3.874,0,0,1-.3,1.063,4.5,4.5,0,0,0-.3.953,1.749,1.749,0,0,0,.844,1.39q.844.627,1.934,1.416a9.2,9.2,0,0,1,1.934,1.907,4.612,4.612,0,0,1,.845,2.86,8.842,8.842,0,0,1-.681,3.323q-.682,1.69-1.362,3.214a6.709,6.709,0,0,0-.681,2.67,1.471,1.471,0,0,0,.49,1.308,2.014,2.014,0,0,0,1.144.327,5.313,5.313,0,0,0,2.7-.817,14.624,14.624,0,0,0,2.7-2.07,21.237,21.237,0,0,0,2.343-2.642,12.105,12.105,0,0,0,1.525-2.588l.708.545a20.578,20.578,0,0,1-2.833,4.495,17.042,17.042,0,0,1-4,3.623A8.316,8.316,0,0,1,235.312,87.339ZM264.078,89.9a4.939,4.939,0,0,1-4.223-1.852,8.167,8.167,0,0,1-1.389-5.012,27.062,27.062,0,0,1,.926-6.429,71.07,71.07,0,0,1,2.452-7.763q1.525-4.058,3.4-7.927t3.787-7a34.072,34.072,0,0,1,3.6-5.012q1.688-1.88,2.779-1.88.925,0,1.335,1.144a6.765,6.765,0,0,1,.409,2.288,13.272,13.272,0,0,1-.654,3.7,31.784,31.784,0,0,1-1.852,4.658,42.462,42.462,0,0,1-2.779,4.876,34.761,34.761,0,0,1-3.405,4.386,17.028,17.028,0,0,1-3.732,3.132,18.4,18.4,0,0,0-.954,2.479,40.368,40.368,0,0,0-1.144,4.3,22.5,22.5,0,0,0-.517,4.712,8.624,8.624,0,0,0,.681,3.678,2.37,2.37,0,0,0,2.316,1.443,5.464,5.464,0,0,0,3.269-1.28,9.523,9.523,0,0,0,2.724-3.3,6.609,6.609,0,0,1-3-3.023,8.976,8.976,0,0,1-.981-4,6.2,6.2,0,0,1,1.362-4.2,4.125,4.125,0,0,1,3.214-1.58,2.937,2.937,0,0,1,2.506,1.281,6.326,6.326,0,0,1,.926,3.732,14.847,14.847,0,0,1-.49,3.7,17.709,17.709,0,0,1-1.417,3.7c.218.037.444.073.681.109a4.757,4.757,0,0,0,.736.054,5.4,5.4,0,0,0,3.269-.953,8.749,8.749,0,0,0,2.206-2.343,23.869,23.869,0,0,0,1.5-2.643l.654.708q-1.526,3.759-3.623,4.985a8.209,8.209,0,0,1-4.168,1.226,6.9,6.9,0,0,1-.872-.054l-.872-.109a15.912,15.912,0,0,1-3.623,4.277A7.7,7.7,0,0,1,264.078,89.9Zm1.253-20.812a17.614,17.614,0,0,0,2.969-3.051,38.843,38.843,0,0,0,2.7-3.95q1.252-2.1,2.234-4.114a30.635,30.635,0,0,0,1.525-3.65,8.668,8.668,0,0,0,.545-2.452.745.745,0,0,0-.055-.354.185.185,0,0,0-.163-.082q-.437,0-1.662,1.553a35.7,35.7,0,0,0-2.724,4.141q-1.5,2.588-2.969,5.72A44.774,44.774,0,0,0,265.331,69.088Zm6.32,13.075a13.029,13.029,0,0,0,.926-2.642,12.448,12.448,0,0,0,.327-2.861,7.11,7.11,0,0,0-.518-3q-.518-1.089-1.28-1.09-.817,0-1.444,1.117a5.677,5.677,0,0,0-.626,2.805,9.012,9.012,0,0,0,.6,3.105A5.042,5.042,0,0,0,271.651,82.163Zm12.584,5.5a3.724,3.724,0,0,1-3.323-1.443,6.1,6.1,0,0,1-.981-3.514,12.021,12.021,0,0,1,.545-3.487,16.441,16.441,0,0,1,1.444-3.378,9.838,9.838,0,0,1,2.016-2.561A3.43,3.43,0,0,1,286.2,72.3a2.18,2.18,0,0,1,.572.082,5.493,5.493,0,0,1,.572.19,6.9,6.9,0,0,0-1.171,1.607,20.321,20.321,0,0,0-1.281,2.67,28.543,28.543,0,0,0-1.008,2.969,9.633,9.633,0,0,0-.409,2.506,4.037,4.037,0,0,0,.545,2.37,1.684,1.684,0,0,0,1.417.735,4.767,4.767,0,0,0,2.724-1.226,18.772,18.772,0,0,0,3.105-3.133,8.234,8.234,0,0,1-2.37-3.3,10.81,10.81,0,0,1-.845-4.168,9.069,9.069,0,0,1,.627-3.378A5.967,5.967,0,0,1,290.5,67.7a4.5,4.5,0,0,1,2.887-.954q2.234,0,3,1.2a5.481,5.481,0,0,1,.763,3,12.831,12.831,0,0,1-1.035,4.713,27.794,27.794,0,0,1-2.615,4.985,4.193,4.193,0,0,0,2.07.545,6.406,6.406,0,0,0,1.961-.354,6.656,6.656,0,0,0,2.152-1.226A6.236,6.236,0,0,0,301.4,77.26l.654.545a7.015,7.015,0,0,1-3.078,3.623,8.057,8.057,0,0,1-3.787,1.062,6.663,6.663,0,0,1-1.362-.136,5.886,5.886,0,0,1-1.253-.409,20.136,20.136,0,0,1-4.059,4.086A7.236,7.236,0,0,1,284.235,87.666Zm8.009-8.009a23.1,23.1,0,0,0,2.261-4.222,11.068,11.068,0,0,0,.9-4.168,4.477,4.477,0,0,0-.463-2.315,1.361,1.361,0,0,0-1.172-.736q-1.09,0-2.234,1.58a6.609,6.609,0,0,0-1.144,3.977,11.443,11.443,0,0,0,.463,3.187A7.139,7.139,0,0,0,292.244,79.657Zm11.333,7.9a4.283,4.283,0,0,1-1.88-.463,3.784,3.784,0,0,1-1.58-1.5,4.982,4.982,0,0,1-.626-2.615,11.245,11.245,0,0,1,.872-4.032,23.252,23.252,0,0,1,2.343-4.44,25.859,25.859,0,0,1,3.378-4.086,17.567,17.567,0,0,1,3.977-3,8.563,8.563,0,0,1,4.086-1.117,3.232,3.232,0,0,1,1.77.409,1.42,1.42,0,0,1,.627,1.28,2.335,2.335,0,0,1-.028.381c-.019.109-.046.237-.081.381a1.526,1.526,0,0,0-.79-.626,3.733,3.733,0,0,0-1.28-.191,6.249,6.249,0,0,0-3.405,1.063,12.831,12.831,0,0,0-3.051,2.779,23.513,23.513,0,0,0-4.032,7.464,10.645,10.645,0,0,0-.572,3.078,3.044,3.044,0,0,0,.545,1.907,1.7,1.7,0,0,0,1.417.708q1.471,0,3.568-1.852a25.2,25.2,0,0,0,4.277-5.23,43.311,43.311,0,0,0,3.923-7.9q1.2-3.159,2.479-6.429t2.588-6.292q1.308-3.024,2.533-5.394a22.837,22.837,0,0,1,2.343-3.759q1.116-1.389,1.989-1.39a1.01,1.01,0,0,1,.763.354,1.275,1.275,0,0,1,.327.9,9.084,9.084,0,0,1-.9,2.969q-.9,2.1-2.343,5.012t-3.023,6.347q-1.581,3.432-3.024,6.974a59.956,59.956,0,0,0-2.343,6.838,23.053,23.053,0,0,0-.9,6.02,11.807,11.807,0,0,0,.163,2.288.962.962,0,0,0,1.09.763,5.152,5.152,0,0,0,2.67-.981A14.132,14.132,0,0,0,324.5,81.4a18.456,18.456,0,0,0,2.67-4.3l.654.49a17.512,17.512,0,0,1-2.833,4.985,15.887,15.887,0,0,1-3.841,3.487,7.382,7.382,0,0,1-3.9,1.28A2.986,2.986,0,0,1,314.445,86a5.333,5.333,0,0,1-.79-2.752,14.613,14.613,0,0,1,.272-2.452q.272-1.525.763-3.378a40.1,40.1,0,0,1-3.7,5.2,20.547,20.547,0,0,1-3.841,3.623A6.32,6.32,0,0,1,303.577,87.557Zm24.9,13.62a4.03,4.03,0,0,1-2.4-.735,2.475,2.475,0,0,1-1.035-2.152,5.638,5.638,0,0,1,.872-3.105,10.08,10.08,0,0,1,2.343-2.506,24.557,24.557,0,0,1,3.378-2.179q1.906-1.035,3.977-2.07.762-2.016,1.552-4.494t1.5-5.476a27.989,27.989,0,0,1-3.732,4.876,5.871,5.871,0,0,1-4.222,2.043,4.849,4.849,0,0,1-2.043-.463A3.958,3.958,0,0,1,327,83.471a4.429,4.429,0,0,1-.654-2.506,14.459,14.459,0,0,1,.517-3.541,31.9,31.9,0,0,1,1.281-3.923,18.22,18.22,0,0,1,1.58-3.16q.817-1.252,1.416-1.253a3.5,3.5,0,0,1,.79.163,4.835,4.835,0,0,1,1.09.463q.518.3.518.626a13.66,13.66,0,0,0-1.09,2.016q-.6,1.308-1.172,2.915t-.953,3.132a11.028,11.028,0,0,0-.381,2.615,2.621,2.621,0,0,0,.436,1.58,1.761,1.761,0,0,0,1.525.6,3.9,3.9,0,0,0,2.315-1.008,16.472,16.472,0,0,0,2.561-2.588,30.4,30.4,0,0,0,2.37-3.378q.164-.6.3-1.226t.245-1.281a5.8,5.8,0,0,1,.79-1.77,2.168,2.168,0,0,1,1.989-1.008q.272,0,.545.028a2.87,2.87,0,0,1,.6.136,18.54,18.54,0,0,1-.518,3.242q-.518,2.37-1.471,5.53t-2.261,6.483a15.814,15.814,0,0,0,5.012-3.241,16.445,16.445,0,0,0,3.977-6.02l.708.545a12.7,12.7,0,0,1-2.479,4.549,18.514,18.514,0,0,1-3.732,3.323,29.48,29.48,0,0,1-4.086,2.315,64.346,64.346,0,0,1-3.078,6.538,22.527,22.527,0,0,1-3.487,4.931A5.264,5.264,0,0,1,328.475,101.177Zm-.272-1.743q.817,0,2.751-2.152a27.031,27.031,0,0,0,4.114-7.546q-2.235,1.2-4.141,2.37a12.415,12.415,0,0,0-3.051,2.533,4.765,4.765,0,0,0-1.144,3.16,2.249,2.249,0,0,0,.327,1.035A1.191,1.191,0,0,0,328.2,99.433Z" transform="translate(803.763 4041.659)" fill="#fff"/>
  </g>
</svg>
