<svg xmlns="http://www.w3.org/2000/svg" xmlns:xlink="http://www.w3.org/1999/xlink" width="377.849" height="110.789" viewBox="0 0 377.849 110.789">
  <defs>
    <clipPath id="clip-path">
      <rect id="Rectangle_3620" data-name="Rectangle 3620" width="377.849" height="110.789" fill="none"/>
    </clipPath>
  </defs>
  <g id="Group_2069" data-name="Group 2069">
    <g id="Group_2068" data-name="Group 2068" transform="translate(0 0)" clip-path="url(#clip-path)">
      <path id="Path_21387" data-name="Path 21387" d="M158.013,145.335a.463.463,0,0,0-.053-.165c.079.02.13.057.053.165" transform="translate(-62.246 -52.333)" fill="#008700"/>
      <path id="Path_21388" data-name="Path 21388" d="M157.856,145.145l.052-.005c0,.006.007.013.011.019-.02-.005-.041-.01-.063-.014" transform="translate(-62.205 -52.323)" fill="#008700"/>
      <path id="Path_21389" data-name="Path 21389" d="M94.694,144.23a1.01,1.01,0,0,1,.191-.047c-.064.056-.131.081-.191.047" transform="translate(-37.315 -51.978)" fill="#008700"/>
      <path id="Path_21390" data-name="Path 21390" d="M607.7,106.072c2.06.382,1.039.357-1.07.161.23-.248.93.227,1.07-.161" transform="translate(-239.051 -38.239)" fill="#008700"/>
      <path id="Path_21391" data-name="Path 21391" d="M0,56.972a14.672,14.672,0,0,0,5.047-.87c.229-.535-.259-.667-.837-.752.53-.9,1.645-.893,2.506-1.28,1.3,1.019,4.142-.895,5.889-.12a7.5,7.5,0,0,1-1.692,1.6,1.168,1.168,0,0,0-.547.4A11.2,11.2,0,0,0,8.55,57.44c-.053.059.122,1-.729.774a.244.244,0,0,0,.11.308A7.676,7.676,0,0,1,5.44,59.1c.519.544,1.52.2,2.755.047.487.13,1.221.276,2.118.432a2.44,2.44,0,0,0-.3.624c-.39.662-1.54.155-2.154.472-.13.75,1.5-.119,1.586.823,1.1-.308,4.237-.62,3.525.836a58.281,58.281,0,0,1,10.489,1.432,9.907,9.907,0,0,1-2.2,1.184c-3.307,3.676-5.243,5.374-7.583,8.883-.159.294-.675.038-.889.251.1.351-.307.986.323,1.042-.144.227-.582,0-.7.27.507.961-.2,1.833-.971,3.105a.919.919,0,0,0,.677.233c-1.558,1.292-.093,2.117-1.371,3.574,4.293.278,4.107,4.307,8.279,4.651.394-.833,1.249-.961,1.944-1.331-1.368-1.514-3.607-2.541-4.8-4.155.135-.516.524-.638.917-.757.475-.021-.427.728.348.539.7-1.908,3.237-.086,4.626.1.483-.067.736-.489,1.217-.558a4.476,4.476,0,0,0,3.41.657c1.571.843,3.823,1.8,5.58,1.031a7.114,7.114,0,0,1-5.6-1.876c.908-.792,1.425.311,2.172.374a1.185,1.185,0,0,0-.768-.914c1.165-1.071,1.377.413,2.031.7a3.491,3.491,0,0,1,3.995.207,8.266,8.266,0,0,0-1.1.739,2.674,2.674,0,0,1,.465.717,1.269,1.269,0,0,1-1.335.381c.155.913-1.142,1.078-1.944,1.331-.135.755,1.62-.083,1.334-.38.39-.035.626.174.3.2-.048.21.464.265.56.054a2,2,0,0,1-.591,1.8c1.37-.237,1.009,1.33,2.237,1.557.087.537-.985.594-.54.79.292.088.407-.093.515-.289a21.334,21.334,0,0,1,2.661.587c.368.65.332,1.525,1.864,1.522-.446.948-.9,1-1.037,1.924,1.843,1.5,6.964-1.688,6.749,1.475.745-.406.959-.884.825-1.439a23.383,23.383,0,0,1,9.559-.952c-.4.372-.615,1.034-1.241,1.062.218.627-.428.985-.779,1.777a4.746,4.746,0,0,1,1.779-.506c-.05-.162-.175-.636.4-.467a.571.571,0,0,0-.35-.537c.476-.147.571-.013,1.263-.219.335.057-.125.559.091.681.518-.011.842-.324.986-.916.574.338.381,0,.888-.255.27-.067.111.425-.091.6a4.479,4.479,0,0,1,2.469.634c-.61-.5,1.766-.238.656-.612,2.709-.178,3.842.009,6.1-.6.383.131-.338.232-.025.5,1.022-.5,2.52-.265,3.136-1.387a11.552,11.552,0,0,1,2.547.4c-.053.284-.279.292-.517.29.238.606.941-.336,1.219-.56,1.256.367,2.609-.017,3.408.657.111-.64.71-.532.985-.917.09.155.471.144.419.377-.381.436-.4-.283-.817.091,1.409.28,3.948.175,4.692,1.283.6-.09.314-.222.47-.628.891.111.676.842,1.772.838-.161-.437-.887-.561-.885-1.092.833.018,1.228-.632,2.151-.471.336.1-.507.433.421.377-.193.514-.734.493-.87,1.1.452-.208,1.292-.632,1.059-1.079.348.09.6.022.7-.269a3.255,3.255,0,0,0,1.214.785c-.365.458-.559-.152-.934-.088-.025.746,1.369.7,2.075,1.037a2.173,2.173,0,0,0-.954-.93,1.347,1.347,0,0,1,1.379-.041.6.6,0,0,1,.026-.5,23.038,23.038,0,0,1,2.663.585c.166-.09.33-.184.5-.277-.1.177-.151.326.334.372a1.777,1.777,0,0,1,.2-.345c.224.164.343.223.859-.074.135.087.273.171.231.357-.194.332-.839-.035-1.075.235-.038.268,1.1.1,1.379-.038-.248.437.861.122,1.148.6,2.492-.274,5.079,1.749,7.843,1.084a2.629,2.629,0,0,0,1.166.445,1.226,1.226,0,0,0,.469-.629c.3.015.679.145.819-.09.195.071.662.583.093.68-.067.372,1.013-.139.584-.45.262-.5,1.05-.185,1.637-.182-.061.537-.708.168-.959.414a6.362,6.362,0,0,1,2.965.783c.694-.168-.689-.167-.607-.393a3.815,3.815,0,0,1,1.745-.983c.409.107.716.333.61.712.831-.616,3.431-.626,3.621.175,1-1.056,2-.089,3.085-.384.381.131-.338.231-.026.5.778-.2,1.36-.272,1.425.3.537-.56,1.172.237,1.663-.686.082.327.35.487.63-.108.151.583,1.249,0,1.1.608,1.213-.973,2.666.336,3.5-.008.3.28.082.851.768.916,1.687-.646,1.864-.109,3.48.494.7-.169-.734-.143-.348-.538,4.077.708,9.172.592,12.3,3.009-.405.65-.821.019-1.029.576.713.356.936.23,1.469.643.258-.349-.256-.263-.162-.52a1.2,1.2,0,0,1,.889-.253c.382.13-.337.231-.025.5.484-.281.8-.04.863.249.7.1.125-.126.4-.467.536.025.366.446.206.862.367.113.457-.2.588-.451,1.992.991,5.141,1.035,7.563,1.386.465.065.979-.026.82-.091,1.069.453,3.175.692,3.832-.313-.088,1.021,1.328-.138,2.1.534.2-1.118,2.313-.731,2.758-.076a2.826,2.826,0,0,1-2.57.094c.667,1.2,3.817.107,3.99,1.554,1.774.35,3.307-.522,4.742.278.038-.427.05-.769.613-.953.887.123-.033.5.136,1.023,2.042-.184,3.645,1.449,6.4.94.566.2-.135.363.091.679,1.966.44,2.851.047,3.668.514a1.316,1.316,0,0,1,1.519-.359c.053-.194-.281-.171-.489-.217.062-.447.522-.276.772-.432.151.164-.313.441.605.393.032-.26-.527-.191-.09-.68-.709-.361-1.576.129-1.211-.788-1.456,1.2-1.525-.96-3.293-.479.721-1.19,1.557.647,2.266-.292.617.168.6.691,1.355.464.1-.3-.59-.158-.607-.393.471-.372,1.338.057,1.681.158-.074.157-.284.106-.444.127.2.157,1.5.432,1.191-.055.292.163.667.278.723.571.505.077.75-.187.587-.448.414.089.244.478-.213.485.369.428.909-.181,1.823-.165-1.546.762,1.194-.273,1.495.141a1.086,1.086,0,0,0-.4.468c.388-.033.423-.615.96-.416.375.8,2.936.2,4.13,1.232l.213-.486c.622-.063.608.23,1.051.267a1.43,1.43,0,0,1-.774.432c.022.206.751-.04,1.05.267.056-.315-.4-.343-.02-.844a2.033,2.033,0,0,0,1.752,0c.465.086-.377.255-.283.648.878-.336,1.94-.724,1.54.48,1.158-.29,1.045,1.615,3.244,1.483-.408-.431-.078-.17.4-.467.208.209.255.508.464.718.7-.2.65-.282,1.379-.039.211-.439-.168-.354.283-.647.278.566.624.437,1.142.948.062-.427.5-.854,1.077-.234.345-.461,1.229-.087,1.474-.7.513,0-.127.642.536.555.354-.619.456-.556.238-.988a2.035,2.035,0,0,0,1.191-.055c-.133.517-.734.31-.8.934,1.053.084,3.594.09,3.79-.654.232.075-.022.421-.1.664.663.12.823-.535,1.172-.9-.817.09-.351-.536-1.168-.447,1.491-.707,1.779.086,3.132-.042a1.507,1.507,0,0,1-1.663.686c.178.266.708.338,1.166.446.1-.292.379-.32.471-.63.857-.113.58.409,1.168.446.15-.288-.081-.361.1-.664,1.294,2.229,4.241.129,6.044,1.748-.5-.443-.041-.765-.627-1.237.136-.2.444-.13.374.035.481-1.46,2.343-.553,3.389-.185-.016-.561-.84-.67-1.328-.968.481-.319,1.677-.376,1.166.446.7-.191.848.02,1.5.14.639-.208-.979-.173-.722-.572.765-.622,2.575-.1,2.758-.077.479.059.914.138.748.07.893.364,1.668-.311,2.266-.293.222.008.216.58.722.575,1.377-.015,4.325-.054,5.956,1.062.216-.113.3-.429.585-.448-.048-.558-.6.294-1.006.074.53-.823,1.837-.588,2.527-.436-.193.151-.5.125-.587.45.966-.087,2.913-.982,3.06.119.367.113.457-.2.587-.45a3.887,3.887,0,0,1,1.237.285c-.051.281-.278.292-.516.29.45.8,1.479-.142,2.289.549.168-.642.949-.34,1.289-.72a27.246,27.246,0,0,0,9.574,1.24c.951,1.111,2.859.145,4.086.888.476-.17,1.06-.169,1.288-.721.269.324.393.417,1.052.268.462.084-.379.253-.284.647,1.631-.158,1.615,1.234,2.868,1.448.251-1.062-.951-.6-1.186-1.291a4.088,4.088,0,0,1,2.571-.093.607.607,0,0,1,.024-.5c.428.713,1.385.565,2.546.408.247.1-.163.2-.212.485,2.967-.208,5.352.785,8.739.484.231.074-.022.42-.1.664A10.864,10.864,0,0,0,281,110.1c-1.2.569,1.071.07,1.449-.2.334.056-.126.56.09.681.74-.033.148-.792.985-.916.155.735,1.045.446,1.96.858.568-.133-.647-.275-.794-.411.209-.761,1.2-.313,1.895-.326.417.01-.166.58-.167.824.75-.013.992-.815,1.966-.487.453.208-.459.406-.1.663.953-.7,2.481-.147,3.717-.491.054-.193-.281-.17-.49-.215.365-.458.559.154.934.089a.826.826,0,0,1-.515.288,7,7,0,0,0,2.2-.129c.647-.31-.345-.593.425-.97-.061.254-.3.925.724.572-.068-.37-.63-.464-.067-1.185a.4.4,0,0,0,.445-.125c.8.106-.559.747.278.7.133-1.06,1.22-.648,1.92-.829.133-.362-.763-.145-1.051-.267.2-.5.774-.429,1.334-.38.71-.249-1.072-.122-.98-.43,1.165-.129,4,.074,4.129,1.232.447-.031,1.179-.277,1.052.267,1.635-.861,3.194.323,4.066.045-.125-.256-.607-.312-.721-.574.214-.3.579-.366.727-.772,2.376.373,5.6-.318,7.545.54,1.9-.6,2.361-.139,4.465-.421-2.392-.309-6.679-.132-9.813-.25-.765-.028-1.781-.929-2.455.275-.709-.092-1.695-.029-1.727-.5-.5.047-.672.589-1.332.38-.139-.045-.118-.18-.3-.2-.352-.051.554-.574.167-.825-.352-.09-1.14,1.1-.89.252-2.624.7-5.109.224-8.5-.126-1.014.81-2.761.32-3.574.167.167-.462,1.135.311,1.145-.4a3.464,3.464,0,0,1-1.423-.3c.085,1.221-2.3.409-2.9.4.229-.459.908-.222,1.449-.2-1.383-1.39-4.609.055-6.729-.632-.1.377-.618.129-.77.431-1.389-1.041-3.624-.166-5.092-.815-3.081.368-4.071.011-6.915-.651a1.217,1.217,0,0,0,.47-.629c.1.725.743-.06,1.265-.217a.724.724,0,0,0,.487.216c-.434.32-1.16.193-1.474.7.587.005.887-.437,1.637-.182.485-.623.1-.9,1.1-.739-.362-.164-.268-.583-.912-.59.466-1.086,4.436-.008,2.385-.113.3.485,2.382-.063,1.657.663,1.2.387,1.858-.432,2.829-.241.761.149.779.9,1.444,1.145-.028-.008.168-.313.142-.322.436.143,1.137,1.1,1.752,0-.61.306-1.435-.01-1.1-.609.688.746,4.027-.078,5.722.707.23,0,.288-.279.4-.467,2.011.738,5.2-.068,6.725.634l.213-.485c.334.643.885.477,1.8.336-.785-.259-.072-.6-1.283-.624,1.165-.122,2.175.279,3.272-.366-.084.232-.168.462-.4.468.171.242,1.432-.124,1.895-.327.126.186,1.189.459.465.718,1.363.064,2.824.262,4.3.4.258-.641-.6-.57.121-1.166-1.532-.027-2.941.425-3.593-.675-.233.006-.288.279-.4.466-.188-.058.013-.331-.233-.357.6-.32,2.855-.689,2.8.264.585-.182,1.334-.109,1.895-.328.251-.773.468-1.253-.743-1.415-.111.307.57.169.35.537-.059.455-.513.291-.658.611-.336-.146-1.674-.355-.838-.751-.4-.352-.524.311-1.031.574-.169-.431-.21-.626-.863-.249-.184-.182-.185-.467-.279-.7a29.623,29.623,0,0,1-5.233-.494c-.021.136.118.179.045.343a4.643,4.643,0,0,0-2.475-.57c.085-.232.171-.46.4-.468a19.711,19.711,0,0,1-4.389-1.085c-.15.906-1.3-.215-2.222.632-.127-.377-.959-.359-.768-.914-.85-.006.2.374-.54.79-.706-.137-1.162-1.067-1.959-.858-.056.015-.316.48-.4.468-.462-.077-.536-.554-1.1-.608.058.006.019.334.045.341-.249-.062-.668-.4-.979-.428-.521-.056-1.368.57-1.966.489-.536-.075-.627-.812-1.14-.95-.9-.241-2.176.624-2.687-.084-.559-.051-.82.359-1.333.379-1.628-.608-3.34-.726-5.252-1.335-.021-.381-.432-1.475.285-1.487-1.146-.109-2.979-.68-1.4-1.312.445-.179.888.2.676.233,1.429-.19,3.279-.187,4.343.744,4.459-.079,8.149,1,12.43.5.554-1.668,3.541-.9,4.4-.262,3.418-.091,6.454.748,10.019,1.112.319-.191.184-.247.212-.484.421.008.538.188.349.535.9-.49,3.024.395,3.228-.7.317.228.145.732,1.095.609.014-.531.144-.37.425-.973-.893.1-.969.355-.979-.428a20.532,20.532,0,0,1,3.272-.365c-.062.242.56.977-.166.826.245.538,1.005-.418,1.286-.72,1.474.107,2.9-.668,3.551.334.926-.784,2.385-.437,2.764-1.425.462.086-.38.257-.285.648,1.406.206.251-.7,1.1-.738-1.488-.718-3.341,1.253-4.324.1.132.233-.038.262-.211.486-.436-.581-2.483.752-2.172-.373a7.293,7.293,0,0,1-4.582.242c-.044.471-.445.395-.54.79-1.939-.439-3.764.32-5.212.351-3.425-1.293-7.426.34-10.909-.858.9-1.305,1.6-1.972,1.086-2.928.094-.127.26-.145.33-.308.526.223,1.233.684,1.94.015-1.277.282-1.684-.366-2.662-.585.248-.512-.146-.843-.627-1.24.355-.444.98-.472,1.477-.7-.7-.329-1.189-.122-1.659-.661a37.35,37.35,0,0,0,7.082-.176c-.079.33-.259.5-.585.451.193.368,1.508.175,1.823-.166.619,1.146,2.13.329,3.128,1.3a1.986,1.986,0,0,1-2.037.651c-.229.279-.391.662-.727.774-.2.5.544-.1.537.088a3.056,3.056,0,0,1,1.943-.865c.185.058-.015.333.231.357-.6.616-.79.208-1.707.345-.114.746,1.123-.393,1.166.448-.587.881-1.741.474-2.408.615,1,.664,3.8-.039,5.3.329a14.849,14.849,0,0,1,2.493-.455c-.332-.2-.85.359-.717-.051.242-.012.195-.168.142-.323.277-.027.458-.2.819-.091l-.2.453a1.635,1.635,0,0,0,1.254-1.532c-.853-.418-.776-1.356-2.566-1.25,1.575-1.354,2.747.846,3.6.673.44-.571-.876-.161-.208-.862-.554.141-1,.059-1.131-.283.43.082.868.165,1.31.243a.735.735,0,0,1-.062.219c.185-.055.365-.1.542-.137a12.574,12.574,0,0,0,3.815.2c.033,0,.109-.32.141-.323.081-.005.93.543.631-.109,1.046.68,2.815.584,4.232.827a1.351,1.351,0,0,1,.733.5c.74.121.065-.228.469-.629.275.031.537.069.8.1a.3.3,0,0,0-.093.282c.344-.036.679-.09,1.008-.148,2.527.4,4.654.939,6.854,1.071.015,1.1,2.026,1.351,2.939,1.287,2.326-.162,4.6,1.646,6.284.758,1.741,1.2,4.843.148,6.8.474.434-.815.05-1.169-.041-1.688-1.719-.469-3.656-.1-4.014-1.051,2.961-.036,4.638-1.582,7.157-1.684.265-.13.32-.59.773-.433a1.453,1.453,0,0,0,.092-.418,4.545,4.545,0,0,0,2.106-.288.628.628,0,0,1,.427.011,7.738,7.738,0,0,0,3.988.031c.042-.01-2.574-.059-6.57-.129a1.178,1.178,0,0,0-.6-.607c.9.141,1.557-.255,3.274-.363-.776-.287.923-.652-.276-.7.377-.359,1.281,0,1.237.285.9-.145.91-.443,1.706-.344.207-.475,1.028-.587.8-.935.344.01.306.235.676.231.245-.381-.187-.382.165-.826-1.327.21-2.007,1.42-3.393,1.532.26-.59,1.2-.132,1.359-.881-.453.051-.132-.334-.419-.376a5.5,5.5,0,0,1,2.192-1.283,2.649,2.649,0,0,1,.4.194.4.4,0,0,1,.207-.271.181.181,0,0,0,.092-.079,4.1,4.1,0,0,1,2.114.225c1.057-.485.4-.588.894-1.6l-.748-.07c.438-.156.708-.419.025-.5a8.957,8.957,0,0,1,2.531-1.782c-.085-1.038,4.313-3.8,1.21-4.1.076-.5-1.142-.9-.885-1.092-1.279-.474,12.527-.21,16.093-.813,2.129.134,3.248.168,2.262,0,.179-.355.82.006,1.19-.058l-.009-.013a2,2,0,0,0-1.574-.586c-.652-.006-1.375-.015-2.049-.018-.667-.663-.427-2.14-2.335-1.863-.094.216-.189.432-.282.647-1.543-.485-3.185.455-4.9.657a.77.77,0,0,1-.179-.189.683.683,0,0,0-.573-.164c-.354.034-.567-.008-.591-.179-.012-.083-.133-.16-.289-.2,1.229-.624,2.858-.631,3.57-2.057-.288-.043-.746.01-.675-.233.061-.538.708-.17.96-.416.112-.379-.337-.418-.676-.231a1.466,1.466,0,0,0,.345-.463c.15.031.3.062.445.1a.338.338,0,0,1,.075-.237l-.464-.044c.126-.719-.911-1.189-.064-2.356-.759.058-1.453.2-1.1-.606-.993.173-1.923.054-1.585-.824-2.27-.022-3.674,2.569-5.618,2.165a1.355,1.355,0,0,0-.167.113c-.489-.041-.924-.073-1.266-.093a4.1,4.1,0,0,0,1.025.3l-.035.031c-2.233-.322-2.106-.392-.991-.329a3.605,3.605,0,0,1-.836-.5l-.214.487a9.057,9.057,0,0,0-1.715-.4c.107-.127.3-.185.717-.1.241-.338-.132-.334-.417-.377a1.1,1.1,0,0,0,.4-.469c.228.335.018.312.676.233.069-.347.314-.416.47-.63-.233-.579.817-1.472,1.687-1.188-.259-.739.925-1.171,1.572-1.367.042-.347-.142-.372-.49-.214,1.623-2.336,5.062-1.105,8.064-1.093a.376.376,0,0,1-.326.306,9.353,9.353,0,0,0,2.383-.114c.208.047.03.309-.025.5l8.581-7.608a14.672,14.672,0,0,0-5.047.87c-.229.535.259.667.837.752-.53.9-1.645.893-2.506,1.28-1.3-1.019-4.142.9-5.889.12a7.522,7.522,0,0,1,1.692-1.6,1.171,1.171,0,0,0,.547-.4A11.2,11.2,0,0,0,369.3,53.35c.053-.059-.122-1,.729-.774a.244.244,0,0,0-.11-.308,7.676,7.676,0,0,1,2.491-.578c-.519-.544-1.52-.2-2.755-.047-.487-.13-1.221-.276-2.118-.432a2.437,2.437,0,0,0,.3-.624c.39-.662,1.54-.154,2.153-.472.13-.75-1.5.119-1.586-.823-1.1.308-4.237.62-3.525-.836a58.279,58.279,0,0,1-10.489-1.432,9.906,9.906,0,0,1,2.2-1.184c3.307-3.676,5.243-5.374,7.583-8.883.159-.294.675-.038.889-.251-.1-.351.307-.986-.323-1.042.144-.227.582,0,.7-.27-.508-.961.2-1.833.97-3.105a.919.919,0,0,0-.677-.233c1.558-1.292.093-2.117,1.371-3.574-4.293-.278-4.107-4.307-8.279-4.651-.394.833-1.25.961-1.944,1.331,1.368,1.514,3.607,2.541,4.8,4.155-.135.516-.524.638-.917.757-.475.021.427-.728-.348-.539-.7,1.908-3.237.086-4.626-.1-.483.067-.736.489-1.217.558a4.476,4.476,0,0,0-3.41-.657c-1.571-.843-3.823-1.8-5.58-1.031a7.114,7.114,0,0,1,5.6,1.876c-.908.792-1.426-.311-2.172-.374a1.185,1.185,0,0,0,.768.914c-1.165,1.071-1.377-.412-2.03-.7a3.491,3.491,0,0,1-3.995-.207,8.261,8.261,0,0,0,1.1-.739,2.675,2.675,0,0,1-.465-.717,1.269,1.269,0,0,1,1.335-.381c-.155-.913,1.143-1.078,1.944-1.331.135-.755-1.62.083-1.334.38-.39.035-.626-.174-.3-.2.048-.21-.464-.265-.56-.054a2,2,0,0,1,.591-1.8c-1.37.237-1.01-1.33-2.237-1.557-.087-.537.985-.594.541-.79-.292-.088-.407.093-.515.289a21.336,21.336,0,0,1-2.661-.587c-.368-.649-.332-1.525-1.864-1.522.447-.948.9-1,1.037-1.924-1.843-1.5-6.964,1.688-6.749-1.475-.745.406-.959.884-.825,1.439a23.385,23.385,0,0,1-9.559.952c.4-.372.615-1.034,1.241-1.062-.218-.627.428-.985.779-1.777a4.747,4.747,0,0,1-1.779.506c.05.162.175.636-.4.467a.57.57,0,0,0,.349.537c-.476.147-.571.013-1.263.219-.335-.057.125-.559-.091-.681-.518.011-.842.324-.986.916-.574-.339-.381,0-.888.255-.27.067-.111-.425.091-.6a4.479,4.479,0,0,1-2.469-.634c.61.5-1.766.238-.656.612-2.709.178-3.842-.008-6.1.6-.383-.131.338-.231.025-.5-1.022.5-2.519.265-3.136,1.387a11.553,11.553,0,0,1-2.547-.4c.053-.284.279-.292.517-.29-.238-.606-.94.336-1.219.56-1.256-.367-2.609.017-3.408-.657-.111.64-.71.532-.985.917-.09-.155-.471-.144-.419-.377.381-.435.4.283.817-.09-1.409-.281-3.948-.175-4.692-1.283-.6.09-.314.222-.47.629-.891-.112-.676-.843-1.772-.839.161.437.887.561.885,1.092-.833-.018-1.228.632-2.151.471-.336-.1.507-.433-.421-.377.193-.514.734-.493.87-1.1-.451.208-1.292.632-1.058,1.079-.348-.091-.6-.023-.7.268a3.255,3.255,0,0,0-1.214-.785c.365-.458.559.152.934.088.025-.746-1.369-.7-2.075-1.037a2.173,2.173,0,0,0,.954.93,1.346,1.346,0,0,1-1.378.041.606.606,0,0,1-.027.5,23.2,23.2,0,0,1-2.663-.586c-.166.09-.33.184-.5.277.1-.177.151-.326-.334-.372a1.775,1.775,0,0,1-.2.345c-.224-.163-.343-.223-.859.075-.134-.088-.273-.172-.231-.358.194-.332.839.035,1.076-.235.038-.268-1.1-.1-1.379.038.247-.437-.861-.122-1.148-.6-2.492.275-5.079-1.749-7.843-1.084a2.629,2.629,0,0,0-1.166-.445,1.226,1.226,0,0,0-.469.629c-.3-.015-.679-.145-.819.09-.195-.071-.662-.583-.093-.68.067-.373-1.013.138-.584.449-.262.5-1.05.185-1.637.182.061-.538.708-.169.959-.414a6.359,6.359,0,0,1-2.965-.783c-.7.168.689.167.607.393a3.812,3.812,0,0,1-1.745.983c-.409-.107-.716-.332-.61-.712-.832.616-3.431.626-3.621-.175-1,1.056-2,.089-3.085.384-.381-.132.338-.232.026-.5-.778.2-1.361.272-1.425-.3-.537.56-1.171-.237-1.663.686-.082-.327-.35-.487-.63.108-.151-.583-1.249,0-1.1-.608-1.212.973-2.665-.336-3.5.008-.3-.28-.082-.851-.768-.916-1.687.646-1.864.109-3.48-.494-.7.17.734.143.348.538-4.077-.709-9.172-.592-12.3-3.009.4-.65.82-.019,1.028-.576-.713-.356-.936-.23-1.469-.643-.258.349.256.263.162.52a1.2,1.2,0,0,1-.889.253c-.382-.13.338-.231.025-.5-.484.281-.8.04-.863-.249-.7-.1-.125.126-.4.467-.536-.025-.366-.446-.206-.862-.367-.113-.457.2-.588.451-1.992-.991-5.141-1.035-7.563-1.386-.465-.065-.979.026-.82.091-1.068-.453-3.175-.691-3.832.313.088-1.021-1.329.138-2.1-.534-.2,1.118-2.313.731-2.758.076a2.826,2.826,0,0,1,2.57-.094c-.667-1.2-3.817-.107-3.99-1.554-1.774-.35-3.307.522-4.742-.278-.038.427-.05.769-.613.953-.887-.123.033-.5-.136-1.023-2.042.184-3.645-1.449-6.4-.94-.566-.2.135-.363-.092-.679-1.966-.44-2.851-.047-3.668-.514a1.316,1.316,0,0,1-1.519.359c-.053.194.281.171.489.217-.062.447-.522.276-.773.432-.15-.164.313-.441-.6-.393-.032.26.527.191.09.68.708.361,1.576-.129,1.211.788,1.455-1.2,1.525.96,3.293.479-.721,1.191-1.557-.647-2.266.292-.617-.168-.6-.691-1.355-.464-.1.3.59.158.607.393-.471.372-1.338-.057-1.682-.158.075-.157.284-.106.445-.127-.2-.157-1.5-.432-1.191.055-.292-.163-.667-.278-.723-.571-.505-.077-.75.187-.587.448-.414-.089-.244-.478.213-.485-.369-.428-.909.182-1.822.166,1.546-.763-1.194.272-1.5-.141a1.085,1.085,0,0,0,.4-.468c-.388.033-.423.615-.96.416-.376-.8-2.937-.2-4.131-1.232l-.213.487c-.622.062-.608-.231-1.051-.268a1.429,1.429,0,0,1,.774-.432c-.022-.206-.751.04-1.05-.267-.056.315.405.343.02.844a2.036,2.036,0,0,0-1.752,0c-.465-.086.377-.255.283-.648-.878.336-1.94.724-1.54-.48-1.158.29-1.045-1.615-3.244-1.483.408.431.078.17-.4.468-.207-.21-.254-.509-.463-.718-.7.2-.651.281-1.379.038-.211.439.168.354-.283.647-.278-.566-.624-.437-1.142-.948-.062.427-.5.854-1.077.234-.345.461-1.229.087-1.474.7-.513,0,.127-.643-.536-.555-.354.618-.456.556-.238.987a2.04,2.04,0,0,0-1.191.055c.133-.517.734-.31.8-.934-1.053-.084-3.594-.09-3.79.654-.231-.074.022-.421.1-.664-.663-.12-.823.535-1.172.9.817-.09.351.536,1.168.447-1.491.707-1.779-.086-3.132.042a1.507,1.507,0,0,1,1.663-.686c-.178-.267-.708-.338-1.166-.446-.1.292-.379.32-.471.629-.857.113-.58-.409-1.168-.446-.15.288.081.361-.1.664-1.294-2.229-4.242-.128-6.044-1.748.5.444.041.765.627,1.237-.136.2-.444.13-.374-.035-.481,1.46-2.343.553-3.389.185.016.561.84.67,1.328.968-.481.32-1.677.376-1.166-.446-.7.192-.848-.02-1.5-.139-.639.208.979.173.722.572-.765.622-2.575.1-2.758.077-.479-.059-.914-.138-.748-.07-.893-.364-1.668.311-2.267.293-.221-.008-.215-.58-.722-.575-1.377.015-4.325.054-5.956-1.062-.216.113-.3.429-.585.448.048.558.6-.293,1.006-.074-.53.823-1.837.588-2.527.436.193-.151.5-.125.587-.45-.966.087-2.913.982-3.06-.118-.367-.113-.456.2-.587.45a3.887,3.887,0,0,1-1.237-.285c.051-.281.278-.292.516-.289-.45-.8-1.479.141-2.289-.549-.168.642-.949.34-1.289.72a27.276,27.276,0,0,0-9.574-1.24c-.951-1.111-2.859-.145-4.086-.888-.476.17-1.06.169-1.288.721-.27-.324-.394-.417-1.053-.268-.462-.084.379-.253.284-.647-1.63.158-1.615-1.234-2.869-1.448-.251,1.062.951.6,1.186,1.291a4.088,4.088,0,0,1-2.571.093.609.609,0,0,1-.024.5c-.428-.714-1.385-.566-2.546-.409-.247-.1.163-.2.211-.485-2.967.208-5.351-.785-8.738-.484-.231-.074.023-.42.1-.664A10.865,10.865,0,0,0,96.852.686c1.2-.569-1.071-.07-1.448.2-.336-.057.125-.56-.091-.682-.739.033-.148.792-.985.916-.155-.735-1.045-.446-1.96-.858-.568.133.647.275.793.412-.209.761-1.2.312-1.895.326-.417-.011.166-.581.167-.825-.75.013-.993.815-1.966.487-.453-.208.46-.406.1-.663-.953.7-2.481.147-3.717.491-.054.193.281.17.49.215-.366.458-.56-.153-.934-.089A.825.825,0,0,1,85.919.33a6.989,6.989,0,0,0-2.2.13c-.647.31.345.592-.425.969.061-.254.3-.924-.723-.572.068.37.63.464.067,1.185a.406.406,0,0,0-.445.125c-.8-.106.559-.746-.278-.7-.133,1.06-1.22.648-1.92.829-.132.362.763.145,1.052.267-.2.5-.774.429-1.334.38-.71.249,1.072.122.98.43-1.166.129-4.005-.074-4.13-1.232-.447.031-1.179.277-1.052-.267-1.635.861-3.194-.323-4.066-.044.125.255.607.311.721.573-.214.3-.579.366-.727.772-2.376-.373-5.6.318-7.545-.54-1.9.6-2.361.139-4.465.421,2.392.309,6.679.132,9.813.25.765.028,1.781.929,2.455-.275.709.092,1.695.029,1.727.5.5-.047.672-.589,1.332-.38.139.045.118.18.3.2.352.051-.554.574-.167.825.353.09,1.14-1.1.89-.252,2.624-.694,5.108-.224,8.5.126,1.014-.81,2.761-.32,3.574-.167-.167.463-1.135-.311-1.145.4a3.471,3.471,0,0,1,1.423.3c-.085-1.221,2.3-.409,2.9-.4-.229.459-.908.221-1.449.2,1.383,1.39,4.609-.055,6.729.633.1-.378.618-.129.77-.432,1.389,1.041,3.623.166,5.092.815,3.081-.368,4.071-.01,6.915.651a1.214,1.214,0,0,0-.469.629c-.1-.725-.744.06-1.265.217a.724.724,0,0,0-.487-.216c.434-.32,1.16-.193,1.474-.7-.588-.005-.886.437-1.637.182-.485.623-.1.9-1.1.739.362.164.268.583.912.59-.466,1.087-4.436.008-2.385.113-.3-.485-2.382.063-1.657-.662-1.2-.388-1.858.431-2.829.24-.762-.149-.779-.9-1.445-1.145.028.008-.167.313-.141.322-.436-.143-1.137-1.1-1.753,0,.611-.306,1.436.01,1.1.609-.688-.746-4.027.078-5.722-.707-.229,0-.287.279-.4.468-2.012-.738-5.2.068-6.725-.634l-.213.485c-.334-.643-.885-.477-1.8-.336.785.259.072.6,1.283.624-1.165.122-2.175-.279-3.272.366.084-.232.168-.462.4-.467-.171-.242-1.432.123-1.895.326-.126-.186-1.189-.459-.465-.718-1.363-.064-2.824-.262-4.3-.4-.258.641.6.57-.121,1.166,1.532.027,2.941-.425,3.593.676.233-.006.288-.279.4-.466.188.058-.013.331.233.357-.6.32-2.855.69-2.8-.263-.585.182-1.334.108-1.895.327-.251.773-.468,1.253.743,1.415.111-.307-.57-.169-.351-.537.059-.454.514-.29.658-.611.336.146,1.674.355.838.751.4.352.524-.311,1.031-.574.169.431.211.626.863.249.184.182.185.467.279.7a29.621,29.621,0,0,1,5.233.494c.021-.136-.118-.179-.045-.343a4.635,4.635,0,0,0,2.475.57c-.085.232-.171.46-.4.468a19.746,19.746,0,0,1,4.389,1.085c.15-.906,1.3.215,2.221-.632.128.378.96.359.768.914.85.006-.2-.373.54-.79.707.137,1.162,1.067,1.959.858.056-.015.316-.48.4-.468.463.077.536.554,1.1.608-.058-.006-.019-.334-.045-.341.249.062.668.4.979.428.521.056,1.368-.57,1.966-.489.536.075.627.812,1.14.95.9.241,2.176-.624,2.687.084.559.05.82-.359,1.333-.379,1.628.608,3.34.726,5.252,1.335.021.381.432,1.475-.285,1.487,1.146.109,2.979.68,1.4,1.312-.446.179-.889-.2-.677-.233-1.429.19-3.279.187-4.343-.744-4.459.079-8.149-1-12.43-.5-.554,1.668-3.541.9-4.4.262-3.417.091-6.454-.748-10.019-1.112-.319.191-.184.247-.212.484-.421-.008-.538-.188-.349-.535-.9.49-3.024-.395-3.228.7-.317-.228-.145-.732-1.095-.609-.014.531-.144.37-.425.973.893-.1.969-.355.979.428a20.532,20.532,0,0,1-3.272.365c.062-.242-.56-.977.166-.826-.245-.539-1.005.418-1.286.719-1.474-.107-2.9.668-3.551-.334-.926.784-2.385.437-2.764,1.425-.462-.085.38-.256.285-.648-1.406-.206-.251.7-1.1.738,1.488.718,3.34-1.253,4.323-.1-.132-.233.038-.262.211-.486.436.581,2.483-.752,2.172.373a7.293,7.293,0,0,1,4.582-.242c.045-.471.445-.395.54-.79,1.939.439,3.764-.32,5.212-.351,3.427,1.294,7.427-.34,10.909.858-.9,1.305-1.6,1.972-1.086,2.928-.094.127-.259.145-.329.308-.527-.223-1.234-.683-1.94-.015,1.277-.281,1.683.366,2.662.585-.249.512.145.844.627,1.241-.355.443-.98.471-1.476.7.7.328,1.188.121,1.658.66a37.357,37.357,0,0,0-7.082.176c.079-.33.26-.5.586-.451-.192-.368-1.508-.175-1.823.166-.619-1.146-2.129-.329-3.128-1.3a1.985,1.985,0,0,1,2.037-.652c.229-.279.391-.662.727-.774.2-.5-.545.1-.537-.088a3.056,3.056,0,0,1-1.942.865c-.186-.058.014-.333-.232-.357.605-.616.791-.208,1.708-.345.114-.746-1.123.393-1.166-.448.587-.881,1.74-.474,2.408-.615-1-.664-3.8.04-5.3-.329a14.85,14.85,0,0,1-2.493.455c.332.2.85-.359.718.051-.243.012-.2.168-.142.323-.278.028-.459.2-.819.091l.2-.453a1.635,1.635,0,0,0-1.254,1.532c.853.418.776,1.356,2.566,1.25-1.576,1.354-2.747-.846-3.6-.673-.44.572.876.161.208.862.554-.141,1-.059,1.131.283-.43-.082-.868-.164-1.31-.243a.732.732,0,0,1,.062-.219c-.185.056-.365.1-.542.137a12.577,12.577,0,0,0-3.816-.2c-.033.005-.108.32-.14.323-.081.005-.93-.543-.631.109-1.046-.68-2.815-.584-4.232-.827a1.351,1.351,0,0,1-.733-.5c-.74-.121-.065.228-.469.629-.275-.031-.537-.069-.8-.1a.3.3,0,0,0,.093-.282c-.344.036-.679.09-1.008.148-2.527-.4-4.654-.939-6.854-1.071-.015-1.1-2.026-1.351-2.939-1.287-2.325.162-4.595-1.646-6.283-.758-1.741-1.2-4.843-.147-6.8-.474-.434.815-.05,1.169.041,1.688,1.719.469,3.656.1,4.015,1.051-2.962.036-4.639,1.582-7.157,1.684-.265.131-.32.59-.773.434a1.444,1.444,0,0,0-.092.418,4.537,4.537,0,0,0-2.106.288.628.628,0,0,1-.427-.011,7.738,7.738,0,0,0-3.988-.031c-.042.01,2.574.06,6.57.129a1.179,1.179,0,0,0,.6.606c-.9-.141-1.557.255-3.273.363.775.288-.923.653.276.7-.377.359-1.281,0-1.237-.285-.9.145-.91.444-1.706.344-.207.475-1.028.587-.8.935-.344-.01-.307-.235-.676-.231-.245.381.187.382-.165.826,1.327-.21,2.007-1.42,3.393-1.532-.26.59-1.2.132-1.359.882.453-.052.132.334.418.375a5.494,5.494,0,0,1-2.191,1.283,2.631,2.631,0,0,1-.4-.194.393.393,0,0,1-.207.271.183.183,0,0,0-.092.079,4.1,4.1,0,0,1-2.114-.225c-1.057.485-.4.588-.894,1.6l.748.07c-.438.155-.708.418-.025.5A8.956,8.956,0,0,1,21.4,31.3c.085,1.039-4.313,3.8-1.209,4.1-.076.5,1.141.9.885,1.092,1.279.475-12.527.21-16.093.813-2.129-.134-3.248-.168-2.261,0-.179.356-.821-.006-1.191.058l.008.013a2,2,0,0,0,1.574.586c.652.006,1.375.015,2.049.018.667.663.427,2.14,2.335,1.863.094-.216.189-.432.282-.647,1.543.485,3.185-.455,4.9-.657a.758.758,0,0,1,.179.189.683.683,0,0,0,.573.164c.354-.034.567.008.591.179.012.083.133.16.289.2-1.229.624-2.858.631-3.57,2.057.288.043.746-.01.675.233-.061.538-.708.17-.96.416-.111.379.337.418.676.231a1.454,1.454,0,0,0-.346.464c-.15-.032-.3-.063-.445-.1a.337.337,0,0,1-.075.237l.464.044c-.127.719.911,1.189.064,2.356.759-.058,1.453-.2,1.1.607.993-.174,1.923-.055,1.585.823,2.27.022,3.674-2.569,5.618-2.165a1.439,1.439,0,0,0,.167-.113c.49.042.924.074,1.266.093a4.1,4.1,0,0,0-1.025-.3l.035-.031c2.233.322,2.106.392.991.329a3.624,3.624,0,0,1,.837.5l.213-.487a9.118,9.118,0,0,0,1.715.4c-.107.127-.3.185-.717.1-.241.338.131.334.417.377a1.107,1.107,0,0,0-.4.469c-.228-.335-.018-.312-.676-.233-.069.346-.314.416-.47.629.233.579-.817,1.473-1.687,1.188.259.739-.925,1.171-1.572,1.367-.042.347.142.372.49.214-1.623,2.336-5.062,1.105-8.064,1.093a.376.376,0,0,1,.326-.306,9.384,9.384,0,0,0-2.383.114c-.208-.047-.03-.309.025-.5Zm103.351,32.9a.885.885,0,0,1,.532.082l-.532-.082m1.552,1.142a29.533,29.533,0,0,1-3.381-.641c.174-.047.349-.094.518-.148.244-.382-.89.009-.348-.54.334-.291,1.365.286,1.892-.326.428.168-.3.2-.445.483-.09-.013-.175-.023-.241-.029-.062.808,2.038.407,2,1.2m1.962-3.366a3.263,3.263,0,0,1-3.319.026c.44-.4,1.219-.289,1.778-.505.194-.477-.556-.423-.136-1.025-1.64.161-.551-.784-1.54-.482a1.205,1.205,0,0,1,.89-.253c-.231-.482-1.384-.446-2.288-.552.535-.977.622.24,1.752,0,.024-.2-.175-.274-.165-.466.417.261,1.069.391,1.043.9.21.1.434-.795-.091-.681a1.2,1.2,0,0,1,.413-.544c.444-.1.87-.2,1.286-.294a.938.938,0,0,1,.64.383c-.112.185-.4.1-.63.108.279.25.127.743.579.9.176-.538.653-.818,1.314-1.224.413.421,2.115.12,2.474.569-.427.425-1.642-.366-1.777.508,1.1-.5,1.27.036,1.728.5.122-.883,3.241-.476,3.036.622.621.167,1.411-.789,1.377-.038.534-.532,1.457-.46,2.339-.452-.052.281-.28.292-.516.289.122.581,2.446-.979,2.616.244A.374.374,0,0,1,120,85.87c.186.186-.2.259.161.521.606-.091.317-.224.471-.629a4.725,4.725,0,0,0,1.186,1.289,1.107,1.107,0,0,1,1.217-.558c-.737.351-.436.627.008.655l0,0c.416.214.551.586.767.914,1.189-.781,1.615-.242,2.829-.239a.456.456,0,0,1,.069-.46,3.006,3.006,0,0,1,1.813.329.41.41,0,0,1-.129.128c.073-.021.142-.049.211-.076a.927.927,0,0,1,.525.835c-.067.308.96.07,1.192-.057.414,0,.074.42.282.534-.374.022-.769.067-1.173.116a21.808,21.808,0,0,1-2.57-.3c.278-.566,1.23-.088,1.475-.7-1.114.136-.3-.81-1.468-.643-.055.193.281.169.488.216a4.032,4.032,0,0,1-2.008.987,1.914,1.914,0,0,1-.414-.558c-1.282.776-3.688-.077-5.189-.15-.088.334.368.365.279.7-1.08.013-.639-.361-.652-.733-.712.272-.61.125-1.565.02-.619.87-1.518-.055-2.41.615-.138-.044-.116-.178-.3-.2.133-.515.67-.411,1.03-.575-1.609.089-4.389-.307-6.288.586-.324-.145-.211-.532-.465-.718-.673.895-1.427-.309-1.334.38-.524-.345-1.178-.43-1.444-1.145-.993-.185.407.634-.587.45-.183.347.631.136.865.249m19.428,1.169c.168.288.62.416,1.1.528a3.5,3.5,0,0,1-1.646-.327,3.773,3.773,0,0,0,.543-.2M25.451,43.712c-.027.01-.053.017-.08.025.035-.012.062-.02.08-.025m79.433,40.421a1.167,1.167,0,0,1-.211.3c-.311.031-.414-.054-.48-.16.236-.044.468-.089.691-.136M19.751,43.93c1.161.182,1.395.279-.217.182.071-.063.142-.126.217-.182m.179-.728c.814-.677,2.192-.487,3.174-.907a2.772,2.772,0,0,1,1.188.4c.047-.107.094-.216.14-.324l.956.029a4.279,4.279,0,0,0,1.372.04l.442.011c-.055.716-1.317.043-.908.668a.928.928,0,0,0-.677-.233c-.351.182-.427.785-.914.756-.04.111-.012.168.052.193-.743.026-1.375-.218-1.85.244-.268-.217-.815-.276-.393-.881-.23.006-.285.281-.4.468A9.9,9.9,0,0,0,19.93,43.2m42.4-19.608,1.316.018c-.565.116-1.074.2-1.316-.018m7.815.1a1.831,1.831,0,0,0,.058.295,1.158,1.158,0,0,1-.95-.176.625.625,0,0,0-.493-.075c-.576.159-1.092.41-1.67.565-.443.025-.441-.2-.424-.433.012-.167-.487-.256-.64-.114a1.51,1.51,0,0,1-.363.242c.045-.221-.354-.2-.405-.363,1.943.026,3.611.047,4.887.059M352.4,67.079l.08-.025-.08.026h0M274.5,20.917a.885.885,0,0,1-.532-.082l.532.082m-1.552-1.142a29.531,29.531,0,0,1,3.381.641c-.175.047-.349.094-.518.148-.244.382.891-.009.348.54-.334.291-1.365-.286-1.893.326-.428-.168.3-.2.445-.483.091.012.175.022.241.028.062-.808-2.038-.407-2-1.2m.019,6.882a1.187,1.187,0,0,1,.211-.3c.311-.031.414.054.48.16-.236.044-.468.089-.691.136m-1.6.361a.938.938,0,0,1-.64-.383c.111-.185.4-.1.63-.108-.279-.25-.127-.743-.579-.9-.176.538-.653.818-1.314,1.224-.413-.42-2.115-.12-2.474-.569.427-.425,1.642.366,1.777-.507-1.1.5-1.27-.036-1.728-.5-.122.883-3.241.476-3.036-.622-.621-.167-1.411.789-1.377.038-.534.532-1.457.46-2.338.452.051-.281.279-.292.515-.289-.122-.581-2.446.979-2.616-.244a.375.375,0,0,1-.329.306c-.186-.187.2-.26-.16-.522-.607.091-.318.224-.472.629a4.718,4.718,0,0,0-1.186-1.289,1.106,1.106,0,0,1-1.217.558c.737-.351.436-.627-.008-.655v0c-.416-.214-.551-.586-.766-.914-1.189.781-1.615.242-2.829.239a.456.456,0,0,1-.069.46,3.007,3.007,0,0,1-1.813-.329.4.4,0,0,1,.129-.128c-.073.021-.142.049-.211.076a.927.927,0,0,1-.525-.835c.066-.308-.96-.07-1.192.058-.414,0-.074-.42-.282-.535.373-.022.77-.067,1.173-.116a21.836,21.836,0,0,1,2.57.3c-.279.566-1.231.088-1.476.7,1.114-.136.3.81,1.468.643.055-.193-.281-.169-.488-.216a4.029,4.029,0,0,1,2.008-.987,1.937,1.937,0,0,1,.414.558c1.281-.776,3.687.078,5.189.15.088-.334-.368-.365-.279-.7,1.081-.013.639.361.651.734.713-.272.61-.126,1.565-.021.619-.87,1.518.055,2.41-.615.138.044.116.179.3.2-.133.515-.67.412-1.03.575,1.609-.089,4.389.307,6.288-.586.324.145.211.532.465.718.674-.894,1.427.309,1.334-.38.524.345,1.178.43,1.444,1.146.993.185-.407-.635.587-.45.183-.347-.631-.136-.865-.249a3.265,3.265,0,0,1,3.319-.026c-.44.4-1.218.29-1.778.505-.193.477.557.423.137,1.025,1.64-.161.551.784,1.54.482a1.206,1.206,0,0,1-.89.253c.231.482,1.385.446,2.289.552-.536.977-.622-.24-1.753,0-.024.2.175.274.165.466-.417-.261-1.069-.391-1.043-.9-.21-.1-.434.795.091.681a1.2,1.2,0,0,1-.413.544c-.444.1-.87.2-1.286.294m-19.807-5.046c-.168-.288-.62-.416-1.1-.528a3.5,3.5,0,0,1,1.647.327,3.782,3.782,0,0,0-.544.2M265.7,19.431a.38.38,0,0,1-.327.306c1.088.026,4.394-.194,4.342.745.372.032.431-.418.889-.255.335.046.259.321.121.631a3.68,3.68,0,0,1,2.233-.164c-.681.1-1.508.219-2.28.267.016-.035.032-.068.047-.1a.491.491,0,0,0-.095.106c-.98.057-1.861-.012-2.21-.42-.7.207.16.549.021.845a9.475,9.475,0,0,0-2.521-.912c-.462.052.116.274-.4.468q-.632-.015-.351-.537c-.312.421-1.394.473-1.169.9a6.987,6.987,0,0,0-1.774-.84c-.027.219.219.285.162.522-1.05-.86-2.654-.377-3.711-.855-.021.133.116.178.044.341-3.494-.455-5.626-.155-8.595-.808.005.361.209.616.909.588a2.292,2.292,0,0,1-2.108.263,1.191,1.191,0,0,1,.156-.463c-1.393.549-1.557-.548-2.264-1.053-1.111.629.718.65.7,1.075a.726.726,0,0,1-.155.153c-.068,0-.136-.005-.2,0a.458.458,0,0,0-.138.03c-.316-.16-.62-.7-1.186-.337-.515-.321.811-.457.356-.811-1.72-.073-4.37.451-5.679-.365.155-.214.527-.09.819-.091-.4-.328-.346-.242-.278-.7-.153.179-.99.1-.373-.036-.319-.322-1.723.6-2.2.132a.594.594,0,0,1-.025.5l-.746-.07a.813.813,0,0,1,.513-.286c-3.065.083-6.556-.709-9.625-.233-.438-.044.262-.436.513-.287-.045-.4-1.182-.23-1.379.036-1.169-.863-2.207-.163-3.71-.854-.663,1.1-2.408-.149-2.6.6-.963.072.416-.717-.091-.682-.54-.073-2.466-.318-3.1-.46.094-.216.188-.431.284-.647-.728-.1-.05.256-.587.451-.2-.639-1.665.372-1.657-.661-.428.054-.505.213-.4.467-.261-.15-1.067-.611-.392-.879.242-.381-.89.008-.35-.538-.384.087-.155.292-.21.483-1.219-.5-3.125-.239-4.345-.743.107.251.028.413-.4.467.164-.387-.809-.756-.135-1.023a.99.99,0,0,0-1.051-.267c-.118-.153.051-.412.237-.987.895.2,2.243.487,1.631,1.164.364.013.364-.522.773-.434a6.15,6.15,0,0,0,2.938,1.288c.084-.373-1.034-.074-.72-.575.408-.019,2.067.307,2.146.875a1.673,1.673,0,0,1,.843-.592c.67.634,2.473-.247,2.707.926.386-.035.622-.3,1.075-.234.44.113-.382.444-.7.27.885.89,3.108-.751,3.693.012.606-.054-.028-.364.282-.648a5.4,5.4,0,0,0,1.913.517,11.148,11.148,0,0,1-2.266.293c.592.609,2.287-.146,2.919.443.005-.207-.1-.356-.422-.375,1.289-.183.565.453,1.78-.508.657-.082.466.31.791.412-.387.438-.772-.12-1.12-.106a2.157,2.157,0,0,1,.4.878,3.716,3.716,0,0,1,2.291-.794c.231.075-.022.42-.1.665.368.112.458-.2.587-.451,2.172,1.055,5.48.785,8.383,1.295a28.854,28.854,0,0,0,5.278.832c1.079-.059,2.942,1.058,3.737.352,3.589.1,6.246.679,9.158.859.026-.217-.22-.283-.162-.518.122-.356.7-.012,1-.075,0,.544-.659.068-.656.612,1.262.444,4.239.343,5.722.707.111-.307-.569-.169-.348-.538.925-.079.261,1.138,1.283.625.079-.287-.161-.4-.605-.393.913-.535,1.763.486,2.241.211m5.933-1.783a.324.324,0,0,1-.334.283c-.564-.075-1.143-.134-1.76-.16-.01.249.1.434.088.683a8.584,8.584,0,0,1-1.745-1.344c-.086.2-.646.3-1.17.24a3.674,3.674,0,0,1,1.325-.377c-.247.87,2.078.473,3.292.478.139.044.116.179.3.2m2.141.7c-.612-.109-1.212-.221-1.825-.318.783-.1,1.749-.409,1.825.318M358.1,66.861c-1.16-.182-1.394-.279.217-.182-.07.063-.141.126-.217.182m-.178.727c-.814.677-2.192.487-3.174.907a2.772,2.772,0,0,1-1.188-.4c-.047.107-.094.216-.14.324l-.956-.029a4.262,4.262,0,0,0-1.372-.039l-.442-.012c.055-.716,1.317-.043.908-.668a.928.928,0,0,0,.677.233c.351-.182.427-.785.914-.756.04-.111.011-.168-.052-.193.743-.026,1.375.218,1.85-.244.268.217.815.276.393.881.23-.006.285-.281.4-.467a9.937,9.937,0,0,0,2.184.463M315.523,87.2l-1.316-.019c.565-.116,1.074-.2,1.316.019m-7.815-.1a1.831,1.831,0,0,0-.058-.295,1.16,1.16,0,0,1,.95.176.624.624,0,0,0,.493.075c.576-.159,1.092-.41,1.67-.565.443-.025.44.2.424.434-.012.166.487.256.64.114a1.475,1.475,0,0,1,.363-.242c-.045.221.354.194.4.362-1.942-.026-3.611-.047-4.886-.059M112.146,91.36a.379.379,0,0,1,.327-.306c-1.088-.026-4.394.194-4.342-.745-.372-.032-.431.417-.889.254-.335-.046-.259-.321-.121-.631a3.684,3.684,0,0,1-2.233.164c.681-.1,1.508-.219,2.28-.267l-.047.1a.491.491,0,0,0,.095-.106c.98-.057,1.861.012,2.21.42.7-.207-.16-.549-.021-.845a9.484,9.484,0,0,0,2.521.912c.462-.051-.116-.274.4-.468q.632.015.351.537c.312-.421,1.395-.473,1.17-.9a6.974,6.974,0,0,0,1.774.84c.027-.219-.219-.285-.162-.522,1.049.861,2.654.377,3.711.855.021-.133-.116-.178-.044-.341,3.494.455,5.626.155,8.595.808-.005-.361-.209-.617-.909-.588a2.29,2.29,0,0,1,2.108-.264,1.181,1.181,0,0,1-.156.463c1.393-.548,1.557.548,2.264,1.053,1.111-.629-.718-.65-.7-1.075a.711.711,0,0,1,.154-.153c.068,0,.136.006.2,0a.463.463,0,0,0,.139-.03c.315.16.62.7,1.185.337.515.321-.811.457-.356.811,1.72.073,4.37-.451,5.679.365-.154.214-.527.09-.819.091.4.327.346.241.278.7.153-.179.99-.1.373.036.319.323,1.723-.6,2.2-.132a.6.6,0,0,1,.025-.5l.746.07a.813.813,0,0,1-.513.287c3.065-.083,6.556.709,9.625.233.438.044-.261.436-.513.287.045.4,1.182.23,1.378-.036,1.171.863,2.209.164,3.711.854.663-1.1,2.408.149,2.6-.6.963-.071-.416.717.091.682.54.074,2.466.318,3.1.46-.094.216-.188.431-.284.647.728.1.05-.256.587-.451.2.639,1.665-.372,1.658.661.427-.054.5-.213.4-.467.261.15,1.067.611.392.879-.242.381.89-.008.35.538.384-.087.155-.291.21-.483,1.219.5,3.125.238,4.344.742-.107-.251-.027-.413.4-.467-.164.387.809.756.135,1.023a.99.99,0,0,0,1.051.267c.118.153-.052.412-.237.988-.895-.2-2.243-.487-1.631-1.165-.364-.013-.364.522-.773.434a6.15,6.15,0,0,0-2.938-1.288c-.084.373,1.034.074.72.575-.408.019-2.067-.307-2.146-.874a1.677,1.677,0,0,1-.843.591c-.67-.634-2.473.247-2.707-.926-.386.035-.622.3-1.076.234-.439-.113.383-.444.7-.27-.885-.89-3.108.751-3.693-.012-.606.054.028.364-.282.648a5.4,5.4,0,0,0-1.913-.517,11.193,11.193,0,0,1,2.266-.293c-.592-.609-2.287.146-2.919-.443,0,.208.1.356.422.375-1.289.183-.565-.453-1.78.508-.657.083-.466-.31-.791-.412.387-.438.772.12,1.12.106a2.157,2.157,0,0,1-.4-.878,3.716,3.716,0,0,1-2.291.794c-.231-.075.022-.419.1-.665-.368-.112-.458.2-.587.451-2.172-1.056-5.48-.785-8.383-1.3a28.857,28.857,0,0,0-5.278-.832c-1.079.059-2.943-1.058-3.739-.352-3.588-.1-6.245-.679-9.156-.859-.027.218.219.283.162.518-.122.356-.7.012-1,.075,0-.544.659-.068.656-.612-1.262-.444-4.239-.343-5.722-.707-.111.307.57.169.349.538-.925.079-.261-1.138-1.283-.625-.079.288.161.4.605.393-.913.535-1.763-.486-2.241-.211m-5.933,1.783a.324.324,0,0,1,.334-.283c.563.075,1.142.134,1.759.16.01-.249-.1-.434-.088-.683a8.569,8.569,0,0,1,1.745,1.344c.085-.2.646-.3,1.17-.24a3.674,3.674,0,0,1-1.325.377c.248-.87-2.078-.473-3.292-.478-.139-.044-.116-.179-.3-.2m-2.141-.7c.612.109,1.212.221,1.825.318-.783.1-1.749.409-1.825-.318" transform="translate(0 0)" fill="#008700"/>
      <path id="Path_21392" data-name="Path 21392" d="M123.619,29.433a.269.269,0,0,0,.031.019l-.045.013c0-.011.009-.022.015-.032" transform="translate(-48.707 -10.611)" fill="#008700"/>
      <path id="Path_21393" data-name="Path 21393" d="M135.267,30.6a.326.326,0,0,1,.049-.126.448.448,0,0,1-.049.126" transform="translate(-53.303 -10.986)" fill="#008700"/>
      <path id="Path_21394" data-name="Path 21394" d="M465.5,27.815a.476.476,0,0,0,.053.165c-.079-.02-.13-.057-.053-.165" transform="translate(-183.421 -10.027)" fill="#008700"/>
      <path id="Path_21395" data-name="Path 21395" d="M465.678,28.087l-.052.005-.011-.019c.02.005.041.01.063.014" transform="translate(-183.48 -10.12)" fill="#008700"/>
      <path id="Path_21396" data-name="Path 21396" d="M528.756,28.978a1.057,1.057,0,0,1-.192.047c.064-.056.132-.081.192-.047" transform="translate(-208.286 -10.441)" fill="#008700"/>
      <path id="Path_21397" data-name="Path 21397" d="M14.445,67c-2.06-.383-1.039-.357,1.07-.161-.23.248-.93-.227-1.07.161" transform="translate(-5.249 -24.046)" fill="#008700"/>
      <path id="Path_21398" data-name="Path 21398" d="M499.926,143.792a.267.267,0,0,0-.031-.019l.045-.013c0,.011-.01.021-.014.032" transform="translate(-196.989 -51.825)" fill="#008700"/>
      <path id="Path_21399" data-name="Path 21399" d="M488.276,142.571a.326.326,0,0,1-.049.126.412.412,0,0,1,.049-.126" transform="translate(-192.391 -51.397)" fill="#008700"/>
    </g>
  </g>
  <path id="Path_18552" data-name="Path 18552" d="M89.956,90.662q-2.507-.218-3.105-1.362a6.316,6.316,0,0,1-.6-2.942,18.124,18.124,0,0,1,.817-4.821q.817-2.86,2.043-6.238t2.479-6.756q-.654.055-1.39.136t-1.825.218q-1.091.136-2.833.408A3.027,3.027,0,0,1,86.605,67.1a6.2,6.2,0,0,1,2.534-1.172,17.238,17.238,0,0,1,3.541-.436q1.525-4.194,3.132-8.2T99,49.965q-.546-.054-1.063-.081t-1.062-.028a16.126,16.126,0,0,0-5.394.708,4.433,4.433,0,0,0-2.615,2.179,8.667,8.667,0,0,0-.708,3.759,13.817,13.817,0,0,0,.163,2.207,12.26,12.26,0,0,0,.545,2.1,4.223,4.223,0,0,1-2.724-1.443,4.417,4.417,0,0,1-.872-2.806,7.07,7.07,0,0,1,2.016-4.985,13.56,13.56,0,0,1,5.421-3.378,22.141,22.141,0,0,1,7.546-1.226,37.242,37.242,0,0,1,5.584.409,35.075,35.075,0,0,0,5.258.408,14.888,14.888,0,0,0,2.1-.136,15.145,15.145,0,0,0,1.934-.409,14.622,14.622,0,0,1-3.378,3.051,5.622,5.622,0,0,1-2.779.763,19.229,19.229,0,0,1-3.242-.354q-1.989-.354-4.494-.572-.709,1.8-1.58,4.332t-1.8,5.394q-.927,2.86-1.852,5.693,2.723.163,5.148.49a41.634,41.634,0,0,0,4.386.381,3.338,3.338,0,0,1-1.008,1.008,4.383,4.383,0,0,1-1.607.517,27.191,27.191,0,0,1-2.861.245q-1.826.082-4.876.136-.327,1.144-.817,2.724t-.872,3q-.382,1.417-.6,2.07-1.2,4.2-2.043,7.845A32.41,32.41,0,0,0,89.956,90.662Zm19.5-3a4.005,4.005,0,0,1-3.214-1.335,5.047,5.047,0,0,1-1.144-3.405,12.174,12.174,0,0,1,.735-3.9,22.028,22.028,0,0,1,2.043-4.3,24.647,24.647,0,0,1,2.969-3.95,15.615,15.615,0,0,1,3.569-2.914,7.581,7.581,0,0,1,3.868-1.117,3.109,3.109,0,0,1,1.58.327,1.829,1.829,0,0,1,.763.817.444.444,0,0,1,.19-.054h.191a1.475,1.475,0,0,1,1.443.817,3.167,3.167,0,0,1,.409,1.308,4.062,4.062,0,0,1-.545,1.716q-.546,1.062-1.063,2.37a7.468,7.468,0,0,0-.517,2.779,3.008,3.008,0,0,0,.763,2.261,3.44,3.44,0,0,0,2.452.735,3.643,3.643,0,0,0,2.315-1.062,15.879,15.879,0,0,0,2.425-2.724,24.5,24.5,0,0,0,2.152-3.623,21.758,21.758,0,0,0,1.444-3.759,1.779,1.779,0,0,1-.545-1.308,4.152,4.152,0,0,1,.436-1.934,4.017,4.017,0,0,1,1.008-1.308,1.7,1.7,0,0,1,.845-.463.594.594,0,0,1,.681.518,5.513,5.513,0,0,1,.082.79,3.874,3.874,0,0,1-.3,1.063,4.5,4.5,0,0,0-.3.953,1.749,1.749,0,0,0,.844,1.39q.844.627,1.934,1.416a9.2,9.2,0,0,1,1.934,1.907,4.613,4.613,0,0,1,.845,2.86,8.842,8.842,0,0,1-.681,3.323q-.682,1.69-1.362,3.214a6.709,6.709,0,0,0-.681,2.67,1.471,1.471,0,0,0,.49,1.308,2.014,2.014,0,0,0,1.144.327,5.313,5.313,0,0,0,2.7-.817,14.624,14.624,0,0,0,2.7-2.07,21.23,21.23,0,0,0,2.343-2.642,12.107,12.107,0,0,0,1.525-2.588l.708.545A20.579,20.579,0,0,1,145.8,82.3a17.042,17.042,0,0,1-4,3.623,8.316,8.316,0,0,1-4.549,1.417,4.132,4.132,0,0,1-2.915-.981,3.322,3.322,0,0,1-1.062-2.561,8.777,8.777,0,0,1,.763-3.432q.762-1.8,1.5-3.568a8.424,8.424,0,0,0,.736-3.187,3.187,3.187,0,0,0-1.008-2.588q-1.009-.844-2.043-1.553a29.153,29.153,0,0,1-1.607,3.9,28.219,28.219,0,0,1-2.261,3.814,12.814,12.814,0,0,1-2.7,2.86,4.946,4.946,0,0,1-3.023,1.09,5.957,5.957,0,0,1-2.752-.626,4.268,4.268,0,0,1-1.879-1.88,20.828,20.828,0,0,1-4.168,6.511A7.428,7.428,0,0,1,109.46,87.666Zm1.2-2.343a4.41,4.41,0,0,0,2.67-1.117,14.685,14.685,0,0,0,2.779-3.024,21.682,21.682,0,0,0,2.343-4.25,12.93,12.93,0,0,1-.327-3.105,15.206,15.206,0,0,1,.136-2.179,9.016,9.016,0,0,1,.381-1.634,5.715,5.715,0,0,1,.518-1.144,6.393,6.393,0,0,0-3.46,1.008,11.963,11.963,0,0,0-2.914,2.615,18.746,18.746,0,0,0-2.234,3.459,22.181,22.181,0,0,0-1.444,3.6,10.781,10.781,0,0,0-.517,3,3.389,3.389,0,0,0,.545,2.016A1.765,1.765,0,0,0,110.659,85.323Zm52.628,15.854a4.03,4.03,0,0,1-2.4-.735,2.475,2.475,0,0,1-1.035-2.152,5.638,5.638,0,0,1,.872-3.105,10.08,10.08,0,0,1,2.343-2.506,24.557,24.557,0,0,1,3.378-2.179q1.906-1.035,3.977-2.07.762-2.016,1.552-4.494t1.5-5.476a27.986,27.986,0,0,1-3.732,4.876,5.871,5.871,0,0,1-4.222,2.043,4.849,4.849,0,0,1-2.043-.463,3.958,3.958,0,0,1-1.661-1.444,4.43,4.43,0,0,1-.654-2.506,14.46,14.46,0,0,1,.517-3.541,31.892,31.892,0,0,1,1.281-3.923,18.222,18.222,0,0,1,1.58-3.16q.817-1.252,1.416-1.253a3.5,3.5,0,0,1,.79.163,4.838,4.838,0,0,1,1.09.463q.518.3.518.626a13.662,13.662,0,0,0-1.09,2.016q-.6,1.308-1.172,2.915T165.14,78.4a11.027,11.027,0,0,0-.381,2.615,2.621,2.621,0,0,0,.436,1.58,1.761,1.761,0,0,0,1.525.6,3.9,3.9,0,0,0,2.315-1.008A16.474,16.474,0,0,0,171.6,79.6a30.41,30.41,0,0,0,2.37-3.378q.163-.6.3-1.226t.245-1.281a5.8,5.8,0,0,1,.79-1.77,2.168,2.168,0,0,1,1.989-1.008q.271,0,.545.028a2.872,2.872,0,0,1,.6.136,18.539,18.539,0,0,1-.518,3.242q-.518,2.37-1.471,5.529t-2.261,6.483a15.815,15.815,0,0,0,5.012-3.241,16.444,16.444,0,0,0,3.977-6.02l.708.545a12.7,12.7,0,0,1-2.479,4.549,18.5,18.5,0,0,1-3.732,3.323,29.472,29.472,0,0,1-4.086,2.315,64.354,64.354,0,0,1-3.078,6.538,22.509,22.509,0,0,1-3.487,4.931A5.264,5.264,0,0,1,163.287,101.177Zm-.272-1.743q.817,0,2.751-2.152a27.031,27.031,0,0,0,4.114-7.546q-2.235,1.2-4.141,2.37a12.417,12.417,0,0,0-3.051,2.533,4.765,4.765,0,0,0-1.144,3.16,2.249,2.249,0,0,0,.327,1.035A1.191,1.191,0,0,0,163.015,99.433ZM185.9,87.666a3.723,3.723,0,0,1-3.323-1.443,6.1,6.1,0,0,1-.981-3.514,12.021,12.021,0,0,1,.545-3.487,16.436,16.436,0,0,1,1.443-3.378,9.85,9.85,0,0,1,2.016-2.561,3.432,3.432,0,0,1,2.261-.981,2.176,2.176,0,0,1,.572.082,5.5,5.5,0,0,1,.572.19,6.914,6.914,0,0,0-1.172,1.607,20.256,20.256,0,0,0-1.28,2.67,28.54,28.54,0,0,0-1.008,2.969,9.629,9.629,0,0,0-.408,2.506,4.033,4.033,0,0,0,.545,2.37,1.684,1.684,0,0,0,1.417.735,4.767,4.767,0,0,0,2.724-1.226,18.818,18.818,0,0,0,3.105-3.133,8.236,8.236,0,0,1-2.37-3.3,10.81,10.81,0,0,1-.844-4.168,9.081,9.081,0,0,1,.626-3.378,5.963,5.963,0,0,1,1.825-2.533,4.5,4.5,0,0,1,2.887-.954q2.233,0,3,1.2a5.486,5.486,0,0,1,.763,3,12.832,12.832,0,0,1-1.035,4.713,27.87,27.87,0,0,1-2.615,4.985,4.193,4.193,0,0,0,2.07.545,6.407,6.407,0,0,0,1.961-.354,6.66,6.66,0,0,0,2.152-1.226,6.238,6.238,0,0,0,1.716-2.343l.654.545a7.014,7.014,0,0,1-3.078,3.623,8.055,8.055,0,0,1-3.786,1.062,6.659,6.659,0,0,1-1.362-.136,5.875,5.875,0,0,1-1.253-.409,20.153,20.153,0,0,1-4.059,4.086A7.236,7.236,0,0,1,185.9,87.666Zm8.009-8.009a23.092,23.092,0,0,0,2.261-4.222,11.068,11.068,0,0,0,.9-4.168,4.476,4.476,0,0,0-.463-2.315,1.36,1.36,0,0,0-1.171-.736q-1.09,0-2.234,1.58a6.609,6.609,0,0,0-1.144,3.977,11.462,11.462,0,0,0,.463,3.187A7.141,7.141,0,0,0,193.906,79.657Zm12.2,7.9a3.424,3.424,0,0,1-2.969-1.661,6.718,6.718,0,0,1-1.117-3.841,15.268,15.268,0,0,1,.518-3.65,36.5,36.5,0,0,1,1.28-4.086,19.094,19.094,0,0,1,1.58-3.323q.817-1.308,1.417-1.308a2.71,2.71,0,0,1,.926.3,3.247,3.247,0,0,1,1.09.79,23.594,23.594,0,0,0-1.471,2.833,31.861,31.861,0,0,0-1.525,4.086,14.107,14.107,0,0,0-.654,4.032,12.108,12.108,0,0,0,.109,1.335,3.915,3.915,0,0,0,.545,1.607,1.434,1.434,0,0,0,1.308.708,3.131,3.131,0,0,0,2.125-1.062,16.746,16.746,0,0,0,2.207-2.752q1.116-1.688,2.152-3.65t1.934-3.759l1.5-3q.327.055.954.218a5.4,5.4,0,0,1,1.144.436.839.839,0,0,1,.517.763,6.74,6.74,0,0,1-.545,1.444q-.545,1.226-1.28,3t-1.281,3.568a11.1,11.1,0,0,0-.545,3.16,2.754,2.754,0,0,0,.409,1.58,1.557,1.557,0,0,0,1.389.6,5.5,5.5,0,0,0,2.779-1.035,15.063,15.063,0,0,0,3.323-3.023,21.406,21.406,0,0,0,3-4.767l.708.49a19.021,19.021,0,0,1-3,5.2,15.538,15.538,0,0,1-3.923,3.514,7.778,7.778,0,0,1-4.032,1.253,4.126,4.126,0,0,1-2.261-.545,2.97,2.97,0,0,1-1.2-1.471,5.582,5.582,0,0,1-.354-2.016,8.372,8.372,0,0,1,.109-1.334q.109-.681.272-1.39a29.251,29.251,0,0,1-2.125,3.351,11.613,11.613,0,0,1-2.4,2.479A4.342,4.342,0,0,1,206.11,87.557Zm29.2-.218a4.132,4.132,0,0,1-2.915-.981,3.322,3.322,0,0,1-1.063-2.561,8.778,8.778,0,0,1,.763-3.432q.762-1.8,1.5-3.568a8.424,8.424,0,0,0,.736-3.187,3.187,3.187,0,0,0-1.008-2.588q-1.009-.844-2.043-1.553-1.254,3.215-2.615,6.1t-2.234,4.358L225.941,79q.763-1.416,1.989-4.141t2.425-6.211a1.779,1.779,0,0,1-.545-1.308,3.851,3.851,0,0,1,.926-2.67q.925-1.034,1.362-1.035a.594.594,0,0,1,.681.518,5.512,5.512,0,0,1,.082.79,3.874,3.874,0,0,1-.3,1.063,4.5,4.5,0,0,0-.3.953,1.749,1.749,0,0,0,.844,1.39q.844.627,1.934,1.416a9.2,9.2,0,0,1,1.934,1.907,4.612,4.612,0,0,1,.845,2.86,8.842,8.842,0,0,1-.681,3.323q-.682,1.69-1.362,3.214a6.709,6.709,0,0,0-.681,2.67,1.471,1.471,0,0,0,.49,1.308,2.014,2.014,0,0,0,1.144.327,5.313,5.313,0,0,0,2.7-.817,14.625,14.625,0,0,0,2.7-2.07,21.23,21.23,0,0,0,2.343-2.642,12.1,12.1,0,0,0,1.525-2.588l.708.545a20.582,20.582,0,0,1-2.833,4.495,17.042,17.042,0,0,1-4,3.623A8.316,8.316,0,0,1,235.312,87.339Zm51.157.272a3.235,3.235,0,0,1-2.779-1.171,4.565,4.565,0,0,1-.872-2.806,9.443,9.443,0,0,1,.408-2.724q.409-1.361.817-2.67a7.951,7.951,0,0,0,.409-2.343,1.972,1.972,0,0,0-.49-1.525,1.605,1.605,0,0,0-1.09-.436q-1.363,0-2.969,2.125t-4.167,5.993a18.114,18.114,0,0,0-1.471,2.643q-.6,1.336-1.144,2.424a6.842,6.842,0,0,1-1.09-.109,4.449,4.449,0,0,1-1.172-.354c-.346-.163-.517-.373-.517-.627a7.833,7.833,0,0,1,.517-1.825q.518-1.443,1.2-3.378t1.2-3.923a13.864,13.864,0,0,0,.518-3.405,3.237,3.237,0,0,0-.3-1.5,1.094,1.094,0,0,0-1.062-.572,4.866,4.866,0,0,0-2.887,1.444,24.985,24.985,0,0,0-3.487,3.786,45.969,45.969,0,0,0-3.405,5.149,34.07,34.07,0,0,0-2.588,5.584,5.481,5.481,0,0,1-1.2-.163,5.109,5.109,0,0,1-1.226-.436c-.344-.182-.517-.363-.517-.545a9.687,9.687,0,0,1,.572-1.934q.572-1.606,1.308-3.868t1.308-4.6a17.715,17.715,0,0,0,.572-4.141,3.645,3.645,0,0,1,1.035-.763,3.067,3.067,0,0,1,1.471-.381,1.292,1.292,0,0,1,1.471,1.417,12.273,12.273,0,0,1-.409,2.425q-.409,1.716-1.008,3.786,1.089-1.743,2.479-3.568a32.954,32.954,0,0,1,2.915-3.351,16.91,16.91,0,0,1,3.078-2.479,5.78,5.78,0,0,1,3.024-.954,2.361,2.361,0,0,1,2.315,1.226,6.34,6.34,0,0,1,.627,2.914,14.637,14.637,0,0,1-.3,2.861q-.3,1.5-.681,2.779a19.645,19.645,0,0,1-.708,2.043,40.18,40.18,0,0,1,2.533-4,14.416,14.416,0,0,1,3.024-3.16,5.707,5.707,0,0,1,3.487-1.226,2.685,2.685,0,0,1,2.424,1.035,4.362,4.362,0,0,1,.681,2.452,11.2,11.2,0,0,1-.49,3.105q-.49,1.69-1.008,3.269a8.958,8.958,0,0,0-.517,2.724,2.378,2.378,0,0,0,.354,1.281,1.384,1.384,0,0,0,1.281.572,3.944,3.944,0,0,0,2.86-1.389,17.278,17.278,0,0,0,2.479-3.378,40.509,40.509,0,0,0,1.961-3.841l.654.763a28.53,28.53,0,0,1-2.234,4.549,14.025,14.025,0,0,1-3.187,3.732A6.242,6.242,0,0,1,286.47,87.611Zm11.658-.272A3.749,3.749,0,0,1,294.968,86a5.13,5.13,0,0,1-1.035-3.242,13.949,13.949,0,0,1,.463-3.16,37.772,37.772,0,0,1,1.226-4,28.95,28.95,0,0,1,1.771-3.95,13.628,13.628,0,0,1,2.152-3.023,3.229,3.229,0,0,1,2.234-1.172,1.27,1.27,0,0,1,.845.3,1.114,1.114,0,0,1,.354.9,5.19,5.19,0,0,1-.844,2.125q-.845,1.471-1.989,3.378a28.347,28.347,0,0,0-1.988,4,10.709,10.709,0,0,0-.845,4,3.786,3.786,0,0,0,.654,2.615,2.746,2.746,0,0,0,2.016.654,6.171,6.171,0,0,0,3.95-1.852,22.206,22.206,0,0,0,4.44-6.483l.49.545a15.712,15.712,0,0,1-4.549,7.191A9.5,9.5,0,0,1,298.128,87.339Zm6.538-24.952a2.811,2.811,0,0,1-1.552-.436,1.5,1.5,0,0,1-.681-1.362,2.387,2.387,0,0,1,1.335-1.988,4.918,4.918,0,0,1,2.642-.845,2.077,2.077,0,0,1,1.308.381,1.562,1.562,0,0,1,.49,1.308,2.667,2.667,0,0,1-1.117,1.989A3.663,3.663,0,0,1,304.666,62.386Zm20.267,24.625a3.816,3.816,0,0,1-2.86-.981,3.443,3.443,0,0,1-.954-2.506,7.732,7.732,0,0,1,.409-2.4q.409-1.252.79-2.588a9.424,9.424,0,0,0,.381-2.588,2.784,2.784,0,0,0-.626-2.1,2.218,2.218,0,0,0-1.553-.572,5.538,5.538,0,0,0-3.432,1.39,19.791,19.791,0,0,0-3.378,3.541q-1.634,2.153-3.051,4.44t-2.506,4.086a4.656,4.656,0,0,1-1.661-.3,2.626,2.626,0,0,1-1.226-.9,8.008,8.008,0,0,1,.572-1.689q.572-1.416,1.335-3.487t1.362-4.25a15.108,15.108,0,0,0,.6-3.977,3.653,3.653,0,0,1,1.035-.763,3.067,3.067,0,0,1,1.471-.381q1.471,0,1.471,1.417a14.48,14.48,0,0,1-.49,2.915q-.49,2.043-1.253,4.276a50.88,50.88,0,0,1,3.3-4.44,20.443,20.443,0,0,1,3.9-3.678,7.116,7.116,0,0,1,4.141-1.471,3.358,3.358,0,0,1,3.078,1.525,6.254,6.254,0,0,1,.953,3.378,8.813,8.813,0,0,1-.545,3.133q-.545,1.444-1.117,2.779a6.8,6.8,0,0,0-.572,2.7,2.233,2.233,0,0,0,.463,1.607,1.586,1.586,0,0,0,1.171.463,4.025,4.025,0,0,0,2.724-1.28,17.752,17.752,0,0,0,2.643-3.242,36.478,36.478,0,0,0,2.261-3.977l.6.708a27.646,27.646,0,0,1-2.561,4.74,12.809,12.809,0,0,1-3.105,3.269A6.35,6.35,0,0,1,324.932,87.012Zm11.005.545a4.281,4.281,0,0,1-1.879-.463,3.78,3.78,0,0,1-1.58-1.5,4.982,4.982,0,0,1-.627-2.615,11.244,11.244,0,0,1,.872-4.032,23.251,23.251,0,0,1,2.343-4.44,25.856,25.856,0,0,1,3.378-4.086,17.58,17.58,0,0,1,3.977-3,8.567,8.567,0,0,1,4.086-1.117,3.236,3.236,0,0,1,1.771.409A1.42,1.42,0,0,1,348.9,68a2.408,2.408,0,0,1-.027.381c-.019.109-.046.237-.082.381a1.527,1.527,0,0,0-.79-.626,3.735,3.735,0,0,0-1.281-.191,6.245,6.245,0,0,0-3.4,1.063,12.831,12.831,0,0,0-3.051,2.779,23.48,23.48,0,0,0-4.032,7.464,10.647,10.647,0,0,0-.572,3.078,3.047,3.047,0,0,0,.545,1.907,1.7,1.7,0,0,0,1.417.708q1.471,0,3.569-1.852a25.183,25.183,0,0,0,4.276-5.23,43.307,43.307,0,0,0,3.923-7.9q1.2-3.159,2.479-6.429t2.588-6.292q1.308-3.024,2.534-5.394a22.8,22.8,0,0,1,2.343-3.759q1.116-1.389,1.988-1.39a1.009,1.009,0,0,1,.763.354,1.275,1.275,0,0,1,.327.9,9.077,9.077,0,0,1-.9,2.969q-.9,2.1-2.343,5.012t-3.024,6.347q-1.581,3.432-3.023,6.974a59.845,59.845,0,0,0-2.343,6.838,23.056,23.056,0,0,0-.9,6.02,11.8,11.8,0,0,0,.163,2.288.962.962,0,0,0,1.09.763,5.15,5.15,0,0,0,2.669-.981,14.118,14.118,0,0,0,3.051-2.779,18.459,18.459,0,0,0,2.67-4.3l.654.49a17.5,17.5,0,0,1-2.833,4.985,15.884,15.884,0,0,1-3.841,3.487,7.384,7.384,0,0,1-3.9,1.28A2.986,2.986,0,0,1,346.807,86a5.329,5.329,0,0,1-.79-2.752,14.607,14.607,0,0,1,.272-2.452q.272-1.525.763-3.378a40.107,40.107,0,0,1-3.7,5.2,20.548,20.548,0,0,1-3.841,3.623A6.322,6.322,0,0,1,335.938,87.557Z" transform="translate(-34.919 -16.341)" fill="#fff"/>
</svg>
