<svg id="Group_2032" data-name="Group 2032" xmlns="http://www.w3.org/2000/svg" xmlns:xlink="http://www.w3.org/1999/xlink" width="299.334" height="422.124" viewBox="0 0 299.334 422.124">
  <defs>
    <clipPath id="clip-path">
      <rect id="Rectangle_3589" data-name="Rectangle 3589" width="299.334" height="422.124" fill="none"/>
    </clipPath>
  </defs>
  <g id="Group_2031" data-name="Group 2031" clip-path="url(#clip-path)">
    <path id="Path_18698" data-name="Path 18698" d="M41.748,8.176c0,1.141-.494,2.587-1.027,2.587-.228,0-.495-.266-.685-.913v.038c-.229,0-1.1-3.385-2.777-3.385-1.635,0-2.928,1.864-3.879,3.119a37.933,37.933,0,0,0-5.439,10.345A14.866,14.866,0,0,0,26.8,24.494c0,2.663,2.587,3.423,4.641,3.423,3.918,0,7.835-1.9,10.954-4.145a.6.6,0,0,1,.3-.114c.228,0,.342.267.342.609a3.45,3.45,0,0,1-1.1,2.434C38.781,28.982,34.9,32.4,30.946,32.4c-4.678,0-6.086-3.956-6.086-7.607a20.79,20.79,0,0,1,1.065-6.276A40.112,40.112,0,0,1,32.391,5.666c1.027-1.256,2.7-3.233,4.6-3.233,2.587,0,4.07,2.891,4.678,4.982a2.46,2.46,0,0,1,.076.761" transform="translate(-6.984 -0.683)"/>
    <path id="Path_18699" data-name="Path 18699" d="M55.609,30.161c0-.913.723-1.9,1.293-1.9.457,0,.533,1.75,1.711,1.75.571,0,1.066-.608,1.445-1.065a22.156,22.156,0,0,0,4.831-8.063,2.555,2.555,0,0,0,.152-.913,2.355,2.355,0,0,0-2.092-2.359,6.617,6.617,0,0,0-4.869,2.663l-.3.342c-2.206,1.37-2.738,3.575-3.119,5.858-.19,1.141-.836,1.522-1.445,2.168-.418-.532-1.027-.989-1.1-1.522a22.891,22.891,0,0,1-.228-2.853A12.916,12.916,0,0,1,52,22.554c.646-4.222,1.407-8.406,2.168-12.628.266-1.6.8-2.739,1.939-2.739,1.37,0,1.712.457,1.712,1.294,0,2.7-.951,5.667-1.369,8.406a.34.34,0,0,0-.038.19c0,.419.152.685.532.685.609,0,1.826-1.179,2.282-1.939,1.939-3.234,3.8-6.467,5.667-9.7a3.776,3.776,0,0,0,.495-2.016,2.468,2.468,0,0,0-2.7-2.587c-3.157,0-6.923,2.472-9.243,4.678-.8.761-1.028.533-1.674.8,0-.266-.037-.571-.037-.8a.693.693,0,0,1,.114-.495C54.088,3,58.881,0,63.1,0A3.694,3.694,0,0,1,67.02,3.993c0,.191-.037.38-.037.57v.419c.037,1.9-.951,3.5-1.864,5.059-.875,1.522-3.043,4.261-3.043,5.173,0,.38.3.495.951.533a4.884,4.884,0,0,1,4.335,4.831,5.125,5.125,0,0,1-.3,1.635c-1.6,4.26-5.667,10.536-9.091,10.536a2.6,2.6,0,0,1-1.864-.875,3.964,3.964,0,0,1-.494-1.711" transform="translate(-14.532 0)"/>
    <path id="Path_18700" data-name="Path 18700" d="M86.727,3.6a8.318,8.318,0,0,1,8.634,8.558A20.631,20.631,0,0,1,93.726,19.8a30.474,30.474,0,0,1-8.672,11.448A5.356,5.356,0,0,1,82.087,32.5c-1.256,0-2.206-1.712-3.424-1.712-.266,0-.533.076-.761.076a.945.945,0,0,1-1.065-.913,30.868,30.868,0,0,1-.342-3.766,10.737,10.737,0,0,1,.114-1.56c.57-3.537,1.521-7.112,2.206-10.612a6.127,6.127,0,0,0,.076-1.179v-.685c0-1.712.494-4.679,2.472-4.679a1.81,1.81,0,0,1,1.9,2.016,26.727,26.727,0,0,1-.57,3.956c-.837,3.766-1.75,7.493-2.587,11.221a2.587,2.587,0,0,0-.076.571,5.414,5.414,0,0,0,.3.836,1.8,1.8,0,0,0,.723-.457,3.421,3.421,0,0,1,2.205-1.255c.3,0,.495.114.495.38,0,.646-1.978,2.32-1.978,3.765a9.147,9.147,0,0,0,.267,1.332c.495-.076,1.217-.076,1.483-.38,4.145-3.842,10.194-9.966,10.194-16.622,0-5.781-3.69-7.645-7.874-7.645a16.258,16.258,0,0,0-8.33,2.282,3.324,3.324,0,0,1-1.407.191c.229-.495.342-1.256.685-1.445a43.384,43.384,0,0,1,5.744-2.168A23.806,23.806,0,0,1,86.271,3.6Z" transform="translate(-21.382 -1.01)"/>
    <path id="Path_18701" data-name="Path 18701" d="M121.607,26.548a6.474,6.474,0,0,0-.114.989c0,.875,1.636.342,1.636,1.294v.076c-.723,1.1-1.826,3.309-2.739,3.309-.761,0-1.1-.685-1.1-1.75a8.761,8.761,0,0,1,.114-1.407c.418-2.738.913-5.439,1.217-8.177,0-.114.037-.229.037-.381,0-.608-.228-1.217-.3-1.9a10.4,10.4,0,0,0-1.6,1.559c-1.445,2.244-2.853,4.527-4.3,6.809a1.128,1.128,0,0,1-.76.494c-.951,0-.723-1.9-.723-3.119a16.71,16.71,0,0,1,.19-2.776c.951-5.668,2.206-11.3,3.233-16.965.3-1.141.114-3.385,1.256-3.385a1.89,1.89,0,0,1,1.369,1.6,3.761,3.761,0,0,1-.076.685c-.456,5.173-1.635,9.966-2.548,14.873v.19a8.214,8.214,0,0,0,.114,1.1,3.806,3.806,0,0,0,1.1-.761c1.065-.989,1.56-2.4,3.195-2.4.723,0,1.75,1.256,1.75,2.4,0,.38-.076.8-.076,1.179a.41.41,0,0,0,.19.038c-.342,2.13-.646,4.26-1.065,6.428" transform="translate(-31.73 -0.342)"/>
    <path id="Path_18702" data-name="Path 18702" d="M134.85,21.1a2.158,2.158,0,0,1,2.32,2.168c0,1.331-1.331,3.195-2.054,4.412-.913,1.483-2.853,2.016-2.853,3.956,0,.723-.114,1.788,1.14,1.788.761,0,1.445-.419,2.206-.419.419,0,.647.191.647.571,0,1.559-2.359,2.776-3.8,2.776-2.929,0-3.081-2.587-3.233-4.336.076-3.956,1.9-10.916,5.629-10.916m.152,2.13c-.837,0-1.369,2.168-1.673,3.043,0,.037-.038.037-.038.076,0,.152.266.495.456.495.571,0,1.408-1.864,1.978-2.738-.266-.343-.495-.875-.723-.875" transform="translate(-36.301 -5.929)"/>
    <path id="Path_18703" data-name="Path 18703" d="M155.59,35.288c-.076.342-.57.57-.875.837-.152-.38-.494-.761-.494-1.065.342-1.712.8-3.385,1.179-5.021l.836-3.727a4.735,4.735,0,0,0-.114-.723c-.228.076-.57.076-.722.228-1.408,1.56-2.473,3.5-3.8,5.249-.228.342-.761.456-1.141.608a2.833,2.833,0,0,1-.38-1.027c0-1.179.533-2.4.533-3.575a3.852,3.852,0,0,0-.229-.951,12.812,12.812,0,0,0-5.172,7c-.342,1.1-1.179,2.168-1.788,2.168-.456,0-1.027-.685-1.027-1.788v-.267c.495-3,1.066-6.009,1.674-9.091a1.634,1.634,0,0,1,1.826-1.293c.874,0,1.1.875,1.1,1.674,0,.608-.229,1.217-.229,1.9,0,.342.114.723.152,1.1.419-.19.874-.19,1.141-.456,1.1-.837,2.244-2.51,3.309-2.51.494,0,.836,1.787.912,2.738.419-.533.913-.761,1.293-1.217.989-1.179,1.56-2.51,3.157-2.51.342,0,1.065.8,1.065,1.826v.342a1.35,1.35,0,0,0,.228.038c-.8,3.157-1.217,6.733-2.434,9.509" transform="translate(-40.001 -6.419)"/>
    <path id="Path_18704" data-name="Path 18704" d="M165.462,35.369c.418-2.967.951-5.858,1.293-8.786.19-1.522-.19-4.374,1.256-4.374,1.331.076,2.092,1.711,2.434,1.711.419,0,1.483-1.863,2.587-1.863,1.293,0,1.977,1.369,1.977,2.358a2.167,2.167,0,0,1-.038.495c-.532,3.081-1.939,9.471-5.4,9.471-.228,0-1.065.342-1.1.8-.761,3.879-1.027,7.759-2.32,11.487-.191.38-.8.608-1.179.913a3.953,3.953,0,0,1-.723-1.712c0-.3.038-.608.038-.874-.038,0-.076-.076-.152-.076Zm8.139-10.8a.935.935,0,0,0-.723-.8c-.989,0-2.054,3.005-2.7,4.374,0,.038-.037.114-.037.152,0,.685.761,1.483,1.559,2.4a18.213,18.213,0,0,0,1.9-6.124" transform="translate(-46.108 -6.196)"/>
    <path id="Path_18705" data-name="Path 18705" d="M193.6,24.049a1.087,1.087,0,0,1,1.141.989.967.967,0,0,1-.191.608,12.012,12.012,0,0,0-2.4,7.074,5.388,5.388,0,0,0,.685,1.712c.495-.342,1.217-.571,1.369-.989a17.475,17.475,0,0,0,1.75-6.58c0-.8-.38-1.635-.38-2.51,0-.608.228-.608.646-1.027,1.065,1.065,1.179,3.005,1.179,4.45,0,3.728-2.206,8.443-4.793,8.443-1.674,0-2.777-1.863-2.777-5.02.152-1.788,1.445-7.151,3.766-7.151" transform="translate(-53.329 -6.553)"/>
    <path id="Path_18706" data-name="Path 18706" d="M202.976,26.352c.342-1.9-.076-5.82,2.472-5.82a1.534,1.534,0,0,1,1.522,1.56v.19c-.761,3.347-1.6,6.733-2.434,10.042-.191.723-1.027,1.141-1.56,1.407-.342-.495-.913-1.141-.913-1.712v-.266a.141.141,0,0,0-.114-.076c.38-1.788.685-3.5,1.027-5.325m4.108-12.97c.723,0,1.255.3,1.255.875,0-.152-.723,2.016-1.673,2.016-.228,0-.951-.8-1.179-.989.038-1.369.646-1.9,1.6-1.9" transform="translate(-56.732 -3.759)"/>
    <path id="Path_18707" data-name="Path 18707" d="M215.431,8.877c.3-1.483.571-4.488,1.978-4.488.989.114,1.217,1.065,1.217,2.131-1.14,5.971-2.358,11.791-3.309,17.763A4.819,4.819,0,0,0,215.2,25c0,.3.076.494.418.494a1.873,1.873,0,0,0,.571-.114c.076-.038.646.418.646.685,0,1.673-1.673,4.982-3.461,4.982-1.027,0-1.294-1.293-1.483-2.587.685-6.58,2.206-13.122,3.537-19.588" transform="translate(-59.526 -1.233)"/>
    <path id="Path_18708" data-name="Path 18708" d="M239.454,26.548a6.479,6.479,0,0,0-.114.989c0,.875,1.636.342,1.636,1.294v.076c-.723,1.1-1.826,3.309-2.739,3.309-.761,0-1.1-.685-1.1-1.75a8.759,8.759,0,0,1,.114-1.407c.418-2.738.912-5.439,1.217-8.177,0-.114.037-.229.037-.381,0-.608-.228-1.217-.3-1.9a10.4,10.4,0,0,0-1.6,1.559c-1.445,2.244-2.853,4.527-4.3,6.809a1.128,1.128,0,0,1-.76.494c-.951,0-.723-1.9-.723-3.119a16.708,16.708,0,0,1,.19-2.776c.951-5.668,2.206-11.3,3.233-16.965.3-1.141.114-3.385,1.256-3.385a1.89,1.89,0,0,1,1.369,1.6,3.759,3.759,0,0,1-.076.685c-.456,5.173-1.635,9.966-2.548,14.873v.19a8.212,8.212,0,0,0,.114,1.1,3.806,3.806,0,0,0,1.1-.761c1.065-.989,1.56-2.4,3.195-2.4.723,0,1.75,1.256,1.75,2.4,0,.38-.076.8-.076,1.179a.41.41,0,0,0,.19.038c-.342,2.13-.646,4.26-1.065,6.428" transform="translate(-64.835 -0.342)"/>
    <path id="Path_18709" data-name="Path 18709" d="M252.7,21.1a2.158,2.158,0,0,1,2.32,2.168c0,1.331-1.331,3.195-2.054,4.412-.913,1.483-2.853,2.016-2.853,3.956,0,.723-.114,1.788,1.14,1.788.761,0,1.445-.419,2.206-.419.419,0,.647.191.647.571,0,1.559-2.359,2.776-3.8,2.776-2.929,0-3.081-2.587-3.233-4.336.076-3.956,1.9-10.916,5.629-10.916m.152,2.13c-.837,0-1.369,2.168-1.673,3.043,0,.037-.038.037-.038.076,0,.152.266.495.456.495.571,0,1.407-1.864,1.978-2.738-.266-.343-.495-.875-.723-.875" transform="translate(-69.407 -5.929)"/>
    <path id="Path_18710" data-name="Path 18710" d="M263.776,8.877c.3-1.483.57-4.488,1.977-4.488.989.114,1.217,1.065,1.217,2.131-1.14,5.971-2.358,11.791-3.309,17.763a4.822,4.822,0,0,0-.114.723c0,.3.076.494.418.494a1.873,1.873,0,0,0,.571-.114c.076-.038.646.418.646.685,0,1.673-1.673,4.982-3.461,4.982-1.027,0-1.294-1.293-1.483-2.587.685-6.58,2.206-13.122,3.538-19.588" transform="translate(-73.106 -1.233)"/>
    <path id="Path_18711" data-name="Path 18711" d="M269.874,35.369c.418-2.967.951-5.858,1.293-8.786.19-1.522-.19-4.374,1.256-4.374,1.331.076,2.092,1.711,2.434,1.711.419,0,1.483-1.863,2.587-1.863,1.293,0,1.977,1.369,1.977,2.358a2.163,2.163,0,0,1-.038.495c-.532,3.081-1.939,9.471-5.4,9.471-.228,0-1.065.342-1.1.8-.761,3.879-1.027,7.759-2.32,11.487-.191.38-.8.608-1.179.913a3.953,3.953,0,0,1-.723-1.712c0-.3.038-.608.038-.874-.038,0-.076-.076-.152-.076Zm8.139-10.8a.935.935,0,0,0-.723-.8c-.989,0-2.054,3.005-2.7,4.374,0,.038-.037.114-.037.152,0,.685.761,1.483,1.559,2.4a18.214,18.214,0,0,0,1.9-6.124" transform="translate(-75.439 -6.196)"/>
    <path id="Path_18712" data-name="Path 18712" d="M284.487,25.577a1.03,1.03,0,0,1,.19-.608,63.781,63.781,0,0,1,3.766-5.668,1.436,1.436,0,0,1,1.141-.418c.608,0,1.027.228,1.027,1.445,0,1.1-.419,2.891-1.1,2.891-.38,0-.875-.989-1.255-.989-.571,0-.875,1.75-1.066,2.586a10,10,0,0,0,2.093.342h.38c2.168,0,3.5,1.179,3.5,2.967,0,3.233-3.233,6.2-5.553,8.1-1.445,1.179-2.929,2.206-4.792,2.206a1.636,1.636,0,0,1-1.788-1.6c0-1.864,2.548-4.107,4.184-5.135a.514.514,0,0,1,.342-.076h.419a1.5,1.5,0,0,1-.152.8c-.3.533-1.331,1.75-1.331,2.282,0,.457.114.457.494.457.533,0,2.169-1.408,2.625-1.94,1.179-1.369,3.081-3.5,3.081-4.982,0-.913-.913-1.407-2.13-1.407-.191,0-.419.114-.608.114-1.217-.038-3.462-.038-3.462-1.369" transform="translate(-78.946 -5.305)"/>
    <path id="Path_18713" data-name="Path 18713" d="M318.256,23.107c-.57,0-.875-1.141-1.331-1.141-.647,0-2.967,4.07-3.842,5.82-.951,1.94-1.521,4.032-2.358,6.048-.57,1.369-1.179,1.483-2.016,1.977-.267-.494-.761-1.065-.761-1.56.152-2.092.494-4.145.761-6.2.228-1.825.152-7.265,2.586-7.265,1.027,0,1.483,1.712,1.712,2.929a13.889,13.889,0,0,0,1.293-1.293c1.1-1.369,2.282-3.8,3.956-3.8.8,0,.761.8,1.217,1.445-.342,1.408-.533,3.043-1.217,3.043" transform="translate(-86.509 -5.23)"/>
    <path id="Path_18714" data-name="Path 18714" d="M328.017,21.1a2.158,2.158,0,0,1,2.32,2.168c0,1.331-1.331,3.195-2.054,4.412-.913,1.483-2.853,2.016-2.853,3.956,0,.723-.114,1.788,1.141,1.788.761,0,1.445-.419,2.206-.419.418,0,.647.191.647.571,0,1.559-2.359,2.776-3.8,2.776-2.929,0-3.081-2.587-3.233-4.336.076-3.956,1.9-10.916,5.629-10.916m.152,2.13c-.837,0-1.369,2.168-1.673,3.043,0,.037-.038.037-.038.076,0,.152.266.495.456.495.571,0,1.407-1.864,1.978-2.738-.266-.343-.495-.875-.723-.875" transform="translate(-90.566 -5.929)"/>
    <path id="Path_18715" data-name="Path 18715" d="M339.1,8.877c.3-1.483.57-4.488,1.977-4.488.989.114,1.217,1.065,1.217,2.131-1.14,5.971-2.358,11.791-3.309,17.763a4.815,4.815,0,0,0-.114.723c0,.3.076.494.418.494a1.872,1.872,0,0,0,.571-.114c.076-.038.646.418.646.685,0,1.673-1.673,4.982-3.461,4.982-1.027,0-1.294-1.293-1.483-2.587.685-6.58,2.206-13.122,3.537-19.588" transform="translate(-94.266 -1.233)"/>
    <path id="Path_18716" data-name="Path 18716" d="M345.947,26.352c.342-1.9-.076-5.82,2.472-5.82a1.534,1.534,0,0,1,1.522,1.56v.19c-.761,3.347-1.6,6.733-2.434,10.042-.191.723-1.027,1.141-1.56,1.407-.342-.495-.912-1.141-.912-1.712v-.266a.141.141,0,0,0-.114-.076c.38-1.788.685-3.5,1.027-5.325m4.108-12.97c.723,0,1.255.3,1.255.875,0-.152-.723,2.016-1.673,2.016-.229,0-.951-.8-1.179-.989.038-1.369.646-1.9,1.6-1.9" transform="translate(-96.895 -3.759)"/>
    <path id="Path_18717" data-name="Path 18717" d="M360.494,21.1a2.158,2.158,0,0,1,2.32,2.168c0,1.331-1.331,3.195-2.054,4.412-.913,1.483-2.853,2.016-2.853,3.956,0,.723-.114,1.788,1.141,1.788.761,0,1.445-.419,2.206-.419.418,0,.647.191.647.571,0,1.559-2.359,2.776-3.8,2.776-2.929,0-3.081-2.587-3.233-4.336.076-3.956,1.9-10.916,5.629-10.916m.152,2.13c-.837,0-1.369,2.168-1.673,3.043,0,.037-.038.037-.038.076,0,.152.266.495.456.495.571,0,1.407-1.864,1.978-2.738-.266-.343-.495-.875-.723-.875" transform="translate(-99.689 -5.929)"/>
    <path id="Path_18718" data-name="Path 18718" d="M369.366,22.974c1.369,0,1.522.647,1.522,1.674q-.114,1.2-.114,2.4a1.925,1.925,0,0,0,.608,1.521c1.408-1.179,2.4-3.385,3.576-5.1.152-.5.761-.723,1.369-.99a.487.487,0,0,0-.038.229c0,.152.038.266.038.381a1.113,1.113,0,0,1-.076.342c-1.141,2.473-2.359,4.983-3.5,7.494-.38.837-.495,1.787-.875,2.587-.419.874-1.445,2.472-2.244,2.472-1.559,0-1.6-3.918-1.6-5.44V24.533c.076-.874.3-1.56,1.331-1.56" transform="translate(-103.389 -6.315)"/>
    <path id="Path_18719" data-name="Path 18719" d="M386.253,21.1a2.158,2.158,0,0,1,2.32,2.168c0,1.331-1.331,3.195-2.054,4.412-.913,1.483-2.853,2.016-2.853,3.956,0,.723-.114,1.788,1.14,1.788.761,0,1.445-.419,2.206-.419.418,0,.647.191.647.571,0,1.559-2.359,2.776-3.8,2.776-2.929,0-3.081-2.587-3.233-4.336.076-3.956,1.9-10.916,5.629-10.916m.152,2.13c-.837,0-1.369,2.168-1.673,3.043,0,.037-.038.037-.038.076,0,.152.266.495.456.495.571,0,1.408-1.864,1.978-2.738-.266-.343-.495-.875-.723-.875" transform="translate(-106.925 -5.929)"/>
    <path id="Path_18720" data-name="Path 18720" d="M392.495,25.577a1.03,1.03,0,0,1,.19-.608A63.808,63.808,0,0,1,396.45,19.3a1.436,1.436,0,0,1,1.141-.418c.608,0,1.027.228,1.027,1.445,0,1.1-.419,2.891-1.1,2.891-.38,0-.875-.989-1.255-.989-.571,0-.875,1.75-1.066,2.586a10,10,0,0,0,2.093.342h.38c2.168,0,3.5,1.179,3.5,2.967,0,3.233-3.233,6.2-5.553,8.1-1.445,1.179-2.929,2.206-4.792,2.206a1.636,1.636,0,0,1-1.788-1.6c0-1.864,2.548-4.107,4.184-5.135a.515.515,0,0,1,.342-.076h.418a1.5,1.5,0,0,1-.152.8c-.3.533-1.331,1.75-1.331,2.282,0,.457.114.457.494.457.533,0,2.169-1.408,2.625-1.94,1.179-1.369,3.081-3.5,3.081-4.982,0-.913-.913-1.407-2.13-1.407-.191,0-.419.114-.608.114-1.217-.038-3.462-.038-3.462-1.369" transform="translate(-109.288 -5.305)"/>
    <path id="Path_18721" data-name="Path 18721" d="M408.905,35.976a2.573,2.573,0,0,1-1.94-2.016,2,2,0,0,1,2.168-1.864,1.84,1.84,0,0,1,1.788,1.635c0,.837-1.217,2.244-2.016,2.244M413.66,22.74a.219.219,0,0,1-.038.152c-1.141.342-.418,2.244-1.75,2.244a2.375,2.375,0,0,1-2.016-2.282c0-1.256.837-1.636,1.94-1.75.761.3,1.864.419,1.864,1.636" transform="translate(-114.325 -5.929)"/>
    <path id="Path_18722" data-name="Path 18722" d="M29.984,110.273c-1.445,0-3.537-1.826-3.537-3.385a4.179,4.179,0,0,1,4.3-3.69,3.076,3.076,0,0,1,2.548,2.967c0,1.674-1.864,4.108-3.309,4.108" transform="translate(-7.43 -28.99)"/>
    <path id="Path_18723" data-name="Path 18723" d="M75.245,93.008c-.3,1.256,0,3.424-.418,4.146-1.407,2.548-1.027,5.287-1.522,7.988,0,.533,1.066,1.141,1.066,1.826,0,1.6-1.408,4.6-2.929,4.6-.951,0-1.369-2.168-1.369-3.461,0-2.929.723-5.858,1.064-8.672V99.36a1.259,1.259,0,0,0-.761-.912c-1.6.152-2.966.38-3.765,2.32-1.14,2.7-2.51,5.364-3.765,8.1a3.8,3.8,0,0,1-.913,1.255c-.228.229-.722.229-1.027.38,0-.3-.076-.57-.076-.836a.623.623,0,0,1,.076-.38l3.727-8.026a1.422,1.422,0,0,0,.152-.609c0-.836-.532-.685-1.293-.76-.228,0-.532.076-.761.076-.495,0-.8-.532-1.065-.989,1.636-1.369,4.45-.875,5.439-2.776,1.863-3.5,3.69-7,5.553-10.46.608-1.294,1.75-3.385,2.776-3.385.494,0,1.1,1.369,1.1,1.788,0,.266-.038.57-.038.837h.153c-.495,2.662-.989,5.325-1.407,8.025m-4.755,3.424c.836.038,1.254-.494,1.445-1.407a24.865,24.865,0,0,0,.837-4.336,5,5,0,0,0-.19-.989c-.3.3-.723.494-.913.836-.8,1.483-1.56,3.043-2.321,4.6a2.387,2.387,0,0,0-.265.8c0,.38.38.494,1.254.494Z" transform="translate(-17.088 -23.136)"/>
    <path id="Path_18724" data-name="Path 18724" d="M91.3,108.209c-1.217,2.168-2.814,6.314-4.678,6.314-.875,0-1.141-.761-1.141-1.483,0-2.054.266-4.222.419-6.276l.228-1.9a1.352,1.352,0,0,1,1.407-1.293c.951,0,1.217.685,1.217,1.407,0,.913-.191,1.9-.191,2.814a9.036,9.036,0,0,0,.191.989,3,3,0,0,0,.837-.685l1.483-2.548a3.918,3.918,0,0,1,2.472-1.522c.76,0,.951.723.951,1.332a7.364,7.364,0,0,1-.076.913c-.457,3.651-.912,7.265-1.407,10.916a2.307,2.307,0,0,1-.532.989,3.667,3.667,0,0,1-.38-1.141,98.089,98.089,0,0,1,.76-10.536c-.114,0-.152-.076-.266-.152a18.3,18.3,0,0,0-1.293,1.864" transform="translate(-24.013 -29.095)"/>
    <path id="Path_18725" data-name="Path 18725" d="M104.45,102.008c.57,1.635.913,2.358,1.369,2.358s1.027-.57,2.054-1.711c.8-.874,1.6-2.206,2.853-2.206a8.609,8.609,0,0,1,1.331.191,5.341,5.341,0,0,1-.457,1.445c-1.635,2.282-4.526,4.906-4.526,6.352,0,1.217,1.826,4.488,2.4,6.884a.839.839,0,0,1,.038.3,9.537,9.537,0,0,1-.608,1.939c-.571-.38-1.407-.646-1.75-1.179-1.179-1.788-2.625-5.363-3.385-5.363-.913,0-3.651,3.766-5.173,5.325a5.468,5.468,0,0,1-1.6.875c0-.3-.037-.608-.037-.951a1.384,1.384,0,0,1,.19-.8c1.483-2.244,3.005-4.412,4.64-6.429a2.854,2.854,0,0,0,.837-1.863c0-.989-1.711-3.994-1.711-5.211a1.4,1.4,0,0,1,1.521-1.369,1.915,1.915,0,0,1,2.016,1.407" transform="translate(-27.237 -28.218)"/>
    <path id="Path_18726" data-name="Path 18726" d="M118.983,106.224c.342-1.9-.076-5.82,2.472-5.82a1.534,1.534,0,0,1,1.522,1.56v.19c-.761,3.347-1.6,6.733-2.434,10.042-.191.723-1.027,1.141-1.56,1.407-.342-.495-.913-1.141-.913-1.711v-.267a.141.141,0,0,0-.114-.076c.38-1.788.685-3.5,1.027-5.325m4.108-12.97c.723,0,1.255.3,1.255.875,0-.152-.723,2.016-1.673,2.016-.229,0-.951-.8-1.179-.989.038-1.369.646-1.9,1.6-1.9" transform="translate(-33.136 -26.197)"/>
    <path id="Path_18727" data-name="Path 18727" d="M133.529,100.977a2.158,2.158,0,0,1,2.32,2.168c0,1.331-1.331,3.195-2.054,4.412-.913,1.483-2.853,2.016-2.853,3.956,0,.723-.114,1.788,1.14,1.788.761,0,1.445-.419,2.206-.419.418,0,.647.191.647.571,0,1.559-2.359,2.776-3.8,2.776-2.929,0-3.081-2.587-3.233-4.336.076-3.956,1.9-10.916,5.629-10.916m.152,2.13c-.837,0-1.369,2.168-1.673,3.043,0,.037-.038.037-.038.076,0,.152.266.495.456.495.571,0,1.408-1.864,1.978-2.738-.266-.343-.495-.875-.723-.875" transform="translate(-35.93 -28.367)"/>
    <path id="Path_18728" data-name="Path 18728" d="M144.417,95.017a8.134,8.134,0,0,0,.266-1.445.908.908,0,0,0-1.027-1.027c-.495,0-1.1.228-1.673.228a1,1,0,0,1-.913-.8c0-.761,1.179-.874,1.978-1.065,1.977-.342,2.662-1.141,2.662-3.005,0-.342-.037-.76-.037-1.14,0-1.483.57-3.347,2.358-3.347.761,0,.837.646.837,1.255,0,.8-.191,2.093-.191,2.891,0,.647.191.913.685.913.837,0,2.244-1.141,3.424-1.141a4.747,4.747,0,0,1,.723.114c-.191.228-.266.57-.495.723-1.826,1.255-4.83,2.7-5.21,4.412-.571,2.586-1.027,9.2-1.6,11.829a2.618,2.618,0,0,0-.076.495c0,.3.114.494.533.494a.943.943,0,0,0,.3-.038c.152,0,.685.495.685.647-.608,1.635-.608,3.575-2.168,4.716a2.408,2.408,0,0,1-1.255.608c-.951,0-1.294-1.711-1.294-2.206,0-.342.038-.685.038-.989-.076,0-.152-.038-.228-.038.57-3.005,1.1-10.079,1.673-13.084" transform="translate(-39.63 -23.433)"/>
    <path id="Path_18729" data-name="Path 18729" d="M146.251,133.258c-3.347,0-5.287-2.054-7.265-4.184-.19-.229-.152-.685-.19-1.065a4.136,4.136,0,0,1,.989.114c2.359.951,4.982,2.093,6.808,2.093,2.244,0,3.8-1.294,4.869-4.108,1.293-3.385,2.016-6.884,3-10.346a14.219,14.219,0,0,0,.8-3.613,9.033,9.033,0,0,0-.19-.989c-1.141.495-1.407.989-2.206.989-1.75,0-2.359-2.054-2.625-4.793l-.457-4.754v-.495c0-.761.685-1.294,1.028-1.711.38.418.989.874,1.027,1.369.19,2.168.266,4.374.457,6.542a5.6,5.6,0,0,0,.646,1.56c.457-.418,1.065-.8,1.293-1.294.685-1.6,1.331-3.233,1.94-4.944a1.626,1.626,0,0,1,1.673-1.217c1.1,0,1.445.913,1.445,1.788-.3,2.587-.38,5.173-.874,7.721-.913,4.6-1.94,9.319-3.309,13.807-.989,3.309-4.032,7.607-7.151,7.607a4.051,4.051,0,0,1-.951-.114,5.349,5.349,0,0,1-.761.038" transform="translate(-38.991 -28.203)"/>
    <path id="Path_18730" data-name="Path 18730" d="M29.984,190.145c-1.445,0-3.537-1.825-3.537-3.385a4.179,4.179,0,0,1,4.3-3.69,3.076,3.076,0,0,1,2.548,2.968c0,1.673-1.864,4.107-3.309,4.107" transform="translate(-7.43 -51.428)"/>
    <path id="Path_18731" data-name="Path 18731" d="M73.028,163.341a8.317,8.317,0,0,1,8.634,8.558,20.634,20.634,0,0,1-1.635,7.645,30.474,30.474,0,0,1-8.672,11.448,5.355,5.355,0,0,1-2.967,1.255c-1.256,0-2.206-1.711-3.424-1.711-.266,0-.533.076-.761.076a.945.945,0,0,1-1.065-.913,30.842,30.842,0,0,1-.342-3.765,10.738,10.738,0,0,1,.114-1.56c.57-3.537,1.521-7.112,2.206-10.612a6.127,6.127,0,0,0,.076-1.179V171.9c0-1.712.494-4.679,2.472-4.679a1.81,1.81,0,0,1,1.9,2.016,26.726,26.726,0,0,1-.57,3.956c-.837,3.765-1.75,7.493-2.587,11.221a2.586,2.586,0,0,0-.076.571,5.466,5.466,0,0,0,.3.836,1.8,1.8,0,0,0,.723-.457,3.421,3.421,0,0,1,2.205-1.255c.3,0,.495.114.495.38,0,.646-1.978,2.32-1.978,3.766a9.159,9.159,0,0,0,.267,1.331c.495-.076,1.217-.076,1.483-.38,4.145-3.842,10.194-9.966,10.194-16.621,0-5.781-3.69-7.645-7.874-7.645a16.251,16.251,0,0,0-8.33,2.282,3.335,3.335,0,0,1-1.407.191c.229-.495.342-1.256.685-1.446a43.477,43.477,0,0,1,5.744-2.167,23.721,23.721,0,0,1,3.727-.457Z" transform="translate(-17.534 -45.886)"/>
    <path id="Path_18732" data-name="Path 18732" d="M96.4,180.849a2.158,2.158,0,0,1,2.32,2.169c0,1.331-1.331,3.195-2.054,4.412-.913,1.483-2.853,2.016-2.853,3.956,0,.723-.114,1.788,1.14,1.788.761,0,1.445-.418,2.206-.418.418,0,.647.191.647.57,0,1.56-2.359,2.777-3.8,2.777-2.929,0-3.081-2.587-3.233-4.336.076-3.956,1.9-10.917,5.629-10.917m.152,2.131c-.837,0-1.369,2.168-1.673,3.042,0,.038-.038.038-.038.076,0,.152.266.495.456.495.571,0,1.407-1.864,1.978-2.739-.266-.342-.495-.874-.723-.874" transform="translate(-25.498 -50.804)"/>
    <path id="Path_18733" data-name="Path 18733" d="M103.154,195.114c.418-2.966.951-5.857,1.293-8.786.19-1.522-.19-4.373,1.256-4.373,1.331.076,2.092,1.711,2.434,1.711.418,0,1.483-1.863,2.587-1.863,1.293,0,1.977,1.369,1.977,2.359a2.161,2.161,0,0,1-.038.494c-.532,3.081-1.939,9.471-5.4,9.471-.228,0-1.065.342-1.1.8-.761,3.879-1.027,7.759-2.32,11.487-.191.38-.8.609-1.179.913a3.95,3.95,0,0,1-.723-1.711c0-.3.038-.609.038-.875-.038,0-.076-.076-.152-.076Zm8.139-10.8a.935.935,0,0,0-.723-.8c-.989,0-2.054,3.005-2.7,4.374,0,.038-.037.114-.037.152,0,.685.761,1.483,1.559,2.4a18.212,18.212,0,0,0,1.9-6.124" transform="translate(-28.604 -51.072)"/>
    <path id="Path_18734" data-name="Path 18734" d="M128.844,182.851c-.57,0-.875-1.141-1.331-1.141-.647,0-2.967,4.07-3.842,5.82-.951,1.94-1.521,4.032-2.358,6.047-.57,1.369-1.179,1.483-2.016,1.978-.267-.495-.761-1.065-.761-1.56.152-2.092.494-4.146.761-6.2.228-1.826.152-7.265,2.586-7.265,1.027,0,1.483,1.711,1.712,2.929a13.883,13.883,0,0,0,1.293-1.293c1.1-1.37,2.282-3.8,3.956-3.8.8,0,.761.8,1.217,1.445-.342,1.408-.533,3.043-1.217,3.043" transform="translate(-33.3 -50.106)"/>
    <path id="Path_18735" data-name="Path 18735" d="M138.6,180.849a2.158,2.158,0,0,1,2.32,2.169c0,1.331-1.331,3.195-2.054,4.412-.913,1.483-2.853,2.016-2.853,3.956,0,.723-.114,1.788,1.14,1.788.761,0,1.445-.418,2.206-.418.419,0,.647.191.647.57,0,1.56-2.359,2.777-3.8,2.777-2.929,0-3.081-2.587-3.233-4.336.076-3.956,1.9-10.917,5.629-10.917m.152,2.131c-.837,0-1.369,2.168-1.673,3.042,0,.038-.038.038-.038.076,0,.152.266.495.456.495.571,0,1.408-1.864,1.978-2.739-.266-.342-.495-.874-.723-.874" transform="translate(-37.356 -50.804)"/>
    <path id="Path_18736" data-name="Path 18736" d="M144.848,185.322a1.03,1.03,0,0,1,.19-.608,63.8,63.8,0,0,1,3.766-5.668,1.436,1.436,0,0,1,1.141-.418c.608,0,1.027.228,1.027,1.445,0,1.1-.419,2.891-1.1,2.891-.38,0-.875-.989-1.255-.989-.571,0-.875,1.75-1.066,2.586a10,10,0,0,0,2.093.343h.38c2.168,0,3.5,1.179,3.5,2.966,0,3.233-3.233,6.2-5.553,8.1-1.445,1.179-2.929,2.206-4.792,2.206a1.636,1.636,0,0,1-1.788-1.6c0-1.865,2.548-4.108,4.184-5.136a.514.514,0,0,1,.342-.076h.419a1.5,1.5,0,0,1-.152.8c-.3.533-1.331,1.75-1.331,2.282,0,.457.114.457.494.457.533,0,2.169-1.407,2.625-1.94,1.179-1.369,3.081-3.5,3.081-4.982,0-.913-.913-1.407-2.13-1.407-.191,0-.419.114-.608.114-1.217-.037-3.462-.037-3.462-1.369" transform="translate(-39.718 -50.18)"/>
    <path id="Path_18737" data-name="Path 18737" d="M159.076,185.322a1.03,1.03,0,0,1,.19-.608,63.814,63.814,0,0,1,3.766-5.668,1.436,1.436,0,0,1,1.141-.418c.608,0,1.027.228,1.027,1.445,0,1.1-.419,2.891-1.1,2.891-.38,0-.875-.989-1.255-.989-.571,0-.875,1.75-1.066,2.586a10,10,0,0,0,2.093.343h.38c2.168,0,3.5,1.179,3.5,2.966,0,3.233-3.233,6.2-5.553,8.1-1.445,1.179-2.929,2.206-4.792,2.206a1.636,1.636,0,0,1-1.788-1.6c0-1.865,2.548-4.108,4.184-5.136a.514.514,0,0,1,.342-.076h.419a1.5,1.5,0,0,1-.152.8c-.3.533-1.331,1.75-1.331,2.282,0,.457.114.457.494.457.533,0,2.169-1.407,2.625-1.94,1.179-1.369,3.081-3.5,3.081-4.982,0-.913-.913-1.407-2.13-1.407-.191,0-.419.114-.608.114-1.217-.037-3.462-.037-3.462-1.369" transform="translate(-43.715 -50.18)"/>
    <path id="Path_18738" data-name="Path 18738" d="M174.573,186.1c.342-1.9-.076-5.82,2.472-5.82a1.534,1.534,0,0,1,1.522,1.56v.19c-.761,3.347-1.6,6.732-2.434,10.042-.191.722-1.027,1.141-1.56,1.407-.342-.495-.913-1.141-.913-1.712V191.5a.141.141,0,0,0-.114-.076c.38-1.788.685-3.5,1.027-5.325m4.108-12.97c.723,0,1.255.3,1.255.874,0-.152-.723,2.016-1.673,2.016-.228,0-.951-.8-1.179-.988.038-1.37.646-1.9,1.6-1.9" transform="translate(-48.753 -48.635)"/>
    <path id="Path_18739" data-name="Path 18739" d="M187.256,183.794a1.087,1.087,0,0,1,1.141.989.967.967,0,0,1-.191.608,12.012,12.012,0,0,0-2.4,7.074,5.388,5.388,0,0,0,.685,1.712c.495-.342,1.217-.571,1.369-.989a17.482,17.482,0,0,0,1.75-6.58c0-.8-.38-1.636-.38-2.511,0-.608.228-.608.646-1.027,1.065,1.065,1.179,3.005,1.179,4.45,0,3.728-2.206,8.443-4.793,8.443-1.674,0-2.777-1.863-2.777-5.02.152-1.788,1.445-7.151,3.766-7.151" transform="translate(-51.546 -51.428)"/>
    <path id="Path_18740" data-name="Path 18740" d="M202.481,188.082c-1.217,2.168-2.814,6.313-4.678,6.313-.875,0-1.141-.761-1.141-1.483,0-2.054.266-4.222.419-6.275l.228-1.9a1.352,1.352,0,0,1,1.407-1.293c.951,0,1.217.684,1.217,1.407,0,.913-.191,1.9-.191,2.814a9.036,9.036,0,0,0,.191.989,3,3,0,0,0,.837-.685l1.483-2.548a3.919,3.919,0,0,1,2.472-1.522c.76,0,.951.723.951,1.332a7.369,7.369,0,0,1-.076.913c-.457,3.651-.912,7.265-1.407,10.916a2.307,2.307,0,0,1-.532.989,3.667,3.667,0,0,1-.38-1.141,98.088,98.088,0,0,1,.76-10.536c-.114,0-.152-.076-.266-.153a18.388,18.388,0,0,0-1.293,1.865" transform="translate(-55.246 -51.533)"/>
    <path id="Path_18741" data-name="Path 18741" d="M29.984,270.018c-1.445,0-3.537-1.825-3.537-3.385a4.179,4.179,0,0,1,4.3-3.69,3.076,3.076,0,0,1,2.548,2.968c0,1.673-1.864,4.107-3.309,4.107" transform="translate(-7.43 -73.866)"/>
    <path id="Path_18742" data-name="Path 18742" d="M70.517,244.87a9.887,9.887,0,0,0-5.135,1.445,1.008,1.008,0,0,1-.456.114H64.2c.19-.418.228-.989.532-1.217a12.522,12.522,0,0,1,6.884-1.788c4.222,0,7.151,2.016,7.151,5.21,0,2.169-1.408,4.793-2.7,6.809-1.56,2.358-4.336,6.124-7.112,6.124-.419,0-.8-.152-1.066-.152-.57,0-.761.38-.874,1.066-.38,2.51-.875,5.1-1.217,7.606-.19,1.217-1.065,1.712-1.864,2.282,0,.038-.038.038-.114.038-.913,0-1.407-.913-1.407-2.244,0-2.586,1.445-6.657,1.521-7.113.989-4.868,1.788-9.889,2.853-14.758a1.62,1.62,0,0,1,1.712-1.407c.457,0,.836.608.836,1.255a39.319,39.319,0,0,1-.76,5.1,1.912,1.912,0,0,0-.076.418c0,.3.076.609.076.875a4.8,4.8,0,0,0,1.293-.57c.761-.533,1.522-1.712,2.4-1.712h.418c-.532,2.168-3.8,3.842-3.8,6.276,0,.609.152.951.685.951.913,0,2.814-1.978,3.613-3.005,1.673-2.092,3.956-4.831,3.956-7.493,0-3.119-1.636-3.727-6.2-4.107Z" transform="translate(-17.534 -68.383)"/>
    <path id="Path_18743" data-name="Path 18743" d="M91.455,265.808a4.685,4.685,0,0,1-.076.684c-.342,2.206-.647,4.45-.913,6.656-.152,1.37-.342,2.929-1.255,2.929-.342,0-.647-.266-.989-.723-1.065-1.256-.38-2.4-1.027-2.4-.228,0-1.522,1.141-2.814,1.141a1.938,1.938,0,0,1-1.864-2.129,9.387,9.387,0,0,1,3.69-7.151,19.224,19.224,0,0,1,2.814-1.293c1.636.19,2.435.951,2.435,2.282m-3.424.075a1.271,1.271,0,0,0-.875.266c-.989,1.369-2.7,3.651-2.7,4.716,0,.191.19.875.646.875,1.217,0,2.814-3.119,3.918-4.907-.457-.723-.495-.951-.989-.951" transform="translate(-23.18 -74.03)"/>
    <path id="Path_18744" data-name="Path 18744" d="M103.411,267.954c-1.217,2.168-2.814,6.314-4.678,6.314-.875,0-1.141-.761-1.141-1.483,0-2.054.266-4.222.419-6.275l.228-1.9a1.352,1.352,0,0,1,1.407-1.293c.951,0,1.217.684,1.217,1.407,0,.913-.191,1.9-.191,2.814a9.039,9.039,0,0,0,.191.989,3,3,0,0,0,.837-.685l1.483-2.548a3.919,3.919,0,0,1,2.472-1.522c.76,0,.951.723.951,1.332a7.366,7.366,0,0,1-.076.913c-.457,3.651-.912,7.265-1.407,10.916a2.307,2.307,0,0,1-.532.989,3.669,3.669,0,0,1-.38-1.141,98.094,98.094,0,0,1,.76-10.536c-.114,0-.152-.076-.266-.153a18.389,18.389,0,0,0-1.293,1.865" transform="translate(-27.415 -73.97)"/>
    <path id="Path_18745" data-name="Path 18745" d="M112.212,265.969c.342-1.9-.076-5.82,2.472-5.82a1.534,1.534,0,0,1,1.522,1.56v.19c-.761,3.347-1.6,6.732-2.434,10.042-.191.722-1.027,1.141-1.56,1.407-.342-.495-.912-1.141-.912-1.712v-.266a.141.141,0,0,0-.114-.076c.38-1.788.685-3.5,1.027-5.325M116.32,253c.723,0,1.255.3,1.255.874,0-.152-.723,2.016-1.673,2.016-.228,0-.951-.8-1.179-.988.038-1.37.646-1.9,1.6-1.9" transform="translate(-31.234 -71.073)"/>
    <path id="Path_18746" data-name="Path 18746" d="M126.91,267.244c-.532-.761-.8-1.255-1.141-1.255a.987.987,0,0,0-.646.419,8.507,8.507,0,0,0-1.483,5.21,1.189,1.189,0,0,0,1.293,1.18c.761,0,1.75-.913,2.435-.913.228,0,.494,0,.494.457,0,1.217-2.586,2.51-3.994,2.51-2.51,0-2.738-3.005-2.738-4.26a7.243,7.243,0,0,1,3.043-6.2,3.211,3.211,0,0,1,2.054-.762c.836,0,1.179.5,1.179,1.522v.342a4.637,4.637,0,0,1-.494,1.75" transform="translate(-34.028 -74.059)"/>
    <path id="Path_18747" data-name="Path 18747" d="M141.674,265.268c0-3.423,1.331-8.254,3.766-8.254.8,0,1.445.913,2.13,1.711a3.148,3.148,0,0,0,.608-.836c1.179-3.31,2.32-6.2,3.88-10.5a1.263,1.263,0,0,1,1.255-.951c1.065,0,1.369.457,1.369.951a6.311,6.311,0,0,1-.114.837c-.723,3.157-.837,4.336-1.56,7.455-.685,3-1.636,5.933-2.4,8.9-.8,3.195-1.37,8.938-3.576,8.938-.646,0-1.027-.685-1.027-1.9,0-.8.114-1.635.191-2.434a7.478,7.478,0,0,0-.152-1.293,5.082,5.082,0,0,0-1.217.57,2.289,2.289,0,0,1-1.445.837c-1.065,0-1.788-1.826-1.788-2.625,0-.38.076-.685.076-.874Zm1.864,1.826a2.162,2.162,0,0,0,1.065-.457,20.955,20.955,0,0,0,2.359-5.515c0-.761-1.332-1.865-1.865-1.865-.722,0-1.635,4.717-2.129,6.619.228.532.342,1.14.57,1.217" transform="translate(-39.778 -69.23)"/>
    <path id="Path_18748" data-name="Path 18748" d="M159.763,265.969c.342-1.9-.076-5.82,2.472-5.82a1.534,1.534,0,0,1,1.522,1.56v.19c-.761,3.347-1.6,6.732-2.434,10.042-.191.722-1.027,1.141-1.56,1.407-.342-.495-.913-1.141-.913-1.712v-.266a.141.141,0,0,0-.114-.076c.38-1.788.685-3.5,1.027-5.325M163.871,253c.723,0,1.255.3,1.255.874,0-.152-.723,2.016-1.673,2.016-.229,0-.951-.8-1.179-.988.038-1.37.646-1.9,1.6-1.9" transform="translate(-44.592 -71.073)"/>
    <path id="Path_18749" data-name="Path 18749" d="M167.381,265.194a1.03,1.03,0,0,1,.19-.608,63.808,63.808,0,0,1,3.766-5.668,1.436,1.436,0,0,1,1.141-.418c.608,0,1.027.228,1.027,1.445,0,1.1-.418,2.891-1.1,2.891-.38,0-.875-.989-1.255-.989-.571,0-.875,1.75-1.066,2.586a10,10,0,0,0,2.092.343h.38c2.168,0,3.5,1.179,3.5,2.966,0,3.233-3.233,6.2-5.553,8.1-1.445,1.179-2.929,2.206-4.792,2.206a1.636,1.636,0,0,1-1.788-1.6c0-1.865,2.548-4.108,4.184-5.136a.514.514,0,0,1,.342-.076h.418a1.5,1.5,0,0,1-.152.8c-.3.533-1.331,1.75-1.331,2.282,0,.457.114.457.494.457.533,0,2.169-1.407,2.625-1.94,1.179-1.369,3.081-3.5,3.081-4.983,0-.913-.913-1.407-2.13-1.407-.191,0-.418.114-.608.114-1.217-.037-3.462-.037-3.462-1.369" transform="translate(-46.048 -72.618)"/>
    <path id="Path_18750" data-name="Path 18750" d="M186.674,263.666a1.087,1.087,0,0,1,1.141.99.967.967,0,0,1-.191.608,12.016,12.016,0,0,0-2.4,7.074,5.387,5.387,0,0,0,.685,1.712c.495-.342,1.217-.571,1.369-.989a17.481,17.481,0,0,0,1.75-6.58c0-.8-.38-1.636-.38-2.511,0-.608.228-.608.646-1.027,1.065,1.065,1.179,3.005,1.179,4.45,0,3.728-2.206,8.444-4.793,8.444-1.674,0-2.777-1.864-2.777-5.021.152-1.788,1.445-7.151,3.766-7.151" transform="translate(-51.383 -73.866)"/>
    <path id="Path_18751" data-name="Path 18751" d="M205.858,262.724c-.57,0-.875-1.141-1.331-1.141-.647,0-2.967,4.07-3.842,5.82-.951,1.94-1.521,4.032-2.358,6.047-.57,1.369-1.179,1.483-2.016,1.978-.267-.495-.761-1.065-.761-1.56.152-2.092.494-4.146.761-6.2.228-1.826.152-7.265,2.586-7.265,1.027,0,1.483,1.711,1.712,2.929a13.891,13.891,0,0,0,1.293-1.293c1.1-1.37,2.282-3.8,3.956-3.8.8,0,.761.8,1.217,1.445-.342,1.408-.533,3.043-1.217,3.043" transform="translate(-54.934 -72.544)"/>
    <path id="Path_18752" data-name="Path 18752" d="M210.066,265.268c0-3.423,1.331-8.254,3.765-8.254.8,0,1.446.913,2.131,1.711a3.132,3.132,0,0,0,.608-.836c1.179-3.31,2.32-6.2,3.88-10.5a1.263,1.263,0,0,1,1.255-.951c1.065,0,1.369.457,1.369.951a6.3,6.3,0,0,1-.114.837c-.723,3.157-.837,4.336-1.56,7.455-.685,3-1.636,5.933-2.4,8.9-.8,3.195-1.37,8.938-3.576,8.938-.646,0-1.027-.685-1.027-1.9,0-.8.114-1.635.191-2.434a7.478,7.478,0,0,0-.152-1.293,5.082,5.082,0,0,0-1.217.57,2.289,2.289,0,0,1-1.445.837c-1.065,0-1.788-1.826-1.788-2.625,0-.38.076-.685.076-.874Zm1.864,1.826a2.162,2.162,0,0,0,1.065-.457,20.954,20.954,0,0,0,2.359-5.515c0-.761-1.332-1.865-1.864-1.865-.723,0-1.636,4.717-2.13,6.619.228.532.342,1.14.57,1.217" transform="translate(-58.991 -69.23)"/>
    <path id="Path_18753" data-name="Path 18753" d="M233.815,260.721a2.158,2.158,0,0,1,2.32,2.169c0,1.331-1.331,3.195-2.054,4.412-.913,1.483-2.853,2.016-2.853,3.956,0,.723-.114,1.788,1.14,1.788.761,0,1.445-.418,2.206-.418.418,0,.647.191.647.57,0,1.56-2.359,2.777-3.8,2.777-2.929,0-3.08-2.587-3.233-4.336.075-3.956,1.9-10.917,5.629-10.917m.152,2.131c-.837,0-1.369,2.168-1.673,3.042,0,.038-.038.038-.038.076,0,.152.266.495.456.495.571,0,1.407-1.864,1.978-2.739-.266-.342-.495-.874-.723-.874" transform="translate(-64.102 -73.242)"/>
    <path id="Path_18754" data-name="Path 18754" d="M251.135,262.724c-.57,0-.875-1.141-1.331-1.141-.647,0-2.967,4.07-3.842,5.82-.951,1.94-1.521,4.032-2.358,6.047-.57,1.369-1.179,1.483-2.016,1.978-.267-.495-.761-1.065-.761-1.56.152-2.092.494-4.146.761-6.2.228-1.826.152-7.265,2.586-7.265,1.027,0,1.483,1.711,1.712,2.929a13.889,13.889,0,0,0,1.293-1.293c1.1-1.37,2.282-3.8,3.956-3.8.8,0,.761.8,1.217,1.445-.342,1.408-.533,3.043-1.217,3.043" transform="translate(-67.654 -72.544)"/>
    <path id="Path_18755" data-name="Path 18755" d="M29.984,349.89c-1.445,0-3.537-1.826-3.537-3.385a4.179,4.179,0,0,1,4.3-3.69,3.076,3.076,0,0,1,2.548,2.967c0,1.674-1.864,4.108-3.309,4.108" transform="translate(-7.43 -96.304)"/>
    <path id="Path_18756" data-name="Path 18756" d="M74.476,347.838c-1.483,1.483-3.956,3.157-6.429,3.157a5.982,5.982,0,0,1-6.162-6.086c0-1.522.647-3.043.913-4.64.266-1.522.152-3.233.723-4.716a25.523,25.523,0,0,1,2.929-6.5,27.624,27.624,0,0,1,4.336-4.679,8.633,8.633,0,0,1,5.173-2.13c3.727,0,5.971,3.538,5.971,10.688-.19,4.45-2.51,9.965-7.455,14.91m1.407-23.316c-3.575,0-6.657,5.211-8.254,7.76a.764.764,0,0,0-.114.418c0,1.256,1.788,1.56,1.788,2.587,0,.3-.228.723-.228,1.065,0,.685.646,1.065,1.75,1.065.114,0,.266-.037.419-.037.19,0,.266.076.266.228,0,1.483-3.69,1.179-3.994,2.624a30.615,30.615,0,0,0-.951,5.478c0,1.369.532,2.472,1.711,2.472a3.1,3.1,0,0,0,1.6-.495c6.352-4.374,8.254-10.84,8.977-17.154-.38-1.674-.646-6.01-2.967-6.01" transform="translate(-17.385 -90.524)"/>
    <path id="Path_18757" data-name="Path 18757" d="M108.766,327.665c0,1.141-.494,2.587-1.027,2.587-.228,0-.495-.266-.685-.913v.038c-.229,0-1.1-3.385-2.777-3.385-1.635,0-2.928,1.864-3.879,3.119a37.944,37.944,0,0,0-5.439,10.345,14.872,14.872,0,0,0-1.141,4.527c0,2.662,2.587,3.423,4.641,3.423,3.918,0,7.835-1.9,10.954-4.145a.608.608,0,0,1,.3-.114c.228,0,.342.267.342.608a3.451,3.451,0,0,1-1.1,2.435c-3.157,2.282-7.037,5.705-10.993,5.705-4.678,0-6.086-3.956-6.086-7.607a20.791,20.791,0,0,1,1.065-6.276,40.112,40.112,0,0,1,6.466-12.856c1.027-1.256,2.7-3.233,4.6-3.233,2.587,0,4.07,2.891,4.678,4.983a2.457,2.457,0,0,1,.076.761" transform="translate(-25.81 -90.435)"/>
    <path id="Path_18758" data-name="Path 18758" d="M129.36,323.085a8.318,8.318,0,0,1,8.634,8.559,20.631,20.631,0,0,1-1.635,7.645,30.464,30.464,0,0,1-8.672,11.448,5.356,5.356,0,0,1-2.967,1.256c-1.255,0-2.206-1.712-3.424-1.712-.266,0-.533.076-.761.076a.945.945,0,0,1-1.065-.912,30.869,30.869,0,0,1-.342-3.766,10.748,10.748,0,0,1,.114-1.56c.57-3.537,1.521-7.112,2.206-10.612a6.123,6.123,0,0,0,.076-1.179v-.685c0-1.712.494-4.678,2.472-4.678a1.809,1.809,0,0,1,1.9,2.016,26.727,26.727,0,0,1-.57,3.956c-.837,3.766-1.75,7.493-2.587,11.221a2.586,2.586,0,0,0-.076.571,5.41,5.41,0,0,0,.3.836,1.8,1.8,0,0,0,.723-.457,3.421,3.421,0,0,1,2.205-1.255c.3,0,.495.114.495.38,0,.646-1.978,2.32-1.978,3.765a9.13,9.13,0,0,0,.267,1.332c.495-.076,1.217-.076,1.483-.38,4.146-3.842,10.194-9.966,10.194-16.622,0-5.781-3.69-7.645-7.874-7.645a16.251,16.251,0,0,0-8.33,2.282,3.335,3.335,0,0,1-1.407.19c.229-.495.342-1.255.685-1.445a43.389,43.389,0,0,1,5.744-2.168,23.812,23.812,0,0,1,3.727-.457Z" transform="translate(-33.359 -90.761)"/>
    <path id="Path_18759" data-name="Path 18759" d="M29.984,429.762c-1.445,0-3.537-1.826-3.537-3.385a4.179,4.179,0,0,1,4.3-3.69,3.076,3.076,0,0,1,2.548,2.967c0,1.674-1.864,4.108-3.309,4.108" transform="translate(-7.43 -118.742)"/>
    <path id="Path_18760" data-name="Path 18760" d="M70.517,404.614a9.887,9.887,0,0,0-5.135,1.445,1.009,1.009,0,0,1-.456.114H64.2c.19-.419.228-.989.532-1.217a12.528,12.528,0,0,1,6.884-1.788c4.222,0,7.151,2.016,7.151,5.211,0,2.168-1.408,4.793-2.7,6.808-1.56,2.359-4.336,6.124-7.112,6.124-.419,0-.8-.152-1.066-.152-.57,0-.761.38-.874,1.065-.38,2.51-.875,5.1-1.217,7.607-.19,1.217-1.065,1.711-1.864,2.282,0,.039-.038.039-.114.039-.913,0-1.407-.913-1.407-2.245,0-2.586,1.445-6.656,1.521-7.112.989-4.869,1.788-9.889,2.853-14.758a1.619,1.619,0,0,1,1.712-1.407c.457,0,.836.608.836,1.255a39.284,39.284,0,0,1-.76,5.1,1.918,1.918,0,0,0-.076.419c0,.3.076.608.076.874a4.8,4.8,0,0,0,1.293-.57c.761-.532,1.522-1.711,2.4-1.711h.418c-.532,2.167-3.8,3.841-3.8,6.276,0,.608.152.951.685.951.913,0,2.814-1.978,3.613-3.005,1.673-2.092,3.956-4.83,3.956-7.493,0-3.119-1.636-3.728-6.2-4.108Z" transform="translate(-17.534 -113.259)"/>
    <path id="Path_18761" data-name="Path 18761" d="M85.689,406.489c0-2.054,1.293-3.69,2.929-3.69,1.407,0,.495,2.244,1.673,2.244a2.11,2.11,0,0,0,.609-.114,82.383,82.383,0,0,1,15.557-1.9c2.016,0,3.956.076,5.971.191.419,0,.837.495,1.217.761-.38.266-.8.837-1.217.913-3.461.418-6.846.837-10.231,1.141-1.179.114-1.56.571-1.75,1.712-1.445,8.71-3.309,17.344-5.021,25.94-.191.951-.723,2.587-1.522,2.587a1.39,1.39,0,0,1-1.407-1.445,34.988,34.988,0,0,1,.342-4.3l1.75-8.939c.837-4.222,1.636-8.482,2.511-12.78a3.674,3.674,0,0,0,.114-.837c0-.875-.419-1.256-1.293-1.256a4.594,4.594,0,0,0-.951.114c-2.472.495-4.906.913-7.189,1.369-1.522,0-2.092-.418-2.092-1.711" transform="translate(-24.072 -113.155)"/>
    <path id="Path_18762" data-name="Path 18762" d="M136.2,415.822c.038,3.8-2.7,7.341-5.249,9.928-2.054,2.054-5.21,5.438-8.292,5.438-1.522,0-1.977-1.407-1.977-2.89,0-1.788.532-3.461.913-3.461.419,0,.8,1.178.8,2.016,0,.3-.076.608-.076.836.152,0,.419.038.646.038a5.77,5.77,0,0,0,2.13-.836,25.213,25.213,0,0,0,8.368-8.139,8.75,8.75,0,0,0,1.332-2.814c0-.306-1.788-.723-2.625-.723a23.177,23.177,0,0,0-4.907.8c-1.293.3-3.347,1.179-5.059,1.179-1.673,0-2.4-.875-2.4-1.978a7.1,7.1,0,0,1,1.674-3.879,49.465,49.465,0,0,1,10.573-9.32,2.363,2.363,0,0,1,1.179-.38c.837,0,1.217.8,1.217,1.864a5.717,5.717,0,0,1-.114,1.1c-.191.874-1.293,3.157-1.674,3.157-.456,0-.684-1.218-.684-2.168a37.152,37.152,0,0,0-3.8,3.042,66.455,66.455,0,0,0-5.363,4.945c2.891-.3,6.086-1.713,9.28-1.713a7.8,7.8,0,0,1,.951.039c2.205.267,3.157,1.863,3.157,3.918" transform="translate(-33.656 -112.828)"/>
    <path id="Path_18763" data-name="Path 18763" d="M155.914,402.957a8.318,8.318,0,0,1,8.634,8.558,20.631,20.631,0,0,1-1.635,7.645,30.463,30.463,0,0,1-8.672,11.448,5.356,5.356,0,0,1-2.967,1.255c-1.256,0-2.206-1.712-3.424-1.712-.266,0-.533.076-.761.076a.945.945,0,0,1-1.065-.913,30.859,30.859,0,0,1-.342-3.766,10.748,10.748,0,0,1,.114-1.56c.57-3.537,1.521-7.112,2.206-10.612a6.126,6.126,0,0,0,.076-1.179v-.685c0-1.712.494-4.678,2.472-4.678a1.809,1.809,0,0,1,1.9,2.016,26.726,26.726,0,0,1-.57,3.956c-.837,3.766-1.75,7.494-2.587,11.221a2.585,2.585,0,0,0-.076.571,5.41,5.41,0,0,0,.3.836,1.8,1.8,0,0,0,.722-.457,3.424,3.424,0,0,1,2.206-1.255c.3,0,.495.114.495.38,0,.646-1.978,2.32-1.978,3.765a9.129,9.129,0,0,0,.267,1.332c.495-.076,1.217-.076,1.483-.38,4.145-3.842,10.194-9.966,10.194-16.622,0-5.781-3.69-7.645-7.874-7.645a16.252,16.252,0,0,0-8.33,2.282,3.335,3.335,0,0,1-1.407.19c.229-.495.342-1.255.685-1.445a43.389,43.389,0,0,1,5.744-2.168,23.805,23.805,0,0,1,3.727-.457Z" transform="translate(-40.818 -113.199)"/>
    <path id="Path_18764" data-name="Path 18764" d="M29.984,509.635c-1.445,0-3.537-1.826-3.537-3.385a4.179,4.179,0,0,1,4.3-3.69,3.076,3.076,0,0,1,2.548,2.967c0,1.674-1.864,4.108-3.309,4.108" transform="translate(-7.43 -141.18)"/>
    <path id="Path_18765" data-name="Path 18765" d="M67.983,491.8c-.989,5.059-1.826,10.118-2.814,15.139a5.894,5.894,0,0,1-.913,1.977c-.3.342-.837.418-1.293.647a5.184,5.184,0,0,1-.495-1.408,12.156,12.156,0,0,1,.418-2.624c.608-3.2,1.141-6.429,1.75-9.661l1.56-7.341c.342-1.711.076-4.6,1.864-4.6a1.285,1.285,0,0,1,1.331,1.1c.875,4.107,1.711,8.292,2.472,12.4.342,1.75.3,5.134,1.179,5.971.228-.19.494-.342.57-.646.571-2.359.685-1.293,1.294-3.727,1.483-6.086,3.423-12.1,4.755-18.258.19-.874.456-1.483,1.407-1.483.989,0,1.255.951,1.255,1.9,0,2.092-1.788,5.933-2.092,6.884-.495,1.521-.8,3.081-1.179,4.565-1.255,4.906-1.939,6.238-3.119,11.144-.533,2.282-.57,5.63-2.7,5.63-1.635,0-1.825-3.728-2.13-5.858l-1.445-11.107q-.172-1.369-.457-2.853a.97.97,0,0,1-.456-.075c-.229.8-.609,1.483-.761,2.282" transform="translate(-17.548 -134.641)"/>
    <path id="Path_18766" data-name="Path 18766" d="M95.709,500.338a2.158,2.158,0,0,1,2.32,2.168c0,1.331-1.331,3.195-2.054,4.412-.913,1.483-2.853,2.016-2.853,3.956,0,.723-.114,1.788,1.14,1.788.761,0,1.445-.418,2.206-.418.419,0,.647.19.647.57,0,1.559-2.359,2.776-3.8,2.776-2.929,0-3.081-2.587-3.233-4.336.075-3.956,1.9-10.916,5.629-10.916m.152,2.13c-.837,0-1.369,2.168-1.673,3.043,0,.038-.038.038-.038.076,0,.153.266.495.456.495.571,0,1.408-1.864,1.978-2.738-.266-.342-.495-.875-.723-.875" transform="translate(-25.305 -140.556)"/>
    <path id="Path_18767" data-name="Path 18767" d="M104.619,503.043c.114-.608.419-1.065,1.027-1.065.723,0,.913.38.913.647s-.114.57-.114.836c-.38,2.358-.761,4.793-1.065,7.151a5.755,5.755,0,0,0,.457,1.368c.342-.3.8-.494.989-.874,1.522-2.587,3.005-5.287,4.45-7.873.266-.533.532-.99,1.027-.99a1.4,1.4,0,0,1,1.407,1.369,2.6,2.6,0,0,1-.076.495c-.646,2.7-1.293,5.4-1.864,8.1a2.607,2.607,0,0,0-.076.761,20.146,20.146,0,0,0,.418,2.168c0,.608-.989,1.294-1.635,1.294-1.179,0-1.6-2.777-2.016-3.956-1.711.761-2.282,2.244-3.423,2.244-.646,0-1.217-.457-1.483-1.369-.152-.571-.114-1.256-.3-1.9.418-2.776.874-5.63,1.369-8.406" transform="translate(-29.005 -141.016)"/>
    <path id="Path_18768" data-name="Path 18768" d="M129.69,502.341c-.57,0-.875-1.141-1.331-1.141-.647,0-2.967,4.07-3.842,5.82-.951,1.939-1.521,4.031-2.358,6.047-.57,1.369-1.179,1.483-2.016,1.977-.267-.494-.761-1.065-.761-1.56.152-2.092.494-4.145.761-6.2.228-1.826.152-7.266,2.586-7.266,1.027,0,1.483,1.712,1.712,2.929a13.792,13.792,0,0,0,1.293-1.293c1.1-1.369,2.282-3.8,3.956-3.8.8,0,.761.8,1.217,1.445-.342,1.407-.533,3.042-1.217,3.042" transform="translate(-33.537 -139.857)"/>
    <path id="Path_18769" data-name="Path 18769" d="M137.588,503.283a1.087,1.087,0,0,1,1.14.989.977.977,0,0,1-.189.609,12.006,12.006,0,0,0-2.4,7.074,5.412,5.412,0,0,0,.685,1.712c.495-.342,1.217-.571,1.37-.989a17.491,17.491,0,0,0,1.75-6.58c0-.8-.381-1.635-.381-2.51,0-.608.228-.608.646-1.027,1.065,1.065,1.179,3.005,1.179,4.45,0,3.727-2.206,8.444-4.792,8.444-1.675,0-2.778-1.864-2.778-5.021.152-1.788,1.445-7.151,3.767-7.151" transform="translate(-37.593 -141.18)"/>
    <path id="Path_18770" data-name="Path 18770" d="M150.53,488.112c.3-1.483.57-4.489,1.978-4.489.989.114,1.217,1.065,1.217,2.131-1.14,5.971-2.358,11.791-3.309,17.763a4.822,4.822,0,0,0-.114.723c0,.3.076.494.418.494a1.878,1.878,0,0,0,.571-.114c.076-.037.646.418.646.685,0,1.673-1.673,4.983-3.461,4.983-1.027,0-1.294-1.294-1.483-2.587.685-6.58,2.206-13.122,3.537-19.588" transform="translate(-41.293 -135.86)"/>
    <path id="Path_18771" data-name="Path 18771" d="M161.178,503.283a1.087,1.087,0,0,1,1.141.989.973.973,0,0,1-.19.609,12.01,12.01,0,0,0-2.4,7.074,5.4,5.4,0,0,0,.685,1.712c.495-.342,1.217-.571,1.369-.989a17.478,17.478,0,0,0,1.75-6.58c0-.8-.38-1.635-.38-2.51,0-.608.228-.608.646-1.027,1.065,1.065,1.179,3.005,1.179,4.45,0,3.727-2.206,8.444-4.793,8.444-1.674,0-2.777-1.864-2.777-5.021.152-1.788,1.445-7.151,3.766-7.151" transform="translate(-44.22 -141.18)"/>
    <path id="Path_18772" data-name="Path 18772" d="M162.648,524.195a.5.5,0,0,1,.571-.57c.723,0,1.369.228,1.9.228,1.217,0,1.978-.57,2.929-2.168a36.529,36.529,0,0,0,3.918-9.7,13.126,13.126,0,0,0,.533-2.32c0-.342-.152-.532-.495-.532-.38,0-.989.19-1.369.19-1.179,0-1.826-.8-1.826-2.282a5.633,5.633,0,0,1,4.944-5.44c.723,0,1.179-.419,2.131-.419.608,0,1.255-.114,1.255,1.065a1.417,1.417,0,0,1-.076.457c-.989,4.45-1.864,8.938-3.157,13.313-1.1,3.8-2.7,7.455-6.047,9.965a23.554,23.554,0,0,1-2.244.989c-1.369-.229-2.967-1.37-2.967-2.777m8.33-16.736a1.193,1.193,0,0,0,.8-.266c.57-.685,2.168-2.358,2.168-3.157,0-.191-.038-.419-.038-.685V503.2c-.266,0-.608-.076-.874-.076-1.407,0-2.4,2.4-2.7,3.728.152.342.152.608.646.608" transform="translate(-45.691 -140.792)"/>
    <path id="Path_18773" data-name="Path 18773" d="M184.886,505.586c.342-1.9-.076-5.819,2.472-5.819a1.533,1.533,0,0,1,1.522,1.559v.191c-.761,3.347-1.6,6.732-2.434,10.041-.191.723-1.027,1.141-1.56,1.407-.342-.495-.912-1.141-.912-1.711v-.266a.141.141,0,0,0-.114-.076c.38-1.788.685-3.5,1.027-5.325m4.108-12.97c.723,0,1.255.3,1.255.875,0-.152-.723,2.016-1.673,2.016-.229,0-.951-.8-1.179-.989.038-1.368.646-1.9,1.6-1.9" transform="translate(-51.65 -138.386)"/>
    <path id="Path_18774" data-name="Path 18774" d="M199.585,506.861c-.532-.76-.8-1.255-1.141-1.255a.987.987,0,0,0-.646.418,8.508,8.508,0,0,0-1.483,5.21,1.189,1.189,0,0,0,1.293,1.18c.761,0,1.75-.913,2.435-.913.228,0,.494,0,.494.457,0,1.217-2.586,2.51-3.994,2.51-2.51,0-2.738-3-2.738-4.26a7.243,7.243,0,0,1,3.043-6.2,3.215,3.215,0,0,1,2.054-.761c.837,0,1.179.495,1.179,1.522v.342a4.627,4.627,0,0,1-.494,1.749" transform="translate(-54.444 -141.373)"/>
    <path id="Path_18775" data-name="Path 18775" d="M214.22,505.423a4.673,4.673,0,0,1-.076.685c-.342,2.206-.647,4.45-.913,6.656-.152,1.369-.342,2.929-1.255,2.929-.342,0-.647-.267-.989-.723-1.065-1.255-.38-2.4-1.027-2.4-.228,0-1.522,1.141-2.814,1.141a1.938,1.938,0,0,1-1.864-2.13,9.387,9.387,0,0,1,3.69-7.151,19.292,19.292,0,0,1,2.814-1.293c1.636.19,2.435.952,2.435,2.282m-3.424.076a1.268,1.268,0,0,0-.875.266c-.989,1.369-2.7,3.651-2.7,4.716,0,.19.19.875.646.875,1.217,0,2.814-3.119,3.918-4.907-.457-.723-.495-.951-.989-.951" transform="translate(-57.668 -141.343)"/>
    <path id="Path_18776" data-name="Path 18776" d="M223.893,488.112c.3-1.483.57-4.489,1.978-4.489.989.114,1.217,1.065,1.217,2.131-1.14,5.971-2.358,11.791-3.309,17.763a4.822,4.822,0,0,0-.114.723c0,.3.076.494.418.494a1.878,1.878,0,0,0,.571-.114c.076-.037.646.418.646.685,0,1.673-1.673,4.983-3.461,4.983-1.027,0-1.294-1.294-1.483-2.587.685-6.58,2.206-13.122,3.537-19.588" transform="translate(-61.903 -135.86)"/>
    <path id="Path_18777" data-name="Path 18777" d="M239.314,504.884c0-3.424,1.331-8.254,3.766-8.254.8,0,1.445.912,2.13,1.711a3.139,3.139,0,0,0,.608-.836c1.179-3.309,2.32-6.2,3.88-10.5a1.264,1.264,0,0,1,1.255-.951c1.065,0,1.369.457,1.369.951a6.317,6.317,0,0,1-.114.837c-.723,3.157-.837,4.335-1.56,7.455-.685,3.005-1.636,5.934-2.4,8.9-.8,3.194-1.37,8.938-3.576,8.938-.646,0-1.027-.685-1.027-1.9,0-.8.114-1.636.191-2.434a7.489,7.489,0,0,0-.152-1.294,5.088,5.088,0,0,0-1.217.571,2.288,2.288,0,0,1-1.445.837c-1.065,0-1.788-1.826-1.788-2.625,0-.38.076-.685.076-.875Zm1.864,1.826a2.162,2.162,0,0,0,1.065-.457,20.948,20.948,0,0,0,2.359-5.515c0-.761-1.332-1.864-1.864-1.864-.723,0-1.636,4.717-2.13,6.618.228.533.342,1.141.57,1.217" transform="translate(-67.207 -136.543)"/>
    <path id="Path_18778" data-name="Path 18778" d="M257.4,505.586c.342-1.9-.076-5.819,2.472-5.819a1.533,1.533,0,0,1,1.522,1.559v.191c-.761,3.347-1.6,6.732-2.434,10.041-.191.723-1.027,1.141-1.56,1.407-.342-.495-.913-1.141-.913-1.711v-.266a.141.141,0,0,0-.114-.076c.38-1.788.685-3.5,1.027-5.325m4.108-12.97c.723,0,1.255.3,1.255.875,0-.152-.723,2.016-1.673,2.016-.229,0-.951-.8-1.179-.989.038-1.368.646-1.9,1.6-1.9" transform="translate(-72.022 -138.386)"/>
    <path id="Path_18779" data-name="Path 18779" d="M265.022,504.811a1.028,1.028,0,0,1,.19-.608,63.68,63.68,0,0,1,3.766-5.668,1.437,1.437,0,0,1,1.141-.419c.608,0,1.027.229,1.027,1.446,0,1.1-.419,2.891-1.1,2.891-.38,0-.875-.989-1.255-.989-.571,0-.875,1.75-1.066,2.587a9.994,9.994,0,0,0,2.093.342h.38c2.168,0,3.5,1.179,3.5,2.967,0,3.233-3.233,6.2-5.553,8.1-1.445,1.179-2.929,2.206-4.792,2.206a1.637,1.637,0,0,1-1.788-1.6c0-1.864,2.548-4.107,4.184-5.135a.51.51,0,0,1,.342-.076h.419a1.5,1.5,0,0,1-.152.8c-.3.533-1.331,1.749-1.331,2.282,0,.457.114.457.494.457.533,0,2.169-1.408,2.625-1.94,1.179-1.369,3.081-3.5,3.081-4.982,0-.913-.913-1.407-2.13-1.407-.191,0-.418.114-.609.114-1.217-.038-3.461-.038-3.461-1.369" transform="translate(-73.478 -139.931)"/>
    <path id="Path_18780" data-name="Path 18780" d="M284.315,503.283a1.087,1.087,0,0,1,1.141.989.973.973,0,0,1-.19.609,12.01,12.01,0,0,0-2.4,7.074,5.4,5.4,0,0,0,.685,1.712c.495-.342,1.217-.571,1.37-.989a17.49,17.49,0,0,0,1.749-6.58c0-.8-.38-1.635-.38-2.51,0-.608.228-.608.646-1.027,1.065,1.065,1.179,3.005,1.179,4.45,0,3.727-2.206,8.444-4.793,8.444-1.674,0-2.777-1.864-2.777-5.021.152-1.788,1.445-7.151,3.766-7.151" transform="translate(-78.812 -141.18)"/>
    <path id="Path_18781" data-name="Path 18781" d="M303.5,502.341c-.57,0-.875-1.141-1.331-1.141-.647,0-2.967,4.07-3.842,5.82-.951,1.939-1.521,4.031-2.358,6.047-.57,1.369-1.179,1.483-2.016,1.977-.267-.494-.761-1.065-.761-1.56.152-2.092.494-4.145.761-6.2.228-1.826.152-7.266,2.586-7.266,1.027,0,1.483,1.712,1.712,2.929a13.787,13.787,0,0,0,1.293-1.293c1.1-1.369,2.282-3.8,3.956-3.8.8,0,.761.8,1.217,1.445-.342,1.407-.533,3.042-1.217,3.042" transform="translate(-82.364 -139.857)"/>
    <path id="Path_18782" data-name="Path 18782" d="M307.706,504.884c0-3.424,1.331-8.254,3.766-8.254.8,0,1.445.912,2.13,1.711a3.123,3.123,0,0,0,.608-.836c1.179-3.309,2.32-6.2,3.88-10.5a1.263,1.263,0,0,1,1.255-.951c1.065,0,1.369.457,1.369.951a6.332,6.332,0,0,1-.114.837c-.723,3.157-.837,4.335-1.56,7.455-.685,3.005-1.636,5.934-2.4,8.9-.8,3.194-1.37,8.938-3.576,8.938-.646,0-1.027-.685-1.027-1.9,0-.8.114-1.636.191-2.434a7.48,7.48,0,0,0-.152-1.294,5.088,5.088,0,0,0-1.217.571,2.288,2.288,0,0,1-1.445.837c-1.065,0-1.788-1.826-1.788-2.625,0-.38.076-.685.076-.875Zm1.864,1.826a2.162,2.162,0,0,0,1.065-.457,20.947,20.947,0,0,0,2.359-5.515c0-.761-1.332-1.864-1.865-1.864-.722,0-1.635,4.717-2.129,6.618.228.533.342,1.141.57,1.217" transform="translate(-86.42 -136.543)"/>
    <path id="Path_18783" data-name="Path 18783" d="M331.455,500.338a2.158,2.158,0,0,1,2.32,2.168c0,1.331-1.331,3.195-2.054,4.412-.913,1.483-2.853,2.016-2.853,3.956,0,.723-.114,1.788,1.14,1.788.761,0,1.445-.418,2.206-.418.419,0,.647.19.647.57,0,1.559-2.359,2.776-3.8,2.776-2.929,0-3.081-2.587-3.233-4.336.076-3.956,1.9-10.916,5.629-10.916m.152,2.13c-.837,0-1.369,2.168-1.673,3.043,0,.038-.038.038-.038.076,0,.153.266.495.456.495.571,0,1.408-1.864,1.978-2.738-.266-.342-.495-.875-.723-.875" transform="translate(-91.532 -140.556)"/>
    <path id="Path_18784" data-name="Path 18784" d="M348.775,502.341c-.57,0-.875-1.141-1.331-1.141-.646,0-2.967,4.07-3.842,5.82-.951,1.939-1.521,4.031-2.358,6.047-.57,1.369-1.179,1.483-2.016,1.977-.267-.494-.761-1.065-.761-1.56.152-2.092.494-4.145.761-6.2.228-1.826.152-7.266,2.586-7.266,1.027,0,1.483,1.712,1.712,2.929a13.788,13.788,0,0,0,1.293-1.293c1.1-1.369,2.282-3.8,3.956-3.8.8,0,.761.8,1.217,1.445-.342,1.407-.533,3.042-1.217,3.042" transform="translate(-95.083 -139.857)"/>
    <path id="Path_18785" data-name="Path 18785" d="M351.608,504.811a1.028,1.028,0,0,1,.19-.608,63.692,63.692,0,0,1,3.766-5.668,1.437,1.437,0,0,1,1.141-.419c.608,0,1.027.229,1.027,1.446,0,1.1-.419,2.891-1.1,2.891-.38,0-.875-.989-1.255-.989-.571,0-.875,1.75-1.066,2.587a9.995,9.995,0,0,0,2.093.342h.38c2.168,0,3.5,1.179,3.5,2.967,0,3.233-3.233,6.2-5.553,8.1-1.445,1.179-2.929,2.206-4.792,2.206a1.637,1.637,0,0,1-1.788-1.6c0-1.864,2.548-4.107,4.184-5.135a.51.51,0,0,1,.342-.076h.419a1.5,1.5,0,0,1-.152.8c-.3.533-1.331,1.749-1.331,2.282,0,.457.114.457.494.457.533,0,2.169-1.408,2.625-1.94,1.179-1.369,3.081-3.5,3.081-4.982,0-.913-.913-1.407-2.13-1.407-.191,0-.418.114-.608.114-1.217-.038-3.462-.038-3.462-1.369" transform="translate(-97.802 -139.931)"/>
    <path id="Path_18786" data-name="Path 18786" d="M65.874,555.062a1.029,1.029,0,0,1,.19-.608,63.7,63.7,0,0,1,3.766-5.668,1.437,1.437,0,0,1,1.141-.418c.608,0,1.027.229,1.027,1.446,0,1.1-.418,2.891-1.1,2.891-.38,0-.875-.989-1.255-.989-.571,0-.875,1.75-1.066,2.587a10,10,0,0,0,2.093.342h.38c2.168,0,3.5,1.179,3.5,2.967,0,3.233-3.233,6.2-5.553,8.1-1.445,1.179-2.929,2.206-4.792,2.206a1.637,1.637,0,0,1-1.788-1.6c0-1.864,2.548-4.107,4.184-5.135a.51.51,0,0,1,.342-.076h.419a1.5,1.5,0,0,1-.152.8c-.3.533-1.331,1.75-1.331,2.282,0,.457.114.457.494.457.533,0,2.169-1.408,2.625-1.94,1.179-1.369,3.081-3.5,3.081-4.983,0-.913-.913-1.407-2.13-1.407-.191,0-.419.114-.609.114-1.217-.038-3.461-.038-3.461-1.369" transform="translate(-17.533 -154.048)"/>
    <path id="Path_18787" data-name="Path 18787" d="M82.771,553.294c.114-.608.419-1.065,1.027-1.065.723,0,.913.38.913.647s-.114.57-.114.836c-.38,2.358-.761,4.793-1.065,7.151a5.759,5.759,0,0,0,.457,1.368c.342-.3.8-.494.989-.874,1.522-2.587,3.005-5.287,4.45-7.873.266-.533.532-.989,1.027-.989a1.4,1.4,0,0,1,1.407,1.369,2.6,2.6,0,0,1-.076.495c-.646,2.7-1.293,5.4-1.864,8.1a2.607,2.607,0,0,0-.076.761,20.136,20.136,0,0,0,.418,2.168c0,.608-.989,1.293-1.635,1.293-1.179,0-1.6-2.776-2.016-3.956-1.711.761-2.282,2.244-3.423,2.244-.646,0-1.217-.457-1.483-1.369-.152-.571-.114-1.255-.3-1.9.418-2.776.874-5.63,1.369-8.406" transform="translate(-22.868 -155.133)"/>
    <path id="Path_18788" data-name="Path 18788" d="M103.844,557.111c-.532-.761-.8-1.255-1.141-1.255a.987.987,0,0,0-.646.419,8.508,8.508,0,0,0-1.483,5.211,1.189,1.189,0,0,0,1.293,1.179c.761,0,1.75-.913,2.435-.913.228,0,.494,0,.494.457,0,1.217-2.586,2.51-3.994,2.51-2.51,0-2.738-3-2.738-4.26a7.244,7.244,0,0,1,3.043-6.2,3.214,3.214,0,0,1,2.054-.761c.837,0,1.179.495,1.179,1.522v.342a4.633,4.633,0,0,1-.494,1.75" transform="translate(-27.548 -155.489)"/>
    <path id="Path_18789" data-name="Path 18789" d="M118.748,556.033a6.474,6.474,0,0,0-.114.989c0,.874,1.636.342,1.636,1.293v.076c-.723,1.1-1.826,3.309-2.739,3.309-.761,0-1.1-.685-1.1-1.75a8.768,8.768,0,0,1,.114-1.407c.419-2.738.913-5.439,1.217-8.177,0-.114.037-.229.037-.38,0-.608-.228-1.217-.3-1.9a10.372,10.372,0,0,0-1.6,1.56c-1.445,2.243-2.853,4.526-4.3,6.808a1.126,1.126,0,0,1-.76.495c-.951,0-.723-1.9-.723-3.119a16.717,16.717,0,0,1,.19-2.776c.951-5.668,2.206-11.3,3.233-16.964.3-1.141.114-3.385,1.256-3.385a1.89,1.89,0,0,1,1.369,1.6,3.754,3.754,0,0,1-.076.685c-.456,5.173-1.635,9.966-2.548,14.873v.19a8.211,8.211,0,0,0,.114,1.1,3.791,3.791,0,0,0,1.1-.761c1.065-.989,1.56-2.4,3.195-2.4.723,0,1.75,1.255,1.75,2.4,0,.38-.075.8-.075,1.179a.409.409,0,0,0,.19.038c-.342,2.13-.646,4.26-1.065,6.428" transform="translate(-30.926 -149.085)"/>
    <path id="Path_18790" data-name="Path 18790" d="M143.234,555.674a4.684,4.684,0,0,1-.076.685c-.342,2.206-.647,4.45-.913,6.657-.152,1.369-.342,2.929-1.255,2.929-.342,0-.647-.267-.989-.723-1.065-1.255-.38-2.4-1.027-2.4-.228,0-1.522,1.141-2.814,1.141a1.938,1.938,0,0,1-1.864-2.13,9.388,9.388,0,0,1,3.69-7.151,19.292,19.292,0,0,1,2.814-1.293c1.636.191,2.435.951,2.435,2.282m-3.424.076a1.268,1.268,0,0,0-.875.266c-.989,1.369-2.7,3.652-2.7,4.716,0,.19.19.875.646.875,1.217,0,2.814-3.119,3.918-4.907-.457-.723-.495-.951-.989-.951" transform="translate(-37.726 -155.459)"/>
    <path id="Path_18791" data-name="Path 18791" d="M148.071,555.062a1.029,1.029,0,0,1,.19-.608,63.7,63.7,0,0,1,3.766-5.668,1.437,1.437,0,0,1,1.141-.418c.608,0,1.027.229,1.027,1.446,0,1.1-.419,2.891-1.1,2.891-.38,0-.875-.989-1.255-.989-.571,0-.875,1.75-1.066,2.587a10,10,0,0,0,2.093.342h.38c2.168,0,3.5,1.179,3.5,2.967,0,3.233-3.233,6.2-5.553,8.1-1.445,1.179-2.929,2.206-4.792,2.206a1.637,1.637,0,0,1-1.788-1.6c0-1.864,2.548-4.107,4.184-5.135a.51.51,0,0,1,.342-.076h.418a1.5,1.5,0,0,1-.152.8c-.3.533-1.331,1.75-1.331,2.282,0,.457.114.457.494.457.533,0,2.169-1.408,2.625-1.94,1.179-1.369,3.081-3.5,3.081-4.983,0-.913-.913-1.407-2.13-1.407-.191,0-.418.114-.609.114-1.217-.038-3.461-.038-3.461-1.369" transform="translate(-40.624 -154.048)"/>
    <path id="Path_18792" data-name="Path 18792" d="M170.762,555.062a1.029,1.029,0,0,1,.19-.608,63.7,63.7,0,0,1,3.766-5.668,1.437,1.437,0,0,1,1.141-.418c.608,0,1.027.229,1.027,1.446,0,1.1-.419,2.891-1.1,2.891-.38,0-.875-.989-1.255-.989-.571,0-.875,1.75-1.066,2.587a10,10,0,0,0,2.093.342h.38c2.168,0,3.5,1.179,3.5,2.967,0,3.233-3.233,6.2-5.553,8.1-1.445,1.179-2.929,2.206-4.792,2.206a1.637,1.637,0,0,1-1.788-1.6c0-1.864,2.548-4.107,4.184-5.135a.51.51,0,0,1,.342-.076h.419a1.5,1.5,0,0,1-.152.8c-.3.533-1.331,1.75-1.331,2.282,0,.457.114.457.494.457.533,0,2.169-1.408,2.625-1.94,1.179-1.369,3.081-3.5,3.081-4.983,0-.913-.913-1.407-2.13-1.407-.191,0-.419.114-.608.114-1.217-.038-3.462-.038-3.462-1.369" transform="translate(-46.998 -154.048)"/>
    <path id="Path_18793" data-name="Path 18793" d="M192.071,557.111c-.532-.761-.8-1.255-1.141-1.255a.987.987,0,0,0-.646.419,8.508,8.508,0,0,0-1.483,5.211,1.189,1.189,0,0,0,1.293,1.179c.761,0,1.75-.913,2.435-.913.228,0,.494,0,.494.457,0,1.217-2.586,2.51-3.994,2.51-2.51,0-2.738-3-2.738-4.26a7.244,7.244,0,0,1,3.043-6.2,3.214,3.214,0,0,1,2.054-.761c.837,0,1.179.495,1.179,1.522v.342a4.633,4.633,0,0,1-.494,1.75" transform="translate(-52.333 -155.489)"/>
    <path id="Path_18794" data-name="Path 18794" d="M206.975,556.033a6.473,6.473,0,0,0-.114.989c0,.874,1.636.342,1.636,1.293v.076c-.723,1.1-1.826,3.309-2.739,3.309-.761,0-1.1-.685-1.1-1.75a8.764,8.764,0,0,1,.114-1.407c.418-2.738.913-5.439,1.217-8.177,0-.114.037-.229.037-.38,0-.608-.228-1.217-.3-1.9a10.371,10.371,0,0,0-1.6,1.56c-1.445,2.243-2.853,4.526-4.3,6.808a1.126,1.126,0,0,1-.76.495c-.951,0-.723-1.9-.723-3.119a16.716,16.716,0,0,1,.19-2.776c.951-5.668,2.206-11.3,3.233-16.964.3-1.141.114-3.385,1.255-3.385a1.89,1.89,0,0,1,1.369,1.6,3.751,3.751,0,0,1-.076.685c-.456,5.173-1.635,9.966-2.548,14.873v.19a8.209,8.209,0,0,0,.114,1.1,3.791,3.791,0,0,0,1.1-.761c1.065-.989,1.56-2.4,3.195-2.4.723,0,1.75,1.255,1.75,2.4,0,.38-.075.8-.075,1.179a.409.409,0,0,0,.19.038c-.342,2.13-.646,4.26-1.065,6.428" transform="translate(-55.711 -149.085)"/>
    <path id="Path_18795" data-name="Path 18795" d="M214.558,555.836c.342-1.9-.076-5.819,2.472-5.819a1.533,1.533,0,0,1,1.522,1.559v.191c-.761,3.347-1.6,6.732-2.434,10.041-.191.723-1.027,1.141-1.56,1.407-.342-.495-.913-1.141-.913-1.711v-.266a.141.141,0,0,0-.114-.076c.38-1.788.685-3.5,1.027-5.326m4.108-12.97c.723,0,1.255.3,1.255.875,0-.153-.723,2.016-1.673,2.016-.229,0-.951-.8-1.179-.989.038-1.368.646-1.9,1.6-1.9" transform="translate(-59.985 -152.502)"/>
    <path id="Path_18796" data-name="Path 18796" d="M225.949,561.151c-1.179,0-2.891,1.749-3.766,1.749a1.492,1.492,0,0,1-1.293-1.332c0-1.065,3.005-4.488,3.005-5.743,0-.609-.685-.571-1.56-1.75.3-.153.646-.495.951-.495h.38a3.779,3.779,0,0,0,2.548-.875c.419-.342,1.332-.228,1.94-.267v.838c0,1.559-2.092,3.5-2.092,4.906,0,1.027,3.081.761,3.081,3.119,0,.114-.038.266-.038.38-.494,4.716-3.271,9.357-6.618,12.742-.722.761-2.853,2.51-3.765,2.51-.3,0-.723-.152-1.065-.19a5.879,5.879,0,0,1,.761-.874c4.336-3.424,6.808-7.912,8.6-13.275,0-.951-.38-1.445-1.065-1.445" transform="translate(-61.145 -155.192)"/>
    <path id="Path_18797" data-name="Path 18797" d="M239.512,553.534a1.087,1.087,0,0,1,1.141.989.969.969,0,0,1-.191.609,12.014,12.014,0,0,0-2.4,7.074,5.394,5.394,0,0,0,.685,1.712c.495-.342,1.217-.571,1.369-.989a17.478,17.478,0,0,0,1.75-6.58c0-.8-.38-1.635-.38-2.51,0-.608.228-.608.646-1.027,1.065,1.065,1.179,3.005,1.179,4.45,0,3.727-2.206,8.444-4.793,8.444-1.674,0-2.777-1.864-2.777-5.021.152-1.788,1.445-7.151,3.766-7.151" transform="translate(-66.226 -155.296)"/>
    <path id="Path_18798" data-name="Path 18798" d="M248.133,564.854c.418-2.967.951-5.858,1.293-8.786.19-1.522-.191-4.374,1.255-4.374,1.331.076,2.092,1.711,2.434,1.711.419,0,1.483-1.863,2.586-1.863,1.294,0,1.978,1.369,1.978,2.358a2.157,2.157,0,0,1-.038.494c-.532,3.081-1.94,9.472-5.4,9.472-.228,0-1.065.342-1.1.8-.761,3.88-1.027,7.76-2.32,11.487-.191.38-.8.608-1.179.913a3.946,3.946,0,0,1-.723-1.711c0-.3.038-.608.038-.874-.038,0-.076-.076-.152-.076Zm8.139-10.8a.935.935,0,0,0-.723-.8c-.989,0-2.054,3.005-2.7,4.374,0,.038-.037.114-.037.153,0,.685.761,1.483,1.559,2.4a18.212,18.212,0,0,0,1.9-6.124" transform="translate(-69.332 -154.94)"/>
    <path id="Path_18799" data-name="Path 18799" d="M272.723,556.033a6.474,6.474,0,0,0-.114.989c0,.874,1.636.342,1.636,1.293v.076c-.723,1.1-1.826,3.309-2.739,3.309-.761,0-1.1-.685-1.1-1.75a8.773,8.773,0,0,1,.114-1.407c.419-2.738.913-5.439,1.217-8.177,0-.114.037-.229.037-.38,0-.608-.228-1.217-.3-1.9a10.37,10.37,0,0,0-1.6,1.56c-1.445,2.243-2.853,4.526-4.3,6.808a1.126,1.126,0,0,1-.76.495c-.951,0-.723-1.9-.723-3.119a16.714,16.714,0,0,1,.19-2.776c.951-5.668,2.206-11.3,3.233-16.964.3-1.141.114-3.385,1.255-3.385a1.89,1.89,0,0,1,1.369,1.6,3.75,3.75,0,0,1-.076.685c-.456,5.173-1.635,9.966-2.548,14.873v.19a8.2,8.2,0,0,0,.114,1.1,3.791,3.791,0,0,0,1.1-.761c1.065-.989,1.56-2.4,3.195-2.4.723,0,1.75,1.255,1.75,2.4,0,.38-.075.8-.075,1.179a.409.409,0,0,0,.19.038c-.342,2.13-.646,4.26-1.065,6.428" transform="translate(-74.181 -149.085)"/>
    <path id="Path_18800" data-name="Path 18800" d="M290.115,552.591c-.57,0-.875-1.141-1.331-1.141-.647,0-2.967,4.07-3.842,5.82-.951,1.939-1.521,4.031-2.358,6.047-.57,1.369-1.179,1.483-2.016,1.977-.267-.494-.761-1.065-.761-1.56.152-2.092.494-4.146.761-6.2.228-1.826.152-7.265,2.586-7.265,1.027,0,1.483,1.712,1.712,2.928a13.633,13.633,0,0,0,1.293-1.293c1.1-1.369,2.282-3.8,3.956-3.8.8,0,.761.8,1.217,1.445-.342,1.407-.533,3.043-1.217,3.043" transform="translate(-78.604 -153.974)"/>
    <path id="Path_18801" data-name="Path 18801" d="M299.876,550.589a2.158,2.158,0,0,1,2.32,2.168c0,1.331-1.331,3.195-2.054,4.412-.913,1.484-2.853,2.016-2.853,3.956,0,.723-.114,1.788,1.141,1.788.761,0,1.445-.418,2.206-.418.418,0,.647.19.647.57,0,1.559-2.359,2.776-3.8,2.776-2.929,0-3.081-2.587-3.233-4.336.076-3.956,1.9-10.916,5.629-10.916m.152,2.13c-.837,0-1.369,2.168-1.673,3.043,0,.038-.038.038-.038.075,0,.153.266.495.456.495.571,0,1.407-1.864,1.978-2.738-.266-.342-.495-.875-.723-.875" transform="translate(-82.66 -154.672)"/>
    <path id="Path_18802" data-name="Path 18802" d="M313.238,557.821c-1.217,2.168-2.814,6.314-4.678,6.314-.875,0-1.141-.761-1.141-1.483,0-2.054.266-4.222.418-6.276l.228-1.9a1.352,1.352,0,0,1,1.407-1.293c.951,0,1.217.685,1.217,1.407,0,.912-.191,1.9-.191,2.815a9.048,9.048,0,0,0,.191.989,3,3,0,0,0,.837-.685l1.483-2.548a3.917,3.917,0,0,1,2.472-1.521c.76,0,.951.722.951,1.331a7.367,7.367,0,0,1-.076.913c-.457,3.651-.913,7.265-1.407,10.916a2.307,2.307,0,0,1-.532.989,3.665,3.665,0,0,1-.38-1.141,98.1,98.1,0,0,1,.76-10.536c-.114,0-.152-.076-.266-.152a18.375,18.375,0,0,0-1.293,1.864" transform="translate(-86.36 -155.4)"/>
    <path id="Path_18803" data-name="Path 18803" d="M322.039,555.836c.342-1.9-.076-5.819,2.472-5.819a1.533,1.533,0,0,1,1.522,1.559v.191c-.761,3.347-1.6,6.732-2.434,10.041-.191.723-1.027,1.141-1.56,1.407-.342-.495-.913-1.141-.913-1.711v-.266a.141.141,0,0,0-.114-.076c.38-1.788.685-3.5,1.027-5.326m4.108-12.97c.723,0,1.255.3,1.255.875,0-.153-.723,2.016-1.673,2.016-.229,0-.951-.8-1.179-.989.038-1.368.646-1.9,1.6-1.9" transform="translate(-90.179 -152.502)"/>
    <path id="Path_18804" data-name="Path 18804" d="M339.366,555.674a4.68,4.68,0,0,1-.076.685c-.342,2.206-.647,4.45-.913,6.657-.152,1.369-.342,2.929-1.255,2.929-.342,0-.647-.267-.989-.723-1.065-1.255-.38-2.4-1.027-2.4-.228,0-1.522,1.141-2.815,1.141a1.938,1.938,0,0,1-1.864-2.13,9.388,9.388,0,0,1,3.69-7.151,19.292,19.292,0,0,1,2.814-1.293c1.636.191,2.435.951,2.435,2.282m-3.424.076a1.268,1.268,0,0,0-.875.266c-.989,1.369-2.7,3.652-2.7,4.716,0,.19.19.875.646.875,1.217,0,2.814-3.119,3.918-4.907-.457-.723-.495-.951-.989-.951" transform="translate(-92.824 -155.459)"/>
  </g>
</svg>
