<svg xmlns="http://www.w3.org/2000/svg" xmlns:xlink="http://www.w3.org/1999/xlink" width="619.517" height="178.119" viewBox="0 0 619.517 178.119">
  <defs>
    <clipPath id="clip-path">
      <rect id="Rectangle_3624" data-name="Rectangle 3624" width="619.517" height="178.119" fill="none"/>
    </clipPath>
    <clipPath id="clip-path-2">
      <rect id="Rectangle_3625" data-name="Rectangle 3625" width="406.39" height="84.019" fill="none"/>
    </clipPath>
  </defs>
  <g id="Group_2090" data-name="Group 2090" transform="translate(-122.647 -2772.68)">
    <g id="Group_2086" data-name="Group 2086" transform="translate(122.647 2772.68)">
      <g id="Group_2085" data-name="Group 2085" transform="translate(0 0)" clip-path="url(#clip-path)">
        <path id="Path_21669" data-name="Path 21669" d="M0,91.594a24.5,24.5,0,0,0,8.278-1.4c.376-.86-.425-1.072-1.374-1.208.869-1.444,2.7-1.435,4.109-2.057,2.126,1.637,6.791-1.439,9.654-.193a12.223,12.223,0,0,1-2.774,2.569,1.911,1.911,0,0,0-.9.64,18.239,18.239,0,0,0-2.975,2.4c-.087.095.2,1.607-1.2,1.245a.39.39,0,0,0,.182.5c-1.55.422-2.908,1.06-4.086.93.853.874,2.493.32,4.518.076.8.209,2,.444,3.472.694a3.9,3.9,0,0,0-.487,1c-.64,1.064-2.527.248-3.531.758-.213,1.206,2.459-.191,2.6,1.323,1.806-.5,6.947-1,5.778,1.345a97.254,97.254,0,0,1,17.2,2.3,16.38,16.38,0,0,1-3.6,1.9c-5.422,5.91-8.6,8.64-12.433,14.282-.261.473-1.107.061-1.459.4.163.565-.5,1.585.53,1.675-.234.366-.953,0-1.152.434.834,1.546-.33,2.948-1.59,4.993a1.521,1.521,0,0,0,1.109.374c-2.553,2.078-.153,3.4-2.247,5.747,7.038.446,6.734,6.924,13.574,7.477.647-1.339,2.048-1.545,3.186-2.141-2.242-2.433-5.914-4.085-7.866-6.68.22-.83.859-1.026,1.5-1.217.779-.034-.7,1.17.57.867,1.145-3.068,5.309-.138,7.585.157.791-.108,1.206-.786,1.995-.9a7.459,7.459,0,0,0,5.591,1.057c2.577,1.354,6.269,2.9,9.151,1.656-3.825.271-7.41-1.082-9.183-3.015,1.49-1.274,2.337.5,3.561.6a1.92,1.92,0,0,0-1.259-1.471c1.91-1.721,2.257.664,3.328,1.121a5.82,5.82,0,0,1,6.552.333,13.6,13.6,0,0,0-1.806,1.187,4.3,4.3,0,0,1,.763,1.153,2.1,2.1,0,0,1-2.188.613c.254,1.469-1.873,1.734-3.188,2.141-.221,1.214,2.657-.134,2.187-.612.639-.055,1.026.281.5.317-.08.338.761.425.919.086a3.176,3.176,0,0,1-.969,2.888c2.246-.383,1.655,2.138,3.667,2.5.144.863-1.614.955-.886,1.271.478.141.668-.15.844-.465,1.862.492,2.75.315,4.362.944.605,1.044.546,2.451,3.055,2.446-.73,1.524-1.482,1.61-1.7,3.095,3.022,2.417,11.418-2.714,11.066,2.371,1.223-.653,1.573-1.42,1.352-2.312a39.039,39.039,0,0,1,15.672-1.53c-.657.6-1.009,1.662-2.034,1.707.356,1.007-.7,1.584-1.276,2.858a7.874,7.874,0,0,1,2.916-.814c-.081-.26-.286-1.022.653-.75a.917.917,0,0,0-.573-.862c.78-.237.937-.022,2.071-.352.549.091-.2.9.15,1.095a1.646,1.646,0,0,0,1.617-1.473c.942.544.625,0,1.455-.41.442-.107.182.683-.149.968a7.454,7.454,0,0,1,4.049,1.019c-1-.809,2.895-.383,1.076-.983,4.44-.287,6.3.014,10-.973.627.21-.554.372-.042.808,1.677-.8,4.132-.427,5.143-2.231a19.236,19.236,0,0,1,4.175.652c-.087.456-.457.47-.848.467.39.975,1.544-.541,2-.9,2.06.591,4.279-.028,5.589,1.057.183-1.029,1.163-.856,1.615-1.475.147.249.772.232.686.608-.623.7-.646-.456-1.34.145,2.31.451,6.473.281,7.695,2.064.989-.145.514-.357.768-1.011,1.463.18,1.107,1.354,2.906,1.348-.265-.7-1.455-.9-1.449-1.756,1.364.029,2.012-1.017,3.527-.757.549.168-.832.7.69.606-.317.827-1.2.793-1.426,1.762.741-.334,2.12-1.018,1.735-1.735.572.146.98.036,1.145-.432a5.352,5.352,0,0,0,1.991,1.262c-.6.736-.918-.244-1.532-.141-.041,1.2,2.244,1.123,3.4,1.667a3.526,3.526,0,0,0-1.565-1.5,2.248,2.248,0,0,1,2.26-.065.958.958,0,0,1,.043-.806,38.784,38.784,0,0,1,4.366.941c.272-.143.541-.295.812-.444-.156.283-.247.524.548.6a2.84,2.84,0,0,1,.335-.556c.367.263.563.358,1.408-.119.221.14.449.276.38.575-.319.533-1.376-.056-1.763.378-.062.431,1.8.156,2.26-.061-.405.7,1.412.2,1.881.97,4.087-.441,8.327,2.812,12.86,1.744a4.351,4.351,0,0,0,1.911.715,1.966,1.966,0,0,0,.769-1.011c.495.024,1.113.233,1.344-.145.319.114,1.084.936.151,1.094-.11.6,1.661-.223.957-.722.43-.8,1.722-.3,2.683-.294-.1.864-1.159.272-1.571.666,2.108.279,3,.214,4.86,1.259,1.139-.27-1.13-.268-1-.631a6.287,6.287,0,0,1,2.861-1.58c.67.172,1.173.534,1,1.145,1.364-.989,5.627-1.006,5.938.281,1.642-1.7,3.283-.143,5.059-.617.625.211-.553.373-.042.809,1.276-.328,2.23-.437,2.335.486.881-.9,1.921.381,2.727-1.1.134.525.573.782,1.033-.174.249.935,2.048,0,1.8.977,1.987-1.564,4.37.541,5.745-.013.491.451.134,1.369,1.258,1.474,2.766-1.038,3.056-.175,5.705.794,1.141-.273-1.2-.229-.57-.865,6.684,1.139,15.037.951,20.168,4.838-.664,1.044-1.346.03-1.687.926,1.169.572,1.536.371,2.411,1.035.423-.562-.422-.425-.266-.836a1.985,1.985,0,0,1,1.457-.408c.625.209-.553.372-.041.808.794-.452,1.318-.064,1.416.4,1.153.155.2-.2.654-.752.88.041.6.719.339,1.387.6.182.747-.321.962-.726,3.267,1.592,8.429,1.663,12.4,2.229.762.1,1.6-.042,1.345-.148,1.751.728,5.2,1.112,6.282-.5-.142,1.641,2.178-.222,3.444.858.328-1.8,3.793-1.175,4.524-.122a4.721,4.721,0,0,1-4.215.152c1.093,1.931,6.258.172,6.542,2.5,2.908.564,5.421-.84,7.774.446.062-.686.083-1.236,1-1.532,1.455.2-.054.8.223,1.645,3.347-.3,5.977,2.331,10.49,1.512.928.327-.22.583.15,1.092,3.223.707,4.675.076,6.015.826a2.184,2.184,0,0,1,2.49-.577c.086-.311-.46-.275-.8-.348.1-.718.855-.443,1.265-.695.248.263-.513.709.993.632.052-.418-.864-.307-.147-1.094-1.162-.58-2.585.206-1.986-1.266-2.388,1.934-2.5-1.543-5.4-.771,1.181-1.914,2.551,1.04,3.714-.469,1.013.27.982,1.111,2.223.746.167-.484-.968-.253-1-.632.772-.6,2.193.091,2.757.253-.121.252-.464.17-.728.2.334.251,2.466.694,1.954-.088.479.262,1.092.447,1.187.919.828.123,1.229-.3.96-.722.679.144.4.769-.348.78.6.688,1.49-.292,2.987-.265-2.536,1.226,1.957-.438,2.45.226a1.765,1.765,0,0,0-.652.752c.636-.052.693-.987,1.574-.668.614,1.284,4.815.315,6.772,1.979l.349-.782c1.019-.1,1,.371,1.723.431a2.356,2.356,0,0,1-1.268.695c.038.332,1.231-.064,1.722.43.091-.508-.665-.552-.034-1.357a3.4,3.4,0,0,0,2.873-.006c.763.138-.618.409-.463,1.042,1.438-.54,3.179-1.163,2.525.773,1.9-.467,1.712,2.6,5.316,2.384-.668-.693-.127-.274.656-.752.342.337.418.818.76,1.154,1.143-.318,1.067-.453,2.26-.062.346-.705-.274-.569.464-1.04.455.911,1.023.7,1.872,1.524.1-.686.811-1.372,1.764-.376.566-.742,2.015-.14,2.417-1.13.841,0-.207,1.032.879.892.58-1,.748-.894.39-1.588a3.413,3.413,0,0,0,1.954-.088c-.217.831-1.2.5-1.31,1.5,1.727.136,5.892.145,6.212-1.052.38.119-.038.677-.156,1.066,1.086.192,1.35-.859,1.921-1.445-1.34.145-.575-.862-1.915-.718,2.445-1.137,2.917.137,5.136-.068a2.493,2.493,0,0,1-2.727,1.1c.291.429,1.159.544,1.912.718.17-.47.621-.516.771-1.013,1.405-.181.951.657,1.915.717.248-.463-.133-.58.158-1.067,2.122,3.583,6.954.205,9.909,2.81-.814-.713-.066-1.23-1.027-1.989.222-.32.726-.209.614.055.788-2.347,3.842-.888,5.555-.3-.025-.9-1.376-1.077-2.177-1.556.79-.514,2.749-.6,1.912.718,1.153-.308,1.391.033,2.451.224,1.048-.335-1.6-.278-1.183-.919,1.254-1,4.222-.16,4.522-.123.786.095,1.5.221,1.227.112,1.463.585,2.733-.5,3.715-.471.363.012.354.931,1.183.924,2.257-.023,7.091-.087,9.766,1.708.353-.181.5-.69.96-.72-.079-.9-.991.472-1.65.119.868-1.323,3.013-.945,4.144-.7-.315.242-.824.2-.961.722,1.583-.139,4.777-1.578,5.016.191.6.181.749-.318.963-.723a6.464,6.464,0,0,1,2.028.459c-.085.451-.457.468-.847.465.738,1.282,2.425-.228,3.754.883.276-1.032,1.557-.546,2.113-1.157,3.465,1.371,10.507,2.256,15.7,1.993,1.559,1.786,4.686.233,6.7,1.428.781-.273,1.738-.271,2.111-1.159.442.52.646.67,1.726.43.758.136-.622.406-.468,1.04,2.675-.254,2.649,1.983,4.7,2.328.412-1.707-1.558-.966-1.945-2.075,1.3-.308,3.17-.74,4.217-.151a.952.952,0,0,1,.038-.808c.7,1.147,2.272.909,4.174.657.4.154-.267.32-.348.78,4.866-.334,8.775,1.261,14.328.779.38.119-.037.675-.158,1.066a18.105,18.105,0,0,0,3.487.052c-1.963.916,1.758.114,2.376-.322.549.091-.206.9.149,1.1,1.212-.053.241-1.273,1.615-1.475.253,1.183,1.713.717,3.213,1.38.931-.213-1.06-.442-1.3-.661.342-1.224,1.969-.5,3.105-.524.686.017-.271.933-.273,1.326,1.229-.022,1.626-1.311,3.222-.784.743.335-.754.653-.158,1.066,1.563-1.126,4.069-.237,6.094-.79.089-.311-.46-.274-.8-.346.6-.735.919.248,1.532.144a1.356,1.356,0,0,1-.845.463,11.755,11.755,0,0,0,3.6-.208c1.06-.5-.566-.953.7-1.559-.1.409-.495,1.486,1.187.919-.112-.593-1.033-.745-.11-1.9a.671.671,0,0,0,.73-.2c1.314.17-.917,1.2.456,1.122.216-1.7,2-1.041,3.148-1.332.218-.582-1.251-.233-1.724-.43.331-.806,1.269-.69,2.187-.611,1.164-.4-1.758-.2-1.607-.692,1.91-.208,6.567.118,6.77,1.981.733-.051,1.933-.446,1.725.429,2.68-1.383,5.236.521,6.666.072-.2-.411-.993-.5-1.18-.922.35-.482.948-.589,1.19-1.242,3.9.6,9.185-.512,12.371.869,3.112-.957,3.871-.222,7.32-.676-3.922-.5-10.951-.211-16.089-.4-1.254-.045-2.921-1.494-4.024.442-1.163-.149-2.781-.046-2.832-.8-.813.076-1.1.947-2.185.611-.228-.073-.193-.289-.5-.316-.578-.082.908-.923.273-1.327-.578-.145-1.87,1.767-1.458.405-4.3,1.117-8.377.361-13.943-.2-1.664,1.3-4.528.515-5.861.268.273-.744,1.86.5,1.876-.637a5.744,5.744,0,0,1-2.332-.487c.138,1.964-3.767.658-4.754.644.375-.738,1.489-.356,2.376-.319-2.268-2.236-7.558.088-11.033-1.018-.172.608-1.013.207-1.263.694-2.278-1.674-5.941-.267-8.349-1.311-5.05.591-6.673.017-11.337-1.047a1.956,1.956,0,0,0,.769-1.012c.166,1.165,1.219-.1,2.073-.349a1.2,1.2,0,0,0,.8.346c-.71.515-1.9.31-2.416,1.128.962.008,1.454-.7,2.684-.294.8-1,.171-1.446,1.808-1.187-.595-.264-.439-.937-1.495-.948.764-1.747,7.272-.013,3.91-.181.492.781,3.906-.1,2.716,1.065,1.973.623,3.046-.694,4.639-.387,1.248.24,1.276,1.451,2.368,1.842-.047-.014.275-.5.23-.519.716.229,1.865,1.776,2.875,0-1,.491-2.354-.017-1.8-.979,1.13,1.2,6.6-.125,9.382,1.136.376-.006.474-.449.657-.751,3.3,1.186,8.533-.111,11.026,1.019q.177-.392.35-.78c.548,1.033,1.45.767,2.95.54-1.287-.417-.119-.969-2.1-1,1.909-.195,3.565.449,5.365-.589-.139.373-.277.743-.657.752.28.389,2.349-.2,3.108-.525.206.3,1.949.739.762,1.155,2.233.1,4.629.42,7.047.649.421-1.029-.978-.916.2-1.876-2.512-.042-4.823.684-5.891-1.086-.382.01-.472.449-.654.749-.308-.092.019-.533-.383-.573.987-.515,4.681-1.11,4.594.424.959-.293,2.188-.174,3.106-.526.413-1.243.768-2.017-1.217-2.276-.183.493.933.272.574.864-.1.73-.843.467-1.079.982-.55-.235-2.745-.57-1.374-1.207-.651-.566-.859.5-1.689.924-.278-.693-.345-1.007-1.415-.4-.3-.292-.3-.75-.458-1.121a49.528,49.528,0,0,1-8.577-.794c-.035.217.193.288.073.551-1.008-.637-1.747-.73-4.059-.917.14-.372.281-.74.657-.752a32.813,32.813,0,0,1-7.2-1.744c-.247,1.457-2.134-.345-3.642,1.016-.21-.607-1.573-.577-1.259-1.469-1.395-.01.332.6-.887,1.269-1.158-.22-1.9-1.715-3.212-1.378-.091.024-.519.771-.657.751-.758-.124-.879-.891-1.8-.977.093.011.031.537.075.548-.409-.1-1.1-.637-1.606-.688-.854-.09-2.243.917-3.224.786-.878-.119-1.028-1.305-1.868-1.526-1.473-.387-3.568,1-4.406-.135-.917-.081-1.345.577-2.187.609-2.668-.977-5.476-1.166-8.612-2.147-.034-.613-.708-2.371.468-2.39-1.88-.175-4.885-1.093-2.29-2.109.729-.288,1.456.328,1.108.374,2.344-.305,5.375-.3,7.122,1.2,7.31-.127,13.362,1.608,20.381.8.91-2.682,5.805-1.449,7.207-.422,5.6-.147,10.583,1.2,16.425,1.788.523-.307.3-.4.348-.778.691.013.882.3.572.86,1.476-.787,4.958.634,5.293-1.133.521.367.238,1.177,1.8.979.022-.854.234-.594.7-1.564-1.464.162-1.589.569-1.605-.69,1.647-.091,3.613-.769,5.364-.586-.1.388.918,1.57-.272,1.328.4.866,1.648-.672,2.11-1.157,2.416.172,4.758-1.073,5.823.538,1.517-1.261,3.91-.7,4.533-2.291.758.137-.622.413-.468,1.043,2.306.331.411-1.119,1.806-1.187-2.439-1.155-5.477,2.014-7.088.156.216.376-.062.423-.347.783-.716-.934-4.07,1.208-3.562-.6-2.219.7-5.085,1.266-7.511.389-.073.758-.73.634-.886,1.271-3.179-.705-6.171.515-8.546.565-5.616-2.08-12.176.546-17.885-1.379,1.472-2.1,2.627-3.17,1.78-4.707.156-.2.426-.233.541-.494.863.358,2.022,1.1,3.181.024-2.095.453-2.761-.589-4.365-.94.407-.822-.238-1.356-1.029-1.994.583-.713,1.607-.758,2.421-1.128-1.148-.528-1.95-.195-2.72-1.061,4.155.039,6.662.416,11.612-.283-.131.53-.425.807-.96.725.315.591,2.471.282,2.989-.268,1.014,1.842,3.491.528,5.127,2.095a3.286,3.286,0,0,1-3.339,1.047c-.376.449-.641,1.065-1.192,1.245-.33.811.891-.159.882.142.378-.678,1.93-1.212,3.184-1.39.3.094-.024.535.379.574-.992.99-1.3.334-2.8.554-.186,1.2,1.841-.631,1.91.72-.96,1.417-2.853.762-3.947.988,1.635,1.066,6.224-.064,8.7.527,1.311-.56,2.855-.42,4.087-.73-.543-.327-1.393.576-1.176-.082.4-.019.319-.27.233-.52.455-.044.751-.316,1.343-.146-.108.244-.218.486-.326.728a2.644,2.644,0,0,0,2.056-2.464c-1.4-.672-1.271-2.18-4.206-2.009,2.584-2.177,4.5,1.36,5.895,1.083.722-.919-1.436-.258-.34-1.385-.909.226-1.646.094-1.856-.455.705.131,1.423.265,2.148.391a1.135,1.135,0,0,1-.1.352c.3-.089.6-.159.888-.221a21.049,21.049,0,0,0,6.256.314c.054-.009.179-.516.23-.521.133-.008,1.525.874,1.034-.175,1.717,1.094,4.617.938,6.939,1.329a2.23,2.23,0,0,1,1.2.8c1.213.195.108-.367.767-1.01.451.05.882.11,1.316.168a.479.479,0,0,0-.153.453c.563-.058,1.113-.145,1.651-.238,4.145.642,7.631,1.508,11.241,1.722.023,1.769,3.319,2.171,4.818,2.068,3.812-.261,7.534,2.646,10.3,1.219,2.855,1.928,7.939.237,11.145.761.712-1.309.083-1.879-.066-2.714-2.819-.754-5.994-.154-6.583-1.689,4.857-.058,7.606-2.544,11.734-2.708.435-.21.525-.949,1.27-.7a2.368,2.368,0,0,0,.15-.671,7.581,7.581,0,0,0,3.452-.464,1.056,1.056,0,0,1,.7.018,12.927,12.927,0,0,0,6.537.051c.07-.016-4.219-.1-10.772-.207a1.914,1.914,0,0,0-.983-.975c1.48.226,2.553-.41,5.367-.584-1.271-.463,1.514-1.05-.452-1.126.618-.578,2.1,0,2.029.457,1.478-.232,1.493-.712,2.8-.553.338-.763,1.686-.944,1.311-1.5.563.017.5.379,1.108.372.4-.613-.308-.614.272-1.329-2.175.338-3.292,2.285-5.564,2.463.426-.949,1.966-.211,2.227-1.417-.742.082-.215-.537-.685-.6a9.034,9.034,0,0,1,3.594-2.064,4.415,4.415,0,0,1,.655.313.637.637,0,0,1,.339-.435.3.3,0,0,0,.152-.127,6.836,6.836,0,0,1,3.465.362c1.733-.781.66-.946,1.466-2.571-.408-.037-.817-.076-1.227-.113.718-.25,1.161-.673.041-.807,1.1-1.388,2.734-1.963,4.151-2.866-.14-1.668,7.071-6.1,1.981-6.583.125-.8-1.871-1.451-1.45-1.756-2.1-.762,20.537-.338,26.385-1.307,3.492.216,5.326.271,3.707,0,.295-.57,1.347.011,1.954-.092l-.015-.022a3.322,3.322,0,0,0-2.581-.943c-1.068-.01-2.254-.023-3.36-.028-1.093-1.066-.7-3.441-3.829-2.995-.153.347-.309.694-.462,1.039-2.529-.779-5.223.732-8.034,1.058a1.3,1.3,0,0,1-.293-.3,1.135,1.135,0,0,0-.938-.264c-.58.056-.929-.012-.968-.287-.02-.134-.22-.257-.475-.318,2.014-1,4.687-1.015,5.853-3.308-.473-.069-1.224.016-1.108-.374.1-.865,1.16-.273,1.575-.668.183-.61-.553-.671-1.108-.372a2.368,2.368,0,0,0,.566-.745c.246.051.495.1.73.161a.541.541,0,0,1,.123-.381l-.761-.071c.208-1.155-1.494-1.912-.1-3.787-1.246.093-2.384.323-1.8-.975-1.628.28-3.152.088-2.6-1.323-3.722-.037-6.023,4.129-9.21,3.48a2.245,2.245,0,0,0-.273.181c-.8-.066-1.516-.117-2.076-.149a6.855,6.855,0,0,0,1.681.478l-.058.05c-3.659-.517-3.452-.63-1.623-.528a5.967,5.967,0,0,1-1.373-.807c-.116.264-.231.522-.349.783A15.132,15.132,0,0,0,581.33,106c.175-.2.495-.3,1.176-.154.395-.543-.215-.537-.683-.606a1.787,1.787,0,0,0,.653-.753c.375.538.03.5,1.108.375.113-.557.515-.669.77-1.013-.38-.93,1.34-2.367,2.766-1.909-.425-1.188,1.517-1.882,2.577-2.2.069-.557-.234-.6-.8-.344,2.662-3.755,8.3-1.776,13.223-1.757a.612.612,0,0,1-.534.493,15.692,15.692,0,0,0,3.905-.183c.342.075.05.5-.04.807l14.069-12.231a24.473,24.473,0,0,0-8.277,1.4c-.376.86.426,1.072,1.373,1.208-.868,1.445-2.7,1.435-4.109,2.058-2.125-1.638-6.79,1.438-9.654.192a12.2,12.2,0,0,1,2.774-2.569,1.923,1.923,0,0,0,.9-.64,18.191,18.191,0,0,0,2.975-2.4c.087-.095-.2-1.607,1.2-1.245a.389.389,0,0,0-.181-.5c1.548-.423,2.907-1.06,4.085-.93-.853-.874-2.494-.32-4.518-.076-.8-.209-2-.444-3.471-.694a3.9,3.9,0,0,0,.486-1c.641-1.064,2.526-.248,3.531-.758.213-1.206-2.459.192-2.6-1.323-1.808.5-6.946,1-5.778-1.345a97.278,97.278,0,0,1-17.2-2.3,16.394,16.394,0,0,1,3.6-1.9c5.421-5.911,8.6-8.639,12.432-14.282.262-.474,1.107-.061,1.458-.4-.162-.565.5-1.585-.53-1.675.235-.366.954,0,1.153-.434-.833-1.546.33-2.948,1.59-4.993a1.523,1.523,0,0,0-1.109-.374c2.554-2.078.153-3.4,2.247-5.747-7.038-.446-6.734-6.923-13.574-7.477-.646,1.339-2.049,1.545-3.187,2.141,2.243,2.433,5.915,4.085,7.868,6.68-.22.83-.86,1.026-1.5,1.217-.78.034.7-1.17-.57-.867-1.146,3.067-5.308.138-7.585-.157-.791.108-1.206.786-1.995.9a7.455,7.455,0,0,0-5.592-1.057c-2.577-1.354-6.268-2.9-9.15-1.656,3.825-.271,7.41,1.082,9.184,3.016-1.491,1.273-2.339-.5-3.562-.6a1.919,1.919,0,0,0,1.26,1.471c-1.911,1.721-2.258-.664-3.329-1.121a5.821,5.821,0,0,1-6.552-.333,13.544,13.544,0,0,0,1.807-1.187,4.263,4.263,0,0,1-.764-1.153,2.1,2.1,0,0,1,2.189-.612c-.255-1.469,1.872-1.734,3.187-2.141.221-1.214-2.657.134-2.186.612-.641.055-1.026-.281-.5-.316.081-.339-.762-.426-.919-.087a3.175,3.175,0,0,1,.97-2.888c-2.247.383-1.656-2.138-3.667-2.5-.145-.863,1.614-.955.886-1.271-.479-.142-.669.149-.845.465-1.861-.492-2.749-.315-4.363-.944-.6-1.044-.545-2.452-3.056-2.446.733-1.525,1.483-1.61,1.7-3.095-3.021-2.417-11.417,2.715-11.065-2.371-1.223.653-1.573,1.42-1.352,2.312a39.035,39.035,0,0,1-15.671,1.53c.656-.6,1.008-1.662,2.033-1.707-.355-1.008.7-1.584,1.277-2.858a7.856,7.856,0,0,1-2.915.813c.08.261.285,1.023-.654.751a.917.917,0,0,0,.574.862c-.781.237-.938.022-2.073.352-.549-.092.206-.9-.149-1.095a1.646,1.646,0,0,0-1.616,1.473c-.943-.544-.625,0-1.456.41-.442.107-.182-.683.148-.968a7.462,7.462,0,0,1-4.048-1.019c1,.809-2.895.383-1.076.983-4.44.287-6.3-.014-10,.973-.628-.21.555-.372.042-.808-1.677.8-4.132.427-5.143,2.231a19.214,19.214,0,0,1-4.176-.652c.086-.456.457-.47.847-.467-.39-.975-1.543.541-2,.9-2.058-.591-4.277.027-5.588-1.056-.182,1.028-1.164.855-1.616,1.474-.147-.249-.77-.232-.685-.607.623-.7.647.455,1.339-.146-2.31-.451-6.472-.281-7.693-2.063-.989.145-.515.357-.769,1.011-1.462-.18-1.107-1.354-2.906-1.349.265.7,1.455.9,1.449,1.757-1.366-.029-2.012,1.017-3.527.757-.549-.168.831-.7-.69-.606.316-.827,1.2-.793,1.425-1.762-.741.334-2.119,1.018-1.735,1.735-.571-.146-.979-.036-1.144.431a5.346,5.346,0,0,0-1.99-1.262c.6-.736.917.244,1.531.141.04-1.2-2.244-1.123-3.4-1.667a3.529,3.529,0,0,0,1.565,1.5,2.246,2.246,0,0,1-2.26.066.951.951,0,0,1-.042.806,38.8,38.8,0,0,1-4.367-.941c-.271.143-.54.295-.812.444.157-.283.249-.524-.547-.6a2.837,2.837,0,0,1-.334.556c-.368-.263-.563-.359-1.409.119-.222-.14-.449-.276-.379-.575.319-.533,1.375.056,1.764-.378.062-.431-1.8-.156-2.26.061.405-.7-1.413-.2-1.882-.97-4.088.441-8.327-2.812-12.86-1.744a4.355,4.355,0,0,0-1.913-.715,1.963,1.963,0,0,0-.767,1.011c-.5-.024-1.113-.233-1.344.145-.319-.114-1.084-.936-.151-1.093.11-.6-1.661.222-.957.721-.43.8-1.721.3-2.683.294.1-.864,1.16-.272,1.571-.666-2.108-.279-3.006-.214-4.861-1.259-1.139.269,1.13.268,1,.631a6.282,6.282,0,0,1-2.861,1.58c-.67-.172-1.174-.534-1-1.145-1.363.989-5.627,1.006-5.937-.281-1.643,1.7-3.283.143-5.06.617-.624-.211.554-.373.042-.809-1.275.328-2.229.437-2.335-.486-.88.9-1.921-.381-2.725,1.1-.136-.525-.574-.782-1.034.174-.248-.936-2.047-.006-1.8-.977-1.988,1.564-4.371-.541-5.746.013-.49-.451-.134-1.369-1.259-1.474-2.766,1.038-3.056.175-5.705-.794-1.14.273,1.2.229.571.865-6.685-1.139-15.038-.951-20.169-4.838.665-1.044,1.346-.03,1.688-.926-1.169-.572-1.535-.371-2.41-1.035-.424.562.42.424.266.836a1.989,1.989,0,0,1-1.457.408c-.626-.209.551-.372.041-.808-.8.452-1.319.064-1.416-.4-1.154-.155-.206.2-.655.752-.88-.041-.6-.719-.339-1.387-.6-.182-.748.32-.963.726-3.266-1.593-8.429-1.663-12.4-2.229-.762-.1-1.6.042-1.344.148-1.752-.728-5.2-1.112-6.282.5.142-1.641-2.18.222-3.444-.858-.328,1.8-3.793,1.175-4.524.122a4.721,4.721,0,0,1,4.215-.152c-1.093-1.931-6.258-.172-6.543-2.5-2.907-.564-5.42.84-7.775-.446-.061.686-.081,1.236-1,1.532-1.455-.2.054-.8-.223-1.645-3.348.295-5.978-2.331-10.49-1.512-.928-.327.221-.583-.149-1.092-3.224-.707-4.675-.076-6.015-.826a2.183,2.183,0,0,1-2.49.577c-.086.311.46.275.8.348-.1.718-.855.443-1.267.695-.246-.263.515-.709-.991-.632-.052.418.865.307.147,1.094,1.161.58,2.585-.206,1.986,1.266,2.387-1.934,2.5,1.543,5.4.77-1.181,1.915-2.552-1.039-3.715.47-1.012-.27-.981-1.111-2.222-.746-.167.484.967.253,1,.632-.773.6-2.194-.091-2.758-.253.121-.252.465-.17.729-.2-.334-.251-2.466-.694-1.954.088-.479-.263-1.093-.447-1.187-.919-.829-.123-1.229.3-.961.722-.679-.144-.4-.769.349-.78-.605-.689-1.491.292-2.987.265,2.535-1.226-1.957.438-2.45-.226a1.77,1.77,0,0,0,.652-.752c-.636.052-.693.987-1.574.668-.615-1.285-4.815-.315-6.772-1.979-.116.26-.231.519-.35.782-1.019.1-1-.371-1.722-.431a2.353,2.353,0,0,1,1.268-.695c-.038-.332-1.233.064-1.722-.43-.092.508.665.552.032,1.357a3.394,3.394,0,0,0-2.871.006c-.763-.138.619-.409.463-1.042-1.438.54-3.179,1.163-2.525-.773-1.9.467-1.712-2.6-5.317-2.384.669.693.128.274-.655.752-.342-.337-.418-.818-.76-1.154-1.144.318-1.067.453-2.261.062-.345.705.275.569-.464,1.04-.454-.911-1.022-.7-1.872-1.524-.1.686-.811,1.372-1.763.376-.567.742-2.017.14-2.418,1.13-.841,0,.207-1.032-.878-.892-.58,1-.748.894-.39,1.588a3.412,3.412,0,0,0-1.954.088c.217-.831,1.2-.5,1.31-1.5-1.727-.136-5.893-.145-6.212,1.052-.38-.119.036-.677.156-1.066-1.086-.192-1.35.859-1.921,1.445,1.34-.145.575.862,1.915.718-2.445,1.137-2.918-.137-5.136.068a2.491,2.491,0,0,1,2.726-1.1c-.29-.429-1.159-.544-1.912-.718-.17.47-.621.516-.77,1.013-1.405.181-.952-.657-1.916-.718-.247.464.133.581-.158,1.068-2.121-3.583-6.954-.205-9.908-2.81.814.713.066,1.23,1.027,1.989-.222.32-.727.209-.615-.055-.787,2.347-3.841.888-5.555.3.025.9,1.377,1.077,2.177,1.555-.79.515-2.749.606-1.911-.717-1.153.308-1.392-.032-2.452-.224-1.048.335,1.606.278,1.183.919-1.254,1-4.22.16-4.521.123-.787-.1-1.5-.221-1.228-.113-1.464-.585-2.733.5-3.716.471-.362-.012-.353-.931-1.183-.924-2.256.023-7.09.087-9.764-1.708-.354.181-.5.69-.96.72.079.9.991-.472,1.649-.119-.869,1.323-3.012.945-4.144.7.316-.242.825-.2.962-.722-1.584.139-4.777,1.577-5.016-.191-.6-.181-.749.318-.962.723a6.457,6.457,0,0,1-2.029-.459c.085-.451.457-.468.846-.465-.737-1.282-2.424.228-3.753-.884-.278,1.033-1.557.547-2.114,1.158-3.465-1.371-10.5-2.256-15.7-1.993-1.559-1.786-4.687-.233-6.7-1.428-.78.273-1.737.271-2.111,1.159-.441-.52-.645-.67-1.724-.431-.758-.136.621-.406.465-1.039-2.673.253-2.647-1.985-4.7-2.33-.411,1.708,1.559.967,1.946,2.076-1.3.308-3.17.74-4.217.151a.957.957,0,0,1-.039.808c-.7-1.147-2.272-.909-4.173-.657-.405-.154.267-.32.348-.78-4.866.334-8.775-1.262-14.329-.779-.379-.119.037-.675.158-1.066A18.107,18.107,0,0,0,158.8,1.1c1.963-.916-1.757-.113-2.375.322-.549-.091.207-.9-.149-1.1-1.212.053-.241,1.273-1.615,1.474-.254-1.183-1.713-.717-3.213-1.38-.93.213,1.061.442,1.3.661-.343,1.224-1.97.5-3.107.524-.685-.017.272-.933.274-1.326-1.23.022-1.625,1.31-3.221.784-.743-.335.753-.653.158-1.066-1.563,1.126-4.068.237-6.094.79-.089.311.459.274.8.346-.6.735-.918-.248-1.531-.144a1.359,1.359,0,0,1,.844-.463,11.724,11.724,0,0,0-3.6.208c-1.06.5.567.952-.7,1.559.1-.408.495-1.486-1.186-.919.111.593,1.033.745.109,1.9a.669.669,0,0,0-.729.2c-1.314-.169.917-1.2-.457-1.123-.217,1.705-2,1.042-3.148,1.333-.217.582,1.252.233,1.724.431-.33.806-1.269.69-2.186.611-1.163.4,1.758.2,1.607.692-1.91.207-6.566-.118-6.771-1.981-.733.051-1.932.446-1.724-.429-2.68,1.383-5.237-.521-6.667-.072.206.411.994.5,1.182.922-.352.481-.949.589-1.192,1.242-3.9-.6-9.183.512-12.37-.869-3.112.957-3.871.222-7.321.676,3.923.5,10.952.211,16.091.4,1.253.045,2.919,1.494,4.024-.442,1.163.148,2.781.046,2.832.8.812-.076,1.1-.947,2.183-.611.228.072.194.289.5.317.577.081-.909.922-.274,1.326.577.145,1.869-1.767,1.458-.405,4.3-1.117,8.375-.361,13.943.2,1.664-1.3,4.529-.515,5.862-.268-.275.744-1.861-.5-1.878.637a5.75,5.75,0,0,1,2.333.487c-.138-1.964,3.768-.658,4.753-.644-.375.738-1.489.356-2.376.319,2.268,2.236,7.557-.088,11.032,1.018.172-.608,1.014-.207,1.264-.694,2.278,1.674,5.94.267,8.348,1.311,5.051-.591,6.674-.017,11.338,1.047a1.946,1.946,0,0,0-.768,1.012c-.167-1.165-1.219.1-2.074.349a1.2,1.2,0,0,0-.8-.346c.71-.515,1.9-.31,2.416-1.128-.962-.008-1.453.7-2.683.294-.8,1-.172,1.446-1.809,1.187.594.264.439.937,1.495.948-.765,1.746-7.273.013-3.911.181-.491-.78-3.905.1-2.715-1.065-1.973-.623-3.046.694-4.639.387-1.248-.24-1.277-1.451-2.368-1.841.047.013-.274.5-.23.518-.716-.229-1.865-1.776-2.875,0,1-.491,2.355.017,1.8.979-1.127-1.2-6.6.125-9.382-1.136-.375.006-.472.449-.654.751-3.3-1.186-8.534.111-11.027-1.019l-.349.78c-.547-1.033-1.449-.767-2.949-.54,1.286.417.116.969,2.1,1-1.91.195-3.567-.449-5.365.589.138-.373.275-.743.656-.751-.281-.39-2.349.2-3.107.524-.207-.3-1.95-.739-.762-1.155-2.235-.1-4.631-.42-7.047-.649-.422,1.029.977.917-.2,1.876,2.512.042,4.822-.684,5.89,1.086.383-.01.473-.449.655-.749.307.092-.019.533.382.573-.987.515-4.68,1.11-4.593-.424-.96.293-2.188.174-3.107.526-.411,1.243-.768,2.016,1.218,2.276.183-.493-.933-.272-.574-.864.1-.73.842-.467,1.079-.983.55.236,2.745.571,1.373,1.208.654.566.86-.5,1.691-.924.277.693.345,1.007,1.414.4.3.292.3.75.457,1.12a49.656,49.656,0,0,1,8.58.8c.034-.217-.194-.288-.074-.551,1.006.637,1.747.73,4.059.917-.141.372-.281.74-.656.752a32.816,32.816,0,0,1,7.2,1.744c.246-1.457,2.134.345,3.643-1.016.209.607,1.573.577,1.258,1.469,1.394.01-.333-.6.887-1.269,1.159.22,1.9,1.715,3.212,1.378.091-.024.519-.771.657-.751.757.124.878.891,1.794.977-.093-.011-.031-.537-.074-.548.408.1,1.095.637,1.606.688.855.09,2.242-.917,3.223-.786.879.119,1.029,1.305,1.869,1.526,1.473.387,3.568-1,4.407.135.917.081,1.344-.577,2.186-.609,2.668.977,5.476,1.166,8.611,2.147.034.612.708,2.371-.468,2.39,1.881.175,4.886,1.093,2.291,2.109-.73.288-1.456-.328-1.108-.374-2.345.305-5.376.3-7.122-1.2-7.31.127-13.362-1.608-20.381-.8-.91,2.682-5.805,1.449-7.207.422-5.6.147-10.583-1.2-16.426-1.788-.522.306-.3.4-.348.778-.69-.013-.882-.3-.572-.86-1.476.787-4.959-.634-5.294,1.133-.52-.368-.238-1.177-1.794-.979-.023.854-.236.594-.7,1.564,1.465-.162,1.59-.569,1.606.69-1.647.091-3.612.769-5.364.586.1-.388-.918-1.57.272-1.328-.4-.866-1.649.672-2.109,1.157-2.418-.173-4.759,1.073-5.823-.538-1.517,1.26-3.909.7-4.531,2.291-.758-.137.621-.413.466-1.043-2.305-.332-.411,1.119-1.806,1.187,2.44,1.155,5.477-2.014,7.089-.156-.218-.376.061-.423.346-.783.715.934,4.07-1.208,3.562.6,2.219-.7,5.084-1.266,7.511-.389.072-.758.729-.634.886-1.271,3.179.705,6.172-.515,8.545-.565,5.618,2.079,12.177-.546,17.886,1.379-1.471,2.1-2.626,3.17-1.78,4.707-.155.2-.425.233-.54.494-.863-.357-2.021-1.1-3.18-.023,2.093-.453,2.76.589,4.365.94-.408.822.238,1.356,1.028,1.994-.581.713-1.606.758-2.419,1.128,1.147.527,1.948.195,2.718,1.061-4.154-.039-6.661-.416-11.611.283.131-.53.426-.807.961-.725-.314-.591-2.471-.282-2.989.268-1.014-1.842-3.491-.528-5.129-2.095a3.29,3.29,0,0,1,3.34-1.047c.377-.449.642-1.065,1.194-1.245.329-.811-.894.159-.882-.142-.379.678-1.93,1.212-3.184,1.39-.3-.094.023-.535-.381-.574.994-.99,1.3-.334,2.8-.554.187-1.2-1.841.631-1.911-.72.962-1.417,2.855-.762,3.948-.988-1.635-1.066-6.224.064-8.694-.527-1.312.56-2.856.42-4.088.73.543.327,1.393-.575,1.176.082-.4.019-.319.27-.234.519-.453.045-.751.317-1.342.147.109-.244.218-.486.326-.728a2.644,2.644,0,0,0-2.056,2.463c1.4.673,1.272,2.181,4.205,2.01-2.584,2.177-4.5-1.36-5.895-1.083-.721.919,1.437.258.342,1.385.908-.226,1.644-.094,1.855.455-.7-.131-1.424-.265-2.148-.391a1.158,1.158,0,0,1,.1-.352c-.3.089-.6.159-.888.221a21.01,21.01,0,0,0-6.255-.313c-.054.008-.179.515-.23.52-.134.008-1.525-.874-1.035.175-1.715-1.094-4.615-.938-6.938-1.329a2.224,2.224,0,0,1-1.2-.8c-1.214-.195-.108.367-.768,1.011-.451-.051-.882-.112-1.316-.169a.477.477,0,0,0,.153-.453c-.563.058-1.113.145-1.651.238-4.145-.642-7.63-1.508-11.24-1.722-.024-1.769-3.32-2.172-4.819-2.068-3.812.261-7.534-2.647-10.3-1.219-2.856-1.928-7.94-.237-11.146-.761-.712,1.309-.083,1.88.066,2.714,2.819.754,5.994.154,6.583,1.689-4.856.058-7.605,2.544-11.735,2.708-.434.21-.524.949-1.268.7a2.343,2.343,0,0,0-.151.671,7.581,7.581,0,0,0-3.452.464,1.056,1.056,0,0,1-.7-.018A12.926,12.926,0,0,0,44.376,37c-.07.016,4.219.1,10.772.207a1.914,1.914,0,0,0,.983.975c-1.48-.226-2.553.41-5.367.584,1.271.463-1.514,1.05.452,1.126-.618.578-2.1,0-2.029-.457-1.478.232-1.492.712-2.8.553-.338.763-1.686.944-1.31,1.5-.564-.017-.5-.379-1.11-.372-.4.612.309.614-.271,1.329,2.176-.338,3.292-2.285,5.564-2.463-.425.949-1.966.211-2.227,1.417.742-.082.215.537.686.6a9.054,9.054,0,0,1-3.594,2.063,4.382,4.382,0,0,1-.656-.313.64.64,0,0,1-.339.435.3.3,0,0,0-.152.127,6.851,6.851,0,0,1-3.465-.362c-1.732.781-.66.946-1.465,2.571.409.037.817.076,1.227.113-.718.25-1.16.673-.041.807-1.1,1.388-2.734,1.963-4.15,2.866.14,1.668-7.073,6.1-1.982,6.583-.125.8,1.871,1.45,1.45,1.756,2.1.762-20.538.338-26.385,1.307-3.491-.216-5.326-.271-3.707,0-.294.57-1.347-.011-1.954.092l.014.022a3.327,3.327,0,0,0,2.583.943c1.067.009,2.255.023,3.36.028,1.093,1.066.7,3.441,3.829,2.995.153-.347.308-.695.461-1.039,2.53.779,5.223-.732,8.034-1.058a1.243,1.243,0,0,1,.293.3,1.14,1.14,0,0,0,.939.264c.579-.056.929.012.969.287.02.134.219.257.474.318-2.014,1-4.685,1.015-5.852,3.308.473.069,1.224-.016,1.107.374-.1.865-1.161.273-1.575.668-.182.61.554.671,1.109.372a2.342,2.342,0,0,0-.567.745c-.246-.051-.495-.1-.731-.161a.531.531,0,0,1-.122.381l.76.071c-.207,1.156,1.495,1.912.106,3.787,1.246-.093,2.383-.323,1.8.975,1.627-.28,3.151-.089,2.6,1.323,3.722.037,6.023-4.129,9.209-3.48a2.169,2.169,0,0,0,.275-.182c.8.067,1.514.118,2.075.15a6.855,6.855,0,0,0-1.681-.478l.058-.05c3.66.517,3.453.63,1.623.528a5.986,5.986,0,0,1,1.373.807c.117-.264.231-.521.35-.783a15.14,15.14,0,0,0,2.812.649c-.175.2-.494.3-1.176.154-.395.543.215.537.682.606a1.792,1.792,0,0,0-.652.753c-.375-.538-.03-.5-1.107-.375-.113.557-.516.669-.77,1.013.381.93-1.34,2.367-2.766,1.909.425,1.188-1.517,1.882-2.577,2.2-.069.557.232.6.8.344-2.662,3.755-8.3,1.776-13.223,1.757a.611.611,0,0,1,.535-.493,15.709,15.709,0,0,0-3.907.183c-.34-.075-.05-.5.041-.807Zm169.454,52.9a1.483,1.483,0,0,1,.873.132c-.319-.048-.613-.094-.873-.132M172,146.326a49.134,49.134,0,0,1-5.544-1.03c.286-.075.572-.151.851-.239.4-.613-1.461.015-.571-.867.547-.469,2.238.46,3.1-.523.7.27-.489.316-.73.777-.148-.02-.284-.037-.394-.046-.1,1.3,3.341.654,3.285,1.928m3.217-5.412a5.441,5.441,0,0,1-5.442.04c.72-.651,2-.465,2.914-.812.318-.766-.912-.679-.223-1.648-2.689.258-.9-1.26-2.526-.775a2.006,2.006,0,0,1,1.46-.405c-.38-.774-2.271-.718-3.754-.887.878-1.57,1.021.385,2.874,0,.041-.321-.287-.441-.271-.749.685.419,1.754.628,1.712,1.449.344.165.711-1.279-.149-1.1a1.927,1.927,0,0,1,.675-.874c.729-.156,1.426-.315,2.108-.472a1.548,1.548,0,0,1,1.05.615c-.184.3-.654.167-1.033.174.457.4.206,1.194.948,1.443.289-.866,1.07-1.315,2.155-1.969.677.677,3.468.193,4.057.915-.7.683-2.693-.589-2.914.816,1.8-.811,2.082.058,2.832.8.2-1.421,5.315-.765,4.978,1,1.018.269,2.314-1.269,2.258-.062.876-.855,2.389-.739,3.834-.727-.084.451-.458.47-.845.465.2.934,4.01-1.573,4.29.393a.611.611,0,0,1,.54-.492c.3.3-.321.417.263.839.994-.146.52-.36.772-1.012a7.669,7.669,0,0,0,1.945,2.071,1.826,1.826,0,0,1,2-.9c-1.208.565-.715,1.007.014,1.053l0,0c.683.344.9.943,1.258,1.469,1.948-1.255,2.648-.388,4.637-.383a.718.718,0,0,1,.113-.739,5.007,5.007,0,0,1,2.973.527.677.677,0,0,1-.211.206c.12-.034.232-.079.346-.123a1.485,1.485,0,0,1,.86,1.341c-.109.5,1.575.114,1.956-.091.679,0,.12.675.462.859-.613.036-1.261.108-1.923.186a36.734,36.734,0,0,1-4.215-.485c.457-.91,2.018-.143,2.419-1.131-1.826.217-.492-1.3-2.405-1.035-.091.311.459.272.8.347a6.646,6.646,0,0,1-3.292,1.586,3.08,3.08,0,0,1-.679-.9c-2.1,1.247-6.046-.125-8.508-.242-.145.538.6.586.456,1.122-1.772.022-1.048-.581-1.068-1.179-1.168.437-1,.2-2.565.033-1.014,1.4-2.491-.088-3.951.988-.226-.071-.19-.288-.5-.317.219-.829,1.1-.661,1.689-.924-2.638.143-7.2-.494-10.31.941-.529-.233-.346-.855-.762-1.154-1.1,1.438-2.339-.5-2.187.611-.858-.555-1.93-.691-2.367-1.841-1.627-.3.668,1.021-.962.723-.3.558,1.034.217,1.418.4m31.854,1.88c.276.462,1.017.668,1.81.848a5.85,5.85,0,0,1-2.7-.526,6.277,6.277,0,0,0,.89-.322M41.729,70.275c-.044.015-.087.027-.131.04.056-.019.1-.033.131-.041h0m130.237,64.986a1.875,1.875,0,0,1-.347.476c-.511.05-.679-.087-.787-.257q.582-.106,1.133-.218M32.385,70.627c1.9.293,2.287.449-.356.293.116-.1.233-.2.356-.293m.292-1.169c1.335-1.088,3.6-.783,5.2-1.458a4.6,4.6,0,0,1,1.948.64q.115-.26.23-.521c.527.018,1.046.031,1.568.047a7.106,7.106,0,0,0,2.249.064l.726.019c-.09,1.151-2.159.068-1.49,1.074A1.531,1.531,0,0,0,42,68.948c-.575.292-.7,1.261-1.5,1.214-.066.178-.019.27.085.31-1.217.041-2.254-.349-3.032.393-.44-.348-1.338-.444-.644-1.416-.378.01-.468.452-.654.752a16.5,16.5,0,0,0-3.581-.745m69.512-31.526,2.157.029c-.927.187-1.76.329-2.157-.029M115,38.091a3.116,3.116,0,0,0,.1.475,1.93,1.93,0,0,1-1.558-.284,1.046,1.046,0,0,0-.809-.121c-.944.256-1.789.659-2.737.908-.728.04-.722-.322-.694-.7.018-.267-.8-.411-1.049-.184a2.479,2.479,0,0,1-.6.39c.073-.355-.58-.313-.665-.582,3.185.041,5.921.074,8.011.095m462.787,69.753c.043-.015.087-.027.13-.04l-.13.041h0M450.064,33.627a1.482,1.482,0,0,1-.873-.132c.319.048.613.094.873.132m-2.545-1.835a49.127,49.127,0,0,1,5.542,1.03c-.285.075-.572.151-.849.239-.4.613,1.459-.015.57.867-.547.469-2.237-.46-3.1.523-.7-.271.489-.316.73-.777.148.02.285.037.394.046.1-1.3-3.342-.655-3.284-1.928m.032,11.065a1.892,1.892,0,0,1,.346-.476c.512-.05.679.087.787.257-.387.07-.767.143-1.132.218m-2.628.58a1.552,1.552,0,0,1-1.051-.615c.184-.3.656-.167,1.034-.174-.458-.4-.207-1.194-.951-1.443-.287.865-1.069,1.315-2.153,1.968-.677-.676-3.469-.192-4.058-.914.7-.683,2.694.589,2.915-.816-1.8.811-2.082-.058-2.832-.8-.2,1.421-5.315.765-4.978-1-1.018-.269-2.314,1.269-2.259.062-.875.855-2.389.739-3.833.727.083-.451.459-.47.844-.465-.2-.934-4.011,1.573-4.289-.393a.609.609,0,0,1-.539.492c-.305-.3.32-.417-.264-.839-.993.146-.519.36-.771,1.013a7.646,7.646,0,0,0-1.946-2.072,1.825,1.825,0,0,1-1.995.9c1.208-.565.714-1.007-.014-1.053l0,0c-.683-.344-.9-.943-1.257-1.469-1.948,1.255-2.648.388-4.637.383a.722.722,0,0,1-.113.74,5.015,5.015,0,0,1-2.973-.528.661.661,0,0,1,.212-.206c-.121.034-.232.079-.348.123a1.484,1.484,0,0,1-.859-1.342c.108-.5-1.575-.113-1.956.092-.68,0-.121-.675-.462-.859.613-.036,1.26-.108,1.922-.186a36.681,36.681,0,0,1,4.215.485c-.456.91-2.017.142-2.419,1.131,1.826-.217.492,1.3,2.405,1.035.091-.311-.459-.272-.8-.347a6.656,6.656,0,0,1,3.292-1.587,3.1,3.1,0,0,1,.679.9c2.1-1.247,6.045.125,8.508.242.144-.538-.6-.586-.456-1.122,1.772-.022,1.048.581,1.068,1.179,1.168-.436,1-.2,2.565-.033,1.014-1.4,2.491.088,3.952-.988.224.071.189.288.494.317-.217.829-1.1.661-1.688.924,2.638-.143,7.2.494,10.309-.941.531.232.346.855.763,1.154,1.1-1.438,2.34.5,2.187-.611.858.555,1.93.691,2.367,1.841,1.628.3-.669-1.02.961-.723.3-.558-1.034-.217-1.417-.4a5.441,5.441,0,0,1,5.442-.04c-.721.651-2,.465-2.916.812-.316.766.913.679.224,1.648,2.69-.258.9,1.26,2.526.775a2,2,0,0,1-1.458.405c.379.774,2.269.718,3.752.887-.878,1.57-1.019-.386-2.874,0-.04.321.288.441.272.749-.685-.42-1.754-.628-1.712-1.449-.345-.165-.711,1.279.149,1.1a1.926,1.926,0,0,1-.675.874c-.729.156-1.426.315-2.108.472m-32.475-8.113c-.277-.462-1.018-.668-1.81-.848a5.85,5.85,0,0,1,2.7.526,6.228,6.228,0,0,0-.89.322m23.2-4.087a.618.618,0,0,1-.536.492c1.783.042,7.2-.311,7.117,1.2.612.052.707-.671,1.459-.408.548.073.424.517.2,1.014.615-.491,2.154-.437,3.661-.264-1.118.155-2.472.352-3.738.43.025-.055.053-.111.077-.165a.829.829,0,0,0-.156.169c-1.607.092-3.05-.018-3.623-.676-1.146.333.262.884.034,1.359-.96-.717-2.693-1.012-4.132-1.467-.759.083.19.441-.654.752q-1.036-.023-.575-.863c-.511.677-2.285.761-1.917,1.445a11.493,11.493,0,0,0-2.909-1.35c-.042.351.36.457.265.839-1.72-1.383-4.35-.606-6.083-1.375-.035.214.19.288.07.548-5.729-.731-9.224-.249-14.091-1.3.01.58.343.991,1.49.945-1.007.83-2.211.693-3.455.425a1.9,1.9,0,0,1,.255-.745c-2.283.882-2.551-.882-3.711-1.692-1.821,1.01,1.178,1.045,1.141,1.728a1.194,1.194,0,0,1-.254.246c-.111,0-.223-.009-.332-.006a.793.793,0,0,0-.228.049c-.517-.257-1.017-1.124-1.942-.542-.846-.517,1.329-.736.582-1.3-2.818-.117-7.164.724-9.312-.586.254-.345.865-.145,1.345-.147-.666-.527-.568-.388-.456-1.124-.251.289-1.622.163-.612-.059-.523-.519-2.827.958-3.6.212a.933.933,0,0,1-.039.805l-1.224-.113a1.345,1.345,0,0,1,.84-.461c-5.026.134-10.749-1.14-15.779-.375-.72-.07.427-.7.839-.462-.073-.641-1.935-.369-2.258.06-1.92-1.388-3.621-.263-6.085-1.374-1.088,1.77-3.948-.239-4.258.961-1.579.114.681-1.152-.149-1.1-.886-.117-4.043-.512-5.091-.741.153-.347.309-.693.466-1.04-1.195-.155-.083.411-.963.726-.334-1.026-2.729.6-2.716-1.062-.7.086-.828.341-.655.75-.429-.242-1.751-.982-.644-1.414.4-.612-1.458.013-.572-.865-.631.14-.255.469-.346.777-2-.805-5.123-.384-7.122-1.195.174.4.045.664-.657.751.269-.621-1.326-1.214-.221-1.645a1.644,1.644,0,0,0-1.722-.43c-.194-.247.084-.662.388-1.588,1.467.326,3.677.783,2.673,1.871.6.021.6-.839,1.267-.7,1.187.624,1.82,1.612,4.818,2.07.136-.6-1.7-.119-1.18-.924.668-.032,3.389.492,3.518,1.405a2.749,2.749,0,0,1,1.383-.95c1.1,1.02,4.055-.4,4.438,1.489.633-.057,1.019-.487,1.764-.378.72.182-.627.715-1.151.434,1.452,1.43,5.1-1.208,6.056.019.994-.088-.045-.585.462-1.042,1.178.643,1.625.5,3.137.831-1.545.5-1.93.194-3.716.472.971.978,3.75-.236,4.788.711.009-.334-.158-.572-.691-.6,2.112-.295.925.727,2.918-.817,1.078-.133.763.5,1.3.662-.636.7-1.266-.192-1.837-.17a3.426,3.426,0,0,1,.649,1.412,6.172,6.172,0,0,1,3.756-1.276c.38.119-.036.674-.158,1.069.6.18.75-.32.963-.726,3.559,1.7,8.983,1.263,13.744,2.083,2.991.512,6.322,1.463,8.655,1.337,1.768-.095,4.824,1.7,6.127.566,5.884.161,10.241,1.091,15.015,1.382.042-.35-.36-.455-.267-.833.2-.571,1.141-.019,1.647-.12,0,.875-1.081.109-1.076.984,2.07.713,6.95.551,9.382,1.136.183-.494-.933-.273-.572-.865,1.517-.126.426,1.83,2.1,1,.13-.463-.264-.639-.992-.632,1.5-.859,2.89.782,3.675.34m9.727-2.867a.526.526,0,0,1-.547.455c-.923-.12-1.873-.215-2.885-.256-.016.4.158.7.145,1.1a14.087,14.087,0,0,1-2.861-2.16c-.14.323-1.059.479-1.917.386a6.075,6.075,0,0,1,2.17-.607c-.405,1.4,3.408.761,5.4.768.229.07.19.288.5.316m3.512,1.118c-1-.175-1.988-.355-2.991-.511,1.283-.165,2.866-.658,2.991.511m138.249,78c-1.9-.293-2.286-.449.357-.293-.115.1-.233.2-.357.293m-.291,1.169c-1.335,1.088-3.594.783-5.2,1.458a4.585,4.585,0,0,1-1.946-.64c-.078.173-.155.348-.231.521-.527-.018-1.045-.032-1.568-.048a7.135,7.135,0,0,0-2.25-.063l-.724-.019c.088-1.151,2.159-.068,1.489-1.074a1.532,1.532,0,0,0,1.11.374c.575-.292.7-1.261,1.5-1.214.065-.178.018-.27-.086-.311,1.217-.041,2.254.35,3.032-.392.44.348,1.338.444.645,1.416.378-.01.468-.451.653-.752a16.519,16.519,0,0,0,3.582.745m-69.512,31.526-2.157-.029c.928-.187,1.76-.329,2.157.029m-12.813-.159a3.117,3.117,0,0,0-.1-.475,1.934,1.934,0,0,1,1.557.283,1.043,1.043,0,0,0,.81.122c.943-.256,1.789-.659,2.736-.909.728-.039.721.323.7.7-.02.267.8.411,1.048.184a2.43,2.43,0,0,1,.6-.39c-.073.355.58.313.664.582-3.183-.041-5.92-.074-8.011-.095m-320.641,6.853a.615.615,0,0,1,.535-.492c-1.783-.042-7.2.311-7.117-1.2-.611-.052-.708.671-1.459.408-.549-.073-.425-.517-.2-1.014-.616.491-2.155.437-3.66.264,1.116-.155,2.471-.352,3.737-.43-.026.055-.053.111-.077.165a.8.8,0,0,0,.155-.169c1.608-.092,3.051.018,3.625.676,1.144-.333-.263-.884-.035-1.359.96.717,2.694,1.012,4.133,1.467.758-.083-.19-.441.652-.752.692.016.882.3.575.863.512-.677,2.286-.761,1.919-1.445a11.5,11.5,0,0,0,2.906,1.35c.045-.351-.358-.458-.263-.839,1.72,1.384,4.35.606,6.084,1.375.034-.214-.192-.288-.072-.549,5.729.732,9.224.25,14.092,1.3-.01-.581-.344-.992-1.492-.946,1.008-.831,2.212-.693,3.457-.425a1.89,1.89,0,0,1-.255.745c2.284-.882,2.553.882,3.712,1.692,1.821-1.01-1.178-1.045-1.141-1.727a1.2,1.2,0,0,1,.253-.247c.111,0,.224.009.333.006a.8.8,0,0,0,.228-.049c.516.257,1.016,1.124,1.942.542.844.517-1.329.736-.582,1.3,2.818.117,7.164-.724,9.311.586-.253.345-.865.145-1.344.147.665.527.568.388.456,1.124.25-.289,1.622-.162.612.059.523.519,2.826-.958,3.6-.212a.937.937,0,0,1,.04-.805l1.223.113a1.338,1.338,0,0,1-.84.461c5.026-.134,10.75,1.14,15.78.375.72.07-.428.7-.839.462.073.641,1.936.369,2.258-.06,1.92,1.388,3.621.263,6.085,1.373,1.088-1.769,3.947.24,4.258-.96,1.579-.114-.681,1.152.148,1.1.886.117,4.044.512,5.092.741-.154.347-.309.693-.466,1.039,1.194.156.083-.41.962-.725.333,1.026,2.73-.6,2.717,1.062.7-.086.828-.341.655-.75.428.242,1.75.982.644,1.413-.4.612,1.459-.012.573.866.631-.14.255-.469.346-.777,2,.805,5.123.384,7.122,1.195-.175-.4-.045-.664.655-.751-.267.621,1.327,1.214.222,1.645a1.648,1.648,0,0,0,1.723.43c.193.247-.085.662-.389,1.588-1.467-.326-3.677-.783-2.672-1.872-.6-.021-.6.839-1.267.7-1.188-.624-1.82-1.612-4.819-2.07-.136.6,1.7.119,1.18.924-.668.032-3.389-.492-3.517-1.4a2.754,2.754,0,0,1-1.383.95c-1.1-1.02-4.055.4-4.439-1.489-.633.057-1.019.487-1.762.378-.721-.182.627-.715,1.15-.434-1.451-1.43-5.1,1.208-6.055-.019-.994.087.045.585-.462,1.042-1.178-.643-1.625-.5-3.138-.831,1.546-.5,1.931-.194,3.717-.472-.972-.978-3.751.236-4.788-.711-.009.334.158.572.692.6-2.113.294-.925-.728-2.918.816-1.077.133-.763-.5-1.3-.662.636-.7,1.265.192,1.836.17a3.437,3.437,0,0,1-.648-1.412,6.171,6.171,0,0,1-3.756,1.276c-.379-.119.036-.674.159-1.069-.605-.18-.752.32-.964.726-3.559-1.7-8.982-1.263-13.744-2.083-2.991-.512-6.322-1.463-8.655-1.338-1.767.095-4.825-1.7-6.129-.566-5.883-.161-10.239-1.091-15.013-1.382-.042.35.36.455.266.833-.2.571-1.14.019-1.647.12,0-.875,1.081-.109,1.076-.984-2.07-.713-6.949-.551-9.381-1.136-.183.494.932.273.572.865-1.517.126-.426-1.83-2.1-1-.13.463.264.639.993.632-1.5.859-2.89-.782-3.675-.339m-9.729,2.867a.528.528,0,0,1,.548-.455c.922.121,1.872.215,2.883.256.016-.4-.158-.7-.145-1.1a14.06,14.06,0,0,1,2.861,2.16c.14-.323,1.059-.479,1.918-.386a6.081,6.081,0,0,1-2.171.607c.405-1.4-3.408-.761-5.4-.768-.229-.07-.191-.288-.5-.316m-3.511-1.118c1,.175,1.987.355,2.993.511-1.285.165-2.869.657-2.993-.511" transform="translate(0)" fill="#008700"/>
      </g>
    </g>
    <g id="Group_2088" data-name="Group 2088" transform="translate(233.455 2824.441)">
      <g id="Group_2087" data-name="Group 2087" transform="translate(0)" clip-path="url(#clip-path-2)">
        <text id="What_is_CBD_" data-name="What is CBD?" transform="translate(0 61.247)" fill="#fff" font-size="72" font-family="DancingScript-Regular, Dancing Script"><tspan x="0" y="0" letter-spacing="-0.014em">W</tspan><tspan y="0">hat is C</tspan><tspan y="0" letter-spacing="-0.017em">B</tspan><tspan y="0" letter-spacing="-0.012em">D</tspan><tspan y="0">?</tspan></text>
      </g>
    </g>
  </g>
</svg>
