<svg xmlns="http://www.w3.org/2000/svg" width="267" height="267" fill-rule="evenodd" stroke-linejoin="round" stroke-miterlimit="2" clip-rule="evenodd"><path d="M40.28 191.164L226.387 191.164C228.686 191.164 230.554 189.297 230.554 186.997 230.554 184.698 228.686 182.831 226.387 182.831L40.28 182.831C37.98 182.831 36.113 184.698 36.113 186.997 36.113 189.297 37.98 191.164 40.28 191.164zM45.273 216.3C52.414 214.888 59.54 211.985 66.681 211.985 69.993 211.985 73.293 213.028 76.605 214.01 80.699 215.225 84.805 216.38 88.899 216.38 92.993 216.38 97.098 215.225 101.192 214.01 104.504 213.028 107.804 211.985 111.116 211.985 114.428 211.985 117.728 213.028 121.04 214.01 125.134 215.225 129.239 216.38 133.333 216.38 137.427 216.38 141.533 215.225 145.627 214.01 148.939 213.028 152.239 211.985 155.551 211.985 158.863 211.985 162.162 213.028 165.474 214.01 169.568 215.225 173.674 216.38 177.768 216.38 181.862 216.38 185.968 215.225 190.062 214.01 193.374 213.028 196.673 211.985 199.985 211.985 207.127 211.985 214.253 214.888 221.394 216.3 223.65 216.747 225.844 215.277 226.29 213.021 226.736 210.765 225.267 208.572 223.011 208.125 215.341 206.608 207.655 203.652 199.985 203.652 195.891 203.652 191.786 204.807 187.692 206.021 184.38 207.004 181.08 208.046 177.768 208.046 174.456 208.046 171.156 207.004 167.844 206.021 163.75 204.807 159.645 203.652 155.551 203.652 151.457 203.652 147.351 204.807 143.257 206.021 139.945 207.004 136.645 208.046 133.333 208.046 130.021 208.046 126.722 207.004 123.41 206.021 119.316 204.807 115.21 203.652 111.116 203.652 107.022 203.652 102.916 204.807 98.822 206.021 95.51 207.004 92.211 208.046 88.899 208.046 85.587 208.046 82.287 207.004 78.975 206.021 74.881 204.807 70.775 203.652 66.681 203.652 59.011 203.652 51.326 206.608 43.656 208.125 41.4 208.572 39.93 210.765 40.377 213.021 40.823 215.277 43.017 216.747 45.273 216.3zM61.461 235.153L81.85 235.153C84.149 235.153 86.016 233.286 86.016 230.986 86.016 228.686 84.149 226.819 81.85 226.819L61.461 226.819C59.162 226.819 57.295 228.686 57.295 230.986 57.295 233.286 59.162 235.153 61.461 235.153zM102.58 235.153L122.968 235.153C125.268 235.153 127.135 233.286 127.135 230.986 127.135 228.686 125.268 226.819 122.968 226.819L102.58 226.819C100.28 226.819 98.413 228.686 98.413 230.986 98.413 233.286 100.28 235.153 102.58 235.153zM143.699 235.153L164.087 235.153C166.386 235.153 168.253 233.286 168.253 230.986 168.253 228.686 166.386 226.819 164.087 226.819L143.699 226.819C141.399 226.819 139.532 228.686 139.532 230.986 139.532 233.286 141.399 235.153 143.699 235.153zM184.817 235.153L205.205 235.153C207.505 235.153 209.372 233.286 209.372 230.986 209.372 228.686 207.505 226.819 205.205 226.819L184.817 226.819C182.517 226.819 180.65 228.686 180.65 230.986 180.65 233.286 182.517 235.153 184.817 235.153zM88.417 54.851L77.661 83.919C77.661 83.919 48.593 94.675 48.593 94.675 45.786 95.714 43.922 98.391 43.922 101.384 43.922 104.378 45.786 107.055 48.593 108.093 48.593 108.093 77.661 118.849 77.661 118.849 77.661 118.849 88.417 147.917 88.417 147.917 89.455 150.724 92.132 152.588 95.126 152.588 98.119 152.588 100.796 150.724 101.835 147.917 101.835 147.917 112.591 118.849 112.591 118.849 112.591 118.849 141.659 108.093 141.659 108.093 144.466 107.055 146.33 104.378 146.33 101.384 146.33 98.391 144.466 95.714 141.658 94.675 141.659 94.675 112.591 83.919 112.591 83.919 112.591 83.919 101.835 54.851 101.835 54.851 100.796 52.044 98.119 50.18 95.126 50.18 92.132 50.18 89.455 52.044 88.417 54.852L88.417 54.851zM95.126 60.733L105.441 88.608C105.863 89.748 106.762 90.647 107.902 91.069L135.777 101.384 107.902 111.699C106.762 112.121 105.863 113.02 105.441 114.161L95.126 142.036 84.811 114.161C84.389 113.02 83.49 112.121 82.349 111.699L54.474 101.384 82.349 91.069C83.49 90.647 84.389 89.748 84.811 88.608L95.126 60.733zM154.421 113.54L148.869 128.545 133.864 134.098C131.056 135.136 129.193 137.813 129.193 140.807 129.193 143.8 131.056 146.477 133.864 147.516L148.869 153.068 154.421 168.073C155.46 170.881 158.137 172.744 161.13 172.744 164.124 172.744 166.801 170.881 167.839 168.073L173.392 153.068 188.397 147.516C191.204 146.477 193.068 143.8 193.068 140.807 193.068 137.813 191.204 135.136 188.397 134.098L173.392 128.545 167.839 113.54C166.801 110.733 164.124 108.869 161.13 108.869 158.137 108.869 155.46 110.733 154.421 113.54zM161.13 119.422L166.241 133.234C166.663 134.375 167.562 135.274 168.703 135.696L182.515 140.807 168.703 145.918C167.562 146.34 166.663 147.239 166.241 148.38L161.13 162.192 156.019 148.38C155.597 147.239 154.698 146.34 153.557 145.918L139.745 140.807 153.557 135.696C154.698 135.274 155.597 134.375 156.019 133.234L161.13 119.422zM178.222 41.806L172.67 56.811 157.665 62.363C154.857 63.402 152.993 66.079 152.993 69.072 152.993 72.066 154.857 74.743 157.665 75.781L172.669 81.334 178.222 96.339C179.261 99.146 181.938 101.01 184.931 101.01 187.925 101.01 190.601 99.146 191.64 96.339L197.193 81.334 212.198 75.781C215.005 74.743 216.869 72.066 216.869 69.072 216.869 66.079 215.005 63.402 212.198 62.363L197.193 56.811 191.64 41.806C190.601 38.998 187.925 37.135 184.931 37.135 181.938 37.135 179.261 38.998 178.222 41.806zM184.931 47.687L190.042 61.499C190.464 62.64 191.363 63.539 192.504 63.961L206.316 69.072 192.504 74.183C191.363 74.605 190.464 75.505 190.042 76.645L184.931 90.457 179.82 76.645C179.398 75.505 178.499 74.605 177.358 74.183L163.546 69.072 177.358 63.961C178.499 63.539 179.398 62.64 179.82 61.499L184.931 47.687z"/></svg>